%TF.GenerationSoftware,KiCad,Pcbnew,8.0.1*%
%TF.CreationDate,2024-04-29T00:58:12+02:00*%
%TF.ProjectId,Blinky,426c696e-6b79-42e6-9b69-6361645f7063,rev?*%
%TF.SameCoordinates,Original*%
%TF.FileFunction,Drillmap*%
%TF.FilePolarity,Positive*%
%FSLAX45Y45*%
G04 Gerber Fmt 4.5, Leading zero omitted, Abs format (unit mm)*
G04 Created by KiCad (PCBNEW 8.0.1) date 2024-04-29 00:58:12*
%MOMM*%
%LPD*%
G01*
G04 APERTURE LIST*
%ADD10C,0.100000*%
%ADD11C,0.200000*%
%ADD12C,0.320000*%
G04 APERTURE END LIST*
D10*
X12500000Y-4450000D02*
X16970000Y-4449992D01*
X13710000Y-10900000D02*
X15400000Y-10900000D01*
X16970000Y-4449992D02*
X16970000Y-10910000D01*
X12500000Y-10900000D02*
X12500000Y-4450000D01*
X16970000Y-10910000D02*
X15400000Y-10900000D01*
X13400000Y-10900000D02*
X13710000Y-10900000D01*
X13400000Y-10900000D02*
X12500000Y-10900000D01*
D11*
D10*
X16297501Y-10695233D02*
X16382499Y-10780231D01*
X16382499Y-10695233D02*
X16297501Y-10780231D01*
X16597501Y-10695233D02*
X16682499Y-10780231D01*
X16682499Y-10695233D02*
X16597501Y-10780231D01*
D12*
X12920000Y-6830000D02*
G75*
G02*
X12600000Y-6830000I-160000J0D01*
G01*
X12600000Y-6830000D02*
G75*
G02*
X12920000Y-6830000I160000J0D01*
G01*
X16850000Y-4720000D02*
G75*
G02*
X16530000Y-4720000I-160000J0D01*
G01*
X16530000Y-4720000D02*
G75*
G02*
X16850000Y-4720000I160000J0D01*
G01*
X16910000Y-9650000D02*
G75*
G02*
X16590000Y-9650000I-160000J0D01*
G01*
X16590000Y-9650000D02*
G75*
G02*
X16910000Y-9650000I160000J0D01*
G01*
D11*
X12755777Y-11226484D02*
X12755777Y-11026484D01*
X12755777Y-11026484D02*
X12803396Y-11026484D01*
X12803396Y-11026484D02*
X12831967Y-11036008D01*
X12831967Y-11036008D02*
X12851015Y-11055055D01*
X12851015Y-11055055D02*
X12860539Y-11074103D01*
X12860539Y-11074103D02*
X12870062Y-11112198D01*
X12870062Y-11112198D02*
X12870062Y-11140770D01*
X12870062Y-11140770D02*
X12860539Y-11178865D01*
X12860539Y-11178865D02*
X12851015Y-11197912D01*
X12851015Y-11197912D02*
X12831967Y-11216960D01*
X12831967Y-11216960D02*
X12803396Y-11226484D01*
X12803396Y-11226484D02*
X12755777Y-11226484D01*
X12955777Y-11226484D02*
X12955777Y-11093150D01*
X12955777Y-11131246D02*
X12965301Y-11112198D01*
X12965301Y-11112198D02*
X12974824Y-11102674D01*
X12974824Y-11102674D02*
X12993872Y-11093150D01*
X12993872Y-11093150D02*
X13012920Y-11093150D01*
X13079586Y-11226484D02*
X13079586Y-11093150D01*
X13079586Y-11026484D02*
X13070062Y-11036008D01*
X13070062Y-11036008D02*
X13079586Y-11045531D01*
X13079586Y-11045531D02*
X13089110Y-11036008D01*
X13089110Y-11036008D02*
X13079586Y-11026484D01*
X13079586Y-11026484D02*
X13079586Y-11045531D01*
X13203396Y-11226484D02*
X13184348Y-11216960D01*
X13184348Y-11216960D02*
X13174824Y-11197912D01*
X13174824Y-11197912D02*
X13174824Y-11026484D01*
X13308158Y-11226484D02*
X13289110Y-11216960D01*
X13289110Y-11216960D02*
X13279586Y-11197912D01*
X13279586Y-11197912D02*
X13279586Y-11026484D01*
X13536729Y-11226484D02*
X13536729Y-11026484D01*
X13536729Y-11026484D02*
X13603396Y-11169341D01*
X13603396Y-11169341D02*
X13670062Y-11026484D01*
X13670062Y-11026484D02*
X13670062Y-11226484D01*
X13851015Y-11226484D02*
X13851015Y-11121722D01*
X13851015Y-11121722D02*
X13841491Y-11102674D01*
X13841491Y-11102674D02*
X13822443Y-11093150D01*
X13822443Y-11093150D02*
X13784348Y-11093150D01*
X13784348Y-11093150D02*
X13765301Y-11102674D01*
X13851015Y-11216960D02*
X13831967Y-11226484D01*
X13831967Y-11226484D02*
X13784348Y-11226484D01*
X13784348Y-11226484D02*
X13765301Y-11216960D01*
X13765301Y-11216960D02*
X13755777Y-11197912D01*
X13755777Y-11197912D02*
X13755777Y-11178865D01*
X13755777Y-11178865D02*
X13765301Y-11159817D01*
X13765301Y-11159817D02*
X13784348Y-11150293D01*
X13784348Y-11150293D02*
X13831967Y-11150293D01*
X13831967Y-11150293D02*
X13851015Y-11140770D01*
X13946253Y-11093150D02*
X13946253Y-11293150D01*
X13946253Y-11102674D02*
X13965301Y-11093150D01*
X13965301Y-11093150D02*
X14003396Y-11093150D01*
X14003396Y-11093150D02*
X14022443Y-11102674D01*
X14022443Y-11102674D02*
X14031967Y-11112198D01*
X14031967Y-11112198D02*
X14041491Y-11131246D01*
X14041491Y-11131246D02*
X14041491Y-11188388D01*
X14041491Y-11188388D02*
X14031967Y-11207436D01*
X14031967Y-11207436D02*
X14022443Y-11216960D01*
X14022443Y-11216960D02*
X14003396Y-11226484D01*
X14003396Y-11226484D02*
X13965301Y-11226484D01*
X13965301Y-11226484D02*
X13946253Y-11216960D01*
X14127205Y-11207436D02*
X14136729Y-11216960D01*
X14136729Y-11216960D02*
X14127205Y-11226484D01*
X14127205Y-11226484D02*
X14117682Y-11216960D01*
X14117682Y-11216960D02*
X14127205Y-11207436D01*
X14127205Y-11207436D02*
X14127205Y-11226484D01*
X14127205Y-11102674D02*
X14136729Y-11112198D01*
X14136729Y-11112198D02*
X14127205Y-11121722D01*
X14127205Y-11121722D02*
X14117682Y-11112198D01*
X14117682Y-11112198D02*
X14127205Y-11102674D01*
X14127205Y-11102674D02*
X14127205Y-11121722D01*
D10*
X12410001Y-11512501D02*
X12495000Y-11597499D01*
X12495000Y-11512501D02*
X12410001Y-11597499D01*
D11*
X12793872Y-11446484D02*
X12812920Y-11446484D01*
X12812920Y-11446484D02*
X12831967Y-11456008D01*
X12831967Y-11456008D02*
X12841491Y-11465531D01*
X12841491Y-11465531D02*
X12851015Y-11484579D01*
X12851015Y-11484579D02*
X12860539Y-11522674D01*
X12860539Y-11522674D02*
X12860539Y-11570293D01*
X12860539Y-11570293D02*
X12851015Y-11608388D01*
X12851015Y-11608388D02*
X12841491Y-11627436D01*
X12841491Y-11627436D02*
X12831967Y-11636960D01*
X12831967Y-11636960D02*
X12812920Y-11646484D01*
X12812920Y-11646484D02*
X12793872Y-11646484D01*
X12793872Y-11646484D02*
X12774824Y-11636960D01*
X12774824Y-11636960D02*
X12765301Y-11627436D01*
X12765301Y-11627436D02*
X12755777Y-11608388D01*
X12755777Y-11608388D02*
X12746253Y-11570293D01*
X12746253Y-11570293D02*
X12746253Y-11522674D01*
X12746253Y-11522674D02*
X12755777Y-11484579D01*
X12755777Y-11484579D02*
X12765301Y-11465531D01*
X12765301Y-11465531D02*
X12774824Y-11456008D01*
X12774824Y-11456008D02*
X12793872Y-11446484D01*
X12946253Y-11627436D02*
X12955777Y-11636960D01*
X12955777Y-11636960D02*
X12946253Y-11646484D01*
X12946253Y-11646484D02*
X12936729Y-11636960D01*
X12936729Y-11636960D02*
X12946253Y-11627436D01*
X12946253Y-11627436D02*
X12946253Y-11646484D01*
X13070062Y-11532198D02*
X13051015Y-11522674D01*
X13051015Y-11522674D02*
X13041491Y-11513150D01*
X13041491Y-11513150D02*
X13031967Y-11494103D01*
X13031967Y-11494103D02*
X13031967Y-11484579D01*
X13031967Y-11484579D02*
X13041491Y-11465531D01*
X13041491Y-11465531D02*
X13051015Y-11456008D01*
X13051015Y-11456008D02*
X13070062Y-11446484D01*
X13070062Y-11446484D02*
X13108158Y-11446484D01*
X13108158Y-11446484D02*
X13127205Y-11456008D01*
X13127205Y-11456008D02*
X13136729Y-11465531D01*
X13136729Y-11465531D02*
X13146253Y-11484579D01*
X13146253Y-11484579D02*
X13146253Y-11494103D01*
X13146253Y-11494103D02*
X13136729Y-11513150D01*
X13136729Y-11513150D02*
X13127205Y-11522674D01*
X13127205Y-11522674D02*
X13108158Y-11532198D01*
X13108158Y-11532198D02*
X13070062Y-11532198D01*
X13070062Y-11532198D02*
X13051015Y-11541722D01*
X13051015Y-11541722D02*
X13041491Y-11551246D01*
X13041491Y-11551246D02*
X13031967Y-11570293D01*
X13031967Y-11570293D02*
X13031967Y-11608388D01*
X13031967Y-11608388D02*
X13041491Y-11627436D01*
X13041491Y-11627436D02*
X13051015Y-11636960D01*
X13051015Y-11636960D02*
X13070062Y-11646484D01*
X13070062Y-11646484D02*
X13108158Y-11646484D01*
X13108158Y-11646484D02*
X13127205Y-11636960D01*
X13127205Y-11636960D02*
X13136729Y-11627436D01*
X13136729Y-11627436D02*
X13146253Y-11608388D01*
X13146253Y-11608388D02*
X13146253Y-11570293D01*
X13146253Y-11570293D02*
X13136729Y-11551246D01*
X13136729Y-11551246D02*
X13127205Y-11541722D01*
X13127205Y-11541722D02*
X13108158Y-11532198D01*
X13327205Y-11446484D02*
X13231967Y-11446484D01*
X13231967Y-11446484D02*
X13222443Y-11541722D01*
X13222443Y-11541722D02*
X13231967Y-11532198D01*
X13231967Y-11532198D02*
X13251015Y-11522674D01*
X13251015Y-11522674D02*
X13298634Y-11522674D01*
X13298634Y-11522674D02*
X13317682Y-11532198D01*
X13317682Y-11532198D02*
X13327205Y-11541722D01*
X13327205Y-11541722D02*
X13336729Y-11560769D01*
X13336729Y-11560769D02*
X13336729Y-11608388D01*
X13336729Y-11608388D02*
X13327205Y-11627436D01*
X13327205Y-11627436D02*
X13317682Y-11636960D01*
X13317682Y-11636960D02*
X13298634Y-11646484D01*
X13298634Y-11646484D02*
X13251015Y-11646484D01*
X13251015Y-11646484D02*
X13231967Y-11636960D01*
X13231967Y-11636960D02*
X13222443Y-11627436D01*
X13460539Y-11446484D02*
X13479586Y-11446484D01*
X13479586Y-11446484D02*
X13498634Y-11456008D01*
X13498634Y-11456008D02*
X13508158Y-11465531D01*
X13508158Y-11465531D02*
X13517682Y-11484579D01*
X13517682Y-11484579D02*
X13527205Y-11522674D01*
X13527205Y-11522674D02*
X13527205Y-11570293D01*
X13527205Y-11570293D02*
X13517682Y-11608388D01*
X13517682Y-11608388D02*
X13508158Y-11627436D01*
X13508158Y-11627436D02*
X13498634Y-11636960D01*
X13498634Y-11636960D02*
X13479586Y-11646484D01*
X13479586Y-11646484D02*
X13460539Y-11646484D01*
X13460539Y-11646484D02*
X13441491Y-11636960D01*
X13441491Y-11636960D02*
X13431967Y-11627436D01*
X13431967Y-11627436D02*
X13422443Y-11608388D01*
X13422443Y-11608388D02*
X13412920Y-11570293D01*
X13412920Y-11570293D02*
X13412920Y-11522674D01*
X13412920Y-11522674D02*
X13422443Y-11484579D01*
X13422443Y-11484579D02*
X13431967Y-11465531D01*
X13431967Y-11465531D02*
X13441491Y-11456008D01*
X13441491Y-11456008D02*
X13460539Y-11446484D01*
X13612920Y-11646484D02*
X13612920Y-11513150D01*
X13612920Y-11532198D02*
X13622443Y-11522674D01*
X13622443Y-11522674D02*
X13641491Y-11513150D01*
X13641491Y-11513150D02*
X13670063Y-11513150D01*
X13670063Y-11513150D02*
X13689110Y-11522674D01*
X13689110Y-11522674D02*
X13698634Y-11541722D01*
X13698634Y-11541722D02*
X13698634Y-11646484D01*
X13698634Y-11541722D02*
X13708158Y-11522674D01*
X13708158Y-11522674D02*
X13727205Y-11513150D01*
X13727205Y-11513150D02*
X13755777Y-11513150D01*
X13755777Y-11513150D02*
X13774824Y-11522674D01*
X13774824Y-11522674D02*
X13784348Y-11541722D01*
X13784348Y-11541722D02*
X13784348Y-11646484D01*
X13879586Y-11646484D02*
X13879586Y-11513150D01*
X13879586Y-11532198D02*
X13889110Y-11522674D01*
X13889110Y-11522674D02*
X13908158Y-11513150D01*
X13908158Y-11513150D02*
X13936729Y-11513150D01*
X13936729Y-11513150D02*
X13955777Y-11522674D01*
X13955777Y-11522674D02*
X13965301Y-11541722D01*
X13965301Y-11541722D02*
X13965301Y-11646484D01*
X13965301Y-11541722D02*
X13974824Y-11522674D01*
X13974824Y-11522674D02*
X13993872Y-11513150D01*
X13993872Y-11513150D02*
X14022443Y-11513150D01*
X14022443Y-11513150D02*
X14041491Y-11522674D01*
X14041491Y-11522674D02*
X14051015Y-11541722D01*
X14051015Y-11541722D02*
X14051015Y-11646484D01*
X14441491Y-11436960D02*
X14270063Y-11694103D01*
X14698634Y-11446484D02*
X14717682Y-11446484D01*
X14717682Y-11446484D02*
X14736729Y-11456008D01*
X14736729Y-11456008D02*
X14746253Y-11465531D01*
X14746253Y-11465531D02*
X14755777Y-11484579D01*
X14755777Y-11484579D02*
X14765301Y-11522674D01*
X14765301Y-11522674D02*
X14765301Y-11570293D01*
X14765301Y-11570293D02*
X14755777Y-11608388D01*
X14755777Y-11608388D02*
X14746253Y-11627436D01*
X14746253Y-11627436D02*
X14736729Y-11636960D01*
X14736729Y-11636960D02*
X14717682Y-11646484D01*
X14717682Y-11646484D02*
X14698634Y-11646484D01*
X14698634Y-11646484D02*
X14679586Y-11636960D01*
X14679586Y-11636960D02*
X14670063Y-11627436D01*
X14670063Y-11627436D02*
X14660539Y-11608388D01*
X14660539Y-11608388D02*
X14651015Y-11570293D01*
X14651015Y-11570293D02*
X14651015Y-11522674D01*
X14651015Y-11522674D02*
X14660539Y-11484579D01*
X14660539Y-11484579D02*
X14670063Y-11465531D01*
X14670063Y-11465531D02*
X14679586Y-11456008D01*
X14679586Y-11456008D02*
X14698634Y-11446484D01*
X14851015Y-11627436D02*
X14860539Y-11636960D01*
X14860539Y-11636960D02*
X14851015Y-11646484D01*
X14851015Y-11646484D02*
X14841491Y-11636960D01*
X14841491Y-11636960D02*
X14851015Y-11627436D01*
X14851015Y-11627436D02*
X14851015Y-11646484D01*
X14984348Y-11446484D02*
X15003396Y-11446484D01*
X15003396Y-11446484D02*
X15022444Y-11456008D01*
X15022444Y-11456008D02*
X15031967Y-11465531D01*
X15031967Y-11465531D02*
X15041491Y-11484579D01*
X15041491Y-11484579D02*
X15051015Y-11522674D01*
X15051015Y-11522674D02*
X15051015Y-11570293D01*
X15051015Y-11570293D02*
X15041491Y-11608388D01*
X15041491Y-11608388D02*
X15031967Y-11627436D01*
X15031967Y-11627436D02*
X15022444Y-11636960D01*
X15022444Y-11636960D02*
X15003396Y-11646484D01*
X15003396Y-11646484D02*
X14984348Y-11646484D01*
X14984348Y-11646484D02*
X14965301Y-11636960D01*
X14965301Y-11636960D02*
X14955777Y-11627436D01*
X14955777Y-11627436D02*
X14946253Y-11608388D01*
X14946253Y-11608388D02*
X14936729Y-11570293D01*
X14936729Y-11570293D02*
X14936729Y-11522674D01*
X14936729Y-11522674D02*
X14946253Y-11484579D01*
X14946253Y-11484579D02*
X14955777Y-11465531D01*
X14955777Y-11465531D02*
X14965301Y-11456008D01*
X14965301Y-11456008D02*
X14984348Y-11446484D01*
X15117682Y-11446484D02*
X15241491Y-11446484D01*
X15241491Y-11446484D02*
X15174825Y-11522674D01*
X15174825Y-11522674D02*
X15203396Y-11522674D01*
X15203396Y-11522674D02*
X15222444Y-11532198D01*
X15222444Y-11532198D02*
X15231967Y-11541722D01*
X15231967Y-11541722D02*
X15241491Y-11560769D01*
X15241491Y-11560769D02*
X15241491Y-11608388D01*
X15241491Y-11608388D02*
X15231967Y-11627436D01*
X15231967Y-11627436D02*
X15222444Y-11636960D01*
X15222444Y-11636960D02*
X15203396Y-11646484D01*
X15203396Y-11646484D02*
X15146253Y-11646484D01*
X15146253Y-11646484D02*
X15127206Y-11636960D01*
X15127206Y-11636960D02*
X15117682Y-11627436D01*
X15308158Y-11446484D02*
X15431967Y-11446484D01*
X15431967Y-11446484D02*
X15365301Y-11522674D01*
X15365301Y-11522674D02*
X15393872Y-11522674D01*
X15393872Y-11522674D02*
X15412920Y-11532198D01*
X15412920Y-11532198D02*
X15422444Y-11541722D01*
X15422444Y-11541722D02*
X15431967Y-11560769D01*
X15431967Y-11560769D02*
X15431967Y-11608388D01*
X15431967Y-11608388D02*
X15422444Y-11627436D01*
X15422444Y-11627436D02*
X15412920Y-11636960D01*
X15412920Y-11636960D02*
X15393872Y-11646484D01*
X15393872Y-11646484D02*
X15336729Y-11646484D01*
X15336729Y-11646484D02*
X15317682Y-11636960D01*
X15317682Y-11636960D02*
X15308158Y-11627436D01*
X15612920Y-11446484D02*
X15517682Y-11446484D01*
X15517682Y-11446484D02*
X15508158Y-11541722D01*
X15508158Y-11541722D02*
X15517682Y-11532198D01*
X15517682Y-11532198D02*
X15536729Y-11522674D01*
X15536729Y-11522674D02*
X15584348Y-11522674D01*
X15584348Y-11522674D02*
X15603396Y-11532198D01*
X15603396Y-11532198D02*
X15612920Y-11541722D01*
X15612920Y-11541722D02*
X15622444Y-11560769D01*
X15622444Y-11560769D02*
X15622444Y-11608388D01*
X15622444Y-11608388D02*
X15612920Y-11627436D01*
X15612920Y-11627436D02*
X15603396Y-11636960D01*
X15603396Y-11636960D02*
X15584348Y-11646484D01*
X15584348Y-11646484D02*
X15536729Y-11646484D01*
X15536729Y-11646484D02*
X15517682Y-11636960D01*
X15517682Y-11636960D02*
X15508158Y-11627436D01*
X15698634Y-11446484D02*
X15698634Y-11484579D01*
X15774825Y-11446484D02*
X15774825Y-11484579D01*
X16070063Y-11722674D02*
X16060539Y-11713150D01*
X16060539Y-11713150D02*
X16041491Y-11684579D01*
X16041491Y-11684579D02*
X16031968Y-11665531D01*
X16031968Y-11665531D02*
X16022444Y-11636960D01*
X16022444Y-11636960D02*
X16012920Y-11589341D01*
X16012920Y-11589341D02*
X16012920Y-11551246D01*
X16012920Y-11551246D02*
X16022444Y-11503627D01*
X16022444Y-11503627D02*
X16031968Y-11475055D01*
X16031968Y-11475055D02*
X16041491Y-11456008D01*
X16041491Y-11456008D02*
X16060539Y-11427436D01*
X16060539Y-11427436D02*
X16070063Y-11417912D01*
X16136729Y-11465531D02*
X16146253Y-11456008D01*
X16146253Y-11456008D02*
X16165301Y-11446484D01*
X16165301Y-11446484D02*
X16212920Y-11446484D01*
X16212920Y-11446484D02*
X16231968Y-11456008D01*
X16231968Y-11456008D02*
X16241491Y-11465531D01*
X16241491Y-11465531D02*
X16251015Y-11484579D01*
X16251015Y-11484579D02*
X16251015Y-11503627D01*
X16251015Y-11503627D02*
X16241491Y-11532198D01*
X16241491Y-11532198D02*
X16127206Y-11646484D01*
X16127206Y-11646484D02*
X16251015Y-11646484D01*
X16489110Y-11646484D02*
X16489110Y-11446484D01*
X16574825Y-11646484D02*
X16574825Y-11541722D01*
X16574825Y-11541722D02*
X16565301Y-11522674D01*
X16565301Y-11522674D02*
X16546253Y-11513150D01*
X16546253Y-11513150D02*
X16517682Y-11513150D01*
X16517682Y-11513150D02*
X16498634Y-11522674D01*
X16498634Y-11522674D02*
X16489110Y-11532198D01*
X16698634Y-11646484D02*
X16679587Y-11636960D01*
X16679587Y-11636960D02*
X16670063Y-11627436D01*
X16670063Y-11627436D02*
X16660539Y-11608388D01*
X16660539Y-11608388D02*
X16660539Y-11551246D01*
X16660539Y-11551246D02*
X16670063Y-11532198D01*
X16670063Y-11532198D02*
X16679587Y-11522674D01*
X16679587Y-11522674D02*
X16698634Y-11513150D01*
X16698634Y-11513150D02*
X16727206Y-11513150D01*
X16727206Y-11513150D02*
X16746253Y-11522674D01*
X16746253Y-11522674D02*
X16755777Y-11532198D01*
X16755777Y-11532198D02*
X16765301Y-11551246D01*
X16765301Y-11551246D02*
X16765301Y-11608388D01*
X16765301Y-11608388D02*
X16755777Y-11627436D01*
X16755777Y-11627436D02*
X16746253Y-11636960D01*
X16746253Y-11636960D02*
X16727206Y-11646484D01*
X16727206Y-11646484D02*
X16698634Y-11646484D01*
X16879587Y-11646484D02*
X16860539Y-11636960D01*
X16860539Y-11636960D02*
X16851015Y-11617912D01*
X16851015Y-11617912D02*
X16851015Y-11446484D01*
X17031968Y-11636960D02*
X17012920Y-11646484D01*
X17012920Y-11646484D02*
X16974825Y-11646484D01*
X16974825Y-11646484D02*
X16955777Y-11636960D01*
X16955777Y-11636960D02*
X16946253Y-11617912D01*
X16946253Y-11617912D02*
X16946253Y-11541722D01*
X16946253Y-11541722D02*
X16955777Y-11522674D01*
X16955777Y-11522674D02*
X16974825Y-11513150D01*
X16974825Y-11513150D02*
X17012920Y-11513150D01*
X17012920Y-11513150D02*
X17031968Y-11522674D01*
X17031968Y-11522674D02*
X17041492Y-11541722D01*
X17041492Y-11541722D02*
X17041492Y-11560769D01*
X17041492Y-11560769D02*
X16946253Y-11579817D01*
X17117682Y-11636960D02*
X17136730Y-11646484D01*
X17136730Y-11646484D02*
X17174825Y-11646484D01*
X17174825Y-11646484D02*
X17193873Y-11636960D01*
X17193873Y-11636960D02*
X17203396Y-11617912D01*
X17203396Y-11617912D02*
X17203396Y-11608388D01*
X17203396Y-11608388D02*
X17193873Y-11589341D01*
X17193873Y-11589341D02*
X17174825Y-11579817D01*
X17174825Y-11579817D02*
X17146253Y-11579817D01*
X17146253Y-11579817D02*
X17127206Y-11570293D01*
X17127206Y-11570293D02*
X17117682Y-11551246D01*
X17117682Y-11551246D02*
X17117682Y-11541722D01*
X17117682Y-11541722D02*
X17127206Y-11522674D01*
X17127206Y-11522674D02*
X17146253Y-11513150D01*
X17146253Y-11513150D02*
X17174825Y-11513150D01*
X17174825Y-11513150D02*
X17193873Y-11522674D01*
X17270063Y-11722674D02*
X17279587Y-11713150D01*
X17279587Y-11713150D02*
X17298634Y-11684579D01*
X17298634Y-11684579D02*
X17308158Y-11665531D01*
X17308158Y-11665531D02*
X17317682Y-11636960D01*
X17317682Y-11636960D02*
X17327206Y-11589341D01*
X17327206Y-11589341D02*
X17327206Y-11551246D01*
X17327206Y-11551246D02*
X17317682Y-11503627D01*
X17317682Y-11503627D02*
X17308158Y-11475055D01*
X17308158Y-11475055D02*
X17298634Y-11456008D01*
X17298634Y-11456008D02*
X17279587Y-11427436D01*
X17279587Y-11427436D02*
X17270063Y-11417912D01*
X17631968Y-11722674D02*
X17622444Y-11713150D01*
X17622444Y-11713150D02*
X17603396Y-11684579D01*
X17603396Y-11684579D02*
X17593873Y-11665531D01*
X17593873Y-11665531D02*
X17584349Y-11636960D01*
X17584349Y-11636960D02*
X17574825Y-11589341D01*
X17574825Y-11589341D02*
X17574825Y-11551246D01*
X17574825Y-11551246D02*
X17584349Y-11503627D01*
X17584349Y-11503627D02*
X17593873Y-11475055D01*
X17593873Y-11475055D02*
X17603396Y-11456008D01*
X17603396Y-11456008D02*
X17622444Y-11427436D01*
X17622444Y-11427436D02*
X17631968Y-11417912D01*
X17708158Y-11513150D02*
X17708158Y-11646484D01*
X17708158Y-11532198D02*
X17717682Y-11522674D01*
X17717682Y-11522674D02*
X17736730Y-11513150D01*
X17736730Y-11513150D02*
X17765301Y-11513150D01*
X17765301Y-11513150D02*
X17784349Y-11522674D01*
X17784349Y-11522674D02*
X17793873Y-11541722D01*
X17793873Y-11541722D02*
X17793873Y-11646484D01*
X17917682Y-11646484D02*
X17898634Y-11636960D01*
X17898634Y-11636960D02*
X17889111Y-11627436D01*
X17889111Y-11627436D02*
X17879587Y-11608388D01*
X17879587Y-11608388D02*
X17879587Y-11551246D01*
X17879587Y-11551246D02*
X17889111Y-11532198D01*
X17889111Y-11532198D02*
X17898634Y-11522674D01*
X17898634Y-11522674D02*
X17917682Y-11513150D01*
X17917682Y-11513150D02*
X17946254Y-11513150D01*
X17946254Y-11513150D02*
X17965301Y-11522674D01*
X17965301Y-11522674D02*
X17974825Y-11532198D01*
X17974825Y-11532198D02*
X17984349Y-11551246D01*
X17984349Y-11551246D02*
X17984349Y-11608388D01*
X17984349Y-11608388D02*
X17974825Y-11627436D01*
X17974825Y-11627436D02*
X17965301Y-11636960D01*
X17965301Y-11636960D02*
X17946254Y-11646484D01*
X17946254Y-11646484D02*
X17917682Y-11646484D01*
X18041492Y-11513150D02*
X18117682Y-11513150D01*
X18070063Y-11446484D02*
X18070063Y-11617912D01*
X18070063Y-11617912D02*
X18079587Y-11636960D01*
X18079587Y-11636960D02*
X18098634Y-11646484D01*
X18098634Y-11646484D02*
X18117682Y-11646484D01*
X18336730Y-11513150D02*
X18336730Y-11713150D01*
X18336730Y-11522674D02*
X18355777Y-11513150D01*
X18355777Y-11513150D02*
X18393873Y-11513150D01*
X18393873Y-11513150D02*
X18412920Y-11522674D01*
X18412920Y-11522674D02*
X18422444Y-11532198D01*
X18422444Y-11532198D02*
X18431968Y-11551246D01*
X18431968Y-11551246D02*
X18431968Y-11608388D01*
X18431968Y-11608388D02*
X18422444Y-11627436D01*
X18422444Y-11627436D02*
X18412920Y-11636960D01*
X18412920Y-11636960D02*
X18393873Y-11646484D01*
X18393873Y-11646484D02*
X18355777Y-11646484D01*
X18355777Y-11646484D02*
X18336730Y-11636960D01*
X18546254Y-11646484D02*
X18527206Y-11636960D01*
X18527206Y-11636960D02*
X18517682Y-11617912D01*
X18517682Y-11617912D02*
X18517682Y-11446484D01*
X18708158Y-11646484D02*
X18708158Y-11541722D01*
X18708158Y-11541722D02*
X18698635Y-11522674D01*
X18698635Y-11522674D02*
X18679587Y-11513150D01*
X18679587Y-11513150D02*
X18641492Y-11513150D01*
X18641492Y-11513150D02*
X18622444Y-11522674D01*
X18708158Y-11636960D02*
X18689111Y-11646484D01*
X18689111Y-11646484D02*
X18641492Y-11646484D01*
X18641492Y-11646484D02*
X18622444Y-11636960D01*
X18622444Y-11636960D02*
X18612920Y-11617912D01*
X18612920Y-11617912D02*
X18612920Y-11598865D01*
X18612920Y-11598865D02*
X18622444Y-11579817D01*
X18622444Y-11579817D02*
X18641492Y-11570293D01*
X18641492Y-11570293D02*
X18689111Y-11570293D01*
X18689111Y-11570293D02*
X18708158Y-11560769D01*
X18774825Y-11513150D02*
X18851015Y-11513150D01*
X18803396Y-11446484D02*
X18803396Y-11617912D01*
X18803396Y-11617912D02*
X18812920Y-11636960D01*
X18812920Y-11636960D02*
X18831968Y-11646484D01*
X18831968Y-11646484D02*
X18851015Y-11646484D01*
X18993873Y-11636960D02*
X18974825Y-11646484D01*
X18974825Y-11646484D02*
X18936730Y-11646484D01*
X18936730Y-11646484D02*
X18917682Y-11636960D01*
X18917682Y-11636960D02*
X18908158Y-11617912D01*
X18908158Y-11617912D02*
X18908158Y-11541722D01*
X18908158Y-11541722D02*
X18917682Y-11522674D01*
X18917682Y-11522674D02*
X18936730Y-11513150D01*
X18936730Y-11513150D02*
X18974825Y-11513150D01*
X18974825Y-11513150D02*
X18993873Y-11522674D01*
X18993873Y-11522674D02*
X19003396Y-11541722D01*
X19003396Y-11541722D02*
X19003396Y-11560769D01*
X19003396Y-11560769D02*
X18908158Y-11579817D01*
X19174825Y-11646484D02*
X19174825Y-11446484D01*
X19174825Y-11636960D02*
X19155777Y-11646484D01*
X19155777Y-11646484D02*
X19117682Y-11646484D01*
X19117682Y-11646484D02*
X19098635Y-11636960D01*
X19098635Y-11636960D02*
X19089111Y-11627436D01*
X19089111Y-11627436D02*
X19079587Y-11608388D01*
X19079587Y-11608388D02*
X19079587Y-11551246D01*
X19079587Y-11551246D02*
X19089111Y-11532198D01*
X19089111Y-11532198D02*
X19098635Y-11522674D01*
X19098635Y-11522674D02*
X19117682Y-11513150D01*
X19117682Y-11513150D02*
X19155777Y-11513150D01*
X19155777Y-11513150D02*
X19174825Y-11522674D01*
X19251016Y-11722674D02*
X19260539Y-11713150D01*
X19260539Y-11713150D02*
X19279587Y-11684579D01*
X19279587Y-11684579D02*
X19289111Y-11665531D01*
X19289111Y-11665531D02*
X19298635Y-11636960D01*
X19298635Y-11636960D02*
X19308158Y-11589341D01*
X19308158Y-11589341D02*
X19308158Y-11551246D01*
X19308158Y-11551246D02*
X19298635Y-11503627D01*
X19298635Y-11503627D02*
X19289111Y-11475055D01*
X19289111Y-11475055D02*
X19279587Y-11456008D01*
X19279587Y-11456008D02*
X19260539Y-11427436D01*
X19260539Y-11427436D02*
X19251016Y-11417912D01*
X12495000Y-11819000D02*
G75*
G02*
X12295000Y-11819000I-100000J0D01*
G01*
X12295000Y-11819000D02*
G75*
G02*
X12495000Y-11819000I100000J0D01*
G01*
X12736729Y-11710484D02*
X12860539Y-11710484D01*
X12860539Y-11710484D02*
X12793872Y-11786674D01*
X12793872Y-11786674D02*
X12822443Y-11786674D01*
X12822443Y-11786674D02*
X12841491Y-11796198D01*
X12841491Y-11796198D02*
X12851015Y-11805722D01*
X12851015Y-11805722D02*
X12860539Y-11824769D01*
X12860539Y-11824769D02*
X12860539Y-11872388D01*
X12860539Y-11872388D02*
X12851015Y-11891436D01*
X12851015Y-11891436D02*
X12841491Y-11900960D01*
X12841491Y-11900960D02*
X12822443Y-11910484D01*
X12822443Y-11910484D02*
X12765301Y-11910484D01*
X12765301Y-11910484D02*
X12746253Y-11900960D01*
X12746253Y-11900960D02*
X12736729Y-11891436D01*
X12946253Y-11891436D02*
X12955777Y-11900960D01*
X12955777Y-11900960D02*
X12946253Y-11910484D01*
X12946253Y-11910484D02*
X12936729Y-11900960D01*
X12936729Y-11900960D02*
X12946253Y-11891436D01*
X12946253Y-11891436D02*
X12946253Y-11910484D01*
X13031967Y-11729531D02*
X13041491Y-11720008D01*
X13041491Y-11720008D02*
X13060539Y-11710484D01*
X13060539Y-11710484D02*
X13108158Y-11710484D01*
X13108158Y-11710484D02*
X13127205Y-11720008D01*
X13127205Y-11720008D02*
X13136729Y-11729531D01*
X13136729Y-11729531D02*
X13146253Y-11748579D01*
X13146253Y-11748579D02*
X13146253Y-11767627D01*
X13146253Y-11767627D02*
X13136729Y-11796198D01*
X13136729Y-11796198D02*
X13022443Y-11910484D01*
X13022443Y-11910484D02*
X13146253Y-11910484D01*
X13270062Y-11710484D02*
X13289110Y-11710484D01*
X13289110Y-11710484D02*
X13308158Y-11720008D01*
X13308158Y-11720008D02*
X13317682Y-11729531D01*
X13317682Y-11729531D02*
X13327205Y-11748579D01*
X13327205Y-11748579D02*
X13336729Y-11786674D01*
X13336729Y-11786674D02*
X13336729Y-11834293D01*
X13336729Y-11834293D02*
X13327205Y-11872388D01*
X13327205Y-11872388D02*
X13317682Y-11891436D01*
X13317682Y-11891436D02*
X13308158Y-11900960D01*
X13308158Y-11900960D02*
X13289110Y-11910484D01*
X13289110Y-11910484D02*
X13270062Y-11910484D01*
X13270062Y-11910484D02*
X13251015Y-11900960D01*
X13251015Y-11900960D02*
X13241491Y-11891436D01*
X13241491Y-11891436D02*
X13231967Y-11872388D01*
X13231967Y-11872388D02*
X13222443Y-11834293D01*
X13222443Y-11834293D02*
X13222443Y-11786674D01*
X13222443Y-11786674D02*
X13231967Y-11748579D01*
X13231967Y-11748579D02*
X13241491Y-11729531D01*
X13241491Y-11729531D02*
X13251015Y-11720008D01*
X13251015Y-11720008D02*
X13270062Y-11710484D01*
X13460539Y-11710484D02*
X13479586Y-11710484D01*
X13479586Y-11710484D02*
X13498634Y-11720008D01*
X13498634Y-11720008D02*
X13508158Y-11729531D01*
X13508158Y-11729531D02*
X13517682Y-11748579D01*
X13517682Y-11748579D02*
X13527205Y-11786674D01*
X13527205Y-11786674D02*
X13527205Y-11834293D01*
X13527205Y-11834293D02*
X13517682Y-11872388D01*
X13517682Y-11872388D02*
X13508158Y-11891436D01*
X13508158Y-11891436D02*
X13498634Y-11900960D01*
X13498634Y-11900960D02*
X13479586Y-11910484D01*
X13479586Y-11910484D02*
X13460539Y-11910484D01*
X13460539Y-11910484D02*
X13441491Y-11900960D01*
X13441491Y-11900960D02*
X13431967Y-11891436D01*
X13431967Y-11891436D02*
X13422443Y-11872388D01*
X13422443Y-11872388D02*
X13412920Y-11834293D01*
X13412920Y-11834293D02*
X13412920Y-11786674D01*
X13412920Y-11786674D02*
X13422443Y-11748579D01*
X13422443Y-11748579D02*
X13431967Y-11729531D01*
X13431967Y-11729531D02*
X13441491Y-11720008D01*
X13441491Y-11720008D02*
X13460539Y-11710484D01*
X13612920Y-11910484D02*
X13612920Y-11777150D01*
X13612920Y-11796198D02*
X13622443Y-11786674D01*
X13622443Y-11786674D02*
X13641491Y-11777150D01*
X13641491Y-11777150D02*
X13670063Y-11777150D01*
X13670063Y-11777150D02*
X13689110Y-11786674D01*
X13689110Y-11786674D02*
X13698634Y-11805722D01*
X13698634Y-11805722D02*
X13698634Y-11910484D01*
X13698634Y-11805722D02*
X13708158Y-11786674D01*
X13708158Y-11786674D02*
X13727205Y-11777150D01*
X13727205Y-11777150D02*
X13755777Y-11777150D01*
X13755777Y-11777150D02*
X13774824Y-11786674D01*
X13774824Y-11786674D02*
X13784348Y-11805722D01*
X13784348Y-11805722D02*
X13784348Y-11910484D01*
X13879586Y-11910484D02*
X13879586Y-11777150D01*
X13879586Y-11796198D02*
X13889110Y-11786674D01*
X13889110Y-11786674D02*
X13908158Y-11777150D01*
X13908158Y-11777150D02*
X13936729Y-11777150D01*
X13936729Y-11777150D02*
X13955777Y-11786674D01*
X13955777Y-11786674D02*
X13965301Y-11805722D01*
X13965301Y-11805722D02*
X13965301Y-11910484D01*
X13965301Y-11805722D02*
X13974824Y-11786674D01*
X13974824Y-11786674D02*
X13993872Y-11777150D01*
X13993872Y-11777150D02*
X14022443Y-11777150D01*
X14022443Y-11777150D02*
X14041491Y-11786674D01*
X14041491Y-11786674D02*
X14051015Y-11805722D01*
X14051015Y-11805722D02*
X14051015Y-11910484D01*
X14441491Y-11700960D02*
X14270063Y-11958103D01*
X14698634Y-11710484D02*
X14717682Y-11710484D01*
X14717682Y-11710484D02*
X14736729Y-11720008D01*
X14736729Y-11720008D02*
X14746253Y-11729531D01*
X14746253Y-11729531D02*
X14755777Y-11748579D01*
X14755777Y-11748579D02*
X14765301Y-11786674D01*
X14765301Y-11786674D02*
X14765301Y-11834293D01*
X14765301Y-11834293D02*
X14755777Y-11872388D01*
X14755777Y-11872388D02*
X14746253Y-11891436D01*
X14746253Y-11891436D02*
X14736729Y-11900960D01*
X14736729Y-11900960D02*
X14717682Y-11910484D01*
X14717682Y-11910484D02*
X14698634Y-11910484D01*
X14698634Y-11910484D02*
X14679586Y-11900960D01*
X14679586Y-11900960D02*
X14670063Y-11891436D01*
X14670063Y-11891436D02*
X14660539Y-11872388D01*
X14660539Y-11872388D02*
X14651015Y-11834293D01*
X14651015Y-11834293D02*
X14651015Y-11786674D01*
X14651015Y-11786674D02*
X14660539Y-11748579D01*
X14660539Y-11748579D02*
X14670063Y-11729531D01*
X14670063Y-11729531D02*
X14679586Y-11720008D01*
X14679586Y-11720008D02*
X14698634Y-11710484D01*
X14851015Y-11891436D02*
X14860539Y-11900960D01*
X14860539Y-11900960D02*
X14851015Y-11910484D01*
X14851015Y-11910484D02*
X14841491Y-11900960D01*
X14841491Y-11900960D02*
X14851015Y-11891436D01*
X14851015Y-11891436D02*
X14851015Y-11910484D01*
X15051015Y-11910484D02*
X14936729Y-11910484D01*
X14993872Y-11910484D02*
X14993872Y-11710484D01*
X14993872Y-11710484D02*
X14974825Y-11739055D01*
X14974825Y-11739055D02*
X14955777Y-11758103D01*
X14955777Y-11758103D02*
X14936729Y-11767627D01*
X15127206Y-11729531D02*
X15136729Y-11720008D01*
X15136729Y-11720008D02*
X15155777Y-11710484D01*
X15155777Y-11710484D02*
X15203396Y-11710484D01*
X15203396Y-11710484D02*
X15222444Y-11720008D01*
X15222444Y-11720008D02*
X15231967Y-11729531D01*
X15231967Y-11729531D02*
X15241491Y-11748579D01*
X15241491Y-11748579D02*
X15241491Y-11767627D01*
X15241491Y-11767627D02*
X15231967Y-11796198D01*
X15231967Y-11796198D02*
X15117682Y-11910484D01*
X15117682Y-11910484D02*
X15241491Y-11910484D01*
X15412920Y-11710484D02*
X15374825Y-11710484D01*
X15374825Y-11710484D02*
X15355777Y-11720008D01*
X15355777Y-11720008D02*
X15346253Y-11729531D01*
X15346253Y-11729531D02*
X15327206Y-11758103D01*
X15327206Y-11758103D02*
X15317682Y-11796198D01*
X15317682Y-11796198D02*
X15317682Y-11872388D01*
X15317682Y-11872388D02*
X15327206Y-11891436D01*
X15327206Y-11891436D02*
X15336729Y-11900960D01*
X15336729Y-11900960D02*
X15355777Y-11910484D01*
X15355777Y-11910484D02*
X15393872Y-11910484D01*
X15393872Y-11910484D02*
X15412920Y-11900960D01*
X15412920Y-11900960D02*
X15422444Y-11891436D01*
X15422444Y-11891436D02*
X15431967Y-11872388D01*
X15431967Y-11872388D02*
X15431967Y-11824769D01*
X15431967Y-11824769D02*
X15422444Y-11805722D01*
X15422444Y-11805722D02*
X15412920Y-11796198D01*
X15412920Y-11796198D02*
X15393872Y-11786674D01*
X15393872Y-11786674D02*
X15355777Y-11786674D01*
X15355777Y-11786674D02*
X15336729Y-11796198D01*
X15336729Y-11796198D02*
X15327206Y-11805722D01*
X15327206Y-11805722D02*
X15317682Y-11824769D01*
X15555777Y-11710484D02*
X15574825Y-11710484D01*
X15574825Y-11710484D02*
X15593872Y-11720008D01*
X15593872Y-11720008D02*
X15603396Y-11729531D01*
X15603396Y-11729531D02*
X15612920Y-11748579D01*
X15612920Y-11748579D02*
X15622444Y-11786674D01*
X15622444Y-11786674D02*
X15622444Y-11834293D01*
X15622444Y-11834293D02*
X15612920Y-11872388D01*
X15612920Y-11872388D02*
X15603396Y-11891436D01*
X15603396Y-11891436D02*
X15593872Y-11900960D01*
X15593872Y-11900960D02*
X15574825Y-11910484D01*
X15574825Y-11910484D02*
X15555777Y-11910484D01*
X15555777Y-11910484D02*
X15536729Y-11900960D01*
X15536729Y-11900960D02*
X15527206Y-11891436D01*
X15527206Y-11891436D02*
X15517682Y-11872388D01*
X15517682Y-11872388D02*
X15508158Y-11834293D01*
X15508158Y-11834293D02*
X15508158Y-11786674D01*
X15508158Y-11786674D02*
X15517682Y-11748579D01*
X15517682Y-11748579D02*
X15527206Y-11729531D01*
X15527206Y-11729531D02*
X15536729Y-11720008D01*
X15536729Y-11720008D02*
X15555777Y-11710484D01*
X15698634Y-11710484D02*
X15698634Y-11748579D01*
X15774825Y-11710484D02*
X15774825Y-11748579D01*
X16070063Y-11986674D02*
X16060539Y-11977150D01*
X16060539Y-11977150D02*
X16041491Y-11948579D01*
X16041491Y-11948579D02*
X16031968Y-11929531D01*
X16031968Y-11929531D02*
X16022444Y-11900960D01*
X16022444Y-11900960D02*
X16012920Y-11853341D01*
X16012920Y-11853341D02*
X16012920Y-11815246D01*
X16012920Y-11815246D02*
X16022444Y-11767627D01*
X16022444Y-11767627D02*
X16031968Y-11739055D01*
X16031968Y-11739055D02*
X16041491Y-11720008D01*
X16041491Y-11720008D02*
X16060539Y-11691436D01*
X16060539Y-11691436D02*
X16070063Y-11681912D01*
X16127206Y-11710484D02*
X16251015Y-11710484D01*
X16251015Y-11710484D02*
X16184348Y-11786674D01*
X16184348Y-11786674D02*
X16212920Y-11786674D01*
X16212920Y-11786674D02*
X16231968Y-11796198D01*
X16231968Y-11796198D02*
X16241491Y-11805722D01*
X16241491Y-11805722D02*
X16251015Y-11824769D01*
X16251015Y-11824769D02*
X16251015Y-11872388D01*
X16251015Y-11872388D02*
X16241491Y-11891436D01*
X16241491Y-11891436D02*
X16231968Y-11900960D01*
X16231968Y-11900960D02*
X16212920Y-11910484D01*
X16212920Y-11910484D02*
X16155777Y-11910484D01*
X16155777Y-11910484D02*
X16136729Y-11900960D01*
X16136729Y-11900960D02*
X16127206Y-11891436D01*
X16489110Y-11910484D02*
X16489110Y-11710484D01*
X16574825Y-11910484D02*
X16574825Y-11805722D01*
X16574825Y-11805722D02*
X16565301Y-11786674D01*
X16565301Y-11786674D02*
X16546253Y-11777150D01*
X16546253Y-11777150D02*
X16517682Y-11777150D01*
X16517682Y-11777150D02*
X16498634Y-11786674D01*
X16498634Y-11786674D02*
X16489110Y-11796198D01*
X16698634Y-11910484D02*
X16679587Y-11900960D01*
X16679587Y-11900960D02*
X16670063Y-11891436D01*
X16670063Y-11891436D02*
X16660539Y-11872388D01*
X16660539Y-11872388D02*
X16660539Y-11815246D01*
X16660539Y-11815246D02*
X16670063Y-11796198D01*
X16670063Y-11796198D02*
X16679587Y-11786674D01*
X16679587Y-11786674D02*
X16698634Y-11777150D01*
X16698634Y-11777150D02*
X16727206Y-11777150D01*
X16727206Y-11777150D02*
X16746253Y-11786674D01*
X16746253Y-11786674D02*
X16755777Y-11796198D01*
X16755777Y-11796198D02*
X16765301Y-11815246D01*
X16765301Y-11815246D02*
X16765301Y-11872388D01*
X16765301Y-11872388D02*
X16755777Y-11891436D01*
X16755777Y-11891436D02*
X16746253Y-11900960D01*
X16746253Y-11900960D02*
X16727206Y-11910484D01*
X16727206Y-11910484D02*
X16698634Y-11910484D01*
X16879587Y-11910484D02*
X16860539Y-11900960D01*
X16860539Y-11900960D02*
X16851015Y-11881912D01*
X16851015Y-11881912D02*
X16851015Y-11710484D01*
X17031968Y-11900960D02*
X17012920Y-11910484D01*
X17012920Y-11910484D02*
X16974825Y-11910484D01*
X16974825Y-11910484D02*
X16955777Y-11900960D01*
X16955777Y-11900960D02*
X16946253Y-11881912D01*
X16946253Y-11881912D02*
X16946253Y-11805722D01*
X16946253Y-11805722D02*
X16955777Y-11786674D01*
X16955777Y-11786674D02*
X16974825Y-11777150D01*
X16974825Y-11777150D02*
X17012920Y-11777150D01*
X17012920Y-11777150D02*
X17031968Y-11786674D01*
X17031968Y-11786674D02*
X17041492Y-11805722D01*
X17041492Y-11805722D02*
X17041492Y-11824769D01*
X17041492Y-11824769D02*
X16946253Y-11843817D01*
X17117682Y-11900960D02*
X17136730Y-11910484D01*
X17136730Y-11910484D02*
X17174825Y-11910484D01*
X17174825Y-11910484D02*
X17193873Y-11900960D01*
X17193873Y-11900960D02*
X17203396Y-11881912D01*
X17203396Y-11881912D02*
X17203396Y-11872388D01*
X17203396Y-11872388D02*
X17193873Y-11853341D01*
X17193873Y-11853341D02*
X17174825Y-11843817D01*
X17174825Y-11843817D02*
X17146253Y-11843817D01*
X17146253Y-11843817D02*
X17127206Y-11834293D01*
X17127206Y-11834293D02*
X17117682Y-11815246D01*
X17117682Y-11815246D02*
X17117682Y-11805722D01*
X17117682Y-11805722D02*
X17127206Y-11786674D01*
X17127206Y-11786674D02*
X17146253Y-11777150D01*
X17146253Y-11777150D02*
X17174825Y-11777150D01*
X17174825Y-11777150D02*
X17193873Y-11786674D01*
X17270063Y-11986674D02*
X17279587Y-11977150D01*
X17279587Y-11977150D02*
X17298634Y-11948579D01*
X17298634Y-11948579D02*
X17308158Y-11929531D01*
X17308158Y-11929531D02*
X17317682Y-11900960D01*
X17317682Y-11900960D02*
X17327206Y-11853341D01*
X17327206Y-11853341D02*
X17327206Y-11815246D01*
X17327206Y-11815246D02*
X17317682Y-11767627D01*
X17317682Y-11767627D02*
X17308158Y-11739055D01*
X17308158Y-11739055D02*
X17298634Y-11720008D01*
X17298634Y-11720008D02*
X17279587Y-11691436D01*
X17279587Y-11691436D02*
X17270063Y-11681912D01*
X17631968Y-11986674D02*
X17622444Y-11977150D01*
X17622444Y-11977150D02*
X17603396Y-11948579D01*
X17603396Y-11948579D02*
X17593873Y-11929531D01*
X17593873Y-11929531D02*
X17584349Y-11900960D01*
X17584349Y-11900960D02*
X17574825Y-11853341D01*
X17574825Y-11853341D02*
X17574825Y-11815246D01*
X17574825Y-11815246D02*
X17584349Y-11767627D01*
X17584349Y-11767627D02*
X17593873Y-11739055D01*
X17593873Y-11739055D02*
X17603396Y-11720008D01*
X17603396Y-11720008D02*
X17622444Y-11691436D01*
X17622444Y-11691436D02*
X17631968Y-11681912D01*
X17708158Y-11777150D02*
X17708158Y-11910484D01*
X17708158Y-11796198D02*
X17717682Y-11786674D01*
X17717682Y-11786674D02*
X17736730Y-11777150D01*
X17736730Y-11777150D02*
X17765301Y-11777150D01*
X17765301Y-11777150D02*
X17784349Y-11786674D01*
X17784349Y-11786674D02*
X17793873Y-11805722D01*
X17793873Y-11805722D02*
X17793873Y-11910484D01*
X17917682Y-11910484D02*
X17898634Y-11900960D01*
X17898634Y-11900960D02*
X17889111Y-11891436D01*
X17889111Y-11891436D02*
X17879587Y-11872388D01*
X17879587Y-11872388D02*
X17879587Y-11815246D01*
X17879587Y-11815246D02*
X17889111Y-11796198D01*
X17889111Y-11796198D02*
X17898634Y-11786674D01*
X17898634Y-11786674D02*
X17917682Y-11777150D01*
X17917682Y-11777150D02*
X17946254Y-11777150D01*
X17946254Y-11777150D02*
X17965301Y-11786674D01*
X17965301Y-11786674D02*
X17974825Y-11796198D01*
X17974825Y-11796198D02*
X17984349Y-11815246D01*
X17984349Y-11815246D02*
X17984349Y-11872388D01*
X17984349Y-11872388D02*
X17974825Y-11891436D01*
X17974825Y-11891436D02*
X17965301Y-11900960D01*
X17965301Y-11900960D02*
X17946254Y-11910484D01*
X17946254Y-11910484D02*
X17917682Y-11910484D01*
X18041492Y-11777150D02*
X18117682Y-11777150D01*
X18070063Y-11710484D02*
X18070063Y-11881912D01*
X18070063Y-11881912D02*
X18079587Y-11900960D01*
X18079587Y-11900960D02*
X18098634Y-11910484D01*
X18098634Y-11910484D02*
X18117682Y-11910484D01*
X18336730Y-11777150D02*
X18336730Y-11977150D01*
X18336730Y-11786674D02*
X18355777Y-11777150D01*
X18355777Y-11777150D02*
X18393873Y-11777150D01*
X18393873Y-11777150D02*
X18412920Y-11786674D01*
X18412920Y-11786674D02*
X18422444Y-11796198D01*
X18422444Y-11796198D02*
X18431968Y-11815246D01*
X18431968Y-11815246D02*
X18431968Y-11872388D01*
X18431968Y-11872388D02*
X18422444Y-11891436D01*
X18422444Y-11891436D02*
X18412920Y-11900960D01*
X18412920Y-11900960D02*
X18393873Y-11910484D01*
X18393873Y-11910484D02*
X18355777Y-11910484D01*
X18355777Y-11910484D02*
X18336730Y-11900960D01*
X18546254Y-11910484D02*
X18527206Y-11900960D01*
X18527206Y-11900960D02*
X18517682Y-11881912D01*
X18517682Y-11881912D02*
X18517682Y-11710484D01*
X18708158Y-11910484D02*
X18708158Y-11805722D01*
X18708158Y-11805722D02*
X18698635Y-11786674D01*
X18698635Y-11786674D02*
X18679587Y-11777150D01*
X18679587Y-11777150D02*
X18641492Y-11777150D01*
X18641492Y-11777150D02*
X18622444Y-11786674D01*
X18708158Y-11900960D02*
X18689111Y-11910484D01*
X18689111Y-11910484D02*
X18641492Y-11910484D01*
X18641492Y-11910484D02*
X18622444Y-11900960D01*
X18622444Y-11900960D02*
X18612920Y-11881912D01*
X18612920Y-11881912D02*
X18612920Y-11862865D01*
X18612920Y-11862865D02*
X18622444Y-11843817D01*
X18622444Y-11843817D02*
X18641492Y-11834293D01*
X18641492Y-11834293D02*
X18689111Y-11834293D01*
X18689111Y-11834293D02*
X18708158Y-11824769D01*
X18774825Y-11777150D02*
X18851015Y-11777150D01*
X18803396Y-11710484D02*
X18803396Y-11881912D01*
X18803396Y-11881912D02*
X18812920Y-11900960D01*
X18812920Y-11900960D02*
X18831968Y-11910484D01*
X18831968Y-11910484D02*
X18851015Y-11910484D01*
X18993873Y-11900960D02*
X18974825Y-11910484D01*
X18974825Y-11910484D02*
X18936730Y-11910484D01*
X18936730Y-11910484D02*
X18917682Y-11900960D01*
X18917682Y-11900960D02*
X18908158Y-11881912D01*
X18908158Y-11881912D02*
X18908158Y-11805722D01*
X18908158Y-11805722D02*
X18917682Y-11786674D01*
X18917682Y-11786674D02*
X18936730Y-11777150D01*
X18936730Y-11777150D02*
X18974825Y-11777150D01*
X18974825Y-11777150D02*
X18993873Y-11786674D01*
X18993873Y-11786674D02*
X19003396Y-11805722D01*
X19003396Y-11805722D02*
X19003396Y-11824769D01*
X19003396Y-11824769D02*
X18908158Y-11843817D01*
X19174825Y-11910484D02*
X19174825Y-11710484D01*
X19174825Y-11900960D02*
X19155777Y-11910484D01*
X19155777Y-11910484D02*
X19117682Y-11910484D01*
X19117682Y-11910484D02*
X19098635Y-11900960D01*
X19098635Y-11900960D02*
X19089111Y-11891436D01*
X19089111Y-11891436D02*
X19079587Y-11872388D01*
X19079587Y-11872388D02*
X19079587Y-11815246D01*
X19079587Y-11815246D02*
X19089111Y-11796198D01*
X19089111Y-11796198D02*
X19098635Y-11786674D01*
X19098635Y-11786674D02*
X19117682Y-11777150D01*
X19117682Y-11777150D02*
X19155777Y-11777150D01*
X19155777Y-11777150D02*
X19174825Y-11786674D01*
X19251016Y-11986674D02*
X19260539Y-11977150D01*
X19260539Y-11977150D02*
X19279587Y-11948579D01*
X19279587Y-11948579D02*
X19289111Y-11929531D01*
X19289111Y-11929531D02*
X19298635Y-11900960D01*
X19298635Y-11900960D02*
X19308158Y-11853341D01*
X19308158Y-11853341D02*
X19308158Y-11815246D01*
X19308158Y-11815246D02*
X19298635Y-11767627D01*
X19298635Y-11767627D02*
X19289111Y-11739055D01*
X19289111Y-11739055D02*
X19279587Y-11720008D01*
X19279587Y-11720008D02*
X19260539Y-11691436D01*
X19260539Y-11691436D02*
X19251016Y-11681912D01*
M02*
