M48
; DRILL file {KiCad 8.0.1} date 2024-04-29T00:58:12+0200
; FORMAT={-:-/ absolute / metric / decimal}
; #@! TF.CreationDate,2024-04-29T00:58:12+02:00
; #@! TF.GenerationSoftware,Kicad,Pcbnew,8.0.1
; #@! TF.FileFunction,Plated,1,4,PTH
FMAT,2
METRIC
; #@! TA.AperFunction,Plated,PTH,ViaDrill
T1C0.300
; #@! TA.AperFunction,Plated,PTH,ComponentDrill
T2C0.700
; #@! TA.AperFunction,Plated,PTH,ComponentDrill
T3C0.750
; #@! TA.AperFunction,Plated,PTH,ComponentDrill
T4C0.762
; #@! TA.AperFunction,Plated,PTH,ComponentDrill
T5C1.020
%
G90
G05
T1
X125.4Y-100.2
X125.4Y-108.6
X125.5Y-76.2
X125.5Y-78.5
X125.5Y-81.0
X125.5Y-83.6
X125.6Y-86.0
X126.0Y-45.5
X126.0Y-58.0
X126.0Y-104.9
X126.1Y-88.7
X126.492Y-99.394
X126.85Y-97.605
X127.254Y-71.882
X127.6Y-58.7
X127.7Y-64.8
X128.016Y-94.488
X128.524Y-97.79
X128.6Y-103.4
X128.8Y-107.7
X129.032Y-87.63
X129.075Y-92.756
X129.1Y-85.6
X129.286Y-83.566
X129.34Y-89.993
X129.6Y-105.7
X129.689Y-97.847
X129.8Y-46.0
X130.0Y-100.3
X130.194Y-97.227
X130.3Y-49.6
X130.3Y-59.0
X130.3Y-72.0
X130.5Y-56.5
X130.7Y-53.1
X130.9Y-101.4
X131.0Y-97.2
X131.0Y-108.1
X131.175Y-61.675
X131.215Y-59.955
X131.9Y-72.0
X132.0Y-50.0
X132.275Y-58.925
X132.3Y-83.7
X132.5Y-55.5
X132.562Y-52.6
X132.8Y-79.9
X133.0Y-51.5
X133.5Y-61.0
X133.6Y-102.16
X134.0Y-62.8
X134.0Y-102.9
X134.1Y-84.2
X134.2Y-81.4
X134.2Y-107.5
X134.4Y-94.1
X134.5Y-54.5
X134.6Y-104.1
X134.7Y-85.7
X134.765Y-53.41
X134.8Y-92.2
X135.1Y-48.0
X135.2Y-61.7
X135.3Y-89.2
X135.5Y-45.5
X135.9Y-96.7
X136.0Y-57.0
X136.0Y-60.8
X136.1Y-59.3
X136.7Y-89.1
X136.852Y-85.597
X137.0Y-51.4
X137.0Y-101.0
X137.1Y-94.7
X137.5Y-62.4
X137.7Y-52.6
X138.5Y-58.5
X138.5Y-105.0
X138.8Y-89.2
X139.35Y-94.15
X139.6Y-96.0
X139.7Y-97.8
X139.8Y-50.1
X140.0Y-58.5
X140.0Y-74.3
X140.1Y-72.5
X140.3Y-69.5
X140.5Y-107.2
X140.9Y-52.2
X140.9Y-53.1
X140.9Y-54.0
X140.9Y-54.9
X140.9Y-55.8
X141.2Y-94.2
X141.4Y-89.0
X141.9Y-52.2
X141.9Y-53.1
X141.9Y-54.0
X141.9Y-55.0
X141.9Y-55.8
X142.4Y-74.7
X142.5Y-95.0
X142.9Y-52.2
X142.9Y-53.1
X142.9Y-54.0
X142.9Y-55.0
X142.9Y-55.8
X142.9Y-72.0
X143.1Y-89.1
X143.3Y-94.0
X143.675Y-86.0
X143.8Y-55.8
X143.9Y-54.0
X143.9Y-54.9
X144.0Y-52.2
X144.0Y-53.1
X144.1Y-76.8
X144.2Y-68.2
X144.6Y-63.5
X144.9Y-54.0
X144.9Y-54.9
X144.9Y-55.8
X145.0Y-52.2
X145.0Y-53.1
X145.0Y-105.0
X145.3Y-80.2
X145.55Y-82.45
X145.7Y-85.8
X146.0Y-71.0
X146.7Y-88.8
X147.0Y-48.0
X147.2Y-98.8
X147.5Y-45.5
X147.5Y-54.0
X147.5Y-59.5
X147.5Y-92.6
X147.7Y-73.1
X148.0Y-61.6
X148.2Y-77.3
X148.4Y-104.3
X148.571Y-85.106
X148.8Y-80.3
X149.6Y-65.5
X149.8Y-53.2
X149.8Y-54.1
X149.9Y-52.2
X149.9Y-55.1
X150.0Y-56.0
X150.277Y-63.098
X150.6Y-80.8
X150.8Y-52.2
X150.8Y-53.1
X150.8Y-54.1
X150.8Y-55.1
X150.9Y-56.0
X151.4Y-62.3
X151.6Y-55.1
X151.6Y-107.2
X151.625Y-94.525
X151.7Y-52.2
X151.7Y-53.2
X151.7Y-54.1
X151.8Y-56.0
X151.8Y-96.04
X151.8Y-97.3
X151.9Y-81.5
X152.3Y-101.0
X152.5Y-68.15
X152.5Y-80.2
X152.5Y-99.1
X152.6Y-52.2
X152.6Y-53.2
X152.6Y-55.1
X152.6Y-98.0
X152.6Y-100.0
X152.7Y-54.1
X152.7Y-56.0
X152.7Y-65.2
X152.9Y-85.7
X153.0Y-88.0
X153.0Y-89.8
X153.4Y-52.2
X153.4Y-53.1
X153.5Y-56.0
X153.6Y-54.1
X153.6Y-55.1
X153.6Y-99.2
X153.8Y-62.3
X153.8Y-91.2
X153.9Y-73.2
X153.9Y-101.7
X154.1Y-79.1
X154.2Y-52.2
X154.2Y-53.1
X154.5Y-56.0
X154.6Y-54.1
X154.6Y-55.2
X155.2Y-99.2
X155.3Y-81.1
X155.312Y-77.515
X155.956Y-76.05
X156.0Y-48.5
X156.0Y-72.9
X156.0Y-108.3
X156.1Y-68.6
X156.1Y-70.0
X156.2Y-86.9
X156.788Y-74.369
X156.854Y-78.127
X157.2Y-58.475
X157.5Y-79.8
X157.6Y-101.6
X157.8Y-53.9
X157.948Y-75.452
X157.988Y-74.45
X158.1Y-83.5
X158.4Y-78.0
X158.4Y-102.3
X158.5Y-89.0
X158.5Y-96.4
X158.773Y-65.727
X159.2Y-96.8
X159.5Y-47.5
X159.515Y-97.6
X159.6Y-98.5
X160.274Y-75.184
X160.3Y-99.3
X160.528Y-94.996
X160.8Y-100.1
X160.9Y-52.4
X161.0Y-96.0
X161.1Y-65.727
X161.2Y-100.9
X161.3Y-92.2
X161.544Y-89.408
X161.6Y-58.7
X161.6Y-63.9
X161.7Y-82.4
X161.725Y-79.756
X162.8Y-96.7
X163.068Y-73.406
X163.068Y-77.47
X163.4Y-58.7
X163.4Y-87.5
X163.45Y-68.854
X163.6Y-64.8
X163.6Y-103.5
X163.7Y-101.327
X163.9Y-46.9
X164.084Y-50.8
X164.2Y-93.5
X164.338Y-91.186
X164.4Y-62.5
X165.2Y-103.9
X165.3Y-60.0
X165.9Y-69.225
X165.9Y-94.1
X166.8Y-71.8
X168.009Y-67.192
X168.1Y-55.3
X169.0Y-74.4
X169.0Y-89.5
T2
X127.65Y-104.4
X129.55Y-104.4
X153.675Y-103.639
X158.525Y-103.638
T3
X156.422Y-82.312
X156.422Y-84.312
X156.464Y-89.408
X156.464Y-91.408
T5
X127.1Y-74.65
X127.1Y-77.19
X127.1Y-79.73
X127.1Y-82.27
X127.1Y-84.81
X127.1Y-87.35
X165.2Y-74.65
X165.2Y-77.19
X165.2Y-79.73
X165.2Y-82.27
X165.2Y-84.81
X165.2Y-87.35
T2
G00X152.475Y-106.109
M15
G01X152.475Y-106.509
M16
G05
G00X159.725Y-106.109
M15
G01X159.725Y-106.509
M16
G05
T4
G00X140.964Y-44.284
M15
G01X138.726Y-44.284
M16
G05
G00X157.464Y-44.284
M15
G01X155.226Y-44.284
M16
G05
M30
