G04 #@! TF.GenerationSoftware,KiCad,Pcbnew,8.0.1*
G04 #@! TF.CreationDate,2024-04-29T00:58:12+02:00*
G04 #@! TF.ProjectId,Blinky,426c696e-6b79-42e6-9b69-6361645f7063,rev?*
G04 #@! TF.SameCoordinates,Original*
G04 #@! TF.FileFunction,AssemblyDrawing,Bot*
%FSLAX46Y46*%
G04 Gerber Fmt 4.6, Leading zero omitted, Abs format (unit mm)*
G04 Created by KiCad (PCBNEW 8.0.1) date 2024-04-29 00:58:12*
%MOMM*%
%LPD*%
G01*
G04 APERTURE LIST*
%ADD10C,0.150000*%
%ADD11C,0.060000*%
%ADD12C,0.100000*%
%ADD13C,0.400000*%
%ADD14C,0.300000*%
G04 APERTURE END LIST*
D10*
X147178619Y-98795237D02*
X147178619Y-98223809D01*
X147178619Y-98509523D02*
X146178619Y-98509523D01*
X146178619Y-98509523D02*
X146321476Y-98414285D01*
X146321476Y-98414285D02*
X146416714Y-98319047D01*
X146416714Y-98319047D02*
X146464333Y-98223809D01*
X146178619Y-99414285D02*
X146178619Y-99509523D01*
X146178619Y-99509523D02*
X146226238Y-99604761D01*
X146226238Y-99604761D02*
X146273857Y-99652380D01*
X146273857Y-99652380D02*
X146369095Y-99699999D01*
X146369095Y-99699999D02*
X146559571Y-99747618D01*
X146559571Y-99747618D02*
X146797666Y-99747618D01*
X146797666Y-99747618D02*
X146988142Y-99699999D01*
X146988142Y-99699999D02*
X147083380Y-99652380D01*
X147083380Y-99652380D02*
X147131000Y-99604761D01*
X147131000Y-99604761D02*
X147178619Y-99509523D01*
X147178619Y-99509523D02*
X147178619Y-99414285D01*
X147178619Y-99414285D02*
X147131000Y-99319047D01*
X147131000Y-99319047D02*
X147083380Y-99271428D01*
X147083380Y-99271428D02*
X146988142Y-99223809D01*
X146988142Y-99223809D02*
X146797666Y-99176190D01*
X146797666Y-99176190D02*
X146559571Y-99176190D01*
X146559571Y-99176190D02*
X146369095Y-99223809D01*
X146369095Y-99223809D02*
X146273857Y-99271428D01*
X146273857Y-99271428D02*
X146226238Y-99319047D01*
X146226238Y-99319047D02*
X146178619Y-99414285D01*
X146178619Y-100366666D02*
X146178619Y-100461904D01*
X146178619Y-100461904D02*
X146226238Y-100557142D01*
X146226238Y-100557142D02*
X146273857Y-100604761D01*
X146273857Y-100604761D02*
X146369095Y-100652380D01*
X146369095Y-100652380D02*
X146559571Y-100699999D01*
X146559571Y-100699999D02*
X146797666Y-100699999D01*
X146797666Y-100699999D02*
X146988142Y-100652380D01*
X146988142Y-100652380D02*
X147083380Y-100604761D01*
X147083380Y-100604761D02*
X147131000Y-100557142D01*
X147131000Y-100557142D02*
X147178619Y-100461904D01*
X147178619Y-100461904D02*
X147178619Y-100366666D01*
X147178619Y-100366666D02*
X147131000Y-100271428D01*
X147131000Y-100271428D02*
X147083380Y-100223809D01*
X147083380Y-100223809D02*
X146988142Y-100176190D01*
X146988142Y-100176190D02*
X146797666Y-100128571D01*
X146797666Y-100128571D02*
X146559571Y-100128571D01*
X146559571Y-100128571D02*
X146369095Y-100176190D01*
X146369095Y-100176190D02*
X146273857Y-100223809D01*
X146273857Y-100223809D02*
X146226238Y-100271428D01*
X146226238Y-100271428D02*
X146178619Y-100366666D01*
X146511952Y-101557142D02*
X147178619Y-101557142D01*
X146511952Y-101128571D02*
X147035761Y-101128571D01*
X147035761Y-101128571D02*
X147131000Y-101176190D01*
X147131000Y-101176190D02*
X147178619Y-101271428D01*
X147178619Y-101271428D02*
X147178619Y-101414285D01*
X147178619Y-101414285D02*
X147131000Y-101509523D01*
X147131000Y-101509523D02*
X147083380Y-101557142D01*
X146511952Y-101890476D02*
X146511952Y-102271428D01*
X147178619Y-102033333D02*
X146321476Y-102033333D01*
X146321476Y-102033333D02*
X146226238Y-102080952D01*
X146226238Y-102080952D02*
X146178619Y-102176190D01*
X146178619Y-102176190D02*
X146178619Y-102271428D01*
X145178619Y-98866666D02*
X144702428Y-98533333D01*
X145178619Y-98295238D02*
X144178619Y-98295238D01*
X144178619Y-98295238D02*
X144178619Y-98676190D01*
X144178619Y-98676190D02*
X144226238Y-98771428D01*
X144226238Y-98771428D02*
X144273857Y-98819047D01*
X144273857Y-98819047D02*
X144369095Y-98866666D01*
X144369095Y-98866666D02*
X144511952Y-98866666D01*
X144511952Y-98866666D02*
X144607190Y-98819047D01*
X144607190Y-98819047D02*
X144654809Y-98771428D01*
X144654809Y-98771428D02*
X144702428Y-98676190D01*
X144702428Y-98676190D02*
X144702428Y-98295238D01*
X144654809Y-99295238D02*
X144654809Y-99628571D01*
X145178619Y-99771428D02*
X145178619Y-99295238D01*
X145178619Y-99295238D02*
X144178619Y-99295238D01*
X144178619Y-99295238D02*
X144178619Y-99771428D01*
X144654809Y-100533333D02*
X144654809Y-100200000D01*
X145178619Y-100200000D02*
X144178619Y-100200000D01*
X144178619Y-100200000D02*
X144178619Y-100676190D01*
X144178619Y-101200000D02*
X144416714Y-101200000D01*
X144321476Y-100961905D02*
X144416714Y-101200000D01*
X144416714Y-101200000D02*
X144321476Y-101438095D01*
X144607190Y-101057143D02*
X144416714Y-101200000D01*
X144416714Y-101200000D02*
X144607190Y-101342857D01*
X144178619Y-101961905D02*
X144416714Y-101961905D01*
X144321476Y-101723810D02*
X144416714Y-101961905D01*
X144416714Y-101961905D02*
X144321476Y-102200000D01*
X144607190Y-101819048D02*
X144416714Y-101961905D01*
X144416714Y-101961905D02*
X144607190Y-102104762D01*
X160353009Y-77097712D02*
X160400628Y-77240569D01*
X160400628Y-77240569D02*
X160448247Y-77288188D01*
X160448247Y-77288188D02*
X160543485Y-77335807D01*
X160543485Y-77335807D02*
X160686342Y-77335807D01*
X160686342Y-77335807D02*
X160781580Y-77288188D01*
X160781580Y-77288188D02*
X160829200Y-77240569D01*
X160829200Y-77240569D02*
X160876819Y-77145331D01*
X160876819Y-77145331D02*
X160876819Y-76764379D01*
X160876819Y-76764379D02*
X159876819Y-76764379D01*
X159876819Y-76764379D02*
X159876819Y-77097712D01*
X159876819Y-77097712D02*
X159924438Y-77192950D01*
X159924438Y-77192950D02*
X159972057Y-77240569D01*
X159972057Y-77240569D02*
X160067295Y-77288188D01*
X160067295Y-77288188D02*
X160162533Y-77288188D01*
X160162533Y-77288188D02*
X160257771Y-77240569D01*
X160257771Y-77240569D02*
X160305390Y-77192950D01*
X160305390Y-77192950D02*
X160353009Y-77097712D01*
X160353009Y-77097712D02*
X160353009Y-76764379D01*
X160876819Y-78192950D02*
X160353009Y-78192950D01*
X160353009Y-78192950D02*
X160257771Y-78145331D01*
X160257771Y-78145331D02*
X160210152Y-78050093D01*
X160210152Y-78050093D02*
X160210152Y-77859617D01*
X160210152Y-77859617D02*
X160257771Y-77764379D01*
X160829200Y-78192950D02*
X160876819Y-78097712D01*
X160876819Y-78097712D02*
X160876819Y-77859617D01*
X160876819Y-77859617D02*
X160829200Y-77764379D01*
X160829200Y-77764379D02*
X160733961Y-77716760D01*
X160733961Y-77716760D02*
X160638723Y-77716760D01*
X160638723Y-77716760D02*
X160543485Y-77764379D01*
X160543485Y-77764379D02*
X160495866Y-77859617D01*
X160495866Y-77859617D02*
X160495866Y-78097712D01*
X160495866Y-78097712D02*
X160448247Y-78192950D01*
X160210152Y-78526284D02*
X160210152Y-78907236D01*
X159876819Y-78669141D02*
X160733961Y-78669141D01*
X160733961Y-78669141D02*
X160829200Y-78716760D01*
X160829200Y-78716760D02*
X160876819Y-78811998D01*
X160876819Y-78811998D02*
X160876819Y-78907236D01*
X160210152Y-79097713D02*
X160210152Y-79478665D01*
X159876819Y-79240570D02*
X160733961Y-79240570D01*
X160733961Y-79240570D02*
X160829200Y-79288189D01*
X160829200Y-79288189D02*
X160876819Y-79383427D01*
X160876819Y-79383427D02*
X160876819Y-79478665D01*
X160829200Y-80192951D02*
X160876819Y-80097713D01*
X160876819Y-80097713D02*
X160876819Y-79907237D01*
X160876819Y-79907237D02*
X160829200Y-79811999D01*
X160829200Y-79811999D02*
X160733961Y-79764380D01*
X160733961Y-79764380D02*
X160353009Y-79764380D01*
X160353009Y-79764380D02*
X160257771Y-79811999D01*
X160257771Y-79811999D02*
X160210152Y-79907237D01*
X160210152Y-79907237D02*
X160210152Y-80097713D01*
X160210152Y-80097713D02*
X160257771Y-80192951D01*
X160257771Y-80192951D02*
X160353009Y-80240570D01*
X160353009Y-80240570D02*
X160448247Y-80240570D01*
X160448247Y-80240570D02*
X160543485Y-79764380D01*
X160876819Y-80669142D02*
X160210152Y-80669142D01*
X160400628Y-80669142D02*
X160305390Y-80716761D01*
X160305390Y-80716761D02*
X160257771Y-80764380D01*
X160257771Y-80764380D02*
X160210152Y-80859618D01*
X160210152Y-80859618D02*
X160210152Y-80954856D01*
X160210152Y-81192952D02*
X160876819Y-81431047D01*
X160210152Y-81669142D02*
X160876819Y-81431047D01*
X160876819Y-81431047D02*
X161114914Y-81335809D01*
X161114914Y-81335809D02*
X161162533Y-81288190D01*
X161162533Y-81288190D02*
X161210152Y-81192952D01*
X160781580Y-83383428D02*
X160829200Y-83335809D01*
X160829200Y-83335809D02*
X160876819Y-83192952D01*
X160876819Y-83192952D02*
X160876819Y-83097714D01*
X160876819Y-83097714D02*
X160829200Y-82954857D01*
X160829200Y-82954857D02*
X160733961Y-82859619D01*
X160733961Y-82859619D02*
X160638723Y-82812000D01*
X160638723Y-82812000D02*
X160448247Y-82764381D01*
X160448247Y-82764381D02*
X160305390Y-82764381D01*
X160305390Y-82764381D02*
X160114914Y-82812000D01*
X160114914Y-82812000D02*
X160019676Y-82859619D01*
X160019676Y-82859619D02*
X159924438Y-82954857D01*
X159924438Y-82954857D02*
X159876819Y-83097714D01*
X159876819Y-83097714D02*
X159876819Y-83192952D01*
X159876819Y-83192952D02*
X159924438Y-83335809D01*
X159924438Y-83335809D02*
X159972057Y-83383428D01*
X160876819Y-83954857D02*
X160829200Y-83859619D01*
X160829200Y-83859619D02*
X160781580Y-83812000D01*
X160781580Y-83812000D02*
X160686342Y-83764381D01*
X160686342Y-83764381D02*
X160400628Y-83764381D01*
X160400628Y-83764381D02*
X160305390Y-83812000D01*
X160305390Y-83812000D02*
X160257771Y-83859619D01*
X160257771Y-83859619D02*
X160210152Y-83954857D01*
X160210152Y-83954857D02*
X160210152Y-84097714D01*
X160210152Y-84097714D02*
X160257771Y-84192952D01*
X160257771Y-84192952D02*
X160305390Y-84240571D01*
X160305390Y-84240571D02*
X160400628Y-84288190D01*
X160400628Y-84288190D02*
X160686342Y-84288190D01*
X160686342Y-84288190D02*
X160781580Y-84240571D01*
X160781580Y-84240571D02*
X160829200Y-84192952D01*
X160829200Y-84192952D02*
X160876819Y-84097714D01*
X160876819Y-84097714D02*
X160876819Y-83954857D01*
X160210152Y-84716762D02*
X160876819Y-84716762D01*
X160305390Y-84716762D02*
X160257771Y-84764381D01*
X160257771Y-84764381D02*
X160210152Y-84859619D01*
X160210152Y-84859619D02*
X160210152Y-85002476D01*
X160210152Y-85002476D02*
X160257771Y-85097714D01*
X160257771Y-85097714D02*
X160353009Y-85145333D01*
X160353009Y-85145333D02*
X160876819Y-85145333D01*
X160210152Y-85621524D02*
X160876819Y-85621524D01*
X160305390Y-85621524D02*
X160257771Y-85669143D01*
X160257771Y-85669143D02*
X160210152Y-85764381D01*
X160210152Y-85764381D02*
X160210152Y-85907238D01*
X160210152Y-85907238D02*
X160257771Y-86002476D01*
X160257771Y-86002476D02*
X160353009Y-86050095D01*
X160353009Y-86050095D02*
X160876819Y-86050095D01*
X160829200Y-86907238D02*
X160876819Y-86812000D01*
X160876819Y-86812000D02*
X160876819Y-86621524D01*
X160876819Y-86621524D02*
X160829200Y-86526286D01*
X160829200Y-86526286D02*
X160733961Y-86478667D01*
X160733961Y-86478667D02*
X160353009Y-86478667D01*
X160353009Y-86478667D02*
X160257771Y-86526286D01*
X160257771Y-86526286D02*
X160210152Y-86621524D01*
X160210152Y-86621524D02*
X160210152Y-86812000D01*
X160210152Y-86812000D02*
X160257771Y-86907238D01*
X160257771Y-86907238D02*
X160353009Y-86954857D01*
X160353009Y-86954857D02*
X160448247Y-86954857D01*
X160448247Y-86954857D02*
X160543485Y-86478667D01*
X160829200Y-87812000D02*
X160876819Y-87716762D01*
X160876819Y-87716762D02*
X160876819Y-87526286D01*
X160876819Y-87526286D02*
X160829200Y-87431048D01*
X160829200Y-87431048D02*
X160781580Y-87383429D01*
X160781580Y-87383429D02*
X160686342Y-87335810D01*
X160686342Y-87335810D02*
X160400628Y-87335810D01*
X160400628Y-87335810D02*
X160305390Y-87383429D01*
X160305390Y-87383429D02*
X160257771Y-87431048D01*
X160257771Y-87431048D02*
X160210152Y-87526286D01*
X160210152Y-87526286D02*
X160210152Y-87716762D01*
X160210152Y-87716762D02*
X160257771Y-87812000D01*
X160210152Y-88097715D02*
X160210152Y-88478667D01*
X159876819Y-88240572D02*
X160733961Y-88240572D01*
X160733961Y-88240572D02*
X160829200Y-88288191D01*
X160829200Y-88288191D02*
X160876819Y-88383429D01*
X160876819Y-88383429D02*
X160876819Y-88478667D01*
X160876819Y-88954858D02*
X160829200Y-88859620D01*
X160829200Y-88859620D02*
X160781580Y-88812001D01*
X160781580Y-88812001D02*
X160686342Y-88764382D01*
X160686342Y-88764382D02*
X160400628Y-88764382D01*
X160400628Y-88764382D02*
X160305390Y-88812001D01*
X160305390Y-88812001D02*
X160257771Y-88859620D01*
X160257771Y-88859620D02*
X160210152Y-88954858D01*
X160210152Y-88954858D02*
X160210152Y-89097715D01*
X160210152Y-89097715D02*
X160257771Y-89192953D01*
X160257771Y-89192953D02*
X160305390Y-89240572D01*
X160305390Y-89240572D02*
X160400628Y-89288191D01*
X160400628Y-89288191D02*
X160686342Y-89288191D01*
X160686342Y-89288191D02*
X160781580Y-89240572D01*
X160781580Y-89240572D02*
X160829200Y-89192953D01*
X160829200Y-89192953D02*
X160876819Y-89097715D01*
X160876819Y-89097715D02*
X160876819Y-88954858D01*
X160876819Y-89716763D02*
X160210152Y-89716763D01*
X160400628Y-89716763D02*
X160305390Y-89764382D01*
X160305390Y-89764382D02*
X160257771Y-89812001D01*
X160257771Y-89812001D02*
X160210152Y-89907239D01*
X160210152Y-89907239D02*
X160210152Y-90002477D01*
X157376819Y-82978666D02*
X158091104Y-82978666D01*
X158091104Y-82978666D02*
X158233961Y-82931047D01*
X158233961Y-82931047D02*
X158329200Y-82835809D01*
X158329200Y-82835809D02*
X158376819Y-82692952D01*
X158376819Y-82692952D02*
X158376819Y-82597714D01*
X157376819Y-83359619D02*
X157376819Y-83978666D01*
X157376819Y-83978666D02*
X157757771Y-83645333D01*
X157757771Y-83645333D02*
X157757771Y-83788190D01*
X157757771Y-83788190D02*
X157805390Y-83883428D01*
X157805390Y-83883428D02*
X157853009Y-83931047D01*
X157853009Y-83931047D02*
X157948247Y-83978666D01*
X157948247Y-83978666D02*
X158186342Y-83978666D01*
X158186342Y-83978666D02*
X158281580Y-83931047D01*
X158281580Y-83931047D02*
X158329200Y-83883428D01*
X158329200Y-83883428D02*
X158376819Y-83788190D01*
X158376819Y-83788190D02*
X158376819Y-83502476D01*
X158376819Y-83502476D02*
X158329200Y-83407238D01*
X158329200Y-83407238D02*
X158281580Y-83359619D01*
X149204984Y-97000000D02*
X149204984Y-97571428D01*
X150204984Y-97285714D02*
X149204984Y-97285714D01*
X150157365Y-97857143D02*
X150204984Y-98000000D01*
X150204984Y-98000000D02*
X150204984Y-98238095D01*
X150204984Y-98238095D02*
X150157365Y-98333333D01*
X150157365Y-98333333D02*
X150109745Y-98380952D01*
X150109745Y-98380952D02*
X150014507Y-98428571D01*
X150014507Y-98428571D02*
X149919269Y-98428571D01*
X149919269Y-98428571D02*
X149824031Y-98380952D01*
X149824031Y-98380952D02*
X149776412Y-98333333D01*
X149776412Y-98333333D02*
X149728793Y-98238095D01*
X149728793Y-98238095D02*
X149681174Y-98047619D01*
X149681174Y-98047619D02*
X149633555Y-97952381D01*
X149633555Y-97952381D02*
X149585936Y-97904762D01*
X149585936Y-97904762D02*
X149490698Y-97857143D01*
X149490698Y-97857143D02*
X149395460Y-97857143D01*
X149395460Y-97857143D02*
X149300222Y-97904762D01*
X149300222Y-97904762D02*
X149252603Y-97952381D01*
X149252603Y-97952381D02*
X149204984Y-98047619D01*
X149204984Y-98047619D02*
X149204984Y-98285714D01*
X149204984Y-98285714D02*
X149252603Y-98428571D01*
X149824031Y-98857143D02*
X149824031Y-99619048D01*
X150204984Y-100619047D02*
X150204984Y-100047619D01*
X150204984Y-100333333D02*
X149204984Y-100333333D01*
X149204984Y-100333333D02*
X149347841Y-100238095D01*
X149347841Y-100238095D02*
X149443079Y-100142857D01*
X149443079Y-100142857D02*
X149490698Y-100047619D01*
X150204984Y-101571428D02*
X150204984Y-101000000D01*
X150204984Y-101285714D02*
X149204984Y-101285714D01*
X149204984Y-101285714D02*
X149347841Y-101190476D01*
X149347841Y-101190476D02*
X149443079Y-101095238D01*
X149443079Y-101095238D02*
X149490698Y-101000000D01*
X149633555Y-102142857D02*
X149585936Y-102047619D01*
X149585936Y-102047619D02*
X149538317Y-102000000D01*
X149538317Y-102000000D02*
X149443079Y-101952381D01*
X149443079Y-101952381D02*
X149395460Y-101952381D01*
X149395460Y-101952381D02*
X149300222Y-102000000D01*
X149300222Y-102000000D02*
X149252603Y-102047619D01*
X149252603Y-102047619D02*
X149204984Y-102142857D01*
X149204984Y-102142857D02*
X149204984Y-102333333D01*
X149204984Y-102333333D02*
X149252603Y-102428571D01*
X149252603Y-102428571D02*
X149300222Y-102476190D01*
X149300222Y-102476190D02*
X149395460Y-102523809D01*
X149395460Y-102523809D02*
X149443079Y-102523809D01*
X149443079Y-102523809D02*
X149538317Y-102476190D01*
X149538317Y-102476190D02*
X149585936Y-102428571D01*
X149585936Y-102428571D02*
X149633555Y-102333333D01*
X149633555Y-102333333D02*
X149633555Y-102142857D01*
X149633555Y-102142857D02*
X149681174Y-102047619D01*
X149681174Y-102047619D02*
X149728793Y-102000000D01*
X149728793Y-102000000D02*
X149824031Y-101952381D01*
X149824031Y-101952381D02*
X150014507Y-101952381D01*
X150014507Y-101952381D02*
X150109745Y-102000000D01*
X150109745Y-102000000D02*
X150157365Y-102047619D01*
X150157365Y-102047619D02*
X150204984Y-102142857D01*
X150204984Y-102142857D02*
X150204984Y-102333333D01*
X150204984Y-102333333D02*
X150157365Y-102428571D01*
X150157365Y-102428571D02*
X150109745Y-102476190D01*
X150109745Y-102476190D02*
X150014507Y-102523809D01*
X150014507Y-102523809D02*
X149824031Y-102523809D01*
X149824031Y-102523809D02*
X149728793Y-102476190D01*
X149728793Y-102476190D02*
X149681174Y-102428571D01*
X149681174Y-102428571D02*
X149633555Y-102333333D01*
X149204984Y-102857143D02*
X149204984Y-103523809D01*
X149204984Y-103523809D02*
X150204984Y-103095238D01*
X149919269Y-103857143D02*
X149919269Y-104333333D01*
X150204984Y-103761905D02*
X149204984Y-104095238D01*
X149204984Y-104095238D02*
X150204984Y-104428571D01*
X149824031Y-104761905D02*
X149824031Y-105523810D01*
X149681174Y-106333333D02*
X149728793Y-106476190D01*
X149728793Y-106476190D02*
X149776412Y-106523809D01*
X149776412Y-106523809D02*
X149871650Y-106571428D01*
X149871650Y-106571428D02*
X150014507Y-106571428D01*
X150014507Y-106571428D02*
X150109745Y-106523809D01*
X150109745Y-106523809D02*
X150157365Y-106476190D01*
X150157365Y-106476190D02*
X150204984Y-106380952D01*
X150204984Y-106380952D02*
X150204984Y-106000000D01*
X150204984Y-106000000D02*
X149204984Y-106000000D01*
X149204984Y-106000000D02*
X149204984Y-106333333D01*
X149204984Y-106333333D02*
X149252603Y-106428571D01*
X149252603Y-106428571D02*
X149300222Y-106476190D01*
X149300222Y-106476190D02*
X149395460Y-106523809D01*
X149395460Y-106523809D02*
X149490698Y-106523809D01*
X149490698Y-106523809D02*
X149585936Y-106476190D01*
X149585936Y-106476190D02*
X149633555Y-106428571D01*
X149633555Y-106428571D02*
X149681174Y-106333333D01*
X149681174Y-106333333D02*
X149681174Y-106000000D01*
X149824031Y-107000000D02*
X149824031Y-107761905D01*
X149919269Y-108190476D02*
X149919269Y-108666666D01*
X150204984Y-108095238D02*
X149204984Y-108428571D01*
X149204984Y-108428571D02*
X150204984Y-108761904D01*
X149824031Y-109095238D02*
X149824031Y-109857143D01*
X149681174Y-110666666D02*
X149728793Y-110809523D01*
X149728793Y-110809523D02*
X149776412Y-110857142D01*
X149776412Y-110857142D02*
X149871650Y-110904761D01*
X149871650Y-110904761D02*
X150014507Y-110904761D01*
X150014507Y-110904761D02*
X150109745Y-110857142D01*
X150109745Y-110857142D02*
X150157365Y-110809523D01*
X150157365Y-110809523D02*
X150204984Y-110714285D01*
X150204984Y-110714285D02*
X150204984Y-110333333D01*
X150204984Y-110333333D02*
X149204984Y-110333333D01*
X149204984Y-110333333D02*
X149204984Y-110666666D01*
X149204984Y-110666666D02*
X149252603Y-110761904D01*
X149252603Y-110761904D02*
X149300222Y-110809523D01*
X149300222Y-110809523D02*
X149395460Y-110857142D01*
X149395460Y-110857142D02*
X149490698Y-110857142D01*
X149490698Y-110857142D02*
X149585936Y-110809523D01*
X149585936Y-110809523D02*
X149633555Y-110761904D01*
X149633555Y-110761904D02*
X149681174Y-110666666D01*
X149681174Y-110666666D02*
X149681174Y-110333333D01*
X152204984Y-102666666D02*
X151728793Y-102333333D01*
X152204984Y-102095238D02*
X151204984Y-102095238D01*
X151204984Y-102095238D02*
X151204984Y-102476190D01*
X151204984Y-102476190D02*
X151252603Y-102571428D01*
X151252603Y-102571428D02*
X151300222Y-102619047D01*
X151300222Y-102619047D02*
X151395460Y-102666666D01*
X151395460Y-102666666D02*
X151538317Y-102666666D01*
X151538317Y-102666666D02*
X151633555Y-102619047D01*
X151633555Y-102619047D02*
X151681174Y-102571428D01*
X151681174Y-102571428D02*
X151728793Y-102476190D01*
X151728793Y-102476190D02*
X151728793Y-102095238D01*
X151681174Y-103095238D02*
X151681174Y-103428571D01*
X152204984Y-103571428D02*
X152204984Y-103095238D01*
X152204984Y-103095238D02*
X151204984Y-103095238D01*
X151204984Y-103095238D02*
X151204984Y-103571428D01*
X151681174Y-104333333D02*
X151681174Y-104000000D01*
X152204984Y-104000000D02*
X151204984Y-104000000D01*
X151204984Y-104000000D02*
X151204984Y-104476190D01*
X151204984Y-105000000D02*
X151443079Y-105000000D01*
X151347841Y-104761905D02*
X151443079Y-105000000D01*
X151443079Y-105000000D02*
X151347841Y-105238095D01*
X151633555Y-104857143D02*
X151443079Y-105000000D01*
X151443079Y-105000000D02*
X151633555Y-105142857D01*
X151204984Y-105761905D02*
X151443079Y-105761905D01*
X151347841Y-105523810D02*
X151443079Y-105761905D01*
X151443079Y-105761905D02*
X151347841Y-106000000D01*
X151633555Y-105619048D02*
X151443079Y-105761905D01*
X151443079Y-105761905D02*
X151633555Y-105904762D01*
X138052381Y-99684819D02*
X138623809Y-99684819D01*
X138338095Y-99684819D02*
X138338095Y-98684819D01*
X138338095Y-98684819D02*
X138433333Y-98827676D01*
X138433333Y-98827676D02*
X138528571Y-98922914D01*
X138528571Y-98922914D02*
X138623809Y-98970533D01*
X137195238Y-99018152D02*
X137195238Y-99684819D01*
X137623809Y-99018152D02*
X137623809Y-99541961D01*
X137623809Y-99541961D02*
X137576190Y-99637200D01*
X137576190Y-99637200D02*
X137480952Y-99684819D01*
X137480952Y-99684819D02*
X137338095Y-99684819D01*
X137338095Y-99684819D02*
X137242857Y-99637200D01*
X137242857Y-99637200D02*
X137195238Y-99589580D01*
X136861904Y-99018152D02*
X136480952Y-99018152D01*
X136719047Y-99684819D02*
X136719047Y-98827676D01*
X136719047Y-98827676D02*
X136671428Y-98732438D01*
X136671428Y-98732438D02*
X136576190Y-98684819D01*
X136576190Y-98684819D02*
X136480952Y-98684819D01*
D11*
X137666666Y-97943832D02*
X137685714Y-97962880D01*
X137685714Y-97962880D02*
X137742856Y-97981927D01*
X137742856Y-97981927D02*
X137780952Y-97981927D01*
X137780952Y-97981927D02*
X137838095Y-97962880D01*
X137838095Y-97962880D02*
X137876190Y-97924784D01*
X137876190Y-97924784D02*
X137895237Y-97886689D01*
X137895237Y-97886689D02*
X137914285Y-97810499D01*
X137914285Y-97810499D02*
X137914285Y-97753356D01*
X137914285Y-97753356D02*
X137895237Y-97677165D01*
X137895237Y-97677165D02*
X137876190Y-97639070D01*
X137876190Y-97639070D02*
X137838095Y-97600975D01*
X137838095Y-97600975D02*
X137780952Y-97581927D01*
X137780952Y-97581927D02*
X137742856Y-97581927D01*
X137742856Y-97581927D02*
X137685714Y-97600975D01*
X137685714Y-97600975D02*
X137666666Y-97620022D01*
X137476190Y-97981927D02*
X137399999Y-97981927D01*
X137399999Y-97981927D02*
X137361904Y-97962880D01*
X137361904Y-97962880D02*
X137342856Y-97943832D01*
X137342856Y-97943832D02*
X137304761Y-97886689D01*
X137304761Y-97886689D02*
X137285714Y-97810499D01*
X137285714Y-97810499D02*
X137285714Y-97658118D01*
X137285714Y-97658118D02*
X137304761Y-97620022D01*
X137304761Y-97620022D02*
X137323809Y-97600975D01*
X137323809Y-97600975D02*
X137361904Y-97581927D01*
X137361904Y-97581927D02*
X137438095Y-97581927D01*
X137438095Y-97581927D02*
X137476190Y-97600975D01*
X137476190Y-97600975D02*
X137495237Y-97620022D01*
X137495237Y-97620022D02*
X137514285Y-97658118D01*
X137514285Y-97658118D02*
X137514285Y-97753356D01*
X137514285Y-97753356D02*
X137495237Y-97791451D01*
X137495237Y-97791451D02*
X137476190Y-97810499D01*
X137476190Y-97810499D02*
X137438095Y-97829546D01*
X137438095Y-97829546D02*
X137361904Y-97829546D01*
X137361904Y-97829546D02*
X137323809Y-97810499D01*
X137323809Y-97810499D02*
X137304761Y-97791451D01*
X137304761Y-97791451D02*
X137285714Y-97753356D01*
D10*
X152580952Y-68828581D02*
X153152380Y-68828581D01*
X152866666Y-68828581D02*
X152866666Y-67828581D01*
X152866666Y-67828581D02*
X152961904Y-67971438D01*
X152961904Y-67971438D02*
X153057142Y-68066676D01*
X153057142Y-68066676D02*
X153152380Y-68114295D01*
X151961904Y-67828581D02*
X151866666Y-67828581D01*
X151866666Y-67828581D02*
X151771428Y-67876200D01*
X151771428Y-67876200D02*
X151723809Y-67923819D01*
X151723809Y-67923819D02*
X151676190Y-68019057D01*
X151676190Y-68019057D02*
X151628571Y-68209533D01*
X151628571Y-68209533D02*
X151628571Y-68447628D01*
X151628571Y-68447628D02*
X151676190Y-68638104D01*
X151676190Y-68638104D02*
X151723809Y-68733342D01*
X151723809Y-68733342D02*
X151771428Y-68780962D01*
X151771428Y-68780962D02*
X151866666Y-68828581D01*
X151866666Y-68828581D02*
X151961904Y-68828581D01*
X151961904Y-68828581D02*
X152057142Y-68780962D01*
X152057142Y-68780962D02*
X152104761Y-68733342D01*
X152104761Y-68733342D02*
X152152380Y-68638104D01*
X152152380Y-68638104D02*
X152199999Y-68447628D01*
X152199999Y-68447628D02*
X152199999Y-68209533D01*
X152199999Y-68209533D02*
X152152380Y-68019057D01*
X152152380Y-68019057D02*
X152104761Y-67923819D01*
X152104761Y-67923819D02*
X152057142Y-67876200D01*
X152057142Y-67876200D02*
X151961904Y-67828581D01*
X151009523Y-67828581D02*
X150914285Y-67828581D01*
X150914285Y-67828581D02*
X150819047Y-67876200D01*
X150819047Y-67876200D02*
X150771428Y-67923819D01*
X150771428Y-67923819D02*
X150723809Y-68019057D01*
X150723809Y-68019057D02*
X150676190Y-68209533D01*
X150676190Y-68209533D02*
X150676190Y-68447628D01*
X150676190Y-68447628D02*
X150723809Y-68638104D01*
X150723809Y-68638104D02*
X150771428Y-68733342D01*
X150771428Y-68733342D02*
X150819047Y-68780962D01*
X150819047Y-68780962D02*
X150914285Y-68828581D01*
X150914285Y-68828581D02*
X151009523Y-68828581D01*
X151009523Y-68828581D02*
X151104761Y-68780962D01*
X151104761Y-68780962D02*
X151152380Y-68733342D01*
X151152380Y-68733342D02*
X151199999Y-68638104D01*
X151199999Y-68638104D02*
X151247618Y-68447628D01*
X151247618Y-68447628D02*
X151247618Y-68209533D01*
X151247618Y-68209533D02*
X151199999Y-68019057D01*
X151199999Y-68019057D02*
X151152380Y-67923819D01*
X151152380Y-67923819D02*
X151104761Y-67876200D01*
X151104761Y-67876200D02*
X151009523Y-67828581D01*
X150057142Y-67828581D02*
X149961904Y-67828581D01*
X149961904Y-67828581D02*
X149866666Y-67876200D01*
X149866666Y-67876200D02*
X149819047Y-67923819D01*
X149819047Y-67923819D02*
X149771428Y-68019057D01*
X149771428Y-68019057D02*
X149723809Y-68209533D01*
X149723809Y-68209533D02*
X149723809Y-68447628D01*
X149723809Y-68447628D02*
X149771428Y-68638104D01*
X149771428Y-68638104D02*
X149819047Y-68733342D01*
X149819047Y-68733342D02*
X149866666Y-68780962D01*
X149866666Y-68780962D02*
X149961904Y-68828581D01*
X149961904Y-68828581D02*
X150057142Y-68828581D01*
X150057142Y-68828581D02*
X150152380Y-68780962D01*
X150152380Y-68780962D02*
X150199999Y-68733342D01*
X150199999Y-68733342D02*
X150247618Y-68638104D01*
X150247618Y-68638104D02*
X150295237Y-68447628D01*
X150295237Y-68447628D02*
X150295237Y-68209533D01*
X150295237Y-68209533D02*
X150247618Y-68019057D01*
X150247618Y-68019057D02*
X150199999Y-67923819D01*
X150199999Y-67923819D02*
X150152380Y-67876200D01*
X150152380Y-67876200D02*
X150057142Y-67828581D01*
X148866666Y-68161914D02*
X148866666Y-68828581D01*
X149295237Y-68161914D02*
X149295237Y-68685723D01*
X149295237Y-68685723D02*
X149247618Y-68780962D01*
X149247618Y-68780962D02*
X149152380Y-68828581D01*
X149152380Y-68828581D02*
X149009523Y-68828581D01*
X149009523Y-68828581D02*
X148914285Y-68780962D01*
X148914285Y-68780962D02*
X148866666Y-68733342D01*
X148533332Y-68161914D02*
X148152380Y-68161914D01*
X148390475Y-68828581D02*
X148390475Y-67971438D01*
X148390475Y-67971438D02*
X148342856Y-67876200D01*
X148342856Y-67876200D02*
X148247618Y-67828581D01*
X148247618Y-67828581D02*
X148152380Y-67828581D01*
X152033333Y-66828581D02*
X152366666Y-66352390D01*
X152604761Y-66828581D02*
X152604761Y-65828581D01*
X152604761Y-65828581D02*
X152223809Y-65828581D01*
X152223809Y-65828581D02*
X152128571Y-65876200D01*
X152128571Y-65876200D02*
X152080952Y-65923819D01*
X152080952Y-65923819D02*
X152033333Y-66019057D01*
X152033333Y-66019057D02*
X152033333Y-66161914D01*
X152033333Y-66161914D02*
X152080952Y-66257152D01*
X152080952Y-66257152D02*
X152128571Y-66304771D01*
X152128571Y-66304771D02*
X152223809Y-66352390D01*
X152223809Y-66352390D02*
X152604761Y-66352390D01*
X151604761Y-66304771D02*
X151271428Y-66304771D01*
X151128571Y-66828581D02*
X151604761Y-66828581D01*
X151604761Y-66828581D02*
X151604761Y-65828581D01*
X151604761Y-65828581D02*
X151128571Y-65828581D01*
X150366666Y-66304771D02*
X150699999Y-66304771D01*
X150699999Y-66828581D02*
X150699999Y-65828581D01*
X150699999Y-65828581D02*
X150223809Y-65828581D01*
X149699999Y-65828581D02*
X149699999Y-66066676D01*
X149938094Y-65971438D02*
X149699999Y-66066676D01*
X149699999Y-66066676D02*
X149461904Y-65971438D01*
X149842856Y-66257152D02*
X149699999Y-66066676D01*
X149699999Y-66066676D02*
X149557142Y-66257152D01*
X148938094Y-65828581D02*
X148938094Y-66066676D01*
X149176189Y-65971438D02*
X148938094Y-66066676D01*
X148938094Y-66066676D02*
X148699999Y-65971438D01*
X149080951Y-66257152D02*
X148938094Y-66066676D01*
X148938094Y-66066676D02*
X148795237Y-66257152D01*
X144384819Y-96028571D02*
X144384819Y-95457143D01*
X144384819Y-95742857D02*
X143384819Y-95742857D01*
X143384819Y-95742857D02*
X143527676Y-95647619D01*
X143527676Y-95647619D02*
X143622914Y-95552381D01*
X143622914Y-95552381D02*
X143670533Y-95457143D01*
X143384819Y-96647619D02*
X143384819Y-96742857D01*
X143384819Y-96742857D02*
X143432438Y-96838095D01*
X143432438Y-96838095D02*
X143480057Y-96885714D01*
X143480057Y-96885714D02*
X143575295Y-96933333D01*
X143575295Y-96933333D02*
X143765771Y-96980952D01*
X143765771Y-96980952D02*
X144003866Y-96980952D01*
X144003866Y-96980952D02*
X144194342Y-96933333D01*
X144194342Y-96933333D02*
X144289580Y-96885714D01*
X144289580Y-96885714D02*
X144337200Y-96838095D01*
X144337200Y-96838095D02*
X144384819Y-96742857D01*
X144384819Y-96742857D02*
X144384819Y-96647619D01*
X144384819Y-96647619D02*
X144337200Y-96552381D01*
X144337200Y-96552381D02*
X144289580Y-96504762D01*
X144289580Y-96504762D02*
X144194342Y-96457143D01*
X144194342Y-96457143D02*
X144003866Y-96409524D01*
X144003866Y-96409524D02*
X143765771Y-96409524D01*
X143765771Y-96409524D02*
X143575295Y-96457143D01*
X143575295Y-96457143D02*
X143480057Y-96504762D01*
X143480057Y-96504762D02*
X143432438Y-96552381D01*
X143432438Y-96552381D02*
X143384819Y-96647619D01*
X143384819Y-97600000D02*
X143384819Y-97695238D01*
X143384819Y-97695238D02*
X143432438Y-97790476D01*
X143432438Y-97790476D02*
X143480057Y-97838095D01*
X143480057Y-97838095D02*
X143575295Y-97885714D01*
X143575295Y-97885714D02*
X143765771Y-97933333D01*
X143765771Y-97933333D02*
X144003866Y-97933333D01*
X144003866Y-97933333D02*
X144194342Y-97885714D01*
X144194342Y-97885714D02*
X144289580Y-97838095D01*
X144289580Y-97838095D02*
X144337200Y-97790476D01*
X144337200Y-97790476D02*
X144384819Y-97695238D01*
X144384819Y-97695238D02*
X144384819Y-97600000D01*
X144384819Y-97600000D02*
X144337200Y-97504762D01*
X144337200Y-97504762D02*
X144289580Y-97457143D01*
X144289580Y-97457143D02*
X144194342Y-97409524D01*
X144194342Y-97409524D02*
X144003866Y-97361905D01*
X144003866Y-97361905D02*
X143765771Y-97361905D01*
X143765771Y-97361905D02*
X143575295Y-97409524D01*
X143575295Y-97409524D02*
X143480057Y-97457143D01*
X143480057Y-97457143D02*
X143432438Y-97504762D01*
X143432438Y-97504762D02*
X143384819Y-97600000D01*
X144384819Y-98361905D02*
X143384819Y-98361905D01*
X144003866Y-98457143D02*
X144384819Y-98742857D01*
X143718152Y-98742857D02*
X144099104Y-98361905D01*
D11*
X142681927Y-96842857D02*
X142491451Y-96709524D01*
X142681927Y-96614286D02*
X142281927Y-96614286D01*
X142281927Y-96614286D02*
X142281927Y-96766667D01*
X142281927Y-96766667D02*
X142300975Y-96804762D01*
X142300975Y-96804762D02*
X142320022Y-96823809D01*
X142320022Y-96823809D02*
X142358118Y-96842857D01*
X142358118Y-96842857D02*
X142415260Y-96842857D01*
X142415260Y-96842857D02*
X142453356Y-96823809D01*
X142453356Y-96823809D02*
X142472403Y-96804762D01*
X142472403Y-96804762D02*
X142491451Y-96766667D01*
X142491451Y-96766667D02*
X142491451Y-96614286D01*
X142281927Y-96976190D02*
X142281927Y-97223809D01*
X142281927Y-97223809D02*
X142434308Y-97090476D01*
X142434308Y-97090476D02*
X142434308Y-97147619D01*
X142434308Y-97147619D02*
X142453356Y-97185714D01*
X142453356Y-97185714D02*
X142472403Y-97204762D01*
X142472403Y-97204762D02*
X142510499Y-97223809D01*
X142510499Y-97223809D02*
X142605737Y-97223809D01*
X142605737Y-97223809D02*
X142643832Y-97204762D01*
X142643832Y-97204762D02*
X142662880Y-97185714D01*
X142662880Y-97185714D02*
X142681927Y-97147619D01*
X142681927Y-97147619D02*
X142681927Y-97033333D01*
X142681927Y-97033333D02*
X142662880Y-96995238D01*
X142662880Y-96995238D02*
X142643832Y-96976190D01*
X142681927Y-97604761D02*
X142681927Y-97376190D01*
X142681927Y-97490476D02*
X142281927Y-97490476D01*
X142281927Y-97490476D02*
X142339070Y-97452380D01*
X142339070Y-97452380D02*
X142377165Y-97414285D01*
X142377165Y-97414285D02*
X142396213Y-97376190D01*
D10*
X147990475Y-57354819D02*
X147323809Y-58354819D01*
X147323809Y-57354819D02*
X147990475Y-58354819D01*
X146466666Y-58354819D02*
X146942856Y-58354819D01*
X146942856Y-58354819D02*
X146942856Y-57354819D01*
X146133332Y-57973866D02*
X145371428Y-57973866D01*
X144895237Y-58354819D02*
X144895237Y-57354819D01*
X144895237Y-57831009D02*
X144323809Y-57831009D01*
X144323809Y-58354819D02*
X144323809Y-57354819D01*
X143847618Y-58354819D02*
X143847618Y-57354819D01*
X143847618Y-57354819D02*
X143609523Y-57354819D01*
X143609523Y-57354819D02*
X143466666Y-57402438D01*
X143466666Y-57402438D02*
X143371428Y-57497676D01*
X143371428Y-57497676D02*
X143323809Y-57592914D01*
X143323809Y-57592914D02*
X143276190Y-57783390D01*
X143276190Y-57783390D02*
X143276190Y-57926247D01*
X143276190Y-57926247D02*
X143323809Y-58116723D01*
X143323809Y-58116723D02*
X143371428Y-58211961D01*
X143371428Y-58211961D02*
X143466666Y-58307200D01*
X143466666Y-58307200D02*
X143609523Y-58354819D01*
X143609523Y-58354819D02*
X143847618Y-58354819D01*
X142419047Y-57354819D02*
X142609523Y-57354819D01*
X142609523Y-57354819D02*
X142704761Y-57402438D01*
X142704761Y-57402438D02*
X142752380Y-57450057D01*
X142752380Y-57450057D02*
X142847618Y-57592914D01*
X142847618Y-57592914D02*
X142895237Y-57783390D01*
X142895237Y-57783390D02*
X142895237Y-58164342D01*
X142895237Y-58164342D02*
X142847618Y-58259580D01*
X142847618Y-58259580D02*
X142799999Y-58307200D01*
X142799999Y-58307200D02*
X142704761Y-58354819D01*
X142704761Y-58354819D02*
X142514285Y-58354819D01*
X142514285Y-58354819D02*
X142419047Y-58307200D01*
X142419047Y-58307200D02*
X142371428Y-58259580D01*
X142371428Y-58259580D02*
X142323809Y-58164342D01*
X142323809Y-58164342D02*
X142323809Y-57926247D01*
X142323809Y-57926247D02*
X142371428Y-57831009D01*
X142371428Y-57831009D02*
X142419047Y-57783390D01*
X142419047Y-57783390D02*
X142514285Y-57735771D01*
X142514285Y-57735771D02*
X142704761Y-57735771D01*
X142704761Y-57735771D02*
X142799999Y-57783390D01*
X142799999Y-57783390D02*
X142847618Y-57831009D01*
X142847618Y-57831009D02*
X142895237Y-57926247D01*
X141704761Y-57354819D02*
X141609523Y-57354819D01*
X141609523Y-57354819D02*
X141514285Y-57402438D01*
X141514285Y-57402438D02*
X141466666Y-57450057D01*
X141466666Y-57450057D02*
X141419047Y-57545295D01*
X141419047Y-57545295D02*
X141371428Y-57735771D01*
X141371428Y-57735771D02*
X141371428Y-57973866D01*
X141371428Y-57973866D02*
X141419047Y-58164342D01*
X141419047Y-58164342D02*
X141466666Y-58259580D01*
X141466666Y-58259580D02*
X141514285Y-58307200D01*
X141514285Y-58307200D02*
X141609523Y-58354819D01*
X141609523Y-58354819D02*
X141704761Y-58354819D01*
X141704761Y-58354819D02*
X141799999Y-58307200D01*
X141799999Y-58307200D02*
X141847618Y-58259580D01*
X141847618Y-58259580D02*
X141895237Y-58164342D01*
X141895237Y-58164342D02*
X141942856Y-57973866D01*
X141942856Y-57973866D02*
X141942856Y-57735771D01*
X141942856Y-57735771D02*
X141895237Y-57545295D01*
X141895237Y-57545295D02*
X141847618Y-57450057D01*
X141847618Y-57450057D02*
X141799999Y-57402438D01*
X141799999Y-57402438D02*
X141704761Y-57354819D01*
X141038094Y-57354819D02*
X140371428Y-57354819D01*
X140371428Y-57354819D02*
X140799999Y-58354819D01*
X139799999Y-57354819D02*
X139704761Y-57354819D01*
X139704761Y-57354819D02*
X139609523Y-57402438D01*
X139609523Y-57402438D02*
X139561904Y-57450057D01*
X139561904Y-57450057D02*
X139514285Y-57545295D01*
X139514285Y-57545295D02*
X139466666Y-57735771D01*
X139466666Y-57735771D02*
X139466666Y-57973866D01*
X139466666Y-57973866D02*
X139514285Y-58164342D01*
X139514285Y-58164342D02*
X139561904Y-58259580D01*
X139561904Y-58259580D02*
X139609523Y-58307200D01*
X139609523Y-58307200D02*
X139704761Y-58354819D01*
X139704761Y-58354819D02*
X139799999Y-58354819D01*
X139799999Y-58354819D02*
X139895237Y-58307200D01*
X139895237Y-58307200D02*
X139942856Y-58259580D01*
X139942856Y-58259580D02*
X139990475Y-58164342D01*
X139990475Y-58164342D02*
X140038094Y-57973866D01*
X140038094Y-57973866D02*
X140038094Y-57735771D01*
X140038094Y-57735771D02*
X139990475Y-57545295D01*
X139990475Y-57545295D02*
X139942856Y-57450057D01*
X139942856Y-57450057D02*
X139895237Y-57402438D01*
X139895237Y-57402438D02*
X139799999Y-57354819D01*
X138466666Y-58354819D02*
X138799999Y-57878628D01*
X139038094Y-58354819D02*
X139038094Y-57354819D01*
X139038094Y-57354819D02*
X138657142Y-57354819D01*
X138657142Y-57354819D02*
X138561904Y-57402438D01*
X138561904Y-57402438D02*
X138514285Y-57450057D01*
X138514285Y-57450057D02*
X138466666Y-57545295D01*
X138466666Y-57545295D02*
X138466666Y-57688152D01*
X138466666Y-57688152D02*
X138514285Y-57783390D01*
X138514285Y-57783390D02*
X138561904Y-57831009D01*
X138561904Y-57831009D02*
X138657142Y-57878628D01*
X138657142Y-57878628D02*
X139038094Y-57878628D01*
X137514285Y-57402438D02*
X137609523Y-57354819D01*
X137609523Y-57354819D02*
X137752380Y-57354819D01*
X137752380Y-57354819D02*
X137895237Y-57402438D01*
X137895237Y-57402438D02*
X137990475Y-57497676D01*
X137990475Y-57497676D02*
X138038094Y-57592914D01*
X138038094Y-57592914D02*
X138085713Y-57783390D01*
X138085713Y-57783390D02*
X138085713Y-57926247D01*
X138085713Y-57926247D02*
X138038094Y-58116723D01*
X138038094Y-58116723D02*
X137990475Y-58211961D01*
X137990475Y-58211961D02*
X137895237Y-58307200D01*
X137895237Y-58307200D02*
X137752380Y-58354819D01*
X137752380Y-58354819D02*
X137657142Y-58354819D01*
X137657142Y-58354819D02*
X137514285Y-58307200D01*
X137514285Y-58307200D02*
X137466666Y-58259580D01*
X137466666Y-58259580D02*
X137466666Y-57926247D01*
X137466666Y-57926247D02*
X137657142Y-57926247D01*
X136704761Y-57831009D02*
X136561904Y-57878628D01*
X136561904Y-57878628D02*
X136514285Y-57926247D01*
X136514285Y-57926247D02*
X136466666Y-58021485D01*
X136466666Y-58021485D02*
X136466666Y-58164342D01*
X136466666Y-58164342D02*
X136514285Y-58259580D01*
X136514285Y-58259580D02*
X136561904Y-58307200D01*
X136561904Y-58307200D02*
X136657142Y-58354819D01*
X136657142Y-58354819D02*
X137038094Y-58354819D01*
X137038094Y-58354819D02*
X137038094Y-57354819D01*
X137038094Y-57354819D02*
X136704761Y-57354819D01*
X136704761Y-57354819D02*
X136609523Y-57402438D01*
X136609523Y-57402438D02*
X136561904Y-57450057D01*
X136561904Y-57450057D02*
X136514285Y-57545295D01*
X136514285Y-57545295D02*
X136514285Y-57640533D01*
X136514285Y-57640533D02*
X136561904Y-57735771D01*
X136561904Y-57735771D02*
X136609523Y-57783390D01*
X136609523Y-57783390D02*
X136704761Y-57831009D01*
X136704761Y-57831009D02*
X137038094Y-57831009D01*
X135466666Y-58259580D02*
X135514285Y-58307200D01*
X135514285Y-58307200D02*
X135657142Y-58354819D01*
X135657142Y-58354819D02*
X135752380Y-58354819D01*
X135752380Y-58354819D02*
X135895237Y-58307200D01*
X135895237Y-58307200D02*
X135990475Y-58211961D01*
X135990475Y-58211961D02*
X136038094Y-58116723D01*
X136038094Y-58116723D02*
X136085713Y-57926247D01*
X136085713Y-57926247D02*
X136085713Y-57783390D01*
X136085713Y-57783390D02*
X136038094Y-57592914D01*
X136038094Y-57592914D02*
X135990475Y-57497676D01*
X135990475Y-57497676D02*
X135895237Y-57402438D01*
X135895237Y-57402438D02*
X135752380Y-57354819D01*
X135752380Y-57354819D02*
X135657142Y-57354819D01*
X135657142Y-57354819D02*
X135514285Y-57402438D01*
X135514285Y-57402438D02*
X135466666Y-57450057D01*
X135038094Y-57973866D02*
X134276190Y-57973866D01*
X133847618Y-58069104D02*
X133371428Y-58069104D01*
X133942856Y-58354819D02*
X133609523Y-57354819D01*
X133609523Y-57354819D02*
X133276190Y-58354819D01*
X132514285Y-57688152D02*
X132514285Y-58354819D01*
X132752380Y-57307200D02*
X132990475Y-58021485D01*
X132990475Y-58021485D02*
X132371428Y-58021485D01*
X131561904Y-57354819D02*
X131752380Y-57354819D01*
X131752380Y-57354819D02*
X131847618Y-57402438D01*
X131847618Y-57402438D02*
X131895237Y-57450057D01*
X131895237Y-57450057D02*
X131990475Y-57592914D01*
X131990475Y-57592914D02*
X132038094Y-57783390D01*
X132038094Y-57783390D02*
X132038094Y-58164342D01*
X132038094Y-58164342D02*
X131990475Y-58259580D01*
X131990475Y-58259580D02*
X131942856Y-58307200D01*
X131942856Y-58307200D02*
X131847618Y-58354819D01*
X131847618Y-58354819D02*
X131657142Y-58354819D01*
X131657142Y-58354819D02*
X131561904Y-58307200D01*
X131561904Y-58307200D02*
X131514285Y-58259580D01*
X131514285Y-58259580D02*
X131466666Y-58164342D01*
X131466666Y-58164342D02*
X131466666Y-57926247D01*
X131466666Y-57926247D02*
X131514285Y-57831009D01*
X131514285Y-57831009D02*
X131561904Y-57783390D01*
X131561904Y-57783390D02*
X131657142Y-57735771D01*
X131657142Y-57735771D02*
X131847618Y-57735771D01*
X131847618Y-57735771D02*
X131942856Y-57783390D01*
X131942856Y-57783390D02*
X131990475Y-57831009D01*
X131990475Y-57831009D02*
X132038094Y-57926247D01*
X130561904Y-58354819D02*
X131038094Y-58354819D01*
X131038094Y-58354819D02*
X131038094Y-57354819D01*
X153633333Y-64504806D02*
X153966666Y-64028615D01*
X154204761Y-64504806D02*
X154204761Y-63504806D01*
X154204761Y-63504806D02*
X153823809Y-63504806D01*
X153823809Y-63504806D02*
X153728571Y-63552425D01*
X153728571Y-63552425D02*
X153680952Y-63600044D01*
X153680952Y-63600044D02*
X153633333Y-63695282D01*
X153633333Y-63695282D02*
X153633333Y-63838139D01*
X153633333Y-63838139D02*
X153680952Y-63933377D01*
X153680952Y-63933377D02*
X153728571Y-63980996D01*
X153728571Y-63980996D02*
X153823809Y-64028615D01*
X153823809Y-64028615D02*
X154204761Y-64028615D01*
X153204761Y-63980996D02*
X152871428Y-63980996D01*
X152728571Y-64504806D02*
X153204761Y-64504806D01*
X153204761Y-64504806D02*
X153204761Y-63504806D01*
X153204761Y-63504806D02*
X152728571Y-63504806D01*
X151966666Y-63980996D02*
X152299999Y-63980996D01*
X152299999Y-64504806D02*
X152299999Y-63504806D01*
X152299999Y-63504806D02*
X151823809Y-63504806D01*
X151299999Y-63504806D02*
X151299999Y-63742901D01*
X151538094Y-63647663D02*
X151299999Y-63742901D01*
X151299999Y-63742901D02*
X151061904Y-63647663D01*
X151442856Y-63933377D02*
X151299999Y-63742901D01*
X151299999Y-63742901D02*
X151157142Y-63933377D01*
X150538094Y-63504806D02*
X150538094Y-63742901D01*
X150776189Y-63647663D02*
X150538094Y-63742901D01*
X150538094Y-63742901D02*
X150299999Y-63647663D01*
X150680951Y-63933377D02*
X150538094Y-63742901D01*
X150538094Y-63742901D02*
X150395237Y-63933377D01*
X131961980Y-97955225D02*
X131390552Y-97955225D01*
X131676266Y-98955225D02*
X131676266Y-97955225D01*
X130581028Y-98955225D02*
X131057218Y-98955225D01*
X131057218Y-98955225D02*
X131057218Y-97955225D01*
X130390551Y-97955225D02*
X130057218Y-98955225D01*
X130057218Y-98955225D02*
X129723885Y-97955225D01*
X129342932Y-98955225D02*
X129152456Y-98955225D01*
X129152456Y-98955225D02*
X129057218Y-98907606D01*
X129057218Y-98907606D02*
X129009599Y-98859986D01*
X129009599Y-98859986D02*
X128914361Y-98717129D01*
X128914361Y-98717129D02*
X128866742Y-98526653D01*
X128866742Y-98526653D02*
X128866742Y-98145701D01*
X128866742Y-98145701D02*
X128914361Y-98050463D01*
X128914361Y-98050463D02*
X128961980Y-98002844D01*
X128961980Y-98002844D02*
X129057218Y-97955225D01*
X129057218Y-97955225D02*
X129247694Y-97955225D01*
X129247694Y-97955225D02*
X129342932Y-98002844D01*
X129342932Y-98002844D02*
X129390551Y-98050463D01*
X129390551Y-98050463D02*
X129438170Y-98145701D01*
X129438170Y-98145701D02*
X129438170Y-98383796D01*
X129438170Y-98383796D02*
X129390551Y-98479034D01*
X129390551Y-98479034D02*
X129342932Y-98526653D01*
X129342932Y-98526653D02*
X129247694Y-98574272D01*
X129247694Y-98574272D02*
X129057218Y-98574272D01*
X129057218Y-98574272D02*
X128961980Y-98526653D01*
X128961980Y-98526653D02*
X128914361Y-98479034D01*
X128914361Y-98479034D02*
X128866742Y-98383796D01*
X128247694Y-97955225D02*
X128152456Y-97955225D01*
X128152456Y-97955225D02*
X128057218Y-98002844D01*
X128057218Y-98002844D02*
X128009599Y-98050463D01*
X128009599Y-98050463D02*
X127961980Y-98145701D01*
X127961980Y-98145701D02*
X127914361Y-98336177D01*
X127914361Y-98336177D02*
X127914361Y-98574272D01*
X127914361Y-98574272D02*
X127961980Y-98764748D01*
X127961980Y-98764748D02*
X128009599Y-98859986D01*
X128009599Y-98859986D02*
X128057218Y-98907606D01*
X128057218Y-98907606D02*
X128152456Y-98955225D01*
X128152456Y-98955225D02*
X128247694Y-98955225D01*
X128247694Y-98955225D02*
X128342932Y-98907606D01*
X128342932Y-98907606D02*
X128390551Y-98859986D01*
X128390551Y-98859986D02*
X128438170Y-98764748D01*
X128438170Y-98764748D02*
X128485789Y-98574272D01*
X128485789Y-98574272D02*
X128485789Y-98336177D01*
X128485789Y-98336177D02*
X128438170Y-98145701D01*
X128438170Y-98145701D02*
X128390551Y-98050463D01*
X128390551Y-98050463D02*
X128342932Y-98002844D01*
X128342932Y-98002844D02*
X128247694Y-97955225D01*
X127295313Y-97955225D02*
X127200075Y-97955225D01*
X127200075Y-97955225D02*
X127104837Y-98002844D01*
X127104837Y-98002844D02*
X127057218Y-98050463D01*
X127057218Y-98050463D02*
X127009599Y-98145701D01*
X127009599Y-98145701D02*
X126961980Y-98336177D01*
X126961980Y-98336177D02*
X126961980Y-98574272D01*
X126961980Y-98574272D02*
X127009599Y-98764748D01*
X127009599Y-98764748D02*
X127057218Y-98859986D01*
X127057218Y-98859986D02*
X127104837Y-98907606D01*
X127104837Y-98907606D02*
X127200075Y-98955225D01*
X127200075Y-98955225D02*
X127295313Y-98955225D01*
X127295313Y-98955225D02*
X127390551Y-98907606D01*
X127390551Y-98907606D02*
X127438170Y-98859986D01*
X127438170Y-98859986D02*
X127485789Y-98764748D01*
X127485789Y-98764748D02*
X127533408Y-98574272D01*
X127533408Y-98574272D02*
X127533408Y-98336177D01*
X127533408Y-98336177D02*
X127485789Y-98145701D01*
X127485789Y-98145701D02*
X127438170Y-98050463D01*
X127438170Y-98050463D02*
X127390551Y-98002844D01*
X127390551Y-98002844D02*
X127295313Y-97955225D01*
X126581027Y-98050463D02*
X126533408Y-98002844D01*
X126533408Y-98002844D02*
X126438170Y-97955225D01*
X126438170Y-97955225D02*
X126200075Y-97955225D01*
X126200075Y-97955225D02*
X126104837Y-98002844D01*
X126104837Y-98002844D02*
X126057218Y-98050463D01*
X126057218Y-98050463D02*
X126009599Y-98145701D01*
X126009599Y-98145701D02*
X126009599Y-98240939D01*
X126009599Y-98240939D02*
X126057218Y-98383796D01*
X126057218Y-98383796D02*
X126628646Y-98955225D01*
X126628646Y-98955225D02*
X126009599Y-98955225D01*
X125581027Y-98955225D02*
X125581027Y-97955225D01*
X125104837Y-98955225D02*
X125104837Y-97955225D01*
X125104837Y-97955225D02*
X124866742Y-97955225D01*
X124866742Y-97955225D02*
X124723885Y-98002844D01*
X124723885Y-98002844D02*
X124628647Y-98098082D01*
X124628647Y-98098082D02*
X124581028Y-98193320D01*
X124581028Y-98193320D02*
X124533409Y-98383796D01*
X124533409Y-98383796D02*
X124533409Y-98526653D01*
X124533409Y-98526653D02*
X124581028Y-98717129D01*
X124581028Y-98717129D02*
X124628647Y-98812367D01*
X124628647Y-98812367D02*
X124723885Y-98907606D01*
X124723885Y-98907606D02*
X124866742Y-98955225D01*
X124866742Y-98955225D02*
X125104837Y-98955225D01*
X123533409Y-98955225D02*
X123866742Y-98479034D01*
X124104837Y-98955225D02*
X124104837Y-97955225D01*
X124104837Y-97955225D02*
X123723885Y-97955225D01*
X123723885Y-97955225D02*
X123628647Y-98002844D01*
X123628647Y-98002844D02*
X123581028Y-98050463D01*
X123581028Y-98050463D02*
X123533409Y-98145701D01*
X123533409Y-98145701D02*
X123533409Y-98288558D01*
X123533409Y-98288558D02*
X123581028Y-98383796D01*
X123581028Y-98383796D02*
X123628647Y-98431415D01*
X123628647Y-98431415D02*
X123723885Y-98479034D01*
X123723885Y-98479034D02*
X124104837Y-98479034D01*
X129033409Y-100955225D02*
X129366742Y-100479034D01*
X129604837Y-100955225D02*
X129604837Y-99955225D01*
X129604837Y-99955225D02*
X129223885Y-99955225D01*
X129223885Y-99955225D02*
X129128647Y-100002844D01*
X129128647Y-100002844D02*
X129081028Y-100050463D01*
X129081028Y-100050463D02*
X129033409Y-100145701D01*
X129033409Y-100145701D02*
X129033409Y-100288558D01*
X129033409Y-100288558D02*
X129081028Y-100383796D01*
X129081028Y-100383796D02*
X129128647Y-100431415D01*
X129128647Y-100431415D02*
X129223885Y-100479034D01*
X129223885Y-100479034D02*
X129604837Y-100479034D01*
X128604837Y-100431415D02*
X128271504Y-100431415D01*
X128128647Y-100955225D02*
X128604837Y-100955225D01*
X128604837Y-100955225D02*
X128604837Y-99955225D01*
X128604837Y-99955225D02*
X128128647Y-99955225D01*
X127366742Y-100431415D02*
X127700075Y-100431415D01*
X127700075Y-100955225D02*
X127700075Y-99955225D01*
X127700075Y-99955225D02*
X127223885Y-99955225D01*
X126700075Y-99955225D02*
X126700075Y-100193320D01*
X126938170Y-100098082D02*
X126700075Y-100193320D01*
X126700075Y-100193320D02*
X126461980Y-100098082D01*
X126842932Y-100383796D02*
X126700075Y-100193320D01*
X126700075Y-100193320D02*
X126557218Y-100383796D01*
X125938170Y-99955225D02*
X125938170Y-100193320D01*
X126176265Y-100098082D02*
X125938170Y-100193320D01*
X125938170Y-100193320D02*
X125700075Y-100098082D01*
X126081027Y-100383796D02*
X125938170Y-100193320D01*
X125938170Y-100193320D02*
X125795313Y-100383796D01*
X129771428Y-98324819D02*
X130342856Y-98324819D01*
X130057142Y-98324819D02*
X130057142Y-97324819D01*
X130057142Y-97324819D02*
X130152380Y-97467676D01*
X130152380Y-97467676D02*
X130247618Y-97562914D01*
X130247618Y-97562914D02*
X130342856Y-97610533D01*
X129152380Y-97324819D02*
X129057142Y-97324819D01*
X129057142Y-97324819D02*
X128961904Y-97372438D01*
X128961904Y-97372438D02*
X128914285Y-97420057D01*
X128914285Y-97420057D02*
X128866666Y-97515295D01*
X128866666Y-97515295D02*
X128819047Y-97705771D01*
X128819047Y-97705771D02*
X128819047Y-97943866D01*
X128819047Y-97943866D02*
X128866666Y-98134342D01*
X128866666Y-98134342D02*
X128914285Y-98229580D01*
X128914285Y-98229580D02*
X128961904Y-98277200D01*
X128961904Y-98277200D02*
X129057142Y-98324819D01*
X129057142Y-98324819D02*
X129152380Y-98324819D01*
X129152380Y-98324819D02*
X129247618Y-98277200D01*
X129247618Y-98277200D02*
X129295237Y-98229580D01*
X129295237Y-98229580D02*
X129342856Y-98134342D01*
X129342856Y-98134342D02*
X129390475Y-97943866D01*
X129390475Y-97943866D02*
X129390475Y-97705771D01*
X129390475Y-97705771D02*
X129342856Y-97515295D01*
X129342856Y-97515295D02*
X129295237Y-97420057D01*
X129295237Y-97420057D02*
X129247618Y-97372438D01*
X129247618Y-97372438D02*
X129152380Y-97324819D01*
X128199999Y-97324819D02*
X128104761Y-97324819D01*
X128104761Y-97324819D02*
X128009523Y-97372438D01*
X128009523Y-97372438D02*
X127961904Y-97420057D01*
X127961904Y-97420057D02*
X127914285Y-97515295D01*
X127914285Y-97515295D02*
X127866666Y-97705771D01*
X127866666Y-97705771D02*
X127866666Y-97943866D01*
X127866666Y-97943866D02*
X127914285Y-98134342D01*
X127914285Y-98134342D02*
X127961904Y-98229580D01*
X127961904Y-98229580D02*
X128009523Y-98277200D01*
X128009523Y-98277200D02*
X128104761Y-98324819D01*
X128104761Y-98324819D02*
X128199999Y-98324819D01*
X128199999Y-98324819D02*
X128295237Y-98277200D01*
X128295237Y-98277200D02*
X128342856Y-98229580D01*
X128342856Y-98229580D02*
X128390475Y-98134342D01*
X128390475Y-98134342D02*
X128438094Y-97943866D01*
X128438094Y-97943866D02*
X128438094Y-97705771D01*
X128438094Y-97705771D02*
X128390475Y-97515295D01*
X128390475Y-97515295D02*
X128342856Y-97420057D01*
X128342856Y-97420057D02*
X128295237Y-97372438D01*
X128295237Y-97372438D02*
X128199999Y-97324819D01*
X127438094Y-98324819D02*
X127438094Y-97324819D01*
X127342856Y-97943866D02*
X127057142Y-98324819D01*
X127057142Y-97658152D02*
X127438094Y-98039104D01*
D11*
X128957142Y-99481927D02*
X129090475Y-99291451D01*
X129185713Y-99481927D02*
X129185713Y-99081927D01*
X129185713Y-99081927D02*
X129033332Y-99081927D01*
X129033332Y-99081927D02*
X128995237Y-99100975D01*
X128995237Y-99100975D02*
X128976190Y-99120022D01*
X128976190Y-99120022D02*
X128957142Y-99158118D01*
X128957142Y-99158118D02*
X128957142Y-99215260D01*
X128957142Y-99215260D02*
X128976190Y-99253356D01*
X128976190Y-99253356D02*
X128995237Y-99272403D01*
X128995237Y-99272403D02*
X129033332Y-99291451D01*
X129033332Y-99291451D02*
X129185713Y-99291451D01*
X128804761Y-99120022D02*
X128785713Y-99100975D01*
X128785713Y-99100975D02*
X128747618Y-99081927D01*
X128747618Y-99081927D02*
X128652380Y-99081927D01*
X128652380Y-99081927D02*
X128614285Y-99100975D01*
X128614285Y-99100975D02*
X128595237Y-99120022D01*
X128595237Y-99120022D02*
X128576190Y-99158118D01*
X128576190Y-99158118D02*
X128576190Y-99196213D01*
X128576190Y-99196213D02*
X128595237Y-99253356D01*
X128595237Y-99253356D02*
X128823809Y-99481927D01*
X128823809Y-99481927D02*
X128576190Y-99481927D01*
X128214285Y-99081927D02*
X128404761Y-99081927D01*
X128404761Y-99081927D02*
X128423809Y-99272403D01*
X128423809Y-99272403D02*
X128404761Y-99253356D01*
X128404761Y-99253356D02*
X128366666Y-99234308D01*
X128366666Y-99234308D02*
X128271428Y-99234308D01*
X128271428Y-99234308D02*
X128233333Y-99253356D01*
X128233333Y-99253356D02*
X128214285Y-99272403D01*
X128214285Y-99272403D02*
X128195238Y-99310499D01*
X128195238Y-99310499D02*
X128195238Y-99405737D01*
X128195238Y-99405737D02*
X128214285Y-99443832D01*
X128214285Y-99443832D02*
X128233333Y-99462880D01*
X128233333Y-99462880D02*
X128271428Y-99481927D01*
X128271428Y-99481927D02*
X128366666Y-99481927D01*
X128366666Y-99481927D02*
X128404761Y-99462880D01*
X128404761Y-99462880D02*
X128423809Y-99443832D01*
D10*
X135133018Y-107347011D02*
X134990161Y-107394630D01*
X134990161Y-107394630D02*
X134942542Y-107442249D01*
X134942542Y-107442249D02*
X134894923Y-107537487D01*
X134894923Y-107537487D02*
X134894923Y-107680344D01*
X134894923Y-107680344D02*
X134942542Y-107775582D01*
X134942542Y-107775582D02*
X134990161Y-107823202D01*
X134990161Y-107823202D02*
X135085399Y-107870821D01*
X135085399Y-107870821D02*
X135466351Y-107870821D01*
X135466351Y-107870821D02*
X135466351Y-106870821D01*
X135466351Y-106870821D02*
X135133018Y-106870821D01*
X135133018Y-106870821D02*
X135037780Y-106918440D01*
X135037780Y-106918440D02*
X134990161Y-106966059D01*
X134990161Y-106966059D02*
X134942542Y-107061297D01*
X134942542Y-107061297D02*
X134942542Y-107156535D01*
X134942542Y-107156535D02*
X134990161Y-107251773D01*
X134990161Y-107251773D02*
X135037780Y-107299392D01*
X135037780Y-107299392D02*
X135133018Y-107347011D01*
X135133018Y-107347011D02*
X135466351Y-107347011D01*
X134037780Y-107204154D02*
X134037780Y-107870821D01*
X134275875Y-106823202D02*
X134513970Y-107537487D01*
X134513970Y-107537487D02*
X133894923Y-107537487D01*
X133323494Y-106870821D02*
X133228256Y-106870821D01*
X133228256Y-106870821D02*
X133133018Y-106918440D01*
X133133018Y-106918440D02*
X133085399Y-106966059D01*
X133085399Y-106966059D02*
X133037780Y-107061297D01*
X133037780Y-107061297D02*
X132990161Y-107251773D01*
X132990161Y-107251773D02*
X132990161Y-107489868D01*
X132990161Y-107489868D02*
X133037780Y-107680344D01*
X133037780Y-107680344D02*
X133085399Y-107775582D01*
X133085399Y-107775582D02*
X133133018Y-107823202D01*
X133133018Y-107823202D02*
X133228256Y-107870821D01*
X133228256Y-107870821D02*
X133323494Y-107870821D01*
X133323494Y-107870821D02*
X133418732Y-107823202D01*
X133418732Y-107823202D02*
X133466351Y-107775582D01*
X133466351Y-107775582D02*
X133513970Y-107680344D01*
X133513970Y-107680344D02*
X133561589Y-107489868D01*
X133561589Y-107489868D02*
X133561589Y-107251773D01*
X133561589Y-107251773D02*
X133513970Y-107061297D01*
X133513970Y-107061297D02*
X133466351Y-106966059D01*
X133466351Y-106966059D02*
X133418732Y-106918440D01*
X133418732Y-106918440D02*
X133323494Y-106870821D01*
X132037780Y-107870821D02*
X132609208Y-107870821D01*
X132323494Y-107870821D02*
X132323494Y-106870821D01*
X132323494Y-106870821D02*
X132418732Y-107013678D01*
X132418732Y-107013678D02*
X132513970Y-107108916D01*
X132513970Y-107108916D02*
X132609208Y-107156535D01*
X131704446Y-106870821D02*
X131085399Y-106870821D01*
X131085399Y-106870821D02*
X131418732Y-107251773D01*
X131418732Y-107251773D02*
X131275875Y-107251773D01*
X131275875Y-107251773D02*
X131180637Y-107299392D01*
X131180637Y-107299392D02*
X131133018Y-107347011D01*
X131133018Y-107347011D02*
X131085399Y-107442249D01*
X131085399Y-107442249D02*
X131085399Y-107680344D01*
X131085399Y-107680344D02*
X131133018Y-107775582D01*
X131133018Y-107775582D02*
X131180637Y-107823202D01*
X131180637Y-107823202D02*
X131275875Y-107870821D01*
X131275875Y-107870821D02*
X131561589Y-107870821D01*
X131561589Y-107870821D02*
X131656827Y-107823202D01*
X131656827Y-107823202D02*
X131704446Y-107775582D01*
X130704446Y-107585106D02*
X130228256Y-107585106D01*
X130799684Y-107870821D02*
X130466351Y-106870821D01*
X130466351Y-106870821D02*
X130133018Y-107870821D01*
X129799684Y-107870821D02*
X129799684Y-106870821D01*
X129799684Y-106870821D02*
X129466351Y-107585106D01*
X129466351Y-107585106D02*
X129133018Y-106870821D01*
X129133018Y-106870821D02*
X129133018Y-107870821D01*
X128228256Y-107204154D02*
X128228256Y-107870821D01*
X128466351Y-106823202D02*
X128704446Y-107537487D01*
X128704446Y-107537487D02*
X128085399Y-107537487D01*
X127752065Y-106966059D02*
X127704446Y-106918440D01*
X127704446Y-106918440D02*
X127609208Y-106870821D01*
X127609208Y-106870821D02*
X127371113Y-106870821D01*
X127371113Y-106870821D02*
X127275875Y-106918440D01*
X127275875Y-106918440D02*
X127228256Y-106966059D01*
X127228256Y-106966059D02*
X127180637Y-107061297D01*
X127180637Y-107061297D02*
X127180637Y-107156535D01*
X127180637Y-107156535D02*
X127228256Y-107299392D01*
X127228256Y-107299392D02*
X127799684Y-107870821D01*
X127799684Y-107870821D02*
X127180637Y-107870821D01*
X126847303Y-106870821D02*
X126228256Y-106870821D01*
X126228256Y-106870821D02*
X126561589Y-107251773D01*
X126561589Y-107251773D02*
X126418732Y-107251773D01*
X126418732Y-107251773D02*
X126323494Y-107299392D01*
X126323494Y-107299392D02*
X126275875Y-107347011D01*
X126275875Y-107347011D02*
X126228256Y-107442249D01*
X126228256Y-107442249D02*
X126228256Y-107680344D01*
X126228256Y-107680344D02*
X126275875Y-107775582D01*
X126275875Y-107775582D02*
X126323494Y-107823202D01*
X126323494Y-107823202D02*
X126418732Y-107870821D01*
X126418732Y-107870821D02*
X126704446Y-107870821D01*
X126704446Y-107870821D02*
X126799684Y-107823202D01*
X126799684Y-107823202D02*
X126847303Y-107775582D01*
X125799684Y-107489868D02*
X125037780Y-107489868D01*
X124371113Y-106870821D02*
X124275875Y-106870821D01*
X124275875Y-106870821D02*
X124180637Y-106918440D01*
X124180637Y-106918440D02*
X124133018Y-106966059D01*
X124133018Y-106966059D02*
X124085399Y-107061297D01*
X124085399Y-107061297D02*
X124037780Y-107251773D01*
X124037780Y-107251773D02*
X124037780Y-107489868D01*
X124037780Y-107489868D02*
X124085399Y-107680344D01*
X124085399Y-107680344D02*
X124133018Y-107775582D01*
X124133018Y-107775582D02*
X124180637Y-107823202D01*
X124180637Y-107823202D02*
X124275875Y-107870821D01*
X124275875Y-107870821D02*
X124371113Y-107870821D01*
X124371113Y-107870821D02*
X124466351Y-107823202D01*
X124466351Y-107823202D02*
X124513970Y-107775582D01*
X124513970Y-107775582D02*
X124561589Y-107680344D01*
X124561589Y-107680344D02*
X124609208Y-107489868D01*
X124609208Y-107489868D02*
X124609208Y-107251773D01*
X124609208Y-107251773D02*
X124561589Y-107061297D01*
X124561589Y-107061297D02*
X124513970Y-106966059D01*
X124513970Y-106966059D02*
X124466351Y-106918440D01*
X124466351Y-106918440D02*
X124371113Y-106870821D01*
X123561589Y-107870821D02*
X123371113Y-107870821D01*
X123371113Y-107870821D02*
X123275875Y-107823202D01*
X123275875Y-107823202D02*
X123228256Y-107775582D01*
X123228256Y-107775582D02*
X123133018Y-107632725D01*
X123133018Y-107632725D02*
X123085399Y-107442249D01*
X123085399Y-107442249D02*
X123085399Y-107061297D01*
X123085399Y-107061297D02*
X123133018Y-106966059D01*
X123133018Y-106966059D02*
X123180637Y-106918440D01*
X123180637Y-106918440D02*
X123275875Y-106870821D01*
X123275875Y-106870821D02*
X123466351Y-106870821D01*
X123466351Y-106870821D02*
X123561589Y-106918440D01*
X123561589Y-106918440D02*
X123609208Y-106966059D01*
X123609208Y-106966059D02*
X123656827Y-107061297D01*
X123656827Y-107061297D02*
X123656827Y-107299392D01*
X123656827Y-107299392D02*
X123609208Y-107394630D01*
X123609208Y-107394630D02*
X123561589Y-107442249D01*
X123561589Y-107442249D02*
X123466351Y-107489868D01*
X123466351Y-107489868D02*
X123275875Y-107489868D01*
X123275875Y-107489868D02*
X123180637Y-107442249D01*
X123180637Y-107442249D02*
X123133018Y-107394630D01*
X123133018Y-107394630D02*
X123085399Y-107299392D01*
X122752065Y-106870821D02*
X122133018Y-106870821D01*
X122133018Y-106870821D02*
X122466351Y-107251773D01*
X122466351Y-107251773D02*
X122323494Y-107251773D01*
X122323494Y-107251773D02*
X122228256Y-107299392D01*
X122228256Y-107299392D02*
X122180637Y-107347011D01*
X122180637Y-107347011D02*
X122133018Y-107442249D01*
X122133018Y-107442249D02*
X122133018Y-107680344D01*
X122133018Y-107680344D02*
X122180637Y-107775582D01*
X122180637Y-107775582D02*
X122228256Y-107823202D01*
X122228256Y-107823202D02*
X122323494Y-107870821D01*
X122323494Y-107870821D02*
X122609208Y-107870821D01*
X122609208Y-107870821D02*
X122704446Y-107823202D01*
X122704446Y-107823202D02*
X122752065Y-107775582D01*
X130156828Y-109870821D02*
X130490161Y-109394630D01*
X130728256Y-109870821D02*
X130728256Y-108870821D01*
X130728256Y-108870821D02*
X130347304Y-108870821D01*
X130347304Y-108870821D02*
X130252066Y-108918440D01*
X130252066Y-108918440D02*
X130204447Y-108966059D01*
X130204447Y-108966059D02*
X130156828Y-109061297D01*
X130156828Y-109061297D02*
X130156828Y-109204154D01*
X130156828Y-109204154D02*
X130204447Y-109299392D01*
X130204447Y-109299392D02*
X130252066Y-109347011D01*
X130252066Y-109347011D02*
X130347304Y-109394630D01*
X130347304Y-109394630D02*
X130728256Y-109394630D01*
X129728256Y-109347011D02*
X129394923Y-109347011D01*
X129252066Y-109870821D02*
X129728256Y-109870821D01*
X129728256Y-109870821D02*
X129728256Y-108870821D01*
X129728256Y-108870821D02*
X129252066Y-108870821D01*
X128490161Y-109347011D02*
X128823494Y-109347011D01*
X128823494Y-109870821D02*
X128823494Y-108870821D01*
X128823494Y-108870821D02*
X128347304Y-108870821D01*
X127823494Y-108870821D02*
X127823494Y-109108916D01*
X128061589Y-109013678D02*
X127823494Y-109108916D01*
X127823494Y-109108916D02*
X127585399Y-109013678D01*
X127966351Y-109299392D02*
X127823494Y-109108916D01*
X127823494Y-109108916D02*
X127680637Y-109299392D01*
X127061589Y-108870821D02*
X127061589Y-109108916D01*
X127299684Y-109013678D02*
X127061589Y-109108916D01*
X127061589Y-109108916D02*
X126823494Y-109013678D01*
X127204446Y-109299392D02*
X127061589Y-109108916D01*
X127061589Y-109108916D02*
X126918732Y-109299392D01*
X138671428Y-97884819D02*
X139242856Y-97884819D01*
X138957142Y-97884819D02*
X138957142Y-96884819D01*
X138957142Y-96884819D02*
X139052380Y-97027676D01*
X139052380Y-97027676D02*
X139147618Y-97122914D01*
X139147618Y-97122914D02*
X139242856Y-97170533D01*
X138052380Y-96884819D02*
X137957142Y-96884819D01*
X137957142Y-96884819D02*
X137861904Y-96932438D01*
X137861904Y-96932438D02*
X137814285Y-96980057D01*
X137814285Y-96980057D02*
X137766666Y-97075295D01*
X137766666Y-97075295D02*
X137719047Y-97265771D01*
X137719047Y-97265771D02*
X137719047Y-97503866D01*
X137719047Y-97503866D02*
X137766666Y-97694342D01*
X137766666Y-97694342D02*
X137814285Y-97789580D01*
X137814285Y-97789580D02*
X137861904Y-97837200D01*
X137861904Y-97837200D02*
X137957142Y-97884819D01*
X137957142Y-97884819D02*
X138052380Y-97884819D01*
X138052380Y-97884819D02*
X138147618Y-97837200D01*
X138147618Y-97837200D02*
X138195237Y-97789580D01*
X138195237Y-97789580D02*
X138242856Y-97694342D01*
X138242856Y-97694342D02*
X138290475Y-97503866D01*
X138290475Y-97503866D02*
X138290475Y-97265771D01*
X138290475Y-97265771D02*
X138242856Y-97075295D01*
X138242856Y-97075295D02*
X138195237Y-96980057D01*
X138195237Y-96980057D02*
X138147618Y-96932438D01*
X138147618Y-96932438D02*
X138052380Y-96884819D01*
X137099999Y-96884819D02*
X137004761Y-96884819D01*
X137004761Y-96884819D02*
X136909523Y-96932438D01*
X136909523Y-96932438D02*
X136861904Y-96980057D01*
X136861904Y-96980057D02*
X136814285Y-97075295D01*
X136814285Y-97075295D02*
X136766666Y-97265771D01*
X136766666Y-97265771D02*
X136766666Y-97503866D01*
X136766666Y-97503866D02*
X136814285Y-97694342D01*
X136814285Y-97694342D02*
X136861904Y-97789580D01*
X136861904Y-97789580D02*
X136909523Y-97837200D01*
X136909523Y-97837200D02*
X137004761Y-97884819D01*
X137004761Y-97884819D02*
X137099999Y-97884819D01*
X137099999Y-97884819D02*
X137195237Y-97837200D01*
X137195237Y-97837200D02*
X137242856Y-97789580D01*
X137242856Y-97789580D02*
X137290475Y-97694342D01*
X137290475Y-97694342D02*
X137338094Y-97503866D01*
X137338094Y-97503866D02*
X137338094Y-97265771D01*
X137338094Y-97265771D02*
X137290475Y-97075295D01*
X137290475Y-97075295D02*
X137242856Y-96980057D01*
X137242856Y-96980057D02*
X137195237Y-96932438D01*
X137195237Y-96932438D02*
X137099999Y-96884819D01*
X136338094Y-97884819D02*
X136338094Y-96884819D01*
X136242856Y-97503866D02*
X135957142Y-97884819D01*
X135957142Y-97218152D02*
X136338094Y-97599104D01*
D11*
X137857142Y-96181927D02*
X137990475Y-95991451D01*
X138085713Y-96181927D02*
X138085713Y-95781927D01*
X138085713Y-95781927D02*
X137933332Y-95781927D01*
X137933332Y-95781927D02*
X137895237Y-95800975D01*
X137895237Y-95800975D02*
X137876190Y-95820022D01*
X137876190Y-95820022D02*
X137857142Y-95858118D01*
X137857142Y-95858118D02*
X137857142Y-95915260D01*
X137857142Y-95915260D02*
X137876190Y-95953356D01*
X137876190Y-95953356D02*
X137895237Y-95972403D01*
X137895237Y-95972403D02*
X137933332Y-95991451D01*
X137933332Y-95991451D02*
X138085713Y-95991451D01*
X137723809Y-95781927D02*
X137476190Y-95781927D01*
X137476190Y-95781927D02*
X137609523Y-95934308D01*
X137609523Y-95934308D02*
X137552380Y-95934308D01*
X137552380Y-95934308D02*
X137514285Y-95953356D01*
X137514285Y-95953356D02*
X137495237Y-95972403D01*
X137495237Y-95972403D02*
X137476190Y-96010499D01*
X137476190Y-96010499D02*
X137476190Y-96105737D01*
X137476190Y-96105737D02*
X137495237Y-96143832D01*
X137495237Y-96143832D02*
X137514285Y-96162880D01*
X137514285Y-96162880D02*
X137552380Y-96181927D01*
X137552380Y-96181927D02*
X137666666Y-96181927D01*
X137666666Y-96181927D02*
X137704761Y-96162880D01*
X137704761Y-96162880D02*
X137723809Y-96143832D01*
X137228571Y-95781927D02*
X137190476Y-95781927D01*
X137190476Y-95781927D02*
X137152380Y-95800975D01*
X137152380Y-95800975D02*
X137133333Y-95820022D01*
X137133333Y-95820022D02*
X137114285Y-95858118D01*
X137114285Y-95858118D02*
X137095238Y-95934308D01*
X137095238Y-95934308D02*
X137095238Y-96029546D01*
X137095238Y-96029546D02*
X137114285Y-96105737D01*
X137114285Y-96105737D02*
X137133333Y-96143832D01*
X137133333Y-96143832D02*
X137152380Y-96162880D01*
X137152380Y-96162880D02*
X137190476Y-96181927D01*
X137190476Y-96181927D02*
X137228571Y-96181927D01*
X137228571Y-96181927D02*
X137266666Y-96162880D01*
X137266666Y-96162880D02*
X137285714Y-96143832D01*
X137285714Y-96143832D02*
X137304761Y-96105737D01*
X137304761Y-96105737D02*
X137323809Y-96029546D01*
X137323809Y-96029546D02*
X137323809Y-95934308D01*
X137323809Y-95934308D02*
X137304761Y-95858118D01*
X137304761Y-95858118D02*
X137285714Y-95820022D01*
X137285714Y-95820022D02*
X137266666Y-95800975D01*
X137266666Y-95800975D02*
X137228571Y-95781927D01*
D10*
X160395009Y-84193712D02*
X160442628Y-84336569D01*
X160442628Y-84336569D02*
X160490247Y-84384188D01*
X160490247Y-84384188D02*
X160585485Y-84431807D01*
X160585485Y-84431807D02*
X160728342Y-84431807D01*
X160728342Y-84431807D02*
X160823580Y-84384188D01*
X160823580Y-84384188D02*
X160871200Y-84336569D01*
X160871200Y-84336569D02*
X160918819Y-84241331D01*
X160918819Y-84241331D02*
X160918819Y-83860379D01*
X160918819Y-83860379D02*
X159918819Y-83860379D01*
X159918819Y-83860379D02*
X159918819Y-84193712D01*
X159918819Y-84193712D02*
X159966438Y-84288950D01*
X159966438Y-84288950D02*
X160014057Y-84336569D01*
X160014057Y-84336569D02*
X160109295Y-84384188D01*
X160109295Y-84384188D02*
X160204533Y-84384188D01*
X160204533Y-84384188D02*
X160299771Y-84336569D01*
X160299771Y-84336569D02*
X160347390Y-84288950D01*
X160347390Y-84288950D02*
X160395009Y-84193712D01*
X160395009Y-84193712D02*
X160395009Y-83860379D01*
X160918819Y-85288950D02*
X160395009Y-85288950D01*
X160395009Y-85288950D02*
X160299771Y-85241331D01*
X160299771Y-85241331D02*
X160252152Y-85146093D01*
X160252152Y-85146093D02*
X160252152Y-84955617D01*
X160252152Y-84955617D02*
X160299771Y-84860379D01*
X160871200Y-85288950D02*
X160918819Y-85193712D01*
X160918819Y-85193712D02*
X160918819Y-84955617D01*
X160918819Y-84955617D02*
X160871200Y-84860379D01*
X160871200Y-84860379D02*
X160775961Y-84812760D01*
X160775961Y-84812760D02*
X160680723Y-84812760D01*
X160680723Y-84812760D02*
X160585485Y-84860379D01*
X160585485Y-84860379D02*
X160537866Y-84955617D01*
X160537866Y-84955617D02*
X160537866Y-85193712D01*
X160537866Y-85193712D02*
X160490247Y-85288950D01*
X160252152Y-85622284D02*
X160252152Y-86003236D01*
X159918819Y-85765141D02*
X160775961Y-85765141D01*
X160775961Y-85765141D02*
X160871200Y-85812760D01*
X160871200Y-85812760D02*
X160918819Y-85907998D01*
X160918819Y-85907998D02*
X160918819Y-86003236D01*
X160252152Y-86193713D02*
X160252152Y-86574665D01*
X159918819Y-86336570D02*
X160775961Y-86336570D01*
X160775961Y-86336570D02*
X160871200Y-86384189D01*
X160871200Y-86384189D02*
X160918819Y-86479427D01*
X160918819Y-86479427D02*
X160918819Y-86574665D01*
X160871200Y-87288951D02*
X160918819Y-87193713D01*
X160918819Y-87193713D02*
X160918819Y-87003237D01*
X160918819Y-87003237D02*
X160871200Y-86907999D01*
X160871200Y-86907999D02*
X160775961Y-86860380D01*
X160775961Y-86860380D02*
X160395009Y-86860380D01*
X160395009Y-86860380D02*
X160299771Y-86907999D01*
X160299771Y-86907999D02*
X160252152Y-87003237D01*
X160252152Y-87003237D02*
X160252152Y-87193713D01*
X160252152Y-87193713D02*
X160299771Y-87288951D01*
X160299771Y-87288951D02*
X160395009Y-87336570D01*
X160395009Y-87336570D02*
X160490247Y-87336570D01*
X160490247Y-87336570D02*
X160585485Y-86860380D01*
X160918819Y-87765142D02*
X160252152Y-87765142D01*
X160442628Y-87765142D02*
X160347390Y-87812761D01*
X160347390Y-87812761D02*
X160299771Y-87860380D01*
X160299771Y-87860380D02*
X160252152Y-87955618D01*
X160252152Y-87955618D02*
X160252152Y-88050856D01*
X160252152Y-88288952D02*
X160918819Y-88527047D01*
X160252152Y-88765142D02*
X160918819Y-88527047D01*
X160918819Y-88527047D02*
X161156914Y-88431809D01*
X161156914Y-88431809D02*
X161204533Y-88384190D01*
X161204533Y-88384190D02*
X161252152Y-88288952D01*
X160823580Y-90479428D02*
X160871200Y-90431809D01*
X160871200Y-90431809D02*
X160918819Y-90288952D01*
X160918819Y-90288952D02*
X160918819Y-90193714D01*
X160918819Y-90193714D02*
X160871200Y-90050857D01*
X160871200Y-90050857D02*
X160775961Y-89955619D01*
X160775961Y-89955619D02*
X160680723Y-89908000D01*
X160680723Y-89908000D02*
X160490247Y-89860381D01*
X160490247Y-89860381D02*
X160347390Y-89860381D01*
X160347390Y-89860381D02*
X160156914Y-89908000D01*
X160156914Y-89908000D02*
X160061676Y-89955619D01*
X160061676Y-89955619D02*
X159966438Y-90050857D01*
X159966438Y-90050857D02*
X159918819Y-90193714D01*
X159918819Y-90193714D02*
X159918819Y-90288952D01*
X159918819Y-90288952D02*
X159966438Y-90431809D01*
X159966438Y-90431809D02*
X160014057Y-90479428D01*
X160918819Y-91050857D02*
X160871200Y-90955619D01*
X160871200Y-90955619D02*
X160823580Y-90908000D01*
X160823580Y-90908000D02*
X160728342Y-90860381D01*
X160728342Y-90860381D02*
X160442628Y-90860381D01*
X160442628Y-90860381D02*
X160347390Y-90908000D01*
X160347390Y-90908000D02*
X160299771Y-90955619D01*
X160299771Y-90955619D02*
X160252152Y-91050857D01*
X160252152Y-91050857D02*
X160252152Y-91193714D01*
X160252152Y-91193714D02*
X160299771Y-91288952D01*
X160299771Y-91288952D02*
X160347390Y-91336571D01*
X160347390Y-91336571D02*
X160442628Y-91384190D01*
X160442628Y-91384190D02*
X160728342Y-91384190D01*
X160728342Y-91384190D02*
X160823580Y-91336571D01*
X160823580Y-91336571D02*
X160871200Y-91288952D01*
X160871200Y-91288952D02*
X160918819Y-91193714D01*
X160918819Y-91193714D02*
X160918819Y-91050857D01*
X160252152Y-91812762D02*
X160918819Y-91812762D01*
X160347390Y-91812762D02*
X160299771Y-91860381D01*
X160299771Y-91860381D02*
X160252152Y-91955619D01*
X160252152Y-91955619D02*
X160252152Y-92098476D01*
X160252152Y-92098476D02*
X160299771Y-92193714D01*
X160299771Y-92193714D02*
X160395009Y-92241333D01*
X160395009Y-92241333D02*
X160918819Y-92241333D01*
X160252152Y-92717524D02*
X160918819Y-92717524D01*
X160347390Y-92717524D02*
X160299771Y-92765143D01*
X160299771Y-92765143D02*
X160252152Y-92860381D01*
X160252152Y-92860381D02*
X160252152Y-93003238D01*
X160252152Y-93003238D02*
X160299771Y-93098476D01*
X160299771Y-93098476D02*
X160395009Y-93146095D01*
X160395009Y-93146095D02*
X160918819Y-93146095D01*
X160871200Y-94003238D02*
X160918819Y-93908000D01*
X160918819Y-93908000D02*
X160918819Y-93717524D01*
X160918819Y-93717524D02*
X160871200Y-93622286D01*
X160871200Y-93622286D02*
X160775961Y-93574667D01*
X160775961Y-93574667D02*
X160395009Y-93574667D01*
X160395009Y-93574667D02*
X160299771Y-93622286D01*
X160299771Y-93622286D02*
X160252152Y-93717524D01*
X160252152Y-93717524D02*
X160252152Y-93908000D01*
X160252152Y-93908000D02*
X160299771Y-94003238D01*
X160299771Y-94003238D02*
X160395009Y-94050857D01*
X160395009Y-94050857D02*
X160490247Y-94050857D01*
X160490247Y-94050857D02*
X160585485Y-93574667D01*
X160871200Y-94908000D02*
X160918819Y-94812762D01*
X160918819Y-94812762D02*
X160918819Y-94622286D01*
X160918819Y-94622286D02*
X160871200Y-94527048D01*
X160871200Y-94527048D02*
X160823580Y-94479429D01*
X160823580Y-94479429D02*
X160728342Y-94431810D01*
X160728342Y-94431810D02*
X160442628Y-94431810D01*
X160442628Y-94431810D02*
X160347390Y-94479429D01*
X160347390Y-94479429D02*
X160299771Y-94527048D01*
X160299771Y-94527048D02*
X160252152Y-94622286D01*
X160252152Y-94622286D02*
X160252152Y-94812762D01*
X160252152Y-94812762D02*
X160299771Y-94908000D01*
X160252152Y-95193715D02*
X160252152Y-95574667D01*
X159918819Y-95336572D02*
X160775961Y-95336572D01*
X160775961Y-95336572D02*
X160871200Y-95384191D01*
X160871200Y-95384191D02*
X160918819Y-95479429D01*
X160918819Y-95479429D02*
X160918819Y-95574667D01*
X160918819Y-96050858D02*
X160871200Y-95955620D01*
X160871200Y-95955620D02*
X160823580Y-95908001D01*
X160823580Y-95908001D02*
X160728342Y-95860382D01*
X160728342Y-95860382D02*
X160442628Y-95860382D01*
X160442628Y-95860382D02*
X160347390Y-95908001D01*
X160347390Y-95908001D02*
X160299771Y-95955620D01*
X160299771Y-95955620D02*
X160252152Y-96050858D01*
X160252152Y-96050858D02*
X160252152Y-96193715D01*
X160252152Y-96193715D02*
X160299771Y-96288953D01*
X160299771Y-96288953D02*
X160347390Y-96336572D01*
X160347390Y-96336572D02*
X160442628Y-96384191D01*
X160442628Y-96384191D02*
X160728342Y-96384191D01*
X160728342Y-96384191D02*
X160823580Y-96336572D01*
X160823580Y-96336572D02*
X160871200Y-96288953D01*
X160871200Y-96288953D02*
X160918819Y-96193715D01*
X160918819Y-96193715D02*
X160918819Y-96050858D01*
X160918819Y-96812763D02*
X160252152Y-96812763D01*
X160442628Y-96812763D02*
X160347390Y-96860382D01*
X160347390Y-96860382D02*
X160299771Y-96908001D01*
X160299771Y-96908001D02*
X160252152Y-97003239D01*
X160252152Y-97003239D02*
X160252152Y-97098477D01*
X157418819Y-90074666D02*
X158133104Y-90074666D01*
X158133104Y-90074666D02*
X158275961Y-90027047D01*
X158275961Y-90027047D02*
X158371200Y-89931809D01*
X158371200Y-89931809D02*
X158418819Y-89788952D01*
X158418819Y-89788952D02*
X158418819Y-89693714D01*
X157418819Y-91027047D02*
X157418819Y-90550857D01*
X157418819Y-90550857D02*
X157895009Y-90503238D01*
X157895009Y-90503238D02*
X157847390Y-90550857D01*
X157847390Y-90550857D02*
X157799771Y-90646095D01*
X157799771Y-90646095D02*
X157799771Y-90884190D01*
X157799771Y-90884190D02*
X157847390Y-90979428D01*
X157847390Y-90979428D02*
X157895009Y-91027047D01*
X157895009Y-91027047D02*
X157990247Y-91074666D01*
X157990247Y-91074666D02*
X158228342Y-91074666D01*
X158228342Y-91074666D02*
X158323580Y-91027047D01*
X158323580Y-91027047D02*
X158371200Y-90979428D01*
X158371200Y-90979428D02*
X158418819Y-90884190D01*
X158418819Y-90884190D02*
X158418819Y-90646095D01*
X158418819Y-90646095D02*
X158371200Y-90550857D01*
X158371200Y-90550857D02*
X158323580Y-90503238D01*
X132104654Y-97000000D02*
X132104654Y-97571428D01*
X133104654Y-97285714D02*
X132104654Y-97285714D01*
X133057035Y-97857143D02*
X133104654Y-98000000D01*
X133104654Y-98000000D02*
X133104654Y-98238095D01*
X133104654Y-98238095D02*
X133057035Y-98333333D01*
X133057035Y-98333333D02*
X133009415Y-98380952D01*
X133009415Y-98380952D02*
X132914177Y-98428571D01*
X132914177Y-98428571D02*
X132818939Y-98428571D01*
X132818939Y-98428571D02*
X132723701Y-98380952D01*
X132723701Y-98380952D02*
X132676082Y-98333333D01*
X132676082Y-98333333D02*
X132628463Y-98238095D01*
X132628463Y-98238095D02*
X132580844Y-98047619D01*
X132580844Y-98047619D02*
X132533225Y-97952381D01*
X132533225Y-97952381D02*
X132485606Y-97904762D01*
X132485606Y-97904762D02*
X132390368Y-97857143D01*
X132390368Y-97857143D02*
X132295130Y-97857143D01*
X132295130Y-97857143D02*
X132199892Y-97904762D01*
X132199892Y-97904762D02*
X132152273Y-97952381D01*
X132152273Y-97952381D02*
X132104654Y-98047619D01*
X132104654Y-98047619D02*
X132104654Y-98285714D01*
X132104654Y-98285714D02*
X132152273Y-98428571D01*
X132723701Y-98857143D02*
X132723701Y-99619048D01*
X133104654Y-100619047D02*
X133104654Y-100047619D01*
X133104654Y-100333333D02*
X132104654Y-100333333D01*
X132104654Y-100333333D02*
X132247511Y-100238095D01*
X132247511Y-100238095D02*
X132342749Y-100142857D01*
X132342749Y-100142857D02*
X132390368Y-100047619D01*
X133104654Y-101571428D02*
X133104654Y-101000000D01*
X133104654Y-101285714D02*
X132104654Y-101285714D01*
X132104654Y-101285714D02*
X132247511Y-101190476D01*
X132247511Y-101190476D02*
X132342749Y-101095238D01*
X132342749Y-101095238D02*
X132390368Y-101000000D01*
X132533225Y-102142857D02*
X132485606Y-102047619D01*
X132485606Y-102047619D02*
X132437987Y-102000000D01*
X132437987Y-102000000D02*
X132342749Y-101952381D01*
X132342749Y-101952381D02*
X132295130Y-101952381D01*
X132295130Y-101952381D02*
X132199892Y-102000000D01*
X132199892Y-102000000D02*
X132152273Y-102047619D01*
X132152273Y-102047619D02*
X132104654Y-102142857D01*
X132104654Y-102142857D02*
X132104654Y-102333333D01*
X132104654Y-102333333D02*
X132152273Y-102428571D01*
X132152273Y-102428571D02*
X132199892Y-102476190D01*
X132199892Y-102476190D02*
X132295130Y-102523809D01*
X132295130Y-102523809D02*
X132342749Y-102523809D01*
X132342749Y-102523809D02*
X132437987Y-102476190D01*
X132437987Y-102476190D02*
X132485606Y-102428571D01*
X132485606Y-102428571D02*
X132533225Y-102333333D01*
X132533225Y-102333333D02*
X132533225Y-102142857D01*
X132533225Y-102142857D02*
X132580844Y-102047619D01*
X132580844Y-102047619D02*
X132628463Y-102000000D01*
X132628463Y-102000000D02*
X132723701Y-101952381D01*
X132723701Y-101952381D02*
X132914177Y-101952381D01*
X132914177Y-101952381D02*
X133009415Y-102000000D01*
X133009415Y-102000000D02*
X133057035Y-102047619D01*
X133057035Y-102047619D02*
X133104654Y-102142857D01*
X133104654Y-102142857D02*
X133104654Y-102333333D01*
X133104654Y-102333333D02*
X133057035Y-102428571D01*
X133057035Y-102428571D02*
X133009415Y-102476190D01*
X133009415Y-102476190D02*
X132914177Y-102523809D01*
X132914177Y-102523809D02*
X132723701Y-102523809D01*
X132723701Y-102523809D02*
X132628463Y-102476190D01*
X132628463Y-102476190D02*
X132580844Y-102428571D01*
X132580844Y-102428571D02*
X132533225Y-102333333D01*
X132104654Y-102857143D02*
X132104654Y-103523809D01*
X132104654Y-103523809D02*
X133104654Y-103095238D01*
X132818939Y-103857143D02*
X132818939Y-104333333D01*
X133104654Y-103761905D02*
X132104654Y-104095238D01*
X132104654Y-104095238D02*
X133104654Y-104428571D01*
X132723701Y-104761905D02*
X132723701Y-105523810D01*
X132580844Y-106333333D02*
X132628463Y-106476190D01*
X132628463Y-106476190D02*
X132676082Y-106523809D01*
X132676082Y-106523809D02*
X132771320Y-106571428D01*
X132771320Y-106571428D02*
X132914177Y-106571428D01*
X132914177Y-106571428D02*
X133009415Y-106523809D01*
X133009415Y-106523809D02*
X133057035Y-106476190D01*
X133057035Y-106476190D02*
X133104654Y-106380952D01*
X133104654Y-106380952D02*
X133104654Y-106000000D01*
X133104654Y-106000000D02*
X132104654Y-106000000D01*
X132104654Y-106000000D02*
X132104654Y-106333333D01*
X132104654Y-106333333D02*
X132152273Y-106428571D01*
X132152273Y-106428571D02*
X132199892Y-106476190D01*
X132199892Y-106476190D02*
X132295130Y-106523809D01*
X132295130Y-106523809D02*
X132390368Y-106523809D01*
X132390368Y-106523809D02*
X132485606Y-106476190D01*
X132485606Y-106476190D02*
X132533225Y-106428571D01*
X132533225Y-106428571D02*
X132580844Y-106333333D01*
X132580844Y-106333333D02*
X132580844Y-106000000D01*
X132723701Y-107000000D02*
X132723701Y-107761905D01*
X132818939Y-108190476D02*
X132818939Y-108666666D01*
X133104654Y-108095238D02*
X132104654Y-108428571D01*
X132104654Y-108428571D02*
X133104654Y-108761904D01*
X132723701Y-109095238D02*
X132723701Y-109857143D01*
X132580844Y-110666666D02*
X132628463Y-110809523D01*
X132628463Y-110809523D02*
X132676082Y-110857142D01*
X132676082Y-110857142D02*
X132771320Y-110904761D01*
X132771320Y-110904761D02*
X132914177Y-110904761D01*
X132914177Y-110904761D02*
X133009415Y-110857142D01*
X133009415Y-110857142D02*
X133057035Y-110809523D01*
X133057035Y-110809523D02*
X133104654Y-110714285D01*
X133104654Y-110714285D02*
X133104654Y-110333333D01*
X133104654Y-110333333D02*
X132104654Y-110333333D01*
X132104654Y-110333333D02*
X132104654Y-110666666D01*
X132104654Y-110666666D02*
X132152273Y-110761904D01*
X132152273Y-110761904D02*
X132199892Y-110809523D01*
X132199892Y-110809523D02*
X132295130Y-110857142D01*
X132295130Y-110857142D02*
X132390368Y-110857142D01*
X132390368Y-110857142D02*
X132485606Y-110809523D01*
X132485606Y-110809523D02*
X132533225Y-110761904D01*
X132533225Y-110761904D02*
X132580844Y-110666666D01*
X132580844Y-110666666D02*
X132580844Y-110333333D01*
X131104654Y-102666666D02*
X130628463Y-102333333D01*
X131104654Y-102095238D02*
X130104654Y-102095238D01*
X130104654Y-102095238D02*
X130104654Y-102476190D01*
X130104654Y-102476190D02*
X130152273Y-102571428D01*
X130152273Y-102571428D02*
X130199892Y-102619047D01*
X130199892Y-102619047D02*
X130295130Y-102666666D01*
X130295130Y-102666666D02*
X130437987Y-102666666D01*
X130437987Y-102666666D02*
X130533225Y-102619047D01*
X130533225Y-102619047D02*
X130580844Y-102571428D01*
X130580844Y-102571428D02*
X130628463Y-102476190D01*
X130628463Y-102476190D02*
X130628463Y-102095238D01*
X130580844Y-103095238D02*
X130580844Y-103428571D01*
X131104654Y-103571428D02*
X131104654Y-103095238D01*
X131104654Y-103095238D02*
X130104654Y-103095238D01*
X130104654Y-103095238D02*
X130104654Y-103571428D01*
X130580844Y-104333333D02*
X130580844Y-104000000D01*
X131104654Y-104000000D02*
X130104654Y-104000000D01*
X130104654Y-104000000D02*
X130104654Y-104476190D01*
X130104654Y-105000000D02*
X130342749Y-105000000D01*
X130247511Y-104761905D02*
X130342749Y-105000000D01*
X130342749Y-105000000D02*
X130247511Y-105238095D01*
X130533225Y-104857143D02*
X130342749Y-105000000D01*
X130342749Y-105000000D02*
X130533225Y-105142857D01*
X130104654Y-105761905D02*
X130342749Y-105761905D01*
X130247511Y-105523810D02*
X130342749Y-105761905D01*
X130342749Y-105761905D02*
X130247511Y-106000000D01*
X130533225Y-105619048D02*
X130342749Y-105761905D01*
X130342749Y-105761905D02*
X130533225Y-105904762D01*
D12*
G04 #@! TO.C,J3*
X154312000Y-79952000D02*
X154312000Y-81202000D01*
X154722000Y-80362000D02*
X154722000Y-86262000D01*
X154722000Y-86262000D02*
X159222000Y-86262000D01*
X155562000Y-79952000D02*
X154312000Y-79952000D01*
X159222000Y-80362000D02*
X154722000Y-80362000D01*
X159222000Y-86262000D02*
X159222000Y-80362000D01*
G04 #@! TO.C,C9*
X136800000Y-97400000D02*
X138400000Y-97400000D01*
X136800000Y-98200000D02*
X136800000Y-97400000D01*
X138400000Y-97400000D02*
X138400000Y-98200000D01*
X138400000Y-98200000D02*
X136800000Y-98200000D01*
G04 #@! TO.C,R31*
X142087500Y-96300000D02*
X142912500Y-96300000D01*
X142087500Y-97900000D02*
X142087500Y-96300000D01*
X142912500Y-96300000D02*
X142912500Y-97900000D01*
X142912500Y-97900000D02*
X142087500Y-97900000D01*
D13*
G04 #@! TO.C,LED2*
X155349785Y-47319990D02*
G75*
G02*
X154949987Y-47319990I-199899J0D01*
G01*
X154949987Y-47319990D02*
G75*
G02*
X155349785Y-47319990I199899J0D01*
G01*
D14*
G04 #@! TO.C,U4*
X128962509Y-96348006D02*
G75*
G02*
X128662281Y-96348006I-150114J0D01*
G01*
X128662281Y-96348006D02*
G75*
G02*
X128962509Y-96348006I150114J0D01*
G01*
D12*
G04 #@! TO.C,R25*
X127900000Y-98887500D02*
X129500000Y-98887500D01*
X127900000Y-99712500D02*
X127900000Y-98887500D01*
X129500000Y-98887500D02*
X129500000Y-99712500D01*
X129500000Y-99712500D02*
X127900000Y-99712500D01*
G04 #@! TO.C,R30*
X136800000Y-95587500D02*
X138400000Y-95587500D01*
X136800000Y-96412500D02*
X136800000Y-95587500D01*
X138400000Y-95587500D02*
X138400000Y-96412500D01*
X138400000Y-96412500D02*
X136800000Y-96412500D01*
G04 #@! TO.C,J5*
X154354000Y-87048000D02*
X154354000Y-88298000D01*
X154764000Y-87458000D02*
X154764000Y-93358000D01*
X154764000Y-93358000D02*
X159264000Y-93358000D01*
X155604000Y-87048000D02*
X154354000Y-87048000D01*
X159264000Y-87458000D02*
X154764000Y-87458000D01*
X159264000Y-93358000D02*
X159264000Y-87458000D01*
G04 #@! TD*
M02*
