G04 #@! TF.GenerationSoftware,KiCad,Pcbnew,8.0.1*
G04 #@! TF.CreationDate,2024-04-29T00:58:12+02:00*
G04 #@! TF.ProjectId,Blinky,426c696e-6b79-42e6-9b69-6361645f7063,rev?*
G04 #@! TF.SameCoordinates,Original*
G04 #@! TF.FileFunction,Legend,Bot*
G04 #@! TF.FilePolarity,Positive*
%FSLAX46Y46*%
G04 Gerber Fmt 4.6, Leading zero omitted, Abs format (unit mm)*
G04 Created by KiCad (PCBNEW 8.0.1) date 2024-04-29 00:58:12*
%MOMM*%
%LPD*%
G01*
G04 APERTURE LIST*
G04 Aperture macros list*
%AMRoundRect*
0 Rectangle with rounded corners*
0 $1 Rounding radius*
0 $2 $3 $4 $5 $6 $7 $8 $9 X,Y pos of 4 corners*
0 Add a 4 corners polygon primitive as box body*
4,1,4,$2,$3,$4,$5,$6,$7,$8,$9,$2,$3,0*
0 Add four circle primitives for the rounded corners*
1,1,$1+$1,$2,$3*
1,1,$1+$1,$4,$5*
1,1,$1+$1,$6,$7*
1,1,$1+$1,$8,$9*
0 Add four rect primitives between the rounded corners*
20,1,$1+$1,$2,$3,$4,$5,0*
20,1,$1+$1,$4,$5,$6,$7,0*
20,1,$1+$1,$6,$7,$8,$9,0*
20,1,$1+$1,$8,$9,$2,$3,0*%
%AMFreePoly0*
4,1,265,0.086386,3.626060,0.172644,3.622962,0.258827,3.617831,0.344856,3.610643,0.430658,3.601422,0.516256,3.590170,0.601549,3.576861,0.686487,3.561544,0.771044,3.544196,0.855169,3.524841,0.938811,3.503480,1.021920,3.480163,1.104445,3.454864,1.186360,3.427584,1.267590,3.398400,1.348108,3.367259,1.427838,3.334239,1.506782,3.299314,1.584862,3.262510,1.662052,3.223876,
1.738303,3.183414,1.813589,3.141148,1.887808,3.097104,1.960986,3.051308,2.033045,3.003785,2.103937,2.954534,2.173660,2.903632,2.242139,2.851080,2.309347,2.796927,2.375260,2.741173,2.439827,2.683871,2.502997,2.625070,2.564745,2.564745,2.625070,2.502997,2.683871,2.439827,2.741173,2.375260,2.796927,2.309347,2.851080,2.242139,2.903632,2.173660,2.954534,2.103937,
3.003785,2.033045,3.051308,1.960986,3.097104,1.887808,3.141148,1.813564,3.183414,1.738303,3.223876,1.662052,3.262510,1.584862,3.299314,1.506782,3.334239,1.427838,3.367259,1.348108,3.398400,1.267590,3.427584,1.186360,3.454864,1.104445,3.480163,1.021920,3.503480,0.938811,3.524841,0.855169,3.544196,0.771044,3.561544,0.686487,3.576861,0.601549,3.590170,0.516256,
3.601422,0.430658,3.610643,0.344856,3.617831,0.258827,3.622962,0.172644,3.626060,0.086386,3.627076,0.000076,3.626060,-0.086233,3.622962,-0.172492,3.617831,-0.258674,3.610643,-0.344704,3.601422,-0.430505,3.590170,-0.516104,3.576861,-0.601397,3.561544,-0.686335,3.544196,-0.770892,3.524841,-0.855017,3.503480,-0.938659,3.480163,-1.021768,3.454864,-1.104293,3.427584,-1.186208,
3.398400,-1.267437,3.367259,-1.347955,3.334239,-1.427686,3.299314,-1.506629,3.262510,-1.584709,3.223876,-1.661900,3.183414,-1.738151,3.141148,-1.813437,3.097104,-1.887656,3.051308,-1.960833,3.003785,-2.032893,2.954534,-2.103785,2.903632,-2.173508,2.851080,-2.241986,2.796927,-2.309195,2.741173,-2.375108,2.683871,-2.439675,2.625070,-2.502845,2.564745,-2.564592,2.502997,-2.624917,
2.439827,-2.683719,2.375260,-2.741021,2.309347,-2.796774,2.242139,-2.850927,2.173660,-2.903480,2.103937,-2.954382,2.033045,-3.003632,1.960986,-3.051156,1.887808,-3.096952,1.813589,-3.140996,1.738303,-3.183261,1.662052,-3.223724,1.584862,-3.262357,1.506782,-3.299162,1.427838,-3.334087,1.348108,-3.367107,1.267590,-3.398247,1.186360,-3.427432,1.104445,-3.454712,1.021920,-3.480010,
0.938811,-3.503327,0.855169,-3.524689,0.771044,-3.544044,0.686487,-3.561392,0.601549,-3.576708,0.516256,-3.590018,0.430658,-3.601270,0.344856,-3.610490,0.258827,-3.617678,0.172644,-3.622809,0.086386,-3.625908,0.000076,-3.626924,-0.086233,-3.625908,-0.172492,-3.622809,-0.258674,-3.617678,-0.344704,-3.610490,-0.430505,-3.601270,-0.516104,-3.590018,-0.601397,-3.576708,-0.686335,-3.561392,
-0.770892,-3.544044,-0.855017,-3.524689,-0.938659,-3.503327,-1.021768,-3.480010,-1.104293,-3.454712,-1.186208,-3.427432,-1.267437,-3.398247,-1.347955,-3.367107,-1.427686,-3.334087,-1.506629,-3.299162,-1.584709,-3.262357,-1.661900,-3.223724,-1.738151,-3.183261,-1.813411,-3.140996,-1.887656,-3.096952,-1.960833,-3.051156,-2.032893,-3.003632,-2.103785,-2.954382,-2.173508,-2.903480,-2.241986,-2.850927,
-2.309195,-2.796774,-2.375108,-2.741021,-2.439675,-2.683719,-2.502845,-2.624917,-2.564592,-2.564592,-2.624917,-2.502845,-2.683719,-2.439675,-2.741021,-2.375108,-2.796774,-2.309195,-2.850927,-2.241986,-2.903480,-2.173508,-2.954382,-2.103785,-3.003632,-2.032893,-3.051156,-1.960833,-3.096952,-1.887656,-3.140996,-1.813437,-3.183261,-1.738151,-3.223724,-1.661900,-3.262357,-1.584709,-3.299162,-1.506629,
-3.334087,-1.427686,-3.367107,-1.347955,-3.398247,-1.267437,-3.427432,-1.186208,-3.454712,-1.104293,-3.480010,-1.021768,-3.503327,-0.938659,-3.524689,-0.855017,-3.544044,-0.770892,-3.561392,-0.686335,-3.576708,-0.601397,-3.590018,-0.516104,-3.601270,-0.430505,-3.610490,-0.344704,-3.617678,-0.258674,-3.622809,-0.172492,-3.625908,-0.086233,-3.626924,0.000076,-3.625908,0.086386,-3.622809,0.172644,
-3.617678,0.258827,-3.610490,0.344856,-3.601270,0.430658,-3.590018,0.516256,-3.576708,0.601549,-3.561392,0.686487,-3.544044,0.771044,-3.524689,0.855169,-3.503327,0.938811,-3.480010,1.021920,-3.454712,1.104445,-3.427432,1.186360,-3.398247,1.267590,-3.367107,1.348108,-3.334087,1.427838,-3.299162,1.506782,-3.262357,1.584862,-3.223724,1.662052,-3.183261,1.738303,-3.140996,1.813589,
-3.096952,1.887808,-3.051156,1.960986,-3.003632,2.033045,-2.954382,2.103937,-2.903480,2.173660,-2.850927,2.242139,-2.796774,2.309347,-2.741021,2.375260,-2.683719,2.439827,-2.624917,2.502997,-2.564592,2.564745,-2.502845,2.625070,-2.439675,2.683871,-2.375108,2.741173,-2.309195,2.796927,-2.241986,2.851080,-2.173508,2.903632,-2.103785,2.954534,-2.032893,3.003785,-1.960833,3.051308,
-1.887656,3.097104,-1.813411,3.141148,-1.738151,3.183414,-1.661900,3.223876,-1.584709,3.262510,-1.506629,3.299314,-1.427686,3.334239,-1.347955,3.367259,-1.267437,3.398400,-1.186208,3.427584,-1.104293,3.454864,-1.021768,3.480163,-0.938659,3.503480,-0.855017,3.524841,-0.770892,3.544196,-0.686335,3.561544,-0.601397,3.576861,-0.516104,3.590170,-0.430505,3.601422,-0.344704,3.610643,
-0.258674,3.617831,-0.172492,3.622962,-0.086233,3.626060,0.000076,3.627076,0.086386,3.626060,0.086386,3.626060,$1*%
%AMFreePoly1*
4,1,265,0.086386,3.625908,0.172644,3.622809,0.258827,3.617678,0.344856,3.610490,0.430658,3.601270,0.516256,3.590018,0.601549,3.576708,0.686487,3.561392,0.771044,3.544044,0.855169,3.524689,0.938811,3.503327,1.021920,3.480010,1.104445,3.454712,1.186360,3.427432,1.267590,3.398247,1.348108,3.367107,1.427838,3.334087,1.506782,3.299162,1.584862,3.262357,1.662052,3.223724,
1.738303,3.183261,1.813589,3.140996,1.887808,3.096952,1.960986,3.051156,2.033045,3.003632,2.103937,2.954382,2.173660,2.903480,2.242139,2.850927,2.309347,2.796774,2.375260,2.741021,2.439827,2.683719,2.502997,2.624917,2.564745,2.564592,2.625070,2.502845,2.683871,2.439675,2.741173,2.375108,2.796927,2.309195,2.851080,2.241986,2.903632,2.173508,2.954534,2.103785,
3.003785,2.032893,3.051308,1.960833,3.097104,1.887656,3.141148,1.813437,3.183414,1.738151,3.223876,1.661900,3.262510,1.584709,3.299314,1.506629,3.334239,1.427686,3.367259,1.347955,3.398400,1.267437,3.427584,1.186208,3.454864,1.104293,3.480163,1.021768,3.503480,0.938659,3.524841,0.855017,3.544196,0.770892,3.561544,0.686335,3.576861,0.601397,3.590170,0.516104,
3.601422,0.430505,3.610643,0.344704,3.617831,0.258674,3.622962,0.172492,3.626060,0.086233,3.627076,-0.000076,3.626060,-0.086386,3.622962,-0.172644,3.617831,-0.258827,3.610643,-0.344856,3.601422,-0.430658,3.590170,-0.516256,3.576861,-0.601549,3.561544,-0.686487,3.544196,-0.771044,3.524841,-0.855169,3.503480,-0.938811,3.480163,-1.021920,3.454864,-1.104445,3.427584,-1.186360,
3.398400,-1.267590,3.367259,-1.348108,3.334239,-1.427838,3.299314,-1.506782,3.262510,-1.584862,3.223876,-1.662052,3.183414,-1.738303,3.141148,-1.813564,3.097104,-1.887808,3.051308,-1.960986,3.003785,-2.033045,2.954534,-2.103937,2.903632,-2.173660,2.851080,-2.242139,2.796927,-2.309347,2.741173,-2.375260,2.683871,-2.439827,2.625070,-2.502997,2.564745,-2.564745,2.502997,-2.625070,
2.439827,-2.683871,2.375260,-2.741173,2.309347,-2.796927,2.242139,-2.851080,2.173660,-2.903632,2.103937,-2.954534,2.033045,-3.003785,1.960986,-3.051308,1.887808,-3.097104,1.813589,-3.141148,1.738303,-3.183414,1.662052,-3.223876,1.584862,-3.262510,1.506782,-3.299314,1.427838,-3.334239,1.348108,-3.367259,1.267590,-3.398400,1.186360,-3.427584,1.104445,-3.454864,1.021920,-3.480163,
0.938811,-3.503480,0.855169,-3.524841,0.771044,-3.544196,0.686487,-3.561544,0.601549,-3.576861,0.516256,-3.590170,0.430658,-3.601422,0.344856,-3.610643,0.258827,-3.617831,0.172644,-3.622962,0.086386,-3.626060,0.000076,-3.627076,-0.086233,-3.626060,-0.172492,-3.622962,-0.258674,-3.617831,-0.344704,-3.610643,-0.430505,-3.601422,-0.516104,-3.590170,-0.601397,-3.576861,-0.686335,-3.561544,
-0.770892,-3.544196,-0.855017,-3.524841,-0.938659,-3.503480,-1.021768,-3.480163,-1.104293,-3.454864,-1.186208,-3.427584,-1.267437,-3.398400,-1.347955,-3.367259,-1.427686,-3.334239,-1.506629,-3.299314,-1.584709,-3.262510,-1.661900,-3.223876,-1.738151,-3.183414,-1.813411,-3.141148,-1.887656,-3.097104,-1.960833,-3.051308,-2.032893,-3.003785,-2.103785,-2.954534,-2.173508,-2.903632,-2.241986,-2.851080,
-2.309195,-2.796927,-2.375108,-2.741173,-2.439675,-2.683871,-2.502845,-2.625070,-2.564592,-2.564745,-2.624917,-2.502997,-2.683719,-2.439827,-2.741021,-2.375260,-2.796774,-2.309347,-2.850927,-2.242139,-2.903480,-2.173660,-2.954382,-2.103937,-3.003632,-2.033045,-3.051156,-1.960986,-3.096952,-1.887808,-3.140996,-1.813589,-3.183261,-1.738303,-3.223724,-1.662052,-3.262357,-1.584862,-3.299162,-1.506782,
-3.334087,-1.427838,-3.367107,-1.348108,-3.398247,-1.267590,-3.427432,-1.186360,-3.454712,-1.104445,-3.480010,-1.021920,-3.503327,-0.938811,-3.524689,-0.855169,-3.544044,-0.771044,-3.561392,-0.686487,-3.576708,-0.601549,-3.590018,-0.516256,-3.601270,-0.430658,-3.610490,-0.344856,-3.617678,-0.258827,-3.622809,-0.172644,-3.625908,-0.086386,-3.626924,-0.000076,-3.625908,0.086233,-3.622809,0.172492,
-3.617678,0.258674,-3.610490,0.344704,-3.601270,0.430505,-3.590018,0.516104,-3.576708,0.601397,-3.561392,0.686335,-3.544044,0.770892,-3.524689,0.855017,-3.503327,0.938659,-3.480010,1.021768,-3.454712,1.104293,-3.427432,1.186208,-3.398247,1.267437,-3.367107,1.347955,-3.334087,1.427686,-3.299162,1.506629,-3.262357,1.584709,-3.223724,1.661900,-3.183261,1.738151,-3.140996,1.813437,
-3.096952,1.887656,-3.051156,1.960833,-3.003632,2.032893,-2.954382,2.103785,-2.903480,2.173508,-2.850927,2.241986,-2.796774,2.309195,-2.741021,2.375108,-2.683719,2.439675,-2.624917,2.502845,-2.564592,2.564592,-2.502845,2.624917,-2.439675,2.683719,-2.375108,2.741021,-2.309195,2.796774,-2.241986,2.850927,-2.173508,2.903480,-2.103785,2.954382,-2.032893,3.003632,-1.960833,3.051156,
-1.887656,3.096952,-1.813411,3.140996,-1.738151,3.183261,-1.661900,3.223724,-1.584709,3.262357,-1.506629,3.299162,-1.427686,3.334087,-1.347955,3.367107,-1.267437,3.398247,-1.186208,3.427432,-1.104293,3.454712,-1.021768,3.480010,-0.938659,3.503327,-0.855017,3.524689,-0.770892,3.544044,-0.686335,3.561392,-0.601397,3.576708,-0.516104,3.590018,-0.430505,3.601270,-0.344704,3.610490,
-0.258674,3.617678,-0.172492,3.622809,-0.086233,3.625908,0.000076,3.626924,0.086386,3.625908,0.086386,3.625908,$1*%
G04 Aperture macros list end*
%ADD10C,0.150000*%
%ADD11C,0.152400*%
%ADD12C,0.059995*%
%ADD13C,0.120000*%
%ADD14C,0.254000*%
%ADD15C,0.400000*%
%ADD16C,0.300000*%
%ADD17C,0.100000*%
%ADD18C,0.849987*%
%ADD19FreePoly0,0.000000*%
%ADD20C,3.200000*%
%ADD21R,1.600000X1.800000*%
%ADD22C,1.600000*%
%ADD23C,1.300000*%
%ADD24O,1.300000X1.800000*%
%ADD25O,4.000000X1.524000*%
%ADD26R,2.375997X1.506248*%
%ADD27RoundRect,0.250000X-0.625000X0.350000X-0.625000X-0.350000X0.625000X-0.350000X0.625000X0.350000X0*%
%ADD28O,1.750000X1.200000*%
%ADD29R,1.000000X1.700000*%
%ADD30RoundRect,0.225000X0.225000X0.250000X-0.225000X0.250000X-0.225000X-0.250000X0.225000X-0.250000X0*%
%ADD31R,4.200000X1.400000*%
%ADD32RoundRect,0.200000X-0.275000X0.200000X-0.275000X-0.200000X0.275000X-0.200000X0.275000X0.200000X0*%
%ADD33R,1.350013X3.000000*%
%ADD34FreePoly1,180.000000*%
%ADD35O,0.400000X1.500000*%
%ADD36RoundRect,0.200000X-0.200000X-0.275000X0.200000X-0.275000X0.200000X0.275000X-0.200000X0.275000X0*%
%ADD37C,1.200000*%
%ADD38RoundRect,0.200000X0.200000X0.275000X-0.200000X0.275000X-0.200000X-0.275000X0.200000X-0.275000X0*%
G04 APERTURE END LIST*
D10*
X153159580Y-100033333D02*
X153207200Y-99985714D01*
X153207200Y-99985714D02*
X153254819Y-99842857D01*
X153254819Y-99842857D02*
X153254819Y-99747619D01*
X153254819Y-99747619D02*
X153207200Y-99604762D01*
X153207200Y-99604762D02*
X153111961Y-99509524D01*
X153111961Y-99509524D02*
X153016723Y-99461905D01*
X153016723Y-99461905D02*
X152826247Y-99414286D01*
X152826247Y-99414286D02*
X152683390Y-99414286D01*
X152683390Y-99414286D02*
X152492914Y-99461905D01*
X152492914Y-99461905D02*
X152397676Y-99509524D01*
X152397676Y-99509524D02*
X152302438Y-99604762D01*
X152302438Y-99604762D02*
X152254819Y-99747619D01*
X152254819Y-99747619D02*
X152254819Y-99842857D01*
X152254819Y-99842857D02*
X152302438Y-99985714D01*
X152302438Y-99985714D02*
X152350057Y-100033333D01*
X153254819Y-100985714D02*
X153254819Y-100414286D01*
X153254819Y-100700000D02*
X152254819Y-100700000D01*
X152254819Y-100700000D02*
X152397676Y-100604762D01*
X152397676Y-100604762D02*
X152492914Y-100509524D01*
X152492914Y-100509524D02*
X152540533Y-100414286D01*
X152976819Y-82978666D02*
X153691104Y-82978666D01*
X153691104Y-82978666D02*
X153833961Y-82931047D01*
X153833961Y-82931047D02*
X153929200Y-82835809D01*
X153929200Y-82835809D02*
X153976819Y-82692952D01*
X153976819Y-82692952D02*
X153976819Y-82597714D01*
X152976819Y-83359619D02*
X152976819Y-83978666D01*
X152976819Y-83978666D02*
X153357771Y-83645333D01*
X153357771Y-83645333D02*
X153357771Y-83788190D01*
X153357771Y-83788190D02*
X153405390Y-83883428D01*
X153405390Y-83883428D02*
X153453009Y-83931047D01*
X153453009Y-83931047D02*
X153548247Y-83978666D01*
X153548247Y-83978666D02*
X153786342Y-83978666D01*
X153786342Y-83978666D02*
X153881580Y-83931047D01*
X153881580Y-83931047D02*
X153929200Y-83883428D01*
X153929200Y-83883428D02*
X153976819Y-83788190D01*
X153976819Y-83788190D02*
X153976819Y-83502476D01*
X153976819Y-83502476D02*
X153929200Y-83407238D01*
X153929200Y-83407238D02*
X153881580Y-83359619D01*
X148254819Y-103138095D02*
X148254819Y-103709523D01*
X149254819Y-103423809D02*
X148254819Y-103423809D01*
X149254819Y-104566666D02*
X149254819Y-103995238D01*
X149254819Y-104280952D02*
X148254819Y-104280952D01*
X148254819Y-104280952D02*
X148397676Y-104185714D01*
X148397676Y-104185714D02*
X148492914Y-104090476D01*
X148492914Y-104090476D02*
X148540533Y-103995238D01*
X137766666Y-99659580D02*
X137814285Y-99707200D01*
X137814285Y-99707200D02*
X137957142Y-99754819D01*
X137957142Y-99754819D02*
X138052380Y-99754819D01*
X138052380Y-99754819D02*
X138195237Y-99707200D01*
X138195237Y-99707200D02*
X138290475Y-99611961D01*
X138290475Y-99611961D02*
X138338094Y-99516723D01*
X138338094Y-99516723D02*
X138385713Y-99326247D01*
X138385713Y-99326247D02*
X138385713Y-99183390D01*
X138385713Y-99183390D02*
X138338094Y-98992914D01*
X138338094Y-98992914D02*
X138290475Y-98897676D01*
X138290475Y-98897676D02*
X138195237Y-98802438D01*
X138195237Y-98802438D02*
X138052380Y-98754819D01*
X138052380Y-98754819D02*
X137957142Y-98754819D01*
X137957142Y-98754819D02*
X137814285Y-98802438D01*
X137814285Y-98802438D02*
X137766666Y-98850057D01*
X137290475Y-99754819D02*
X137099999Y-99754819D01*
X137099999Y-99754819D02*
X137004761Y-99707200D01*
X137004761Y-99707200D02*
X136957142Y-99659580D01*
X136957142Y-99659580D02*
X136861904Y-99516723D01*
X136861904Y-99516723D02*
X136814285Y-99326247D01*
X136814285Y-99326247D02*
X136814285Y-98945295D01*
X136814285Y-98945295D02*
X136861904Y-98850057D01*
X136861904Y-98850057D02*
X136909523Y-98802438D01*
X136909523Y-98802438D02*
X137004761Y-98754819D01*
X137004761Y-98754819D02*
X137195237Y-98754819D01*
X137195237Y-98754819D02*
X137290475Y-98802438D01*
X137290475Y-98802438D02*
X137338094Y-98850057D01*
X137338094Y-98850057D02*
X137385713Y-98945295D01*
X137385713Y-98945295D02*
X137385713Y-99183390D01*
X137385713Y-99183390D02*
X137338094Y-99278628D01*
X137338094Y-99278628D02*
X137290475Y-99326247D01*
X137290475Y-99326247D02*
X137195237Y-99373866D01*
X137195237Y-99373866D02*
X137004761Y-99373866D01*
X137004761Y-99373866D02*
X136909523Y-99326247D01*
X136909523Y-99326247D02*
X136861904Y-99278628D01*
X136861904Y-99278628D02*
X136814285Y-99183390D01*
X150866666Y-81185818D02*
X150914285Y-81233438D01*
X150914285Y-81233438D02*
X151057142Y-81281057D01*
X151057142Y-81281057D02*
X151152380Y-81281057D01*
X151152380Y-81281057D02*
X151295237Y-81233438D01*
X151295237Y-81233438D02*
X151390475Y-81138199D01*
X151390475Y-81138199D02*
X151438094Y-81042961D01*
X151438094Y-81042961D02*
X151485713Y-80852485D01*
X151485713Y-80852485D02*
X151485713Y-80709628D01*
X151485713Y-80709628D02*
X151438094Y-80519152D01*
X151438094Y-80519152D02*
X151390475Y-80423914D01*
X151390475Y-80423914D02*
X151295237Y-80328676D01*
X151295237Y-80328676D02*
X151152380Y-80281057D01*
X151152380Y-80281057D02*
X151057142Y-80281057D01*
X151057142Y-80281057D02*
X150914285Y-80328676D01*
X150914285Y-80328676D02*
X150866666Y-80376295D01*
X149961904Y-80281057D02*
X150438094Y-80281057D01*
X150438094Y-80281057D02*
X150485713Y-80757247D01*
X150485713Y-80757247D02*
X150438094Y-80709628D01*
X150438094Y-80709628D02*
X150342856Y-80662009D01*
X150342856Y-80662009D02*
X150104761Y-80662009D01*
X150104761Y-80662009D02*
X150009523Y-80709628D01*
X150009523Y-80709628D02*
X149961904Y-80757247D01*
X149961904Y-80757247D02*
X149914285Y-80852485D01*
X149914285Y-80852485D02*
X149914285Y-81090580D01*
X149914285Y-81090580D02*
X149961904Y-81185818D01*
X149961904Y-81185818D02*
X150009523Y-81233438D01*
X150009523Y-81233438D02*
X150104761Y-81281057D01*
X150104761Y-81281057D02*
X150342856Y-81281057D01*
X150342856Y-81281057D02*
X150438094Y-81233438D01*
X150438094Y-81233438D02*
X150485713Y-81185818D01*
X141524819Y-96457142D02*
X141048628Y-96123809D01*
X141524819Y-95885714D02*
X140524819Y-95885714D01*
X140524819Y-95885714D02*
X140524819Y-96266666D01*
X140524819Y-96266666D02*
X140572438Y-96361904D01*
X140572438Y-96361904D02*
X140620057Y-96409523D01*
X140620057Y-96409523D02*
X140715295Y-96457142D01*
X140715295Y-96457142D02*
X140858152Y-96457142D01*
X140858152Y-96457142D02*
X140953390Y-96409523D01*
X140953390Y-96409523D02*
X141001009Y-96361904D01*
X141001009Y-96361904D02*
X141048628Y-96266666D01*
X141048628Y-96266666D02*
X141048628Y-95885714D01*
X140524819Y-96790476D02*
X140524819Y-97409523D01*
X140524819Y-97409523D02*
X140905771Y-97076190D01*
X140905771Y-97076190D02*
X140905771Y-97219047D01*
X140905771Y-97219047D02*
X140953390Y-97314285D01*
X140953390Y-97314285D02*
X141001009Y-97361904D01*
X141001009Y-97361904D02*
X141096247Y-97409523D01*
X141096247Y-97409523D02*
X141334342Y-97409523D01*
X141334342Y-97409523D02*
X141429580Y-97361904D01*
X141429580Y-97361904D02*
X141477200Y-97314285D01*
X141477200Y-97314285D02*
X141524819Y-97219047D01*
X141524819Y-97219047D02*
X141524819Y-96933333D01*
X141524819Y-96933333D02*
X141477200Y-96838095D01*
X141477200Y-96838095D02*
X141429580Y-96790476D01*
X141524819Y-98361904D02*
X141524819Y-97790476D01*
X141524819Y-98076190D02*
X140524819Y-98076190D01*
X140524819Y-98076190D02*
X140667676Y-97980952D01*
X140667676Y-97980952D02*
X140762914Y-97885714D01*
X140762914Y-97885714D02*
X140810533Y-97790476D01*
X153319047Y-45754946D02*
X153795237Y-45754946D01*
X153795237Y-45754946D02*
X153795237Y-44754946D01*
X152985713Y-45231136D02*
X152652380Y-45231136D01*
X152509523Y-45754946D02*
X152985713Y-45754946D01*
X152985713Y-45754946D02*
X152985713Y-44754946D01*
X152985713Y-44754946D02*
X152509523Y-44754946D01*
X152080951Y-45754946D02*
X152080951Y-44754946D01*
X152080951Y-44754946D02*
X151842856Y-44754946D01*
X151842856Y-44754946D02*
X151699999Y-44802565D01*
X151699999Y-44802565D02*
X151604761Y-44897803D01*
X151604761Y-44897803D02*
X151557142Y-44993041D01*
X151557142Y-44993041D02*
X151509523Y-45183517D01*
X151509523Y-45183517D02*
X151509523Y-45326374D01*
X151509523Y-45326374D02*
X151557142Y-45516850D01*
X151557142Y-45516850D02*
X151604761Y-45612088D01*
X151604761Y-45612088D02*
X151699999Y-45707327D01*
X151699999Y-45707327D02*
X151842856Y-45754946D01*
X151842856Y-45754946D02*
X152080951Y-45754946D01*
X151128570Y-44850184D02*
X151080951Y-44802565D01*
X151080951Y-44802565D02*
X150985713Y-44754946D01*
X150985713Y-44754946D02*
X150747618Y-44754946D01*
X150747618Y-44754946D02*
X150652380Y-44802565D01*
X150652380Y-44802565D02*
X150604761Y-44850184D01*
X150604761Y-44850184D02*
X150557142Y-44945422D01*
X150557142Y-44945422D02*
X150557142Y-45040660D01*
X150557142Y-45040660D02*
X150604761Y-45183517D01*
X150604761Y-45183517D02*
X151176189Y-45754946D01*
X151176189Y-45754946D02*
X150557142Y-45754946D01*
X128461980Y-87554413D02*
X128461980Y-88363936D01*
X128461980Y-88363936D02*
X128414361Y-88459174D01*
X128414361Y-88459174D02*
X128366742Y-88506794D01*
X128366742Y-88506794D02*
X128271504Y-88554413D01*
X128271504Y-88554413D02*
X128081028Y-88554413D01*
X128081028Y-88554413D02*
X127985790Y-88506794D01*
X127985790Y-88506794D02*
X127938171Y-88459174D01*
X127938171Y-88459174D02*
X127890552Y-88363936D01*
X127890552Y-88363936D02*
X127890552Y-87554413D01*
X126985790Y-87887746D02*
X126985790Y-88554413D01*
X127223885Y-87506794D02*
X127461980Y-88221079D01*
X127461980Y-88221079D02*
X126842933Y-88221079D01*
X129342857Y-98054819D02*
X129676190Y-97578628D01*
X129914285Y-98054819D02*
X129914285Y-97054819D01*
X129914285Y-97054819D02*
X129533333Y-97054819D01*
X129533333Y-97054819D02*
X129438095Y-97102438D01*
X129438095Y-97102438D02*
X129390476Y-97150057D01*
X129390476Y-97150057D02*
X129342857Y-97245295D01*
X129342857Y-97245295D02*
X129342857Y-97388152D01*
X129342857Y-97388152D02*
X129390476Y-97483390D01*
X129390476Y-97483390D02*
X129438095Y-97531009D01*
X129438095Y-97531009D02*
X129533333Y-97578628D01*
X129533333Y-97578628D02*
X129914285Y-97578628D01*
X128961904Y-97150057D02*
X128914285Y-97102438D01*
X128914285Y-97102438D02*
X128819047Y-97054819D01*
X128819047Y-97054819D02*
X128580952Y-97054819D01*
X128580952Y-97054819D02*
X128485714Y-97102438D01*
X128485714Y-97102438D02*
X128438095Y-97150057D01*
X128438095Y-97150057D02*
X128390476Y-97245295D01*
X128390476Y-97245295D02*
X128390476Y-97340533D01*
X128390476Y-97340533D02*
X128438095Y-97483390D01*
X128438095Y-97483390D02*
X129009523Y-98054819D01*
X129009523Y-98054819D02*
X128390476Y-98054819D01*
X127485714Y-97054819D02*
X127961904Y-97054819D01*
X127961904Y-97054819D02*
X128009523Y-97531009D01*
X128009523Y-97531009D02*
X127961904Y-97483390D01*
X127961904Y-97483390D02*
X127866666Y-97435771D01*
X127866666Y-97435771D02*
X127628571Y-97435771D01*
X127628571Y-97435771D02*
X127533333Y-97483390D01*
X127533333Y-97483390D02*
X127485714Y-97531009D01*
X127485714Y-97531009D02*
X127438095Y-97626247D01*
X127438095Y-97626247D02*
X127438095Y-97864342D01*
X127438095Y-97864342D02*
X127485714Y-97959580D01*
X127485714Y-97959580D02*
X127533333Y-98007200D01*
X127533333Y-98007200D02*
X127628571Y-98054819D01*
X127628571Y-98054819D02*
X127866666Y-98054819D01*
X127866666Y-98054819D02*
X127961904Y-98007200D01*
X127961904Y-98007200D02*
X128009523Y-97959580D01*
X130747618Y-107254819D02*
X130747618Y-106254819D01*
X130747618Y-106254819D02*
X130414285Y-106969104D01*
X130414285Y-106969104D02*
X130080952Y-106254819D01*
X130080952Y-106254819D02*
X130080952Y-107254819D01*
X129604761Y-107254819D02*
X129604761Y-106254819D01*
X128557143Y-107159580D02*
X128604762Y-107207200D01*
X128604762Y-107207200D02*
X128747619Y-107254819D01*
X128747619Y-107254819D02*
X128842857Y-107254819D01*
X128842857Y-107254819D02*
X128985714Y-107207200D01*
X128985714Y-107207200D02*
X129080952Y-107111961D01*
X129080952Y-107111961D02*
X129128571Y-107016723D01*
X129128571Y-107016723D02*
X129176190Y-106826247D01*
X129176190Y-106826247D02*
X129176190Y-106683390D01*
X129176190Y-106683390D02*
X129128571Y-106492914D01*
X129128571Y-106492914D02*
X129080952Y-106397676D01*
X129080952Y-106397676D02*
X128985714Y-106302438D01*
X128985714Y-106302438D02*
X128842857Y-106254819D01*
X128842857Y-106254819D02*
X128747619Y-106254819D01*
X128747619Y-106254819D02*
X128604762Y-106302438D01*
X128604762Y-106302438D02*
X128557143Y-106350057D01*
X127604762Y-107254819D02*
X128176190Y-107254819D01*
X127890476Y-107254819D02*
X127890476Y-106254819D01*
X127890476Y-106254819D02*
X127985714Y-106397676D01*
X127985714Y-106397676D02*
X128080952Y-106492914D01*
X128080952Y-106492914D02*
X128176190Y-106540533D01*
X138242857Y-95024819D02*
X138576190Y-94548628D01*
X138814285Y-95024819D02*
X138814285Y-94024819D01*
X138814285Y-94024819D02*
X138433333Y-94024819D01*
X138433333Y-94024819D02*
X138338095Y-94072438D01*
X138338095Y-94072438D02*
X138290476Y-94120057D01*
X138290476Y-94120057D02*
X138242857Y-94215295D01*
X138242857Y-94215295D02*
X138242857Y-94358152D01*
X138242857Y-94358152D02*
X138290476Y-94453390D01*
X138290476Y-94453390D02*
X138338095Y-94501009D01*
X138338095Y-94501009D02*
X138433333Y-94548628D01*
X138433333Y-94548628D02*
X138814285Y-94548628D01*
X137909523Y-94024819D02*
X137290476Y-94024819D01*
X137290476Y-94024819D02*
X137623809Y-94405771D01*
X137623809Y-94405771D02*
X137480952Y-94405771D01*
X137480952Y-94405771D02*
X137385714Y-94453390D01*
X137385714Y-94453390D02*
X137338095Y-94501009D01*
X137338095Y-94501009D02*
X137290476Y-94596247D01*
X137290476Y-94596247D02*
X137290476Y-94834342D01*
X137290476Y-94834342D02*
X137338095Y-94929580D01*
X137338095Y-94929580D02*
X137385714Y-94977200D01*
X137385714Y-94977200D02*
X137480952Y-95024819D01*
X137480952Y-95024819D02*
X137766666Y-95024819D01*
X137766666Y-95024819D02*
X137861904Y-94977200D01*
X137861904Y-94977200D02*
X137909523Y-94929580D01*
X136671428Y-94024819D02*
X136576190Y-94024819D01*
X136576190Y-94024819D02*
X136480952Y-94072438D01*
X136480952Y-94072438D02*
X136433333Y-94120057D01*
X136433333Y-94120057D02*
X136385714Y-94215295D01*
X136385714Y-94215295D02*
X136338095Y-94405771D01*
X136338095Y-94405771D02*
X136338095Y-94643866D01*
X136338095Y-94643866D02*
X136385714Y-94834342D01*
X136385714Y-94834342D02*
X136433333Y-94929580D01*
X136433333Y-94929580D02*
X136480952Y-94977200D01*
X136480952Y-94977200D02*
X136576190Y-95024819D01*
X136576190Y-95024819D02*
X136671428Y-95024819D01*
X136671428Y-95024819D02*
X136766666Y-94977200D01*
X136766666Y-94977200D02*
X136814285Y-94929580D01*
X136814285Y-94929580D02*
X136861904Y-94834342D01*
X136861904Y-94834342D02*
X136909523Y-94643866D01*
X136909523Y-94643866D02*
X136909523Y-94405771D01*
X136909523Y-94405771D02*
X136861904Y-94215295D01*
X136861904Y-94215295D02*
X136814285Y-94120057D01*
X136814285Y-94120057D02*
X136766666Y-94072438D01*
X136766666Y-94072438D02*
X136671428Y-94024819D01*
X153018819Y-90074666D02*
X153733104Y-90074666D01*
X153733104Y-90074666D02*
X153875961Y-90027047D01*
X153875961Y-90027047D02*
X153971200Y-89931809D01*
X153971200Y-89931809D02*
X154018819Y-89788952D01*
X154018819Y-89788952D02*
X154018819Y-89693714D01*
X153018819Y-91027047D02*
X153018819Y-90550857D01*
X153018819Y-90550857D02*
X153495009Y-90503238D01*
X153495009Y-90503238D02*
X153447390Y-90550857D01*
X153447390Y-90550857D02*
X153399771Y-90646095D01*
X153399771Y-90646095D02*
X153399771Y-90884190D01*
X153399771Y-90884190D02*
X153447390Y-90979428D01*
X153447390Y-90979428D02*
X153495009Y-91027047D01*
X153495009Y-91027047D02*
X153590247Y-91074666D01*
X153590247Y-91074666D02*
X153828342Y-91074666D01*
X153828342Y-91074666D02*
X153923580Y-91027047D01*
X153923580Y-91027047D02*
X153971200Y-90979428D01*
X153971200Y-90979428D02*
X154018819Y-90884190D01*
X154018819Y-90884190D02*
X154018819Y-90646095D01*
X154018819Y-90646095D02*
X153971200Y-90550857D01*
X153971200Y-90550857D02*
X153923580Y-90503238D01*
X133054819Y-103338095D02*
X133054819Y-103909523D01*
X134054819Y-103623809D02*
X133054819Y-103623809D01*
X133150057Y-104195238D02*
X133102438Y-104242857D01*
X133102438Y-104242857D02*
X133054819Y-104338095D01*
X133054819Y-104338095D02*
X133054819Y-104576190D01*
X133054819Y-104576190D02*
X133102438Y-104671428D01*
X133102438Y-104671428D02*
X133150057Y-104719047D01*
X133150057Y-104719047D02*
X133245295Y-104766666D01*
X133245295Y-104766666D02*
X133340533Y-104766666D01*
X133340533Y-104766666D02*
X133483390Y-104719047D01*
X133483390Y-104719047D02*
X134054819Y-104147619D01*
X134054819Y-104147619D02*
X134054819Y-104766666D01*
D11*
G04 #@! TO.C,C1*
X148723800Y-102026187D02*
X148723800Y-98373813D01*
X148808763Y-98373813D02*
X148723800Y-98373813D01*
X151591237Y-98373813D02*
X151676200Y-98373813D01*
X151676200Y-101104318D02*
X148723800Y-101104318D01*
X151676200Y-102026187D02*
X151676200Y-98373813D01*
D12*
X148829921Y-102179934D02*
G75*
G02*
X148769977Y-102179934I-29972J0D01*
G01*
X148769977Y-102179934D02*
G75*
G02*
X148829921Y-102179934I29972J0D01*
G01*
D13*
G04 #@! TO.C,J3*
X154312000Y-79952000D02*
X154312000Y-81202000D01*
X154412000Y-81712000D02*
X154412000Y-82012000D01*
X154412000Y-82012000D02*
X154612000Y-82012000D01*
X154512000Y-81712000D02*
X154512000Y-82012000D01*
X154612000Y-80252000D02*
X154612000Y-86372000D01*
X154612000Y-81712000D02*
X154412000Y-81712000D01*
X154612000Y-83812000D02*
X155222000Y-83812000D01*
X154612000Y-86372000D02*
X159332000Y-86372000D01*
X155222000Y-80862000D02*
X155222000Y-82812000D01*
X155222000Y-82812000D02*
X154612000Y-82812000D01*
X155222000Y-83812000D02*
X155222000Y-85762000D01*
X155222000Y-85762000D02*
X158722000Y-85762000D01*
X155562000Y-79952000D02*
X154312000Y-79952000D01*
X155922000Y-80862000D02*
X155922000Y-80252000D01*
X155922000Y-85762000D02*
X155922000Y-86372000D01*
X157222000Y-80862000D02*
X157222000Y-80252000D01*
X157222000Y-85762000D02*
X157222000Y-86372000D01*
X158222000Y-83212000D02*
X158722000Y-83212000D01*
X158222000Y-83312000D02*
X158722000Y-83312000D01*
X158222000Y-83412000D02*
X158222000Y-83212000D01*
X158722000Y-80862000D02*
X155222000Y-80862000D01*
X158722000Y-83412000D02*
X158222000Y-83412000D01*
X158722000Y-85762000D02*
X158722000Y-80862000D01*
X159332000Y-80252000D02*
X154612000Y-80252000D01*
X159332000Y-86372000D02*
X159332000Y-80252000D01*
D14*
G04 #@! TO.C,T1*
X142649835Y-105275083D02*
X142649835Y-102724917D01*
X143399136Y-102999238D02*
X144199238Y-102199136D01*
X143399136Y-104899162D02*
X143399136Y-102999238D01*
X143544907Y-101829845D02*
X142649835Y-102724917D01*
X143544907Y-106170155D02*
X142649835Y-105275083D01*
X144199238Y-102199136D02*
X146198222Y-102199136D01*
X144300838Y-105800864D02*
X143399136Y-104899162D01*
X146099162Y-105800864D02*
X144300838Y-105800864D01*
X146198222Y-102199136D02*
X147099924Y-103100838D01*
X146368402Y-101449835D02*
X144031598Y-101449835D01*
X146368402Y-106550165D02*
X144031598Y-106550165D01*
X147099924Y-103100838D02*
X147099924Y-104800102D01*
X147099924Y-104800102D02*
X146099162Y-105800864D01*
X147750165Y-102724917D02*
X146855093Y-101829845D01*
X147750165Y-105275083D02*
X146855093Y-106170155D01*
X147750165Y-105275083D02*
X147750165Y-102724917D01*
D12*
X142680061Y-100750064D02*
G75*
G02*
X142620117Y-100750064I-29972J0D01*
G01*
X142620117Y-100750064D02*
G75*
G02*
X142680061Y-100750064I29972J0D01*
G01*
D14*
X146475083Y-104000000D02*
G75*
G02*
X143924917Y-104000000I-1275083J0D01*
G01*
X143924917Y-104000000D02*
G75*
G02*
X146475083Y-104000000I1275083J0D01*
G01*
D13*
G04 #@! TO.C,C9*
X137459420Y-97290000D02*
X137740580Y-97290000D01*
X137459420Y-98310000D02*
X137740580Y-98310000D01*
D11*
G04 #@! TO.C,C5*
X146498755Y-72110033D02*
X148235027Y-70373762D01*
X146498755Y-73817602D02*
X146498755Y-72110033D01*
X146498755Y-75382398D02*
X146498755Y-77089967D01*
X146498755Y-77089967D02*
X148235027Y-78826238D01*
X148235027Y-70373762D02*
X154901245Y-70373762D01*
X148235027Y-78826238D02*
X154901245Y-78826238D01*
X154901245Y-70373762D02*
X154901245Y-73817602D01*
X154901245Y-78826238D02*
X154901245Y-75382398D01*
D12*
X146205461Y-70449886D02*
G75*
G02*
X146145517Y-70449886I-29972J0D01*
G01*
X146145517Y-70449886D02*
G75*
G02*
X146205461Y-70449886I29972J0D01*
G01*
D13*
G04 #@! TO.C,R31*
X141977500Y-97337258D02*
X141977500Y-96862742D01*
X143022500Y-97337258D02*
X143022500Y-96862742D01*
D14*
G04 #@! TO.C,LED2*
X150100076Y-58300051D02*
X150100076Y-57400203D01*
X150144399Y-49400051D02*
X150144399Y-50372720D01*
X154455601Y-58300051D02*
X154455601Y-57427534D01*
X154499924Y-49400051D02*
X154499924Y-50400051D01*
X150100075Y-57400204D02*
G75*
G02*
X150144399Y-50372720I2200002J3500006D01*
G01*
X154499925Y-50400050D02*
G75*
G02*
X154455601Y-57427534I-2200002J-3500006D01*
G01*
D15*
X155599720Y-48300178D02*
G75*
G02*
X155199924Y-48300178I-199898J0D01*
G01*
X155199924Y-48300178D02*
G75*
G02*
X155599720Y-48300178I199898J0D01*
G01*
D12*
X156459766Y-46650191D02*
G75*
G02*
X156399822Y-46650191I-29972J0D01*
G01*
X156399822Y-46650191D02*
G75*
G02*
X156459766Y-46650191I29972J0D01*
G01*
D14*
G04 #@! TO.C,U4*
X126200000Y-91140996D02*
X126200000Y-95408204D01*
X126200000Y-95408204D02*
X129200152Y-95408204D01*
X129200000Y-91140996D02*
X126237084Y-91140996D01*
X129200152Y-91140996D02*
X129200152Y-92537998D01*
X129200152Y-94011201D02*
X129200152Y-95408204D01*
X129200154Y-93985802D02*
G75*
G02*
X129200152Y-92537998I-1J723902D01*
G01*
D16*
X129436944Y-95865402D02*
G75*
G02*
X129434823Y-95865405I-848J-150010D01*
G01*
D17*
X129250038Y-96499898D02*
G75*
G02*
X129149962Y-96499898I-50038J0D01*
G01*
X129149962Y-96499898D02*
G75*
G02*
X129250038Y-96499898I50038J0D01*
G01*
D13*
G04 #@! TO.C,R25*
X128937258Y-98777500D02*
X128462742Y-98777500D01*
X128937258Y-99822500D02*
X128462742Y-99822500D01*
D14*
G04 #@! TO.C,MIC1*
X129234950Y-105416002D02*
X129996952Y-105416002D01*
D12*
X125629997Y-102399924D02*
G75*
G02*
X125570003Y-102399924I-29997J0D01*
G01*
X125570003Y-102399924D02*
G75*
G02*
X125629997Y-102399924I29997J0D01*
G01*
D14*
X131600000Y-105400000D02*
G75*
G02*
X125600000Y-105400000I-3000000J0D01*
G01*
X125600000Y-105400000D02*
G75*
G02*
X131600000Y-105400000I3000000J0D01*
G01*
D13*
G04 #@! TO.C,R30*
X137362742Y-95477500D02*
X137837258Y-95477500D01*
X137362742Y-96522500D02*
X137837258Y-96522500D01*
G04 #@! TO.C,J5*
X154354000Y-87048000D02*
X154354000Y-88298000D01*
X154454000Y-88808000D02*
X154454000Y-89108000D01*
X154454000Y-89108000D02*
X154654000Y-89108000D01*
X154554000Y-88808000D02*
X154554000Y-89108000D01*
X154654000Y-87348000D02*
X154654000Y-93468000D01*
X154654000Y-88808000D02*
X154454000Y-88808000D01*
X154654000Y-90908000D02*
X155264000Y-90908000D01*
X154654000Y-93468000D02*
X159374000Y-93468000D01*
X155264000Y-87958000D02*
X155264000Y-89908000D01*
X155264000Y-89908000D02*
X154654000Y-89908000D01*
X155264000Y-90908000D02*
X155264000Y-92858000D01*
X155264000Y-92858000D02*
X158764000Y-92858000D01*
X155604000Y-87048000D02*
X154354000Y-87048000D01*
X155964000Y-87958000D02*
X155964000Y-87348000D01*
X155964000Y-92858000D02*
X155964000Y-93468000D01*
X157264000Y-87958000D02*
X157264000Y-87348000D01*
X157264000Y-92858000D02*
X157264000Y-93468000D01*
X158264000Y-90308000D02*
X158764000Y-90308000D01*
X158264000Y-90408000D02*
X158764000Y-90408000D01*
X158264000Y-90508000D02*
X158264000Y-90308000D01*
X158764000Y-87958000D02*
X155264000Y-87958000D01*
X158764000Y-90508000D02*
X158264000Y-90508000D01*
X158764000Y-92858000D02*
X158764000Y-87958000D01*
X159374000Y-87348000D02*
X154654000Y-87348000D01*
X159374000Y-93468000D02*
X159374000Y-87348000D01*
D14*
G04 #@! TO.C,T2*
X134649835Y-102724917D02*
X134649835Y-105275083D01*
X134649835Y-102724917D02*
X135544907Y-101829845D01*
X134649835Y-105275083D02*
X135544907Y-106170155D01*
X135300076Y-103199898D02*
X136300838Y-102199136D01*
X135300076Y-104899162D02*
X135300076Y-103199898D01*
X136031598Y-101449835D02*
X138368402Y-101449835D01*
X136031598Y-106550165D02*
X138368402Y-106550165D01*
X136201778Y-105800864D02*
X135300076Y-104899162D01*
X136300838Y-102199136D02*
X138099162Y-102199136D01*
X138099162Y-102199136D02*
X139000864Y-103100838D01*
X138200762Y-105800864D02*
X136201778Y-105800864D01*
X138855093Y-101829845D02*
X139750165Y-102724917D01*
X138855093Y-106170155D02*
X139750165Y-105275083D01*
X139000864Y-103100838D02*
X139000864Y-105000762D01*
X139000864Y-105000762D02*
X138200762Y-105800864D01*
X139750165Y-102724917D02*
X139750165Y-105275083D01*
X138475083Y-104000000D02*
G75*
G02*
X135924917Y-104000000I-1275083J0D01*
G01*
X135924917Y-104000000D02*
G75*
G02*
X138475083Y-104000000I1275083J0D01*
G01*
D12*
X139779883Y-107249936D02*
G75*
G02*
X139719939Y-107249936I-29972J0D01*
G01*
X139719939Y-107249936D02*
G75*
G02*
X139779883Y-107249936I29972J0D01*
G01*
G04 #@! TD*
%LPC*%
D18*
G04 #@! TO.C,SW1*
X163400000Y-107377318D03*
X166400000Y-107377318D03*
G04 #@! TD*
D19*
G04 #@! TO.C,LED1*
X143000000Y-53999873D03*
G04 #@! TD*
D20*
G04 #@! TO.C,H2*
X167500000Y-96500000D03*
G04 #@! TD*
D21*
G04 #@! TO.C,J2*
X165200000Y-74649987D03*
D22*
X165200000Y-77189992D03*
X165200000Y-79729997D03*
X165200000Y-82270003D03*
X165200000Y-84810008D03*
X165200000Y-87350013D03*
G04 #@! TD*
D23*
G04 #@! TO.C,USB1*
X158524943Y-103638253D03*
D24*
X159724841Y-106308560D03*
X152475159Y-106308560D03*
D23*
X153675057Y-103638507D03*
G04 #@! TD*
D25*
G04 #@! TO.C,J4*
X156345054Y-44284065D03*
X139845054Y-44284065D03*
G04 #@! TD*
D21*
G04 #@! TO.C,J1*
X127100000Y-74649987D03*
D22*
X127100000Y-77189992D03*
X127100000Y-79729997D03*
X127100000Y-82270003D03*
X127100000Y-84810008D03*
X127100000Y-87350013D03*
G04 #@! TD*
D20*
G04 #@! TO.C,H1*
X166900000Y-47200000D03*
G04 #@! TD*
G04 #@! TO.C,H3*
X127600000Y-68300000D03*
G04 #@! TD*
D26*
G04 #@! TO.C,C1*
X150200000Y-102060554D03*
X150200000Y-98339446D03*
G04 #@! TD*
D27*
G04 #@! TO.C,J3*
X156422000Y-82312000D03*
D28*
X156422000Y-84312000D03*
G04 #@! TD*
D29*
G04 #@! TO.C,T1*
X143349809Y-100700025D03*
X143349784Y-107299975D03*
X147050216Y-100700025D03*
X147050191Y-107299975D03*
G04 #@! TD*
D30*
G04 #@! TO.C,C9*
X138375000Y-97800000D03*
X136825000Y-97800000D03*
G04 #@! TD*
D31*
G04 #@! TO.C,C5*
X147432791Y-74600000D03*
X153967209Y-74600000D03*
G04 #@! TD*
D32*
G04 #@! TO.C,R31*
X142500000Y-96275000D03*
X142500000Y-97925000D03*
G04 #@! TD*
D33*
G04 #@! TO.C,LED2*
X154000025Y-47750013D03*
X154000025Y-60049987D03*
X152300000Y-47750013D03*
X152300000Y-60049987D03*
X150599975Y-47750013D03*
X150599975Y-60049987D03*
D34*
X152300000Y-53900127D03*
G04 #@! TD*
D35*
G04 #@! TO.C,U4*
X128675235Y-96500406D03*
X128024994Y-96500406D03*
X127374752Y-96500406D03*
X126724511Y-96500406D03*
X126724511Y-90099594D03*
X127374752Y-90099594D03*
X128024994Y-90099594D03*
X128675235Y-90099594D03*
G04 #@! TD*
D36*
G04 #@! TO.C,R25*
X127875000Y-99300000D03*
X129525000Y-99300000D03*
G04 #@! TD*
D37*
G04 #@! TO.C,MIC1*
X127650038Y-104400000D03*
X129549962Y-104400000D03*
G04 #@! TD*
D38*
G04 #@! TO.C,R30*
X138425000Y-96000000D03*
X136775000Y-96000000D03*
G04 #@! TD*
D27*
G04 #@! TO.C,J5*
X156464000Y-89408000D03*
D28*
X156464000Y-91408000D03*
G04 #@! TD*
D29*
G04 #@! TO.C,T2*
X139050191Y-107299975D03*
X139050216Y-100700025D03*
X135349784Y-107299975D03*
X135349809Y-100700025D03*
G04 #@! TD*
%LPD*%
M02*
