G04 #@! TF.GenerationSoftware,KiCad,Pcbnew,8.0.1*
G04 #@! TF.CreationDate,2024-04-29T00:58:12+02:00*
G04 #@! TF.ProjectId,Blinky,426c696e-6b79-42e6-9b69-6361645f7063,rev?*
G04 #@! TF.SameCoordinates,Original*
G04 #@! TF.FileFunction,Paste,Top*
G04 #@! TF.FilePolarity,Positive*
%FSLAX46Y46*%
G04 Gerber Fmt 4.6, Leading zero omitted, Abs format (unit mm)*
G04 Created by KiCad (PCBNEW 8.0.1) date 2024-04-29 00:58:12*
%MOMM*%
%LPD*%
G01*
G04 APERTURE LIST*
G04 Aperture macros list*
%AMRoundRect*
0 Rectangle with rounded corners*
0 $1 Rounding radius*
0 $2 $3 $4 $5 $6 $7 $8 $9 X,Y pos of 4 corners*
0 Add a 4 corners polygon primitive as box body*
4,1,4,$2,$3,$4,$5,$6,$7,$8,$9,$2,$3,0*
0 Add four circle primitives for the rounded corners*
1,1,$1+$1,$2,$3*
1,1,$1+$1,$4,$5*
1,1,$1+$1,$6,$7*
1,1,$1+$1,$8,$9*
0 Add four rect primitives between the rounded corners*
20,1,$1+$1,$2,$3,$4,$5,0*
20,1,$1+$1,$4,$5,$6,$7,0*
20,1,$1+$1,$6,$7,$8,$9,0*
20,1,$1+$1,$8,$9,$2,$3,0*%
G04 Aperture macros list end*
%ADD10C,0.200000*%
%ADD11RoundRect,0.200000X0.200000X0.275000X-0.200000X0.275000X-0.200000X-0.275000X0.200000X-0.275000X0*%
%ADD12R,1.000000X1.800000*%
%ADD13RoundRect,0.150000X0.587500X0.150000X-0.587500X0.150000X-0.587500X-0.150000X0.587500X-0.150000X0*%
%ADD14R,0.900000X1.800000*%
%ADD15R,1.100000X0.929997*%
%ADD16R,0.800000X0.800000*%
%ADD17RoundRect,0.112500X0.112500X-0.487500X0.112500X0.487500X-0.112500X0.487500X-0.112500X-0.487500X0*%
%ADD18RoundRect,0.286500X0.286500X-0.313500X0.286500X0.313500X-0.286500X0.313500X-0.286500X-0.313500X0*%
%ADD19RoundRect,0.218250X0.218250X-0.381750X0.218250X0.381750X-0.218250X0.381750X-0.218250X-0.381750X0*%
%ADD20RoundRect,0.225000X-0.250000X0.225000X-0.250000X-0.225000X0.250000X-0.225000X0.250000X0.225000X0*%
%ADD21RoundRect,0.200000X0.275000X-0.200000X0.275000X0.200000X-0.275000X0.200000X-0.275000X-0.200000X0*%
%ADD22RoundRect,0.200000X-0.200000X-0.275000X0.200000X-0.275000X0.200000X0.275000X-0.200000X0.275000X0*%
%ADD23R,1.350013X3.000000*%
%ADD24RoundRect,0.225000X-0.225000X-0.250000X0.225000X-0.250000X0.225000X0.250000X-0.225000X0.250000X0*%
%ADD25RoundRect,0.150000X-0.587500X-0.150000X0.587500X-0.150000X0.587500X0.150000X-0.587500X0.150000X0*%
%ADD26RoundRect,0.200000X-0.275000X0.200000X-0.275000X-0.200000X0.275000X-0.200000X0.275000X0.200000X0*%
%ADD27RoundRect,0.225000X0.250000X-0.225000X0.250000X0.225000X-0.250000X0.225000X-0.250000X-0.225000X0*%
%ADD28R,0.400000X1.600000*%
%ADD29RoundRect,0.225000X0.225000X0.250000X-0.225000X0.250000X-0.225000X-0.250000X0.225000X-0.250000X0*%
%ADD30R,1.500000X0.900000*%
%ADD31R,0.900000X1.500000*%
%ADD32R,0.900000X0.900000*%
%ADD33R,1.506248X2.375997*%
%ADD34R,1.000000X0.600000*%
%ADD35R,0.600000X1.200000*%
%ADD36R,3.300000X2.400000*%
G04 APERTURE END LIST*
G04 #@! TO.C,LED1*
D10*
X140600000Y-51899873D02*
X142500000Y-51899873D01*
X142500000Y-53149873D01*
X140600000Y-53149873D01*
X140600000Y-51899873D01*
G36*
X140600000Y-51899873D02*
G01*
X142500000Y-51899873D01*
X142500000Y-53149873D01*
X140600000Y-53149873D01*
X140600000Y-51899873D01*
G37*
X140850000Y-54199873D02*
X142600000Y-54199873D01*
X142600000Y-55849873D01*
X140850000Y-55849873D01*
X140850000Y-54199873D01*
G36*
X140850000Y-54199873D02*
G01*
X142600000Y-54199873D01*
X142600000Y-55849873D01*
X140850000Y-55849873D01*
X140850000Y-54199873D01*
G37*
X143850000Y-54549873D02*
X145300000Y-54549873D01*
X145300000Y-55949873D01*
X143850000Y-55949873D01*
X143850000Y-54549873D01*
G36*
X143850000Y-54549873D02*
G01*
X145300000Y-54549873D01*
X145300000Y-55949873D01*
X143850000Y-55949873D01*
X143850000Y-54549873D01*
G37*
X143950000Y-52049873D02*
X145450000Y-52049873D01*
X145450000Y-53924873D01*
X143950000Y-53924873D01*
X143950000Y-52049873D01*
G36*
X143950000Y-52049873D02*
G01*
X145450000Y-52049873D01*
X145450000Y-53924873D01*
X143950000Y-53924873D01*
X143950000Y-52049873D01*
G37*
G04 #@! TD*
D11*
G04 #@! TO.C,R20*
X161725000Y-81200000D03*
X160075000Y-81200000D03*
G04 #@! TD*
D12*
G04 #@! TO.C,TXAL1*
X140550000Y-87400000D03*
X138050000Y-87400000D03*
G04 #@! TD*
D13*
G04 #@! TO.C,Q3*
X155750000Y-64200000D03*
X155750000Y-62300000D03*
X153875000Y-63250000D03*
G04 #@! TD*
D14*
G04 #@! TO.C,SW1*
X162649936Y-105345568D03*
X165649936Y-105345568D03*
X167149809Y-105345568D03*
D15*
X168699975Y-106242444D03*
X168699975Y-108512446D03*
X161100025Y-108512446D03*
X161100025Y-106242444D03*
G04 #@! TD*
D11*
G04 #@! TO.C,R4*
X150625000Y-87200000D03*
X148975000Y-87200000D03*
G04 #@! TD*
G04 #@! TO.C,R2*
X147575000Y-69250000D03*
X145925000Y-69250000D03*
G04 #@! TD*
G04 #@! TO.C,R15*
X147575000Y-63250000D03*
X145925000Y-63250000D03*
G04 #@! TD*
D16*
G04 #@! TO.C,U9*
X162700457Y-61103607D03*
X164299390Y-61096495D03*
G04 #@! TD*
D17*
G04 #@! TO.C,U5*
X160497000Y-93702000D03*
D18*
X161735000Y-93702000D03*
D19*
X161826500Y-90702000D03*
X160753500Y-90702000D03*
G04 #@! TD*
D20*
G04 #@! TO.C,C2*
X129032000Y-93713000D03*
X129032000Y-95263000D03*
G04 #@! TD*
D21*
G04 #@! TO.C,R34*
X126200000Y-98325000D03*
X126200000Y-96675000D03*
G04 #@! TD*
D22*
G04 #@! TO.C,R9*
X134475000Y-52600000D03*
X136125000Y-52600000D03*
G04 #@! TD*
D23*
G04 #@! TO.C,LED1*
X141299975Y-47849886D03*
X141299975Y-60149860D03*
X143000000Y-47849886D03*
X143000000Y-60149860D03*
X144700025Y-47849886D03*
X144700025Y-60149860D03*
G04 #@! TD*
D22*
G04 #@! TO.C,R22*
X164850000Y-66000000D03*
X166500000Y-66000000D03*
G04 #@! TD*
D24*
G04 #@! TO.C,C3*
X126100000Y-90400000D03*
X127650000Y-90400000D03*
G04 #@! TD*
G04 #@! TO.C,C13*
X142125000Y-87300000D03*
X143675000Y-87300000D03*
G04 #@! TD*
D22*
G04 #@! TO.C,R14*
X145675000Y-87200000D03*
X147325000Y-87200000D03*
G04 #@! TD*
D25*
G04 #@! TO.C,Q4*
X128262500Y-46150000D03*
X128262500Y-48050000D03*
X130137500Y-47100000D03*
G04 #@! TD*
D26*
G04 #@! TO.C,R19*
X149212500Y-82450000D03*
X149212500Y-84100000D03*
G04 #@! TD*
D11*
G04 #@! TO.C,R6*
X155850000Y-67200000D03*
X154200000Y-67200000D03*
G04 #@! TD*
D27*
G04 #@! TO.C,C11*
X129500000Y-102675000D03*
X129500000Y-101125000D03*
G04 #@! TD*
D28*
G04 #@! TO.C,USB1*
X154800025Y-103115774D03*
X155450013Y-103115774D03*
X156100000Y-103115774D03*
X156749987Y-103115774D03*
X157399975Y-103115774D03*
G04 #@! TD*
D27*
G04 #@! TO.C,C8*
X166800000Y-70775000D03*
X166800000Y-69225000D03*
G04 #@! TD*
D25*
G04 #@! TO.C,Q5*
X128462500Y-49650000D03*
X128462500Y-51550000D03*
X130337500Y-50600000D03*
G04 #@! TD*
D29*
G04 #@! TO.C,C14*
X136475000Y-87300000D03*
X134925000Y-87300000D03*
G04 #@! TD*
D16*
G04 #@! TO.C,U10*
X160599467Y-61096622D03*
X159000533Y-61103480D03*
G04 #@! TD*
D13*
G04 #@! TO.C,Q1*
X151437500Y-69100000D03*
X151437500Y-67200000D03*
X149562500Y-68150000D03*
G04 #@! TD*
D11*
G04 #@! TO.C,R32*
X127725000Y-107700000D03*
X126075000Y-107700000D03*
G04 #@! TD*
D20*
G04 #@! TO.C,C12*
X151612500Y-82500000D03*
X151612500Y-84050000D03*
G04 #@! TD*
D21*
G04 #@! TO.C,R24*
X146702500Y-84100000D03*
X146702500Y-82450000D03*
G04 #@! TD*
D22*
G04 #@! TO.C,R7*
X131975000Y-48000000D03*
X133625000Y-48000000D03*
G04 #@! TD*
D21*
G04 #@! TO.C,R36*
X154432000Y-96075000D03*
X154432000Y-94425000D03*
G04 #@! TD*
D22*
G04 #@! TO.C,R29*
X126075000Y-106100000D03*
X127725000Y-106100000D03*
G04 #@! TD*
G04 #@! TO.C,R33*
X128207000Y-99314000D03*
X129857000Y-99314000D03*
G04 #@! TD*
G04 #@! TO.C,R16*
X127650000Y-63425000D03*
X129300000Y-63425000D03*
G04 #@! TD*
D21*
G04 #@! TO.C,R27*
X126492000Y-95313000D03*
X126492000Y-93663000D03*
G04 #@! TD*
D22*
G04 #@! TO.C,R18*
X127600000Y-59925000D03*
X129250000Y-59925000D03*
G04 #@! TD*
D11*
G04 #@! TO.C,R11*
X135025000Y-58900000D03*
X133375000Y-58900000D03*
G04 #@! TD*
G04 #@! TO.C,R1*
X147575000Y-67750000D03*
X145925000Y-67750000D03*
G04 #@! TD*
D24*
G04 #@! TO.C,C7*
X162225000Y-102100000D03*
X163775000Y-102100000D03*
G04 #@! TD*
D30*
G04 #@! TO.C,U3*
X149850064Y-108494971D03*
X149850064Y-107224968D03*
X149850064Y-105954966D03*
X149850064Y-104684963D03*
X149850064Y-103414961D03*
X149850064Y-102144958D03*
X149850064Y-100874956D03*
X149850064Y-99604953D03*
X149850064Y-98334950D03*
X149850064Y-97064948D03*
X149850064Y-95794945D03*
X149850064Y-94524943D03*
X149850064Y-93254940D03*
X149850064Y-91984938D03*
D31*
X148085014Y-90705029D03*
X146815011Y-90705029D03*
X145545009Y-90705029D03*
X144275006Y-90705029D03*
X143005004Y-90705029D03*
X141735001Y-90705029D03*
X140464999Y-90705029D03*
X139194996Y-90705029D03*
X137924994Y-90705029D03*
X136654991Y-90705029D03*
X135384989Y-90705029D03*
X134114986Y-90735001D03*
D30*
X132349936Y-91984938D03*
X132349936Y-93254940D03*
X132349936Y-94524943D03*
X132349936Y-95794945D03*
X132349936Y-97064948D03*
X132349936Y-98334950D03*
X132349936Y-99604953D03*
X132349936Y-100874956D03*
X132349936Y-102144958D03*
X132349936Y-103414961D03*
X132349936Y-104684963D03*
X132349936Y-105954966D03*
X132349936Y-107224968D03*
X132349936Y-108494971D03*
D32*
X144000178Y-102174930D03*
X144000178Y-100774879D03*
X144000178Y-99374829D03*
X142600127Y-102174930D03*
X142600127Y-100774879D03*
X142600127Y-99374829D03*
X141200076Y-102174930D03*
X141200076Y-100774879D03*
X141200076Y-99374829D03*
G04 #@! TD*
D27*
G04 #@! TO.C,C6*
X163068000Y-76467000D03*
X163068000Y-74917000D03*
G04 #@! TD*
D11*
G04 #@! TO.C,R3*
X147575000Y-66250000D03*
X145925000Y-66250000D03*
G04 #@! TD*
D22*
G04 #@! TO.C,R17*
X127600000Y-61675000D03*
X129250000Y-61675000D03*
G04 #@! TD*
D24*
G04 #@! TO.C,C4*
X125925000Y-102900000D03*
X127475000Y-102900000D03*
G04 #@! TD*
D21*
G04 #@! TO.C,R5*
X155600000Y-60125000D03*
X155600000Y-58475000D03*
G04 #@! TD*
D22*
G04 #@! TO.C,R21*
X165275000Y-102100000D03*
X166925000Y-102100000D03*
G04 #@! TD*
D33*
G04 #@! TO.C,C10*
X164439446Y-52600000D03*
X168160554Y-52600000D03*
G04 #@! TD*
D11*
G04 #@! TO.C,R26*
X127725000Y-92100000D03*
X126075000Y-92100000D03*
G04 #@! TD*
D22*
G04 #@! TO.C,R12*
X127775000Y-57200000D03*
X129425000Y-57200000D03*
G04 #@! TD*
D11*
G04 #@! TO.C,R23*
X159650000Y-63500000D03*
X158000000Y-63500000D03*
G04 #@! TD*
D34*
G04 #@! TO.C,U8*
X158973898Y-75050038D03*
X158973898Y-76000000D03*
X158973898Y-76949962D03*
X161574102Y-76949962D03*
X161574102Y-75050038D03*
G04 #@! TD*
D25*
G04 #@! TO.C,Q6*
X128462500Y-53250000D03*
X128462500Y-55150000D03*
X130337500Y-54200000D03*
G04 #@! TD*
D35*
G04 #@! TO.C,U6*
X157094996Y-72908306D03*
X158364999Y-72908306D03*
X159635001Y-72908306D03*
X160905004Y-72908306D03*
X160905004Y-67091694D03*
X159635001Y-67091694D03*
X158364999Y-67091694D03*
X157094996Y-67091694D03*
D36*
X159000000Y-70000000D03*
G04 #@! TD*
D22*
G04 #@! TO.C,R28*
X125875000Y-101400000D03*
X127525000Y-101400000D03*
G04 #@! TD*
G04 #@! TO.C,R8*
X135175000Y-50300000D03*
X136825000Y-50300000D03*
G04 #@! TD*
G04 #@! TO.C,R10*
X135375000Y-55700000D03*
X137025000Y-55700000D03*
G04 #@! TD*
D11*
G04 #@! TO.C,R13*
X147575000Y-64750000D03*
X145925000Y-64750000D03*
G04 #@! TD*
D21*
G04 #@! TO.C,R35*
X155900000Y-96050000D03*
X155900000Y-94400000D03*
G04 #@! TD*
D13*
G04 #@! TO.C,Q2*
X151437500Y-65200000D03*
X151437500Y-63300000D03*
X149562500Y-64250000D03*
G04 #@! TD*
M02*
