G04 #@! TF.GenerationSoftware,KiCad,Pcbnew,8.0.1*
G04 #@! TF.CreationDate,2024-04-29T00:58:12+02:00*
G04 #@! TF.ProjectId,Blinky,426c696e-6b79-42e6-9b69-6361645f7063,rev?*
G04 #@! TF.SameCoordinates,Original*
G04 #@! TF.FileFunction,Other,User*
%FSLAX46Y46*%
G04 Gerber Fmt 4.6, Leading zero omitted, Abs format (unit mm)*
G04 Created by KiCad (PCBNEW 8.0.1) date 2024-04-29 00:58:12*
%MOMM*%
%LPD*%
G01*
G04 APERTURE LIST*
%ADD10C,0.050000*%
G04 APERTURE END LIST*
D10*
G04 #@! TO.C,J3*
X154222000Y-79862000D02*
X154222000Y-86762000D01*
X154222000Y-86762000D02*
X159722000Y-86762000D01*
X159722000Y-79862000D02*
X154222000Y-79862000D01*
X159722000Y-86762000D02*
X159722000Y-79862000D01*
G04 #@! TO.C,C9*
X136120000Y-97070000D02*
X139080000Y-97070000D01*
X136120000Y-98530000D02*
X136120000Y-97070000D01*
X139080000Y-97070000D02*
X139080000Y-98530000D01*
X139080000Y-98530000D02*
X136120000Y-98530000D01*
G04 #@! TO.C,R31*
X141770000Y-95620000D02*
X143230000Y-95620000D01*
X141770000Y-98580000D02*
X141770000Y-95620000D01*
X143230000Y-95620000D02*
X143230000Y-98580000D01*
X143230000Y-98580000D02*
X141770000Y-98580000D01*
G04 #@! TO.C,R25*
X127220000Y-98570000D02*
X130180000Y-98570000D01*
X127220000Y-100030000D02*
X127220000Y-98570000D01*
X130180000Y-98570000D02*
X130180000Y-100030000D01*
X130180000Y-100030000D02*
X127220000Y-100030000D01*
G04 #@! TO.C,R30*
X136120000Y-95270000D02*
X139080000Y-95270000D01*
X136120000Y-96730000D02*
X136120000Y-95270000D01*
X139080000Y-95270000D02*
X139080000Y-96730000D01*
X139080000Y-96730000D02*
X136120000Y-96730000D01*
G04 #@! TO.C,J5*
X154264000Y-86958000D02*
X154264000Y-93858000D01*
X154264000Y-93858000D02*
X159764000Y-93858000D01*
X159764000Y-86958000D02*
X154264000Y-86958000D01*
X159764000Y-93858000D02*
X159764000Y-86958000D01*
G04 #@! TD*
M02*
