%TF.GenerationSoftware,KiCad,Pcbnew,8.0.1*%
%TF.CreationDate,2024-04-29T00:58:12+02:00*%
%TF.ProjectId,Blinky,426c696e-6b79-42e6-9b69-6361645f7063,rev?*%
%TF.SameCoordinates,Original*%
%TF.FileFunction,Drillmap*%
%TF.FilePolarity,Positive*%
%FSLAX45Y45*%
G04 Gerber Fmt 4.5, Leading zero omitted, Abs format (unit mm)*
G04 Created by KiCad (PCBNEW 8.0.1) date 2024-04-29 00:58:12*
%MOMM*%
%LPD*%
G01*
G04 APERTURE LIST*
%ADD10C,0.100000*%
%ADD11C,0.200000*%
%ADD12C,0.102001*%
G04 APERTURE END LIST*
D10*
X12500000Y-4450000D02*
X16970000Y-4449992D01*
X13710000Y-10900000D02*
X15400000Y-10900000D01*
X16970000Y-4449992D02*
X16970000Y-10910000D01*
X12500000Y-10900000D02*
X12500000Y-4450000D01*
X16970000Y-10910000D02*
X15400000Y-10900000D01*
X13400000Y-10900000D02*
X13710000Y-10900000D01*
X13400000Y-10900000D02*
X12500000Y-10900000D01*
D11*
D10*
X12525000Y-10005000D02*
X12555000Y-10035000D01*
X12555000Y-10005000D02*
X12525000Y-10035000D01*
X12525000Y-10845000D02*
X12555000Y-10875000D01*
X12555000Y-10845000D02*
X12525000Y-10875000D01*
X12535000Y-7605000D02*
X12565000Y-7635000D01*
X12565000Y-7605000D02*
X12535000Y-7635000D01*
X12535000Y-7835000D02*
X12565000Y-7865000D01*
X12565000Y-7835000D02*
X12535000Y-7865000D01*
X12535000Y-8085000D02*
X12565000Y-8115000D01*
X12565000Y-8085000D02*
X12535000Y-8115000D01*
X12535000Y-8345000D02*
X12565000Y-8375000D01*
X12565000Y-8345000D02*
X12535000Y-8375000D01*
X12545000Y-8585000D02*
X12575000Y-8615000D01*
X12575000Y-8585000D02*
X12545000Y-8615000D01*
X12585000Y-4535000D02*
X12615000Y-4565000D01*
X12615000Y-4535000D02*
X12585000Y-4565000D01*
X12585000Y-5785000D02*
X12615000Y-5815000D01*
X12615000Y-5785000D02*
X12585000Y-5815000D01*
X12585000Y-10475000D02*
X12615000Y-10505000D01*
X12615000Y-10475000D02*
X12585000Y-10505000D01*
X12595000Y-8855000D02*
X12625000Y-8885000D01*
X12625000Y-8855000D02*
X12595000Y-8885000D01*
X12634200Y-9924408D02*
X12664200Y-9954408D01*
X12664200Y-9924408D02*
X12634200Y-9954408D01*
X12669975Y-9745460D02*
X12699975Y-9775460D01*
X12699975Y-9745460D02*
X12669975Y-9775460D01*
X12710400Y-7173200D02*
X12740400Y-7203200D01*
X12740400Y-7173200D02*
X12710400Y-7203200D01*
X12744999Y-5855000D02*
X12774999Y-5885000D01*
X12774999Y-5855000D02*
X12744999Y-5885000D01*
X12755000Y-6465000D02*
X12785000Y-6495000D01*
X12785000Y-6465000D02*
X12755000Y-6495000D01*
X12786599Y-9433800D02*
X12816599Y-9463800D01*
X12816599Y-9433800D02*
X12786599Y-9463800D01*
X12837400Y-9764000D02*
X12867400Y-9794000D01*
X12867400Y-9764000D02*
X12837400Y-9794000D01*
X12845000Y-10325000D02*
X12875000Y-10355000D01*
X12875000Y-10325000D02*
X12845000Y-10355000D01*
X12865000Y-10755000D02*
X12895000Y-10785000D01*
X12895000Y-10755000D02*
X12865000Y-10785000D01*
X12888200Y-8748000D02*
X12918200Y-8778000D01*
X12918200Y-8748000D02*
X12888200Y-8778000D01*
X12892500Y-9260632D02*
X12922500Y-9290632D01*
X12922500Y-9260632D02*
X12892500Y-9290632D01*
X12895000Y-8545000D02*
X12925000Y-8575000D01*
X12925000Y-8545000D02*
X12895000Y-8575000D01*
X12913600Y-8341600D02*
X12943600Y-8371600D01*
X12943600Y-8341600D02*
X12913600Y-8371600D01*
X12919027Y-8984323D02*
X12949027Y-9014323D01*
X12949027Y-8984323D02*
X12919027Y-9014323D01*
X12945000Y-10555000D02*
X12975000Y-10585000D01*
X12975000Y-10555000D02*
X12945000Y-10585000D01*
X12953895Y-9769739D02*
X12983895Y-9799739D01*
X12983895Y-9769739D02*
X12953895Y-9799739D01*
X12965000Y-4585000D02*
X12995000Y-4615000D01*
X12995000Y-4585000D02*
X12965000Y-4615000D01*
X12985000Y-10015000D02*
X13015000Y-10045000D01*
X13015000Y-10015000D02*
X12985000Y-10045000D01*
X13004402Y-9707698D02*
X13034402Y-9737698D01*
X13034402Y-9707698D02*
X13004402Y-9737698D01*
X13015000Y-4945000D02*
X13045000Y-4975000D01*
X13045000Y-4945000D02*
X13015000Y-4975000D01*
X13015000Y-5885000D02*
X13045000Y-5915000D01*
X13045000Y-5885000D02*
X13015000Y-5915000D01*
X13015000Y-7185000D02*
X13045000Y-7215000D01*
X13045000Y-7185000D02*
X13015000Y-7215000D01*
X13035000Y-5635000D02*
X13065000Y-5665000D01*
X13065000Y-5635000D02*
X13035000Y-5665000D01*
X13055000Y-5295000D02*
X13085000Y-5325000D01*
X13085000Y-5295000D02*
X13055000Y-5325000D01*
X13075000Y-10125000D02*
X13105000Y-10155000D01*
X13105000Y-10125000D02*
X13075000Y-10155000D01*
X13085000Y-9705000D02*
X13115000Y-9735000D01*
X13115000Y-9705000D02*
X13085000Y-9735000D01*
X13085000Y-10795000D02*
X13115000Y-10825000D01*
X13115000Y-10795000D02*
X13085000Y-10825000D01*
X13102500Y-6152500D02*
X13132500Y-6182500D01*
X13132500Y-6152500D02*
X13102500Y-6182500D01*
X13106488Y-5980462D02*
X13136488Y-6010462D01*
X13136488Y-5980462D02*
X13106488Y-6010462D01*
X13175000Y-7185000D02*
X13205000Y-7215000D01*
X13205000Y-7185000D02*
X13175000Y-7215000D01*
X13185000Y-4985000D02*
X13215000Y-5015000D01*
X13215000Y-4985000D02*
X13185000Y-5015000D01*
X13212500Y-5877500D02*
X13242500Y-5907500D01*
X13242500Y-5877500D02*
X13212500Y-5907500D01*
X13215000Y-8355000D02*
X13245000Y-8385000D01*
X13245000Y-8355000D02*
X13215000Y-8385000D01*
X13235000Y-5535000D02*
X13265000Y-5565000D01*
X13265000Y-5535000D02*
X13235000Y-5565000D01*
X13241250Y-5245000D02*
X13271250Y-5275000D01*
X13271250Y-5245000D02*
X13241250Y-5275000D01*
X13265000Y-7975000D02*
X13295000Y-8005000D01*
X13295000Y-7975000D02*
X13265000Y-8005000D01*
X13285000Y-5135000D02*
X13315000Y-5165000D01*
X13315000Y-5135000D02*
X13285000Y-5165000D01*
X13335000Y-6085000D02*
X13365000Y-6115000D01*
X13365000Y-6085000D02*
X13335000Y-6115000D01*
X13345000Y-10201028D02*
X13375000Y-10231028D01*
X13375000Y-10201028D02*
X13345000Y-10231028D01*
X13385000Y-6265000D02*
X13415000Y-6295000D01*
X13415000Y-6265000D02*
X13385000Y-6295000D01*
X13385000Y-10275000D02*
X13415000Y-10305000D01*
X13415000Y-10275000D02*
X13385000Y-10305000D01*
X13395000Y-8405000D02*
X13425000Y-8435000D01*
X13425000Y-8405000D02*
X13395000Y-8435000D01*
X13405000Y-8125000D02*
X13435000Y-8155000D01*
X13435000Y-8125000D02*
X13405000Y-8155000D01*
X13405000Y-10735000D02*
X13435000Y-10765000D01*
X13435000Y-10735000D02*
X13405000Y-10765000D01*
X13425000Y-9395000D02*
X13455000Y-9425000D01*
X13455000Y-9395000D02*
X13425000Y-9425000D01*
X13435000Y-5435000D02*
X13465000Y-5465000D01*
X13465000Y-5435000D02*
X13435000Y-5465000D01*
X13445000Y-10395000D02*
X13475000Y-10425000D01*
X13475000Y-10395000D02*
X13445000Y-10425000D01*
X13455000Y-8555000D02*
X13485000Y-8585000D01*
X13485000Y-8555000D02*
X13455000Y-8585000D01*
X13461480Y-5326021D02*
X13491480Y-5356021D01*
X13491480Y-5326021D02*
X13461480Y-5356021D01*
X13465000Y-9205000D02*
X13495000Y-9235000D01*
X13495000Y-9205000D02*
X13465000Y-9235000D01*
X13495000Y-4785000D02*
X13525000Y-4815000D01*
X13525000Y-4785000D02*
X13495000Y-4815000D01*
X13505000Y-6155000D02*
X13535000Y-6185000D01*
X13535000Y-6155000D02*
X13505000Y-6185000D01*
X13515000Y-8905000D02*
X13545000Y-8935000D01*
X13545000Y-8905000D02*
X13515000Y-8935000D01*
X13535000Y-4535000D02*
X13565000Y-4565000D01*
X13565000Y-4535000D02*
X13535000Y-4565000D01*
X13575000Y-9655000D02*
X13605000Y-9685000D01*
X13605000Y-9655000D02*
X13575000Y-9685000D01*
X13585000Y-5685000D02*
X13615000Y-5715000D01*
X13615000Y-5685000D02*
X13585000Y-5715000D01*
X13585000Y-6065000D02*
X13615000Y-6095000D01*
X13615000Y-6065000D02*
X13585000Y-6095000D01*
X13595000Y-5915000D02*
X13625000Y-5945000D01*
X13625000Y-5915000D02*
X13595000Y-5945000D01*
X13655000Y-8895000D02*
X13685000Y-8925000D01*
X13685000Y-8895000D02*
X13655000Y-8925000D01*
X13670199Y-8544654D02*
X13700199Y-8574654D01*
X13700199Y-8544654D02*
X13670199Y-8574654D01*
X13685000Y-5125000D02*
X13715000Y-5155000D01*
X13715000Y-5125000D02*
X13685000Y-5155000D01*
X13685000Y-10085000D02*
X13715000Y-10115000D01*
X13715000Y-10085000D02*
X13685000Y-10115000D01*
X13695000Y-9455000D02*
X13725000Y-9485000D01*
X13725000Y-9455000D02*
X13695000Y-9485000D01*
X13735000Y-6225000D02*
X13765000Y-6255000D01*
X13765000Y-6225000D02*
X13735000Y-6255000D01*
X13755001Y-5245000D02*
X13785001Y-5275000D01*
X13785001Y-5245000D02*
X13755001Y-5275000D01*
X13835000Y-5835000D02*
X13865000Y-5865000D01*
X13865000Y-5835000D02*
X13835000Y-5865000D01*
X13835000Y-10485000D02*
X13865000Y-10515000D01*
X13865000Y-10485000D02*
X13835000Y-10515000D01*
X13865000Y-8905000D02*
X13895000Y-8935000D01*
X13895000Y-8905000D02*
X13865000Y-8935000D01*
X13920000Y-9400000D02*
X13950000Y-9430000D01*
X13950000Y-9400000D02*
X13920000Y-9430000D01*
X13945000Y-9585000D02*
X13975000Y-9615000D01*
X13975000Y-9585000D02*
X13945000Y-9615000D01*
X13955000Y-9765000D02*
X13985000Y-9795000D01*
X13985000Y-9765000D02*
X13955000Y-9795000D01*
X13965000Y-4995000D02*
X13995000Y-5025000D01*
X13995000Y-4995000D02*
X13965000Y-5025000D01*
X13985000Y-5835000D02*
X14015000Y-5865000D01*
X14015000Y-5835000D02*
X13985000Y-5865000D01*
X13985000Y-7415000D02*
X14015000Y-7445000D01*
X14015000Y-7415000D02*
X13985000Y-7445000D01*
X13995000Y-7235000D02*
X14025000Y-7265000D01*
X14025000Y-7235000D02*
X13995000Y-7265000D01*
X14015000Y-6935000D02*
X14045000Y-6965000D01*
X14045000Y-6935000D02*
X14015000Y-6965000D01*
X14035000Y-10705000D02*
X14065000Y-10735000D01*
X14065000Y-10705000D02*
X14035000Y-10735000D01*
X14075000Y-5205000D02*
X14105000Y-5235000D01*
X14105000Y-5205000D02*
X14075000Y-5235000D01*
X14075000Y-5295000D02*
X14105000Y-5325000D01*
X14105000Y-5295000D02*
X14075000Y-5325000D01*
X14075000Y-5385000D02*
X14105000Y-5415000D01*
X14105000Y-5385000D02*
X14075000Y-5415000D01*
X14075000Y-5475000D02*
X14105000Y-5505000D01*
X14105000Y-5475000D02*
X14075000Y-5505000D01*
X14075000Y-5565000D02*
X14105000Y-5595000D01*
X14105000Y-5565000D02*
X14075000Y-5595000D01*
X14105000Y-9405000D02*
X14135000Y-9435000D01*
X14135000Y-9405000D02*
X14105000Y-9435000D01*
X14125000Y-8885000D02*
X14155000Y-8915000D01*
X14155000Y-8885000D02*
X14125000Y-8915000D01*
X14175000Y-5205000D02*
X14205000Y-5235000D01*
X14205000Y-5205000D02*
X14175000Y-5235000D01*
X14175000Y-5295000D02*
X14205000Y-5325000D01*
X14205000Y-5295000D02*
X14175000Y-5325000D01*
X14175000Y-5385000D02*
X14205000Y-5415000D01*
X14205000Y-5385000D02*
X14175000Y-5415000D01*
X14175000Y-5485000D02*
X14205000Y-5515000D01*
X14205000Y-5485000D02*
X14175000Y-5515000D01*
X14175000Y-5565000D02*
X14205000Y-5595000D01*
X14205000Y-5565000D02*
X14175000Y-5595000D01*
X14225000Y-7455000D02*
X14255000Y-7485000D01*
X14255000Y-7455000D02*
X14225000Y-7485000D01*
X14235000Y-9485000D02*
X14265000Y-9515000D01*
X14265000Y-9485000D02*
X14235000Y-9515000D01*
X14275000Y-5205000D02*
X14305000Y-5235000D01*
X14305000Y-5205000D02*
X14275000Y-5235000D01*
X14275000Y-5295000D02*
X14305000Y-5325000D01*
X14305000Y-5295000D02*
X14275000Y-5325000D01*
X14275000Y-5385000D02*
X14305000Y-5415000D01*
X14305000Y-5385000D02*
X14275000Y-5415000D01*
X14275000Y-5485000D02*
X14305000Y-5515000D01*
X14305000Y-5485000D02*
X14275000Y-5515000D01*
X14275000Y-5565000D02*
X14305000Y-5595000D01*
X14305000Y-5565000D02*
X14275000Y-5595000D01*
X14275000Y-7185000D02*
X14305000Y-7215000D01*
X14305000Y-7185000D02*
X14275000Y-7215000D01*
X14295000Y-8895000D02*
X14325000Y-8925000D01*
X14325000Y-8895000D02*
X14295000Y-8925000D01*
X14315000Y-9385000D02*
X14345000Y-9415000D01*
X14345000Y-9385000D02*
X14315000Y-9415000D01*
X14352500Y-8585000D02*
X14382500Y-8615000D01*
X14382500Y-8585000D02*
X14352500Y-8615000D01*
X14365000Y-5565000D02*
X14395000Y-5595000D01*
X14395000Y-5565000D02*
X14365000Y-5595000D01*
X14375000Y-5385000D02*
X14405000Y-5415000D01*
X14405000Y-5385000D02*
X14375000Y-5415000D01*
X14375000Y-5475000D02*
X14405000Y-5505000D01*
X14405000Y-5475000D02*
X14375000Y-5505000D01*
X14385000Y-5205000D02*
X14415000Y-5235000D01*
X14415000Y-5205000D02*
X14385000Y-5235000D01*
X14385000Y-5295000D02*
X14415000Y-5325000D01*
X14415000Y-5295000D02*
X14385000Y-5325000D01*
X14395000Y-7665000D02*
X14425000Y-7695000D01*
X14425000Y-7665000D02*
X14395000Y-7695000D01*
X14405000Y-6805000D02*
X14435000Y-6835000D01*
X14435000Y-6805000D02*
X14405000Y-6835000D01*
X14445000Y-6335000D02*
X14475000Y-6365000D01*
X14475000Y-6335000D02*
X14445000Y-6365000D01*
X14475000Y-5385000D02*
X14505000Y-5415000D01*
X14505000Y-5385000D02*
X14475000Y-5415000D01*
X14475000Y-5475000D02*
X14505000Y-5505000D01*
X14505000Y-5475000D02*
X14475000Y-5505000D01*
X14475000Y-5565000D02*
X14505000Y-5595000D01*
X14505000Y-5565000D02*
X14475000Y-5595000D01*
X14485000Y-5205000D02*
X14515000Y-5235000D01*
X14515000Y-5205000D02*
X14485000Y-5235000D01*
X14485000Y-5295000D02*
X14515000Y-5325000D01*
X14515000Y-5295000D02*
X14485000Y-5325000D01*
X14485000Y-10485000D02*
X14515000Y-10515000D01*
X14515000Y-10485000D02*
X14485000Y-10515000D01*
X14515000Y-8005000D02*
X14545000Y-8035000D01*
X14545000Y-8005000D02*
X14515000Y-8035000D01*
X14540000Y-8230000D02*
X14570000Y-8260000D01*
X14570000Y-8230000D02*
X14540000Y-8260000D01*
X14555000Y-8565000D02*
X14585000Y-8595000D01*
X14585000Y-8565000D02*
X14555000Y-8595000D01*
X14585000Y-7085000D02*
X14615000Y-7115000D01*
X14615000Y-7085000D02*
X14585000Y-7115000D01*
X14655000Y-8865000D02*
X14685000Y-8895000D01*
X14685000Y-8865000D02*
X14655000Y-8895000D01*
X14685000Y-4785000D02*
X14715000Y-4815000D01*
X14715000Y-4785000D02*
X14685000Y-4815000D01*
X14705000Y-9865000D02*
X14735000Y-9895000D01*
X14735000Y-9865000D02*
X14705000Y-9895000D01*
X14735000Y-4535000D02*
X14765000Y-4565000D01*
X14765000Y-4535000D02*
X14735000Y-4565000D01*
X14735000Y-5385000D02*
X14765000Y-5415000D01*
X14765000Y-5385000D02*
X14735000Y-5415000D01*
X14735000Y-5935000D02*
X14765000Y-5965000D01*
X14765000Y-5935000D02*
X14735000Y-5965000D01*
X14735000Y-9245000D02*
X14765000Y-9275000D01*
X14765000Y-9245000D02*
X14735000Y-9275000D01*
X14755000Y-7295000D02*
X14785000Y-7325000D01*
X14785000Y-7295000D02*
X14755000Y-7325000D01*
X14785001Y-6145000D02*
X14815001Y-6175000D01*
X14815001Y-6145000D02*
X14785001Y-6175000D01*
X14805000Y-7715000D02*
X14835000Y-7745000D01*
X14835000Y-7715000D02*
X14805000Y-7745000D01*
X14825000Y-10415000D02*
X14855000Y-10445000D01*
X14855000Y-10415000D02*
X14825000Y-10445000D01*
X14842058Y-8495620D02*
X14872058Y-8525620D01*
X14872058Y-8495620D02*
X14842058Y-8525620D01*
X14865000Y-8015000D02*
X14895000Y-8045000D01*
X14895000Y-8015000D02*
X14865000Y-8045000D01*
X14945000Y-6535000D02*
X14975000Y-6565000D01*
X14975000Y-6535000D02*
X14945000Y-6565000D01*
X14965000Y-5305000D02*
X14995000Y-5335000D01*
X14995000Y-5305000D02*
X14965000Y-5335000D01*
X14965000Y-5395000D02*
X14995000Y-5425000D01*
X14995000Y-5395000D02*
X14965000Y-5425000D01*
X14975000Y-5205000D02*
X15005000Y-5235000D01*
X15005000Y-5205000D02*
X14975000Y-5235000D01*
X14975000Y-5495000D02*
X15005000Y-5525000D01*
X15005000Y-5495000D02*
X14975000Y-5525000D01*
X14985000Y-5585000D02*
X15015000Y-5615000D01*
X15015000Y-5585000D02*
X14985000Y-5615000D01*
X15012664Y-6294794D02*
X15042664Y-6324794D01*
X15042664Y-6294794D02*
X15012664Y-6324794D01*
X15045000Y-8065000D02*
X15075000Y-8095000D01*
X15075000Y-8065000D02*
X15045000Y-8095000D01*
X15065000Y-5205000D02*
X15095000Y-5235000D01*
X15095000Y-5205000D02*
X15065000Y-5235000D01*
X15065000Y-5295000D02*
X15095000Y-5325000D01*
X15095000Y-5295000D02*
X15065000Y-5325000D01*
X15065000Y-5395000D02*
X15095000Y-5425000D01*
X15095000Y-5395000D02*
X15065000Y-5425000D01*
X15065000Y-5495000D02*
X15095000Y-5525000D01*
X15095000Y-5495000D02*
X15065000Y-5525000D01*
X15075000Y-5585000D02*
X15105000Y-5615000D01*
X15105000Y-5585000D02*
X15075000Y-5615000D01*
X15125000Y-6215000D02*
X15155000Y-6245000D01*
X15155000Y-6215000D02*
X15125000Y-6245000D01*
X15145000Y-5495000D02*
X15175000Y-5525000D01*
X15175000Y-5495000D02*
X15145000Y-5525000D01*
X15145000Y-10705000D02*
X15175000Y-10735000D01*
X15175000Y-10705000D02*
X15145000Y-10735000D01*
X15147494Y-9437494D02*
X15177494Y-9467494D01*
X15177494Y-9437494D02*
X15147494Y-9467494D01*
X15155000Y-5205000D02*
X15185000Y-5235000D01*
X15185000Y-5205000D02*
X15155000Y-5235000D01*
X15155000Y-5305000D02*
X15185000Y-5335000D01*
X15185000Y-5305000D02*
X15155000Y-5335000D01*
X15155000Y-5395000D02*
X15185000Y-5425000D01*
X15185000Y-5395000D02*
X15155000Y-5425000D01*
X15165000Y-5585000D02*
X15195000Y-5615000D01*
X15195000Y-5585000D02*
X15165000Y-5615000D01*
X15165000Y-9589001D02*
X15195000Y-9619001D01*
X15195000Y-9589001D02*
X15165000Y-9619001D01*
X15165000Y-9715000D02*
X15195000Y-9745000D01*
X15195000Y-9715000D02*
X15165000Y-9745000D01*
X15175000Y-8135000D02*
X15205000Y-8165000D01*
X15205000Y-8135000D02*
X15175000Y-8165000D01*
X15215000Y-10085000D02*
X15245000Y-10115000D01*
X15245000Y-10085000D02*
X15215000Y-10115000D01*
X15235000Y-6800000D02*
X15265000Y-6830000D01*
X15265000Y-6800000D02*
X15235000Y-6830000D01*
X15235000Y-8005000D02*
X15265000Y-8035000D01*
X15265000Y-8005000D02*
X15235000Y-8035000D01*
X15235000Y-9895000D02*
X15265000Y-9925000D01*
X15265000Y-9895000D02*
X15235000Y-9925000D01*
X15245000Y-5205000D02*
X15275000Y-5235000D01*
X15275000Y-5205000D02*
X15245000Y-5235000D01*
X15245000Y-5305000D02*
X15275000Y-5335000D01*
X15275000Y-5305000D02*
X15245000Y-5335000D01*
X15245000Y-5495000D02*
X15275000Y-5525000D01*
X15275000Y-5495000D02*
X15245000Y-5525000D01*
X15245000Y-9785000D02*
X15275000Y-9815000D01*
X15275000Y-9785000D02*
X15245000Y-9815000D01*
X15245000Y-9985000D02*
X15275000Y-10015000D01*
X15275000Y-9985000D02*
X15245000Y-10015000D01*
X15255000Y-5395000D02*
X15285000Y-5425000D01*
X15285000Y-5395000D02*
X15255000Y-5425000D01*
X15255000Y-5585000D02*
X15285000Y-5615000D01*
X15285000Y-5585000D02*
X15255000Y-5615000D01*
X15255000Y-6505000D02*
X15285000Y-6535000D01*
X15285000Y-6505000D02*
X15255000Y-6535000D01*
X15275000Y-8555000D02*
X15305000Y-8585000D01*
X15305000Y-8555000D02*
X15275000Y-8585000D01*
X15285000Y-8785000D02*
X15315000Y-8815000D01*
X15315000Y-8785000D02*
X15285000Y-8815000D01*
X15285000Y-8965000D02*
X15315000Y-8995000D01*
X15315000Y-8965000D02*
X15285000Y-8995000D01*
X15325000Y-5205000D02*
X15355000Y-5235000D01*
X15355000Y-5205000D02*
X15325000Y-5235000D01*
X15325000Y-5295000D02*
X15355000Y-5325000D01*
X15355000Y-5295000D02*
X15325000Y-5325000D01*
X15335000Y-5585000D02*
X15365000Y-5615000D01*
X15365000Y-5585000D02*
X15335000Y-5615000D01*
X15345000Y-5395000D02*
X15375000Y-5425000D01*
X15375000Y-5395000D02*
X15345000Y-5425000D01*
X15345000Y-5495000D02*
X15375000Y-5525000D01*
X15375000Y-5495000D02*
X15345000Y-5525000D01*
X15345000Y-9905000D02*
X15375000Y-9935000D01*
X15375000Y-9905000D02*
X15345000Y-9935000D01*
X15365000Y-6215000D02*
X15395000Y-6245000D01*
X15395000Y-6215000D02*
X15365000Y-6245000D01*
X15365000Y-9105000D02*
X15395000Y-9135000D01*
X15395000Y-9105000D02*
X15365000Y-9135000D01*
X15375000Y-7305000D02*
X15405000Y-7335000D01*
X15405000Y-7305000D02*
X15375000Y-7335000D01*
X15375000Y-10155000D02*
X15405000Y-10185000D01*
X15405000Y-10155000D02*
X15375000Y-10185000D01*
X15395000Y-7895000D02*
X15425000Y-7925000D01*
X15425000Y-7895000D02*
X15395000Y-7925000D01*
X15405000Y-5205000D02*
X15435000Y-5235000D01*
X15435000Y-5205000D02*
X15405000Y-5235000D01*
X15405000Y-5295000D02*
X15435000Y-5325000D01*
X15435000Y-5295000D02*
X15405000Y-5325000D01*
X15435000Y-5585000D02*
X15465000Y-5615000D01*
X15465000Y-5585000D02*
X15435000Y-5615000D01*
X15445000Y-5395000D02*
X15475000Y-5425000D01*
X15475000Y-5395000D02*
X15445000Y-5425000D01*
X15445000Y-5505000D02*
X15475000Y-5535000D01*
X15475000Y-5505000D02*
X15445000Y-5535000D01*
X15505000Y-9905000D02*
X15535000Y-9935000D01*
X15535000Y-9905000D02*
X15505000Y-9935000D01*
X15515000Y-8095000D02*
X15545000Y-8125000D01*
X15545000Y-8095000D02*
X15515000Y-8125000D01*
X15516205Y-7736536D02*
X15546205Y-7766536D01*
X15546205Y-7736536D02*
X15516205Y-7766536D01*
X15580602Y-7590000D02*
X15610602Y-7620000D01*
X15610602Y-7590000D02*
X15580602Y-7620000D01*
X15585000Y-4835000D02*
X15615000Y-4865000D01*
X15615000Y-4835000D02*
X15585000Y-4865000D01*
X15585000Y-7275000D02*
X15615000Y-7305000D01*
X15615000Y-7275000D02*
X15585000Y-7305000D01*
X15585000Y-10815000D02*
X15615000Y-10845000D01*
X15615000Y-10815000D02*
X15585000Y-10845000D01*
X15595000Y-6845000D02*
X15625000Y-6875000D01*
X15625000Y-6845000D02*
X15595000Y-6875000D01*
X15595000Y-6985000D02*
X15625000Y-7015000D01*
X15625000Y-6985000D02*
X15595000Y-7015000D01*
X15605000Y-8675000D02*
X15635000Y-8705000D01*
X15635000Y-8675000D02*
X15605000Y-8705000D01*
X15663800Y-7421886D02*
X15693800Y-7451886D01*
X15693800Y-7421886D02*
X15663800Y-7451886D01*
X15670431Y-7797716D02*
X15700431Y-7827716D01*
X15700431Y-7797716D02*
X15670431Y-7827716D01*
X15705000Y-5832500D02*
X15735000Y-5862500D01*
X15735000Y-5832500D02*
X15705000Y-5862500D01*
X15735000Y-7965000D02*
X15765000Y-7995000D01*
X15765000Y-7965000D02*
X15735000Y-7995000D01*
X15745000Y-10145000D02*
X15775000Y-10175000D01*
X15775000Y-10145000D02*
X15745000Y-10175000D01*
X15765000Y-5375000D02*
X15795000Y-5405000D01*
X15795000Y-5375000D02*
X15765000Y-5405000D01*
X15779797Y-7530197D02*
X15809797Y-7560197D01*
X15809797Y-7530197D02*
X15779797Y-7560197D01*
X15783800Y-7430000D02*
X15813800Y-7460000D01*
X15813800Y-7430000D02*
X15783800Y-7460000D01*
X15795000Y-8335000D02*
X15825000Y-8365000D01*
X15825000Y-8335000D02*
X15795000Y-8365000D01*
X15825000Y-7785000D02*
X15855000Y-7815000D01*
X15855000Y-7785000D02*
X15825000Y-7815000D01*
X15825000Y-10215000D02*
X15855000Y-10245000D01*
X15855000Y-10215000D02*
X15825000Y-10245000D01*
X15835000Y-8885000D02*
X15865000Y-8915000D01*
X15865000Y-8885000D02*
X15835000Y-8915000D01*
X15835000Y-9624999D02*
X15865000Y-9654999D01*
X15865000Y-9624999D02*
X15835000Y-9654999D01*
X15862306Y-6557694D02*
X15892306Y-6587694D01*
X15892306Y-6557694D02*
X15862306Y-6587694D01*
X15905000Y-9665000D02*
X15935000Y-9695000D01*
X15935000Y-9665000D02*
X15905000Y-9695000D01*
X15935000Y-4735000D02*
X15965000Y-4765000D01*
X15965000Y-4735000D02*
X15935000Y-4765000D01*
X15936532Y-9745000D02*
X15966532Y-9775000D01*
X15966532Y-9745000D02*
X15936532Y-9775000D01*
X15945001Y-9835000D02*
X15975001Y-9865000D01*
X15975001Y-9835000D02*
X15945001Y-9865000D01*
X16012400Y-7503400D02*
X16042400Y-7533400D01*
X16042400Y-7503400D02*
X16012400Y-7533400D01*
X16014999Y-9915000D02*
X16044999Y-9945000D01*
X16044999Y-9915000D02*
X16014999Y-9945000D01*
X16037800Y-9484600D02*
X16067800Y-9514600D01*
X16067800Y-9484600D02*
X16037800Y-9514600D01*
X16065000Y-9995000D02*
X16095000Y-10025000D01*
X16095000Y-9995000D02*
X16065000Y-10025000D01*
X16075000Y-5225000D02*
X16105000Y-5255000D01*
X16105000Y-5225000D02*
X16075000Y-5255000D01*
X16085000Y-9585000D02*
X16115000Y-9615000D01*
X16115000Y-9585000D02*
X16085000Y-9615000D01*
X16095000Y-6557694D02*
X16125000Y-6587694D01*
X16125000Y-6557694D02*
X16095000Y-6587694D01*
X16105000Y-10075000D02*
X16135000Y-10105000D01*
X16135000Y-10075000D02*
X16105000Y-10105000D01*
X16115000Y-9205000D02*
X16145000Y-9235000D01*
X16145000Y-9205000D02*
X16115000Y-9235000D01*
X16139400Y-8925800D02*
X16169400Y-8955800D01*
X16169400Y-8925800D02*
X16139400Y-8955800D01*
X16145000Y-5855000D02*
X16175000Y-5885000D01*
X16175000Y-5855000D02*
X16145000Y-5885000D01*
X16145000Y-6375000D02*
X16175000Y-6405000D01*
X16175000Y-6375000D02*
X16145000Y-6405000D01*
X16155000Y-8225000D02*
X16185000Y-8255000D01*
X16185000Y-8225000D02*
X16155000Y-8255000D01*
X16157500Y-7960600D02*
X16187500Y-7990600D01*
X16187500Y-7960600D02*
X16157500Y-7990600D01*
X16265000Y-9655000D02*
X16295000Y-9685000D01*
X16295000Y-9655000D02*
X16265000Y-9685000D01*
X16291800Y-7325600D02*
X16321800Y-7355600D01*
X16321800Y-7325600D02*
X16291800Y-7355600D01*
X16291800Y-7732000D02*
X16321800Y-7762000D01*
X16321800Y-7732000D02*
X16291800Y-7762000D01*
X16325000Y-5855000D02*
X16355000Y-5885000D01*
X16355000Y-5855000D02*
X16325000Y-5885000D01*
X16325000Y-8735000D02*
X16355000Y-8765000D01*
X16355000Y-8735000D02*
X16325000Y-8765000D01*
X16330000Y-6870444D02*
X16360000Y-6900444D01*
X16360000Y-6870444D02*
X16330000Y-6900444D01*
X16345000Y-6465000D02*
X16375000Y-6495000D01*
X16375000Y-6465000D02*
X16345000Y-6495000D01*
X16345000Y-10335000D02*
X16375000Y-10365000D01*
X16375000Y-10335000D02*
X16345000Y-10365000D01*
X16355000Y-10117688D02*
X16385000Y-10147688D01*
X16385000Y-10117688D02*
X16355000Y-10147688D01*
X16375000Y-4675000D02*
X16405000Y-4705000D01*
X16405000Y-4675000D02*
X16375000Y-4705000D01*
X16393400Y-5065000D02*
X16423400Y-5095000D01*
X16423400Y-5065000D02*
X16393400Y-5095000D01*
X16405000Y-9335000D02*
X16435000Y-9365000D01*
X16435000Y-9335000D02*
X16405000Y-9365000D01*
X16418800Y-9103600D02*
X16448800Y-9133600D01*
X16448800Y-9103600D02*
X16418800Y-9133600D01*
X16425000Y-6235000D02*
X16455000Y-6265000D01*
X16455000Y-6235000D02*
X16425000Y-6265000D01*
X16505000Y-10375000D02*
X16535000Y-10405000D01*
X16535000Y-10375000D02*
X16505000Y-10405000D01*
X16515000Y-5985000D02*
X16545000Y-6015000D01*
X16545000Y-5985000D02*
X16515000Y-6015000D01*
X16575000Y-6907500D02*
X16605000Y-6937500D01*
X16605000Y-6907500D02*
X16575000Y-6937500D01*
X16575000Y-9395000D02*
X16605000Y-9425000D01*
X16605000Y-9395000D02*
X16575000Y-9425000D01*
X16665000Y-7165000D02*
X16695000Y-7195000D01*
X16695000Y-7165000D02*
X16665000Y-7195000D01*
X16785935Y-6704153D02*
X16815935Y-6734153D01*
X16815935Y-6704153D02*
X16785935Y-6734153D01*
X16795000Y-5515000D02*
X16825000Y-5545000D01*
X16825000Y-5515000D02*
X16795000Y-5545000D01*
X16885000Y-7425000D02*
X16915000Y-7455000D01*
X16915000Y-7425000D02*
X16885000Y-7455000D01*
X16885000Y-8935000D02*
X16915000Y-8965000D01*
X16915000Y-8935000D02*
X16885000Y-8965000D01*
X12800005Y-10440000D02*
G75*
G02*
X12730003Y-10440000I-35001J0D01*
G01*
X12730003Y-10440000D02*
G75*
G02*
X12800005Y-10440000I35001J0D01*
G01*
X12989997Y-10440000D02*
G75*
G02*
X12919995Y-10440000I-35001J0D01*
G01*
X12919995Y-10440000D02*
G75*
G02*
X12989997Y-10440000I35001J0D01*
G01*
X15282517Y-10630856D02*
G75*
G02*
X15212515Y-10630856I-35001J0D01*
G01*
X15212515Y-10630856D02*
G75*
G02*
X15282517Y-10630856I35001J0D01*
G01*
X15212515Y-10610857D02*
X15212515Y-10650855D01*
X15282517Y-10650855D02*
G75*
G02*
X15212515Y-10650855I-35001J0D01*
G01*
X15282517Y-10650855D02*
X15282517Y-10610857D01*
X15282517Y-10610857D02*
G75*
G03*
X15212515Y-10610857I-35001J0D01*
G01*
X15402507Y-10363851D02*
G75*
G02*
X15332504Y-10363851I-35001J0D01*
G01*
X15332504Y-10363851D02*
G75*
G02*
X15402507Y-10363851I35001J0D01*
G01*
X15887495Y-10363825D02*
G75*
G02*
X15817493Y-10363825I-35001J0D01*
G01*
X15817493Y-10363825D02*
G75*
G02*
X15887495Y-10363825I35001J0D01*
G01*
X16007485Y-10630856D02*
G75*
G02*
X15937483Y-10630856I-35001J0D01*
G01*
X15937483Y-10630856D02*
G75*
G02*
X16007485Y-10630856I35001J0D01*
G01*
X15937483Y-10610857D02*
X15937483Y-10650855D01*
X16007485Y-10650855D02*
G75*
G02*
X15937483Y-10650855I-35001J0D01*
G01*
X16007485Y-10650855D02*
X16007485Y-10610857D01*
X16007485Y-10610857D02*
G75*
G03*
X15937483Y-10610857I-35001J0D01*
G01*
X15642200Y-8193700D02*
X15642200Y-8268700D01*
X15604700Y-8231200D02*
X15679700Y-8231200D01*
X15642200Y-8393700D02*
X15642200Y-8468700D01*
X15604700Y-8431200D02*
X15679700Y-8431200D01*
X15646400Y-8903300D02*
X15646400Y-8978300D01*
X15608900Y-8940800D02*
X15683900Y-8940800D01*
X15646400Y-9103300D02*
X15646400Y-9178300D01*
X15608900Y-9140800D02*
X15683900Y-9140800D01*
X14011446Y-4455348D02*
X14011446Y-4401466D01*
X13957564Y-4401466D01*
X13957564Y-4455348D01*
X14011446Y-4455348D01*
X14096405Y-4390307D02*
X13872605Y-4390307D01*
X13872605Y-4466507D02*
G75*
G02*
X13872605Y-4390307I0J38100D01*
G01*
X13872605Y-4466507D02*
X14096405Y-4466507D01*
X14096405Y-4466507D02*
G75*
G03*
X14096405Y-4390307I0J38100D01*
G01*
X15661446Y-4455348D02*
X15661446Y-4401466D01*
X15607564Y-4401466D01*
X15607564Y-4455348D01*
X15661446Y-4455348D01*
X15746405Y-4390307D02*
X15522605Y-4390307D01*
X15522605Y-4466507D02*
G75*
G02*
X15522605Y-4390307I0J38100D01*
G01*
X15522605Y-4466507D02*
X15746405Y-4466507D01*
X15746405Y-4466507D02*
G75*
G03*
X15746405Y-4390307I0J38100D01*
G01*
D12*
X12710000Y-7515999D02*
X12761001Y-7464999D01*
X12710000Y-7413998D01*
X12658999Y-7464999D01*
X12710000Y-7515999D01*
X12710000Y-7770000D02*
X12761001Y-7718999D01*
X12710000Y-7667998D01*
X12658999Y-7718999D01*
X12710000Y-7770000D01*
X12710000Y-8024000D02*
X12761001Y-7973000D01*
X12710000Y-7921999D01*
X12658999Y-7973000D01*
X12710000Y-8024000D01*
X12710000Y-8278001D02*
X12761001Y-8227000D01*
X12710000Y-8176000D01*
X12658999Y-8227000D01*
X12710000Y-8278001D01*
X12710000Y-8532002D02*
X12761001Y-8481001D01*
X12710000Y-8430000D01*
X12658999Y-8481001D01*
X12710000Y-8532002D01*
X12710000Y-8786002D02*
X12761001Y-8735001D01*
X12710000Y-8684001D01*
X12658999Y-8735001D01*
X12710000Y-8786002D01*
X16520000Y-7515999D02*
X16571001Y-7464999D01*
X16520000Y-7413998D01*
X16468999Y-7464999D01*
X16520000Y-7515999D01*
X16520000Y-7770000D02*
X16571001Y-7718999D01*
X16520000Y-7667998D01*
X16468999Y-7718999D01*
X16520000Y-7770000D01*
X16520000Y-8024000D02*
X16571001Y-7973000D01*
X16520000Y-7921999D01*
X16468999Y-7973000D01*
X16520000Y-8024000D01*
X16520000Y-8278001D02*
X16571001Y-8227000D01*
X16520000Y-8176000D01*
X16468999Y-8227000D01*
X16520000Y-8278001D01*
X16520000Y-8532002D02*
X16571001Y-8481001D01*
X16520000Y-8430000D01*
X16468999Y-8481001D01*
X16520000Y-8532002D01*
X16520000Y-8786002D02*
X16571001Y-8735001D01*
X16520000Y-8684001D01*
X16468999Y-8735001D01*
X16520000Y-8786002D01*
D11*
X12755777Y-11226484D02*
X12755777Y-11026484D01*
X12755777Y-11026484D02*
X12803396Y-11026484D01*
X12803396Y-11026484D02*
X12831967Y-11036008D01*
X12831967Y-11036008D02*
X12851015Y-11055055D01*
X12851015Y-11055055D02*
X12860539Y-11074103D01*
X12860539Y-11074103D02*
X12870062Y-11112198D01*
X12870062Y-11112198D02*
X12870062Y-11140770D01*
X12870062Y-11140770D02*
X12860539Y-11178865D01*
X12860539Y-11178865D02*
X12851015Y-11197912D01*
X12851015Y-11197912D02*
X12831967Y-11216960D01*
X12831967Y-11216960D02*
X12803396Y-11226484D01*
X12803396Y-11226484D02*
X12755777Y-11226484D01*
X12955777Y-11226484D02*
X12955777Y-11093150D01*
X12955777Y-11131246D02*
X12965301Y-11112198D01*
X12965301Y-11112198D02*
X12974824Y-11102674D01*
X12974824Y-11102674D02*
X12993872Y-11093150D01*
X12993872Y-11093150D02*
X13012920Y-11093150D01*
X13079586Y-11226484D02*
X13079586Y-11093150D01*
X13079586Y-11026484D02*
X13070062Y-11036008D01*
X13070062Y-11036008D02*
X13079586Y-11045531D01*
X13079586Y-11045531D02*
X13089110Y-11036008D01*
X13089110Y-11036008D02*
X13079586Y-11026484D01*
X13079586Y-11026484D02*
X13079586Y-11045531D01*
X13203396Y-11226484D02*
X13184348Y-11216960D01*
X13184348Y-11216960D02*
X13174824Y-11197912D01*
X13174824Y-11197912D02*
X13174824Y-11026484D01*
X13308158Y-11226484D02*
X13289110Y-11216960D01*
X13289110Y-11216960D02*
X13279586Y-11197912D01*
X13279586Y-11197912D02*
X13279586Y-11026484D01*
X13536729Y-11226484D02*
X13536729Y-11026484D01*
X13536729Y-11026484D02*
X13603396Y-11169341D01*
X13603396Y-11169341D02*
X13670062Y-11026484D01*
X13670062Y-11026484D02*
X13670062Y-11226484D01*
X13851015Y-11226484D02*
X13851015Y-11121722D01*
X13851015Y-11121722D02*
X13841491Y-11102674D01*
X13841491Y-11102674D02*
X13822443Y-11093150D01*
X13822443Y-11093150D02*
X13784348Y-11093150D01*
X13784348Y-11093150D02*
X13765301Y-11102674D01*
X13851015Y-11216960D02*
X13831967Y-11226484D01*
X13831967Y-11226484D02*
X13784348Y-11226484D01*
X13784348Y-11226484D02*
X13765301Y-11216960D01*
X13765301Y-11216960D02*
X13755777Y-11197912D01*
X13755777Y-11197912D02*
X13755777Y-11178865D01*
X13755777Y-11178865D02*
X13765301Y-11159817D01*
X13765301Y-11159817D02*
X13784348Y-11150293D01*
X13784348Y-11150293D02*
X13831967Y-11150293D01*
X13831967Y-11150293D02*
X13851015Y-11140770D01*
X13946253Y-11093150D02*
X13946253Y-11293150D01*
X13946253Y-11102674D02*
X13965301Y-11093150D01*
X13965301Y-11093150D02*
X14003396Y-11093150D01*
X14003396Y-11093150D02*
X14022443Y-11102674D01*
X14022443Y-11102674D02*
X14031967Y-11112198D01*
X14031967Y-11112198D02*
X14041491Y-11131246D01*
X14041491Y-11131246D02*
X14041491Y-11188388D01*
X14041491Y-11188388D02*
X14031967Y-11207436D01*
X14031967Y-11207436D02*
X14022443Y-11216960D01*
X14022443Y-11216960D02*
X14003396Y-11226484D01*
X14003396Y-11226484D02*
X13965301Y-11226484D01*
X13965301Y-11226484D02*
X13946253Y-11216960D01*
X14127205Y-11207436D02*
X14136729Y-11216960D01*
X14136729Y-11216960D02*
X14127205Y-11226484D01*
X14127205Y-11226484D02*
X14117682Y-11216960D01*
X14117682Y-11216960D02*
X14127205Y-11207436D01*
X14127205Y-11207436D02*
X14127205Y-11226484D01*
X14127205Y-11102674D02*
X14136729Y-11112198D01*
X14136729Y-11112198D02*
X14127205Y-11121722D01*
X14127205Y-11121722D02*
X14117682Y-11112198D01*
X14117682Y-11112198D02*
X14127205Y-11102674D01*
X14127205Y-11102674D02*
X14127205Y-11121722D01*
D10*
X12465000Y-11540000D02*
X12495000Y-11570000D01*
X12495000Y-11540000D02*
X12465000Y-11570000D01*
D11*
X12793872Y-11446484D02*
X12812920Y-11446484D01*
X12812920Y-11446484D02*
X12831967Y-11456008D01*
X12831967Y-11456008D02*
X12841491Y-11465531D01*
X12841491Y-11465531D02*
X12851015Y-11484579D01*
X12851015Y-11484579D02*
X12860539Y-11522674D01*
X12860539Y-11522674D02*
X12860539Y-11570293D01*
X12860539Y-11570293D02*
X12851015Y-11608388D01*
X12851015Y-11608388D02*
X12841491Y-11627436D01*
X12841491Y-11627436D02*
X12831967Y-11636960D01*
X12831967Y-11636960D02*
X12812920Y-11646484D01*
X12812920Y-11646484D02*
X12793872Y-11646484D01*
X12793872Y-11646484D02*
X12774824Y-11636960D01*
X12774824Y-11636960D02*
X12765301Y-11627436D01*
X12765301Y-11627436D02*
X12755777Y-11608388D01*
X12755777Y-11608388D02*
X12746253Y-11570293D01*
X12746253Y-11570293D02*
X12746253Y-11522674D01*
X12746253Y-11522674D02*
X12755777Y-11484579D01*
X12755777Y-11484579D02*
X12765301Y-11465531D01*
X12765301Y-11465531D02*
X12774824Y-11456008D01*
X12774824Y-11456008D02*
X12793872Y-11446484D01*
X12946253Y-11627436D02*
X12955777Y-11636960D01*
X12955777Y-11636960D02*
X12946253Y-11646484D01*
X12946253Y-11646484D02*
X12936729Y-11636960D01*
X12936729Y-11636960D02*
X12946253Y-11627436D01*
X12946253Y-11627436D02*
X12946253Y-11646484D01*
X13022443Y-11446484D02*
X13146253Y-11446484D01*
X13146253Y-11446484D02*
X13079586Y-11522674D01*
X13079586Y-11522674D02*
X13108158Y-11522674D01*
X13108158Y-11522674D02*
X13127205Y-11532198D01*
X13127205Y-11532198D02*
X13136729Y-11541722D01*
X13136729Y-11541722D02*
X13146253Y-11560769D01*
X13146253Y-11560769D02*
X13146253Y-11608388D01*
X13146253Y-11608388D02*
X13136729Y-11627436D01*
X13136729Y-11627436D02*
X13127205Y-11636960D01*
X13127205Y-11636960D02*
X13108158Y-11646484D01*
X13108158Y-11646484D02*
X13051015Y-11646484D01*
X13051015Y-11646484D02*
X13031967Y-11636960D01*
X13031967Y-11636960D02*
X13022443Y-11627436D01*
X13270062Y-11446484D02*
X13289110Y-11446484D01*
X13289110Y-11446484D02*
X13308158Y-11456008D01*
X13308158Y-11456008D02*
X13317682Y-11465531D01*
X13317682Y-11465531D02*
X13327205Y-11484579D01*
X13327205Y-11484579D02*
X13336729Y-11522674D01*
X13336729Y-11522674D02*
X13336729Y-11570293D01*
X13336729Y-11570293D02*
X13327205Y-11608388D01*
X13327205Y-11608388D02*
X13317682Y-11627436D01*
X13317682Y-11627436D02*
X13308158Y-11636960D01*
X13308158Y-11636960D02*
X13289110Y-11646484D01*
X13289110Y-11646484D02*
X13270062Y-11646484D01*
X13270062Y-11646484D02*
X13251015Y-11636960D01*
X13251015Y-11636960D02*
X13241491Y-11627436D01*
X13241491Y-11627436D02*
X13231967Y-11608388D01*
X13231967Y-11608388D02*
X13222443Y-11570293D01*
X13222443Y-11570293D02*
X13222443Y-11522674D01*
X13222443Y-11522674D02*
X13231967Y-11484579D01*
X13231967Y-11484579D02*
X13241491Y-11465531D01*
X13241491Y-11465531D02*
X13251015Y-11456008D01*
X13251015Y-11456008D02*
X13270062Y-11446484D01*
X13460539Y-11446484D02*
X13479586Y-11446484D01*
X13479586Y-11446484D02*
X13498634Y-11456008D01*
X13498634Y-11456008D02*
X13508158Y-11465531D01*
X13508158Y-11465531D02*
X13517682Y-11484579D01*
X13517682Y-11484579D02*
X13527205Y-11522674D01*
X13527205Y-11522674D02*
X13527205Y-11570293D01*
X13527205Y-11570293D02*
X13517682Y-11608388D01*
X13517682Y-11608388D02*
X13508158Y-11627436D01*
X13508158Y-11627436D02*
X13498634Y-11636960D01*
X13498634Y-11636960D02*
X13479586Y-11646484D01*
X13479586Y-11646484D02*
X13460539Y-11646484D01*
X13460539Y-11646484D02*
X13441491Y-11636960D01*
X13441491Y-11636960D02*
X13431967Y-11627436D01*
X13431967Y-11627436D02*
X13422443Y-11608388D01*
X13422443Y-11608388D02*
X13412920Y-11570293D01*
X13412920Y-11570293D02*
X13412920Y-11522674D01*
X13412920Y-11522674D02*
X13422443Y-11484579D01*
X13422443Y-11484579D02*
X13431967Y-11465531D01*
X13431967Y-11465531D02*
X13441491Y-11456008D01*
X13441491Y-11456008D02*
X13460539Y-11446484D01*
X13612920Y-11646484D02*
X13612920Y-11513150D01*
X13612920Y-11532198D02*
X13622443Y-11522674D01*
X13622443Y-11522674D02*
X13641491Y-11513150D01*
X13641491Y-11513150D02*
X13670063Y-11513150D01*
X13670063Y-11513150D02*
X13689110Y-11522674D01*
X13689110Y-11522674D02*
X13698634Y-11541722D01*
X13698634Y-11541722D02*
X13698634Y-11646484D01*
X13698634Y-11541722D02*
X13708158Y-11522674D01*
X13708158Y-11522674D02*
X13727205Y-11513150D01*
X13727205Y-11513150D02*
X13755777Y-11513150D01*
X13755777Y-11513150D02*
X13774824Y-11522674D01*
X13774824Y-11522674D02*
X13784348Y-11541722D01*
X13784348Y-11541722D02*
X13784348Y-11646484D01*
X13879586Y-11646484D02*
X13879586Y-11513150D01*
X13879586Y-11532198D02*
X13889110Y-11522674D01*
X13889110Y-11522674D02*
X13908158Y-11513150D01*
X13908158Y-11513150D02*
X13936729Y-11513150D01*
X13936729Y-11513150D02*
X13955777Y-11522674D01*
X13955777Y-11522674D02*
X13965301Y-11541722D01*
X13965301Y-11541722D02*
X13965301Y-11646484D01*
X13965301Y-11541722D02*
X13974824Y-11522674D01*
X13974824Y-11522674D02*
X13993872Y-11513150D01*
X13993872Y-11513150D02*
X14022443Y-11513150D01*
X14022443Y-11513150D02*
X14041491Y-11522674D01*
X14041491Y-11522674D02*
X14051015Y-11541722D01*
X14051015Y-11541722D02*
X14051015Y-11646484D01*
X14441491Y-11436960D02*
X14270063Y-11694103D01*
X14698634Y-11446484D02*
X14717682Y-11446484D01*
X14717682Y-11446484D02*
X14736729Y-11456008D01*
X14736729Y-11456008D02*
X14746253Y-11465531D01*
X14746253Y-11465531D02*
X14755777Y-11484579D01*
X14755777Y-11484579D02*
X14765301Y-11522674D01*
X14765301Y-11522674D02*
X14765301Y-11570293D01*
X14765301Y-11570293D02*
X14755777Y-11608388D01*
X14755777Y-11608388D02*
X14746253Y-11627436D01*
X14746253Y-11627436D02*
X14736729Y-11636960D01*
X14736729Y-11636960D02*
X14717682Y-11646484D01*
X14717682Y-11646484D02*
X14698634Y-11646484D01*
X14698634Y-11646484D02*
X14679586Y-11636960D01*
X14679586Y-11636960D02*
X14670063Y-11627436D01*
X14670063Y-11627436D02*
X14660539Y-11608388D01*
X14660539Y-11608388D02*
X14651015Y-11570293D01*
X14651015Y-11570293D02*
X14651015Y-11522674D01*
X14651015Y-11522674D02*
X14660539Y-11484579D01*
X14660539Y-11484579D02*
X14670063Y-11465531D01*
X14670063Y-11465531D02*
X14679586Y-11456008D01*
X14679586Y-11456008D02*
X14698634Y-11446484D01*
X14851015Y-11627436D02*
X14860539Y-11636960D01*
X14860539Y-11636960D02*
X14851015Y-11646484D01*
X14851015Y-11646484D02*
X14841491Y-11636960D01*
X14841491Y-11636960D02*
X14851015Y-11627436D01*
X14851015Y-11627436D02*
X14851015Y-11646484D01*
X14984348Y-11446484D02*
X15003396Y-11446484D01*
X15003396Y-11446484D02*
X15022444Y-11456008D01*
X15022444Y-11456008D02*
X15031967Y-11465531D01*
X15031967Y-11465531D02*
X15041491Y-11484579D01*
X15041491Y-11484579D02*
X15051015Y-11522674D01*
X15051015Y-11522674D02*
X15051015Y-11570293D01*
X15051015Y-11570293D02*
X15041491Y-11608388D01*
X15041491Y-11608388D02*
X15031967Y-11627436D01*
X15031967Y-11627436D02*
X15022444Y-11636960D01*
X15022444Y-11636960D02*
X15003396Y-11646484D01*
X15003396Y-11646484D02*
X14984348Y-11646484D01*
X14984348Y-11646484D02*
X14965301Y-11636960D01*
X14965301Y-11636960D02*
X14955777Y-11627436D01*
X14955777Y-11627436D02*
X14946253Y-11608388D01*
X14946253Y-11608388D02*
X14936729Y-11570293D01*
X14936729Y-11570293D02*
X14936729Y-11522674D01*
X14936729Y-11522674D02*
X14946253Y-11484579D01*
X14946253Y-11484579D02*
X14955777Y-11465531D01*
X14955777Y-11465531D02*
X14965301Y-11456008D01*
X14965301Y-11456008D02*
X14984348Y-11446484D01*
X15241491Y-11646484D02*
X15127206Y-11646484D01*
X15184348Y-11646484D02*
X15184348Y-11446484D01*
X15184348Y-11446484D02*
X15165301Y-11475055D01*
X15165301Y-11475055D02*
X15146253Y-11494103D01*
X15146253Y-11494103D02*
X15127206Y-11503627D01*
X15431967Y-11646484D02*
X15317682Y-11646484D01*
X15374825Y-11646484D02*
X15374825Y-11446484D01*
X15374825Y-11446484D02*
X15355777Y-11475055D01*
X15355777Y-11475055D02*
X15336729Y-11494103D01*
X15336729Y-11494103D02*
X15317682Y-11503627D01*
X15546253Y-11532198D02*
X15527206Y-11522674D01*
X15527206Y-11522674D02*
X15517682Y-11513150D01*
X15517682Y-11513150D02*
X15508158Y-11494103D01*
X15508158Y-11494103D02*
X15508158Y-11484579D01*
X15508158Y-11484579D02*
X15517682Y-11465531D01*
X15517682Y-11465531D02*
X15527206Y-11456008D01*
X15527206Y-11456008D02*
X15546253Y-11446484D01*
X15546253Y-11446484D02*
X15584348Y-11446484D01*
X15584348Y-11446484D02*
X15603396Y-11456008D01*
X15603396Y-11456008D02*
X15612920Y-11465531D01*
X15612920Y-11465531D02*
X15622444Y-11484579D01*
X15622444Y-11484579D02*
X15622444Y-11494103D01*
X15622444Y-11494103D02*
X15612920Y-11513150D01*
X15612920Y-11513150D02*
X15603396Y-11522674D01*
X15603396Y-11522674D02*
X15584348Y-11532198D01*
X15584348Y-11532198D02*
X15546253Y-11532198D01*
X15546253Y-11532198D02*
X15527206Y-11541722D01*
X15527206Y-11541722D02*
X15517682Y-11551246D01*
X15517682Y-11551246D02*
X15508158Y-11570293D01*
X15508158Y-11570293D02*
X15508158Y-11608388D01*
X15508158Y-11608388D02*
X15517682Y-11627436D01*
X15517682Y-11627436D02*
X15527206Y-11636960D01*
X15527206Y-11636960D02*
X15546253Y-11646484D01*
X15546253Y-11646484D02*
X15584348Y-11646484D01*
X15584348Y-11646484D02*
X15603396Y-11636960D01*
X15603396Y-11636960D02*
X15612920Y-11627436D01*
X15612920Y-11627436D02*
X15622444Y-11608388D01*
X15622444Y-11608388D02*
X15622444Y-11570293D01*
X15622444Y-11570293D02*
X15612920Y-11551246D01*
X15612920Y-11551246D02*
X15603396Y-11541722D01*
X15603396Y-11541722D02*
X15584348Y-11532198D01*
X15698634Y-11446484D02*
X15698634Y-11484579D01*
X15774825Y-11446484D02*
X15774825Y-11484579D01*
X16070063Y-11722674D02*
X16060539Y-11713150D01*
X16060539Y-11713150D02*
X16041491Y-11684579D01*
X16041491Y-11684579D02*
X16031968Y-11665531D01*
X16031968Y-11665531D02*
X16022444Y-11636960D01*
X16022444Y-11636960D02*
X16012920Y-11589341D01*
X16012920Y-11589341D02*
X16012920Y-11551246D01*
X16012920Y-11551246D02*
X16022444Y-11503627D01*
X16022444Y-11503627D02*
X16031968Y-11475055D01*
X16031968Y-11475055D02*
X16041491Y-11456008D01*
X16041491Y-11456008D02*
X16060539Y-11427436D01*
X16060539Y-11427436D02*
X16070063Y-11417912D01*
X16136729Y-11465531D02*
X16146253Y-11456008D01*
X16146253Y-11456008D02*
X16165301Y-11446484D01*
X16165301Y-11446484D02*
X16212920Y-11446484D01*
X16212920Y-11446484D02*
X16231968Y-11456008D01*
X16231968Y-11456008D02*
X16241491Y-11465531D01*
X16241491Y-11465531D02*
X16251015Y-11484579D01*
X16251015Y-11484579D02*
X16251015Y-11503627D01*
X16251015Y-11503627D02*
X16241491Y-11532198D01*
X16241491Y-11532198D02*
X16127206Y-11646484D01*
X16127206Y-11646484D02*
X16251015Y-11646484D01*
X16422444Y-11446484D02*
X16384348Y-11446484D01*
X16384348Y-11446484D02*
X16365301Y-11456008D01*
X16365301Y-11456008D02*
X16355777Y-11465531D01*
X16355777Y-11465531D02*
X16336729Y-11494103D01*
X16336729Y-11494103D02*
X16327206Y-11532198D01*
X16327206Y-11532198D02*
X16327206Y-11608388D01*
X16327206Y-11608388D02*
X16336729Y-11627436D01*
X16336729Y-11627436D02*
X16346253Y-11636960D01*
X16346253Y-11636960D02*
X16365301Y-11646484D01*
X16365301Y-11646484D02*
X16403396Y-11646484D01*
X16403396Y-11646484D02*
X16422444Y-11636960D01*
X16422444Y-11636960D02*
X16431968Y-11627436D01*
X16431968Y-11627436D02*
X16441491Y-11608388D01*
X16441491Y-11608388D02*
X16441491Y-11560769D01*
X16441491Y-11560769D02*
X16431968Y-11541722D01*
X16431968Y-11541722D02*
X16422444Y-11532198D01*
X16422444Y-11532198D02*
X16403396Y-11522674D01*
X16403396Y-11522674D02*
X16365301Y-11522674D01*
X16365301Y-11522674D02*
X16346253Y-11532198D01*
X16346253Y-11532198D02*
X16336729Y-11541722D01*
X16336729Y-11541722D02*
X16327206Y-11560769D01*
X16517682Y-11465531D02*
X16527206Y-11456008D01*
X16527206Y-11456008D02*
X16546253Y-11446484D01*
X16546253Y-11446484D02*
X16593872Y-11446484D01*
X16593872Y-11446484D02*
X16612920Y-11456008D01*
X16612920Y-11456008D02*
X16622444Y-11465531D01*
X16622444Y-11465531D02*
X16631968Y-11484579D01*
X16631968Y-11484579D02*
X16631968Y-11503627D01*
X16631968Y-11503627D02*
X16622444Y-11532198D01*
X16622444Y-11532198D02*
X16508158Y-11646484D01*
X16508158Y-11646484D02*
X16631968Y-11646484D01*
X16870063Y-11646484D02*
X16870063Y-11446484D01*
X16955777Y-11646484D02*
X16955777Y-11541722D01*
X16955777Y-11541722D02*
X16946253Y-11522674D01*
X16946253Y-11522674D02*
X16927206Y-11513150D01*
X16927206Y-11513150D02*
X16898634Y-11513150D01*
X16898634Y-11513150D02*
X16879587Y-11522674D01*
X16879587Y-11522674D02*
X16870063Y-11532198D01*
X17079587Y-11646484D02*
X17060539Y-11636960D01*
X17060539Y-11636960D02*
X17051015Y-11627436D01*
X17051015Y-11627436D02*
X17041492Y-11608388D01*
X17041492Y-11608388D02*
X17041492Y-11551246D01*
X17041492Y-11551246D02*
X17051015Y-11532198D01*
X17051015Y-11532198D02*
X17060539Y-11522674D01*
X17060539Y-11522674D02*
X17079587Y-11513150D01*
X17079587Y-11513150D02*
X17108158Y-11513150D01*
X17108158Y-11513150D02*
X17127206Y-11522674D01*
X17127206Y-11522674D02*
X17136730Y-11532198D01*
X17136730Y-11532198D02*
X17146253Y-11551246D01*
X17146253Y-11551246D02*
X17146253Y-11608388D01*
X17146253Y-11608388D02*
X17136730Y-11627436D01*
X17136730Y-11627436D02*
X17127206Y-11636960D01*
X17127206Y-11636960D02*
X17108158Y-11646484D01*
X17108158Y-11646484D02*
X17079587Y-11646484D01*
X17260539Y-11646484D02*
X17241492Y-11636960D01*
X17241492Y-11636960D02*
X17231968Y-11617912D01*
X17231968Y-11617912D02*
X17231968Y-11446484D01*
X17412920Y-11636960D02*
X17393873Y-11646484D01*
X17393873Y-11646484D02*
X17355777Y-11646484D01*
X17355777Y-11646484D02*
X17336730Y-11636960D01*
X17336730Y-11636960D02*
X17327206Y-11617912D01*
X17327206Y-11617912D02*
X17327206Y-11541722D01*
X17327206Y-11541722D02*
X17336730Y-11522674D01*
X17336730Y-11522674D02*
X17355777Y-11513150D01*
X17355777Y-11513150D02*
X17393873Y-11513150D01*
X17393873Y-11513150D02*
X17412920Y-11522674D01*
X17412920Y-11522674D02*
X17422444Y-11541722D01*
X17422444Y-11541722D02*
X17422444Y-11560769D01*
X17422444Y-11560769D02*
X17327206Y-11579817D01*
X17498634Y-11636960D02*
X17517682Y-11646484D01*
X17517682Y-11646484D02*
X17555777Y-11646484D01*
X17555777Y-11646484D02*
X17574825Y-11636960D01*
X17574825Y-11636960D02*
X17584349Y-11617912D01*
X17584349Y-11617912D02*
X17584349Y-11608388D01*
X17584349Y-11608388D02*
X17574825Y-11589341D01*
X17574825Y-11589341D02*
X17555777Y-11579817D01*
X17555777Y-11579817D02*
X17527206Y-11579817D01*
X17527206Y-11579817D02*
X17508158Y-11570293D01*
X17508158Y-11570293D02*
X17498634Y-11551246D01*
X17498634Y-11551246D02*
X17498634Y-11541722D01*
X17498634Y-11541722D02*
X17508158Y-11522674D01*
X17508158Y-11522674D02*
X17527206Y-11513150D01*
X17527206Y-11513150D02*
X17555777Y-11513150D01*
X17555777Y-11513150D02*
X17574825Y-11522674D01*
X17651015Y-11722674D02*
X17660539Y-11713150D01*
X17660539Y-11713150D02*
X17679587Y-11684579D01*
X17679587Y-11684579D02*
X17689111Y-11665531D01*
X17689111Y-11665531D02*
X17698634Y-11636960D01*
X17698634Y-11636960D02*
X17708158Y-11589341D01*
X17708158Y-11589341D02*
X17708158Y-11551246D01*
X17708158Y-11551246D02*
X17698634Y-11503627D01*
X17698634Y-11503627D02*
X17689111Y-11475055D01*
X17689111Y-11475055D02*
X17679587Y-11456008D01*
X17679587Y-11456008D02*
X17660539Y-11427436D01*
X17660539Y-11427436D02*
X17651015Y-11417912D01*
D10*
X12495000Y-11819000D02*
G75*
G02*
X12424998Y-11819000I-35001J0D01*
G01*
X12424998Y-11819000D02*
G75*
G02*
X12495000Y-11819000I35001J0D01*
G01*
D11*
X12793872Y-11710484D02*
X12812920Y-11710484D01*
X12812920Y-11710484D02*
X12831967Y-11720008D01*
X12831967Y-11720008D02*
X12841491Y-11729531D01*
X12841491Y-11729531D02*
X12851015Y-11748579D01*
X12851015Y-11748579D02*
X12860539Y-11786674D01*
X12860539Y-11786674D02*
X12860539Y-11834293D01*
X12860539Y-11834293D02*
X12851015Y-11872388D01*
X12851015Y-11872388D02*
X12841491Y-11891436D01*
X12841491Y-11891436D02*
X12831967Y-11900960D01*
X12831967Y-11900960D02*
X12812920Y-11910484D01*
X12812920Y-11910484D02*
X12793872Y-11910484D01*
X12793872Y-11910484D02*
X12774824Y-11900960D01*
X12774824Y-11900960D02*
X12765301Y-11891436D01*
X12765301Y-11891436D02*
X12755777Y-11872388D01*
X12755777Y-11872388D02*
X12746253Y-11834293D01*
X12746253Y-11834293D02*
X12746253Y-11786674D01*
X12746253Y-11786674D02*
X12755777Y-11748579D01*
X12755777Y-11748579D02*
X12765301Y-11729531D01*
X12765301Y-11729531D02*
X12774824Y-11720008D01*
X12774824Y-11720008D02*
X12793872Y-11710484D01*
X12946253Y-11891436D02*
X12955777Y-11900960D01*
X12955777Y-11900960D02*
X12946253Y-11910484D01*
X12946253Y-11910484D02*
X12936729Y-11900960D01*
X12936729Y-11900960D02*
X12946253Y-11891436D01*
X12946253Y-11891436D02*
X12946253Y-11910484D01*
X13022443Y-11710484D02*
X13155777Y-11710484D01*
X13155777Y-11710484D02*
X13070062Y-11910484D01*
X13270062Y-11710484D02*
X13289110Y-11710484D01*
X13289110Y-11710484D02*
X13308158Y-11720008D01*
X13308158Y-11720008D02*
X13317682Y-11729531D01*
X13317682Y-11729531D02*
X13327205Y-11748579D01*
X13327205Y-11748579D02*
X13336729Y-11786674D01*
X13336729Y-11786674D02*
X13336729Y-11834293D01*
X13336729Y-11834293D02*
X13327205Y-11872388D01*
X13327205Y-11872388D02*
X13317682Y-11891436D01*
X13317682Y-11891436D02*
X13308158Y-11900960D01*
X13308158Y-11900960D02*
X13289110Y-11910484D01*
X13289110Y-11910484D02*
X13270062Y-11910484D01*
X13270062Y-11910484D02*
X13251015Y-11900960D01*
X13251015Y-11900960D02*
X13241491Y-11891436D01*
X13241491Y-11891436D02*
X13231967Y-11872388D01*
X13231967Y-11872388D02*
X13222443Y-11834293D01*
X13222443Y-11834293D02*
X13222443Y-11786674D01*
X13222443Y-11786674D02*
X13231967Y-11748579D01*
X13231967Y-11748579D02*
X13241491Y-11729531D01*
X13241491Y-11729531D02*
X13251015Y-11720008D01*
X13251015Y-11720008D02*
X13270062Y-11710484D01*
X13460539Y-11710484D02*
X13479586Y-11710484D01*
X13479586Y-11710484D02*
X13498634Y-11720008D01*
X13498634Y-11720008D02*
X13508158Y-11729531D01*
X13508158Y-11729531D02*
X13517682Y-11748579D01*
X13517682Y-11748579D02*
X13527205Y-11786674D01*
X13527205Y-11786674D02*
X13527205Y-11834293D01*
X13527205Y-11834293D02*
X13517682Y-11872388D01*
X13517682Y-11872388D02*
X13508158Y-11891436D01*
X13508158Y-11891436D02*
X13498634Y-11900960D01*
X13498634Y-11900960D02*
X13479586Y-11910484D01*
X13479586Y-11910484D02*
X13460539Y-11910484D01*
X13460539Y-11910484D02*
X13441491Y-11900960D01*
X13441491Y-11900960D02*
X13431967Y-11891436D01*
X13431967Y-11891436D02*
X13422443Y-11872388D01*
X13422443Y-11872388D02*
X13412920Y-11834293D01*
X13412920Y-11834293D02*
X13412920Y-11786674D01*
X13412920Y-11786674D02*
X13422443Y-11748579D01*
X13422443Y-11748579D02*
X13431967Y-11729531D01*
X13431967Y-11729531D02*
X13441491Y-11720008D01*
X13441491Y-11720008D02*
X13460539Y-11710484D01*
X13612920Y-11910484D02*
X13612920Y-11777150D01*
X13612920Y-11796198D02*
X13622443Y-11786674D01*
X13622443Y-11786674D02*
X13641491Y-11777150D01*
X13641491Y-11777150D02*
X13670063Y-11777150D01*
X13670063Y-11777150D02*
X13689110Y-11786674D01*
X13689110Y-11786674D02*
X13698634Y-11805722D01*
X13698634Y-11805722D02*
X13698634Y-11910484D01*
X13698634Y-11805722D02*
X13708158Y-11786674D01*
X13708158Y-11786674D02*
X13727205Y-11777150D01*
X13727205Y-11777150D02*
X13755777Y-11777150D01*
X13755777Y-11777150D02*
X13774824Y-11786674D01*
X13774824Y-11786674D02*
X13784348Y-11805722D01*
X13784348Y-11805722D02*
X13784348Y-11910484D01*
X13879586Y-11910484D02*
X13879586Y-11777150D01*
X13879586Y-11796198D02*
X13889110Y-11786674D01*
X13889110Y-11786674D02*
X13908158Y-11777150D01*
X13908158Y-11777150D02*
X13936729Y-11777150D01*
X13936729Y-11777150D02*
X13955777Y-11786674D01*
X13955777Y-11786674D02*
X13965301Y-11805722D01*
X13965301Y-11805722D02*
X13965301Y-11910484D01*
X13965301Y-11805722D02*
X13974824Y-11786674D01*
X13974824Y-11786674D02*
X13993872Y-11777150D01*
X13993872Y-11777150D02*
X14022443Y-11777150D01*
X14022443Y-11777150D02*
X14041491Y-11786674D01*
X14041491Y-11786674D02*
X14051015Y-11805722D01*
X14051015Y-11805722D02*
X14051015Y-11910484D01*
X14441491Y-11700960D02*
X14270063Y-11958103D01*
X14698634Y-11710484D02*
X14717682Y-11710484D01*
X14717682Y-11710484D02*
X14736729Y-11720008D01*
X14736729Y-11720008D02*
X14746253Y-11729531D01*
X14746253Y-11729531D02*
X14755777Y-11748579D01*
X14755777Y-11748579D02*
X14765301Y-11786674D01*
X14765301Y-11786674D02*
X14765301Y-11834293D01*
X14765301Y-11834293D02*
X14755777Y-11872388D01*
X14755777Y-11872388D02*
X14746253Y-11891436D01*
X14746253Y-11891436D02*
X14736729Y-11900960D01*
X14736729Y-11900960D02*
X14717682Y-11910484D01*
X14717682Y-11910484D02*
X14698634Y-11910484D01*
X14698634Y-11910484D02*
X14679586Y-11900960D01*
X14679586Y-11900960D02*
X14670063Y-11891436D01*
X14670063Y-11891436D02*
X14660539Y-11872388D01*
X14660539Y-11872388D02*
X14651015Y-11834293D01*
X14651015Y-11834293D02*
X14651015Y-11786674D01*
X14651015Y-11786674D02*
X14660539Y-11748579D01*
X14660539Y-11748579D02*
X14670063Y-11729531D01*
X14670063Y-11729531D02*
X14679586Y-11720008D01*
X14679586Y-11720008D02*
X14698634Y-11710484D01*
X14851015Y-11891436D02*
X14860539Y-11900960D01*
X14860539Y-11900960D02*
X14851015Y-11910484D01*
X14851015Y-11910484D02*
X14841491Y-11900960D01*
X14841491Y-11900960D02*
X14851015Y-11891436D01*
X14851015Y-11891436D02*
X14851015Y-11910484D01*
X14984348Y-11710484D02*
X15003396Y-11710484D01*
X15003396Y-11710484D02*
X15022444Y-11720008D01*
X15022444Y-11720008D02*
X15031967Y-11729531D01*
X15031967Y-11729531D02*
X15041491Y-11748579D01*
X15041491Y-11748579D02*
X15051015Y-11786674D01*
X15051015Y-11786674D02*
X15051015Y-11834293D01*
X15051015Y-11834293D02*
X15041491Y-11872388D01*
X15041491Y-11872388D02*
X15031967Y-11891436D01*
X15031967Y-11891436D02*
X15022444Y-11900960D01*
X15022444Y-11900960D02*
X15003396Y-11910484D01*
X15003396Y-11910484D02*
X14984348Y-11910484D01*
X14984348Y-11910484D02*
X14965301Y-11900960D01*
X14965301Y-11900960D02*
X14955777Y-11891436D01*
X14955777Y-11891436D02*
X14946253Y-11872388D01*
X14946253Y-11872388D02*
X14936729Y-11834293D01*
X14936729Y-11834293D02*
X14936729Y-11786674D01*
X14936729Y-11786674D02*
X14946253Y-11748579D01*
X14946253Y-11748579D02*
X14955777Y-11729531D01*
X14955777Y-11729531D02*
X14965301Y-11720008D01*
X14965301Y-11720008D02*
X14984348Y-11710484D01*
X15127206Y-11729531D02*
X15136729Y-11720008D01*
X15136729Y-11720008D02*
X15155777Y-11710484D01*
X15155777Y-11710484D02*
X15203396Y-11710484D01*
X15203396Y-11710484D02*
X15222444Y-11720008D01*
X15222444Y-11720008D02*
X15231967Y-11729531D01*
X15231967Y-11729531D02*
X15241491Y-11748579D01*
X15241491Y-11748579D02*
X15241491Y-11767627D01*
X15241491Y-11767627D02*
X15231967Y-11796198D01*
X15231967Y-11796198D02*
X15117682Y-11910484D01*
X15117682Y-11910484D02*
X15241491Y-11910484D01*
X15308158Y-11710484D02*
X15441491Y-11710484D01*
X15441491Y-11710484D02*
X15355777Y-11910484D01*
X15603396Y-11710484D02*
X15565301Y-11710484D01*
X15565301Y-11710484D02*
X15546253Y-11720008D01*
X15546253Y-11720008D02*
X15536729Y-11729531D01*
X15536729Y-11729531D02*
X15517682Y-11758103D01*
X15517682Y-11758103D02*
X15508158Y-11796198D01*
X15508158Y-11796198D02*
X15508158Y-11872388D01*
X15508158Y-11872388D02*
X15517682Y-11891436D01*
X15517682Y-11891436D02*
X15527206Y-11900960D01*
X15527206Y-11900960D02*
X15546253Y-11910484D01*
X15546253Y-11910484D02*
X15584348Y-11910484D01*
X15584348Y-11910484D02*
X15603396Y-11900960D01*
X15603396Y-11900960D02*
X15612920Y-11891436D01*
X15612920Y-11891436D02*
X15622444Y-11872388D01*
X15622444Y-11872388D02*
X15622444Y-11824769D01*
X15622444Y-11824769D02*
X15612920Y-11805722D01*
X15612920Y-11805722D02*
X15603396Y-11796198D01*
X15603396Y-11796198D02*
X15584348Y-11786674D01*
X15584348Y-11786674D02*
X15546253Y-11786674D01*
X15546253Y-11786674D02*
X15527206Y-11796198D01*
X15527206Y-11796198D02*
X15517682Y-11805722D01*
X15517682Y-11805722D02*
X15508158Y-11824769D01*
X15698634Y-11710484D02*
X15698634Y-11748579D01*
X15774825Y-11710484D02*
X15774825Y-11748579D01*
X16070063Y-11986674D02*
X16060539Y-11977150D01*
X16060539Y-11977150D02*
X16041491Y-11948579D01*
X16041491Y-11948579D02*
X16031968Y-11929531D01*
X16031968Y-11929531D02*
X16022444Y-11900960D01*
X16022444Y-11900960D02*
X16012920Y-11853341D01*
X16012920Y-11853341D02*
X16012920Y-11815246D01*
X16012920Y-11815246D02*
X16022444Y-11767627D01*
X16022444Y-11767627D02*
X16031968Y-11739055D01*
X16031968Y-11739055D02*
X16041491Y-11720008D01*
X16041491Y-11720008D02*
X16060539Y-11691436D01*
X16060539Y-11691436D02*
X16070063Y-11681912D01*
X16231968Y-11777150D02*
X16231968Y-11910484D01*
X16184348Y-11700960D02*
X16136729Y-11843817D01*
X16136729Y-11843817D02*
X16260539Y-11843817D01*
X16489110Y-11910484D02*
X16489110Y-11710484D01*
X16574825Y-11910484D02*
X16574825Y-11805722D01*
X16574825Y-11805722D02*
X16565301Y-11786674D01*
X16565301Y-11786674D02*
X16546253Y-11777150D01*
X16546253Y-11777150D02*
X16517682Y-11777150D01*
X16517682Y-11777150D02*
X16498634Y-11786674D01*
X16498634Y-11786674D02*
X16489110Y-11796198D01*
X16698634Y-11910484D02*
X16679587Y-11900960D01*
X16679587Y-11900960D02*
X16670063Y-11891436D01*
X16670063Y-11891436D02*
X16660539Y-11872388D01*
X16660539Y-11872388D02*
X16660539Y-11815246D01*
X16660539Y-11815246D02*
X16670063Y-11796198D01*
X16670063Y-11796198D02*
X16679587Y-11786674D01*
X16679587Y-11786674D02*
X16698634Y-11777150D01*
X16698634Y-11777150D02*
X16727206Y-11777150D01*
X16727206Y-11777150D02*
X16746253Y-11786674D01*
X16746253Y-11786674D02*
X16755777Y-11796198D01*
X16755777Y-11796198D02*
X16765301Y-11815246D01*
X16765301Y-11815246D02*
X16765301Y-11872388D01*
X16765301Y-11872388D02*
X16755777Y-11891436D01*
X16755777Y-11891436D02*
X16746253Y-11900960D01*
X16746253Y-11900960D02*
X16727206Y-11910484D01*
X16727206Y-11910484D02*
X16698634Y-11910484D01*
X16879587Y-11910484D02*
X16860539Y-11900960D01*
X16860539Y-11900960D02*
X16851015Y-11881912D01*
X16851015Y-11881912D02*
X16851015Y-11710484D01*
X17031968Y-11900960D02*
X17012920Y-11910484D01*
X17012920Y-11910484D02*
X16974825Y-11910484D01*
X16974825Y-11910484D02*
X16955777Y-11900960D01*
X16955777Y-11900960D02*
X16946253Y-11881912D01*
X16946253Y-11881912D02*
X16946253Y-11805722D01*
X16946253Y-11805722D02*
X16955777Y-11786674D01*
X16955777Y-11786674D02*
X16974825Y-11777150D01*
X16974825Y-11777150D02*
X17012920Y-11777150D01*
X17012920Y-11777150D02*
X17031968Y-11786674D01*
X17031968Y-11786674D02*
X17041492Y-11805722D01*
X17041492Y-11805722D02*
X17041492Y-11824769D01*
X17041492Y-11824769D02*
X16946253Y-11843817D01*
X17117682Y-11900960D02*
X17136730Y-11910484D01*
X17136730Y-11910484D02*
X17174825Y-11910484D01*
X17174825Y-11910484D02*
X17193873Y-11900960D01*
X17193873Y-11900960D02*
X17203396Y-11881912D01*
X17203396Y-11881912D02*
X17203396Y-11872388D01*
X17203396Y-11872388D02*
X17193873Y-11853341D01*
X17193873Y-11853341D02*
X17174825Y-11843817D01*
X17174825Y-11843817D02*
X17146253Y-11843817D01*
X17146253Y-11843817D02*
X17127206Y-11834293D01*
X17127206Y-11834293D02*
X17117682Y-11815246D01*
X17117682Y-11815246D02*
X17117682Y-11805722D01*
X17117682Y-11805722D02*
X17127206Y-11786674D01*
X17127206Y-11786674D02*
X17146253Y-11777150D01*
X17146253Y-11777150D02*
X17174825Y-11777150D01*
X17174825Y-11777150D02*
X17193873Y-11786674D01*
X17441492Y-11834293D02*
X17593873Y-11834293D01*
X17517682Y-11910484D02*
X17517682Y-11758103D01*
X17831968Y-11729531D02*
X17841492Y-11720008D01*
X17841492Y-11720008D02*
X17860539Y-11710484D01*
X17860539Y-11710484D02*
X17908158Y-11710484D01*
X17908158Y-11710484D02*
X17927206Y-11720008D01*
X17927206Y-11720008D02*
X17936730Y-11729531D01*
X17936730Y-11729531D02*
X17946254Y-11748579D01*
X17946254Y-11748579D02*
X17946254Y-11767627D01*
X17946254Y-11767627D02*
X17936730Y-11796198D01*
X17936730Y-11796198D02*
X17822444Y-11910484D01*
X17822444Y-11910484D02*
X17946254Y-11910484D01*
X18174825Y-11900960D02*
X18193873Y-11910484D01*
X18193873Y-11910484D02*
X18231968Y-11910484D01*
X18231968Y-11910484D02*
X18251016Y-11900960D01*
X18251016Y-11900960D02*
X18260539Y-11881912D01*
X18260539Y-11881912D02*
X18260539Y-11872388D01*
X18260539Y-11872388D02*
X18251016Y-11853341D01*
X18251016Y-11853341D02*
X18231968Y-11843817D01*
X18231968Y-11843817D02*
X18203396Y-11843817D01*
X18203396Y-11843817D02*
X18184349Y-11834293D01*
X18184349Y-11834293D02*
X18174825Y-11815246D01*
X18174825Y-11815246D02*
X18174825Y-11805722D01*
X18174825Y-11805722D02*
X18184349Y-11786674D01*
X18184349Y-11786674D02*
X18203396Y-11777150D01*
X18203396Y-11777150D02*
X18231968Y-11777150D01*
X18231968Y-11777150D02*
X18251016Y-11786674D01*
X18374825Y-11910484D02*
X18355777Y-11900960D01*
X18355777Y-11900960D02*
X18346254Y-11881912D01*
X18346254Y-11881912D02*
X18346254Y-11710484D01*
X18479587Y-11910484D02*
X18460539Y-11900960D01*
X18460539Y-11900960D02*
X18451016Y-11891436D01*
X18451016Y-11891436D02*
X18441492Y-11872388D01*
X18441492Y-11872388D02*
X18441492Y-11815246D01*
X18441492Y-11815246D02*
X18451016Y-11796198D01*
X18451016Y-11796198D02*
X18460539Y-11786674D01*
X18460539Y-11786674D02*
X18479587Y-11777150D01*
X18479587Y-11777150D02*
X18508158Y-11777150D01*
X18508158Y-11777150D02*
X18527206Y-11786674D01*
X18527206Y-11786674D02*
X18536730Y-11796198D01*
X18536730Y-11796198D02*
X18546254Y-11815246D01*
X18546254Y-11815246D02*
X18546254Y-11872388D01*
X18546254Y-11872388D02*
X18536730Y-11891436D01*
X18536730Y-11891436D02*
X18527206Y-11900960D01*
X18527206Y-11900960D02*
X18508158Y-11910484D01*
X18508158Y-11910484D02*
X18479587Y-11910484D01*
X18603397Y-11777150D02*
X18679587Y-11777150D01*
X18631968Y-11710484D02*
X18631968Y-11881912D01*
X18631968Y-11881912D02*
X18641492Y-11900960D01*
X18641492Y-11900960D02*
X18660539Y-11910484D01*
X18660539Y-11910484D02*
X18679587Y-11910484D01*
X18736730Y-11900960D02*
X18755777Y-11910484D01*
X18755777Y-11910484D02*
X18793873Y-11910484D01*
X18793873Y-11910484D02*
X18812920Y-11900960D01*
X18812920Y-11900960D02*
X18822444Y-11881912D01*
X18822444Y-11881912D02*
X18822444Y-11872388D01*
X18822444Y-11872388D02*
X18812920Y-11853341D01*
X18812920Y-11853341D02*
X18793873Y-11843817D01*
X18793873Y-11843817D02*
X18765301Y-11843817D01*
X18765301Y-11843817D02*
X18746254Y-11834293D01*
X18746254Y-11834293D02*
X18736730Y-11815246D01*
X18736730Y-11815246D02*
X18736730Y-11805722D01*
X18736730Y-11805722D02*
X18746254Y-11786674D01*
X18746254Y-11786674D02*
X18765301Y-11777150D01*
X18765301Y-11777150D02*
X18793873Y-11777150D01*
X18793873Y-11777150D02*
X18812920Y-11786674D01*
X18889111Y-11986674D02*
X18898635Y-11977150D01*
X18898635Y-11977150D02*
X18917682Y-11948579D01*
X18917682Y-11948579D02*
X18927206Y-11929531D01*
X18927206Y-11929531D02*
X18936730Y-11900960D01*
X18936730Y-11900960D02*
X18946254Y-11853341D01*
X18946254Y-11853341D02*
X18946254Y-11815246D01*
X18946254Y-11815246D02*
X18936730Y-11767627D01*
X18936730Y-11767627D02*
X18927206Y-11739055D01*
X18927206Y-11739055D02*
X18917682Y-11720008D01*
X18917682Y-11720008D02*
X18898635Y-11691436D01*
X18898635Y-11691436D02*
X18889111Y-11681912D01*
D10*
X12457500Y-12045500D02*
X12457500Y-12120500D01*
X12420000Y-12083000D02*
X12495000Y-12083000D01*
D11*
X12793872Y-11974484D02*
X12812920Y-11974484D01*
X12812920Y-11974484D02*
X12831967Y-11984008D01*
X12831967Y-11984008D02*
X12841491Y-11993531D01*
X12841491Y-11993531D02*
X12851015Y-12012579D01*
X12851015Y-12012579D02*
X12860539Y-12050674D01*
X12860539Y-12050674D02*
X12860539Y-12098293D01*
X12860539Y-12098293D02*
X12851015Y-12136388D01*
X12851015Y-12136388D02*
X12841491Y-12155436D01*
X12841491Y-12155436D02*
X12831967Y-12164960D01*
X12831967Y-12164960D02*
X12812920Y-12174484D01*
X12812920Y-12174484D02*
X12793872Y-12174484D01*
X12793872Y-12174484D02*
X12774824Y-12164960D01*
X12774824Y-12164960D02*
X12765301Y-12155436D01*
X12765301Y-12155436D02*
X12755777Y-12136388D01*
X12755777Y-12136388D02*
X12746253Y-12098293D01*
X12746253Y-12098293D02*
X12746253Y-12050674D01*
X12746253Y-12050674D02*
X12755777Y-12012579D01*
X12755777Y-12012579D02*
X12765301Y-11993531D01*
X12765301Y-11993531D02*
X12774824Y-11984008D01*
X12774824Y-11984008D02*
X12793872Y-11974484D01*
X12946253Y-12155436D02*
X12955777Y-12164960D01*
X12955777Y-12164960D02*
X12946253Y-12174484D01*
X12946253Y-12174484D02*
X12936729Y-12164960D01*
X12936729Y-12164960D02*
X12946253Y-12155436D01*
X12946253Y-12155436D02*
X12946253Y-12174484D01*
X13022443Y-11974484D02*
X13155777Y-11974484D01*
X13155777Y-11974484D02*
X13070062Y-12174484D01*
X13327205Y-11974484D02*
X13231967Y-11974484D01*
X13231967Y-11974484D02*
X13222443Y-12069722D01*
X13222443Y-12069722D02*
X13231967Y-12060198D01*
X13231967Y-12060198D02*
X13251015Y-12050674D01*
X13251015Y-12050674D02*
X13298634Y-12050674D01*
X13298634Y-12050674D02*
X13317682Y-12060198D01*
X13317682Y-12060198D02*
X13327205Y-12069722D01*
X13327205Y-12069722D02*
X13336729Y-12088769D01*
X13336729Y-12088769D02*
X13336729Y-12136388D01*
X13336729Y-12136388D02*
X13327205Y-12155436D01*
X13327205Y-12155436D02*
X13317682Y-12164960D01*
X13317682Y-12164960D02*
X13298634Y-12174484D01*
X13298634Y-12174484D02*
X13251015Y-12174484D01*
X13251015Y-12174484D02*
X13231967Y-12164960D01*
X13231967Y-12164960D02*
X13222443Y-12155436D01*
X13460539Y-11974484D02*
X13479586Y-11974484D01*
X13479586Y-11974484D02*
X13498634Y-11984008D01*
X13498634Y-11984008D02*
X13508158Y-11993531D01*
X13508158Y-11993531D02*
X13517682Y-12012579D01*
X13517682Y-12012579D02*
X13527205Y-12050674D01*
X13527205Y-12050674D02*
X13527205Y-12098293D01*
X13527205Y-12098293D02*
X13517682Y-12136388D01*
X13517682Y-12136388D02*
X13508158Y-12155436D01*
X13508158Y-12155436D02*
X13498634Y-12164960D01*
X13498634Y-12164960D02*
X13479586Y-12174484D01*
X13479586Y-12174484D02*
X13460539Y-12174484D01*
X13460539Y-12174484D02*
X13441491Y-12164960D01*
X13441491Y-12164960D02*
X13431967Y-12155436D01*
X13431967Y-12155436D02*
X13422443Y-12136388D01*
X13422443Y-12136388D02*
X13412920Y-12098293D01*
X13412920Y-12098293D02*
X13412920Y-12050674D01*
X13412920Y-12050674D02*
X13422443Y-12012579D01*
X13422443Y-12012579D02*
X13431967Y-11993531D01*
X13431967Y-11993531D02*
X13441491Y-11984008D01*
X13441491Y-11984008D02*
X13460539Y-11974484D01*
X13612920Y-12174484D02*
X13612920Y-12041150D01*
X13612920Y-12060198D02*
X13622443Y-12050674D01*
X13622443Y-12050674D02*
X13641491Y-12041150D01*
X13641491Y-12041150D02*
X13670063Y-12041150D01*
X13670063Y-12041150D02*
X13689110Y-12050674D01*
X13689110Y-12050674D02*
X13698634Y-12069722D01*
X13698634Y-12069722D02*
X13698634Y-12174484D01*
X13698634Y-12069722D02*
X13708158Y-12050674D01*
X13708158Y-12050674D02*
X13727205Y-12041150D01*
X13727205Y-12041150D02*
X13755777Y-12041150D01*
X13755777Y-12041150D02*
X13774824Y-12050674D01*
X13774824Y-12050674D02*
X13784348Y-12069722D01*
X13784348Y-12069722D02*
X13784348Y-12174484D01*
X13879586Y-12174484D02*
X13879586Y-12041150D01*
X13879586Y-12060198D02*
X13889110Y-12050674D01*
X13889110Y-12050674D02*
X13908158Y-12041150D01*
X13908158Y-12041150D02*
X13936729Y-12041150D01*
X13936729Y-12041150D02*
X13955777Y-12050674D01*
X13955777Y-12050674D02*
X13965301Y-12069722D01*
X13965301Y-12069722D02*
X13965301Y-12174484D01*
X13965301Y-12069722D02*
X13974824Y-12050674D01*
X13974824Y-12050674D02*
X13993872Y-12041150D01*
X13993872Y-12041150D02*
X14022443Y-12041150D01*
X14022443Y-12041150D02*
X14041491Y-12050674D01*
X14041491Y-12050674D02*
X14051015Y-12069722D01*
X14051015Y-12069722D02*
X14051015Y-12174484D01*
X14441491Y-11964960D02*
X14270063Y-12222103D01*
X14698634Y-11974484D02*
X14717682Y-11974484D01*
X14717682Y-11974484D02*
X14736729Y-11984008D01*
X14736729Y-11984008D02*
X14746253Y-11993531D01*
X14746253Y-11993531D02*
X14755777Y-12012579D01*
X14755777Y-12012579D02*
X14765301Y-12050674D01*
X14765301Y-12050674D02*
X14765301Y-12098293D01*
X14765301Y-12098293D02*
X14755777Y-12136388D01*
X14755777Y-12136388D02*
X14746253Y-12155436D01*
X14746253Y-12155436D02*
X14736729Y-12164960D01*
X14736729Y-12164960D02*
X14717682Y-12174484D01*
X14717682Y-12174484D02*
X14698634Y-12174484D01*
X14698634Y-12174484D02*
X14679586Y-12164960D01*
X14679586Y-12164960D02*
X14670063Y-12155436D01*
X14670063Y-12155436D02*
X14660539Y-12136388D01*
X14660539Y-12136388D02*
X14651015Y-12098293D01*
X14651015Y-12098293D02*
X14651015Y-12050674D01*
X14651015Y-12050674D02*
X14660539Y-12012579D01*
X14660539Y-12012579D02*
X14670063Y-11993531D01*
X14670063Y-11993531D02*
X14679586Y-11984008D01*
X14679586Y-11984008D02*
X14698634Y-11974484D01*
X14851015Y-12155436D02*
X14860539Y-12164960D01*
X14860539Y-12164960D02*
X14851015Y-12174484D01*
X14851015Y-12174484D02*
X14841491Y-12164960D01*
X14841491Y-12164960D02*
X14851015Y-12155436D01*
X14851015Y-12155436D02*
X14851015Y-12174484D01*
X14984348Y-11974484D02*
X15003396Y-11974484D01*
X15003396Y-11974484D02*
X15022444Y-11984008D01*
X15022444Y-11984008D02*
X15031967Y-11993531D01*
X15031967Y-11993531D02*
X15041491Y-12012579D01*
X15041491Y-12012579D02*
X15051015Y-12050674D01*
X15051015Y-12050674D02*
X15051015Y-12098293D01*
X15051015Y-12098293D02*
X15041491Y-12136388D01*
X15041491Y-12136388D02*
X15031967Y-12155436D01*
X15031967Y-12155436D02*
X15022444Y-12164960D01*
X15022444Y-12164960D02*
X15003396Y-12174484D01*
X15003396Y-12174484D02*
X14984348Y-12174484D01*
X14984348Y-12174484D02*
X14965301Y-12164960D01*
X14965301Y-12164960D02*
X14955777Y-12155436D01*
X14955777Y-12155436D02*
X14946253Y-12136388D01*
X14946253Y-12136388D02*
X14936729Y-12098293D01*
X14936729Y-12098293D02*
X14936729Y-12050674D01*
X14936729Y-12050674D02*
X14946253Y-12012579D01*
X14946253Y-12012579D02*
X14955777Y-11993531D01*
X14955777Y-11993531D02*
X14965301Y-11984008D01*
X14965301Y-11984008D02*
X14984348Y-11974484D01*
X15127206Y-11993531D02*
X15136729Y-11984008D01*
X15136729Y-11984008D02*
X15155777Y-11974484D01*
X15155777Y-11974484D02*
X15203396Y-11974484D01*
X15203396Y-11974484D02*
X15222444Y-11984008D01*
X15222444Y-11984008D02*
X15231967Y-11993531D01*
X15231967Y-11993531D02*
X15241491Y-12012579D01*
X15241491Y-12012579D02*
X15241491Y-12031627D01*
X15241491Y-12031627D02*
X15231967Y-12060198D01*
X15231967Y-12060198D02*
X15117682Y-12174484D01*
X15117682Y-12174484D02*
X15241491Y-12174484D01*
X15336729Y-12174484D02*
X15374825Y-12174484D01*
X15374825Y-12174484D02*
X15393872Y-12164960D01*
X15393872Y-12164960D02*
X15403396Y-12155436D01*
X15403396Y-12155436D02*
X15422444Y-12126865D01*
X15422444Y-12126865D02*
X15431967Y-12088769D01*
X15431967Y-12088769D02*
X15431967Y-12012579D01*
X15431967Y-12012579D02*
X15422444Y-11993531D01*
X15422444Y-11993531D02*
X15412920Y-11984008D01*
X15412920Y-11984008D02*
X15393872Y-11974484D01*
X15393872Y-11974484D02*
X15355777Y-11974484D01*
X15355777Y-11974484D02*
X15336729Y-11984008D01*
X15336729Y-11984008D02*
X15327206Y-11993531D01*
X15327206Y-11993531D02*
X15317682Y-12012579D01*
X15317682Y-12012579D02*
X15317682Y-12060198D01*
X15317682Y-12060198D02*
X15327206Y-12079246D01*
X15327206Y-12079246D02*
X15336729Y-12088769D01*
X15336729Y-12088769D02*
X15355777Y-12098293D01*
X15355777Y-12098293D02*
X15393872Y-12098293D01*
X15393872Y-12098293D02*
X15412920Y-12088769D01*
X15412920Y-12088769D02*
X15422444Y-12079246D01*
X15422444Y-12079246D02*
X15431967Y-12060198D01*
X15612920Y-11974484D02*
X15517682Y-11974484D01*
X15517682Y-11974484D02*
X15508158Y-12069722D01*
X15508158Y-12069722D02*
X15517682Y-12060198D01*
X15517682Y-12060198D02*
X15536729Y-12050674D01*
X15536729Y-12050674D02*
X15584348Y-12050674D01*
X15584348Y-12050674D02*
X15603396Y-12060198D01*
X15603396Y-12060198D02*
X15612920Y-12069722D01*
X15612920Y-12069722D02*
X15622444Y-12088769D01*
X15622444Y-12088769D02*
X15622444Y-12136388D01*
X15622444Y-12136388D02*
X15612920Y-12155436D01*
X15612920Y-12155436D02*
X15603396Y-12164960D01*
X15603396Y-12164960D02*
X15584348Y-12174484D01*
X15584348Y-12174484D02*
X15536729Y-12174484D01*
X15536729Y-12174484D02*
X15517682Y-12164960D01*
X15517682Y-12164960D02*
X15508158Y-12155436D01*
X15698634Y-11974484D02*
X15698634Y-12012579D01*
X15774825Y-11974484D02*
X15774825Y-12012579D01*
X16070063Y-12250674D02*
X16060539Y-12241150D01*
X16060539Y-12241150D02*
X16041491Y-12212579D01*
X16041491Y-12212579D02*
X16031968Y-12193531D01*
X16031968Y-12193531D02*
X16022444Y-12164960D01*
X16022444Y-12164960D02*
X16012920Y-12117341D01*
X16012920Y-12117341D02*
X16012920Y-12079246D01*
X16012920Y-12079246D02*
X16022444Y-12031627D01*
X16022444Y-12031627D02*
X16031968Y-12003055D01*
X16031968Y-12003055D02*
X16041491Y-11984008D01*
X16041491Y-11984008D02*
X16060539Y-11955436D01*
X16060539Y-11955436D02*
X16070063Y-11945912D01*
X16231968Y-12041150D02*
X16231968Y-12174484D01*
X16184348Y-11964960D02*
X16136729Y-12107817D01*
X16136729Y-12107817D02*
X16260539Y-12107817D01*
X16489110Y-12174484D02*
X16489110Y-11974484D01*
X16574825Y-12174484D02*
X16574825Y-12069722D01*
X16574825Y-12069722D02*
X16565301Y-12050674D01*
X16565301Y-12050674D02*
X16546253Y-12041150D01*
X16546253Y-12041150D02*
X16517682Y-12041150D01*
X16517682Y-12041150D02*
X16498634Y-12050674D01*
X16498634Y-12050674D02*
X16489110Y-12060198D01*
X16698634Y-12174484D02*
X16679587Y-12164960D01*
X16679587Y-12164960D02*
X16670063Y-12155436D01*
X16670063Y-12155436D02*
X16660539Y-12136388D01*
X16660539Y-12136388D02*
X16660539Y-12079246D01*
X16660539Y-12079246D02*
X16670063Y-12060198D01*
X16670063Y-12060198D02*
X16679587Y-12050674D01*
X16679587Y-12050674D02*
X16698634Y-12041150D01*
X16698634Y-12041150D02*
X16727206Y-12041150D01*
X16727206Y-12041150D02*
X16746253Y-12050674D01*
X16746253Y-12050674D02*
X16755777Y-12060198D01*
X16755777Y-12060198D02*
X16765301Y-12079246D01*
X16765301Y-12079246D02*
X16765301Y-12136388D01*
X16765301Y-12136388D02*
X16755777Y-12155436D01*
X16755777Y-12155436D02*
X16746253Y-12164960D01*
X16746253Y-12164960D02*
X16727206Y-12174484D01*
X16727206Y-12174484D02*
X16698634Y-12174484D01*
X16879587Y-12174484D02*
X16860539Y-12164960D01*
X16860539Y-12164960D02*
X16851015Y-12145912D01*
X16851015Y-12145912D02*
X16851015Y-11974484D01*
X17031968Y-12164960D02*
X17012920Y-12174484D01*
X17012920Y-12174484D02*
X16974825Y-12174484D01*
X16974825Y-12174484D02*
X16955777Y-12164960D01*
X16955777Y-12164960D02*
X16946253Y-12145912D01*
X16946253Y-12145912D02*
X16946253Y-12069722D01*
X16946253Y-12069722D02*
X16955777Y-12050674D01*
X16955777Y-12050674D02*
X16974825Y-12041150D01*
X16974825Y-12041150D02*
X17012920Y-12041150D01*
X17012920Y-12041150D02*
X17031968Y-12050674D01*
X17031968Y-12050674D02*
X17041492Y-12069722D01*
X17041492Y-12069722D02*
X17041492Y-12088769D01*
X17041492Y-12088769D02*
X16946253Y-12107817D01*
X17117682Y-12164960D02*
X17136730Y-12174484D01*
X17136730Y-12174484D02*
X17174825Y-12174484D01*
X17174825Y-12174484D02*
X17193873Y-12164960D01*
X17193873Y-12164960D02*
X17203396Y-12145912D01*
X17203396Y-12145912D02*
X17203396Y-12136388D01*
X17203396Y-12136388D02*
X17193873Y-12117341D01*
X17193873Y-12117341D02*
X17174825Y-12107817D01*
X17174825Y-12107817D02*
X17146253Y-12107817D01*
X17146253Y-12107817D02*
X17127206Y-12098293D01*
X17127206Y-12098293D02*
X17117682Y-12079246D01*
X17117682Y-12079246D02*
X17117682Y-12069722D01*
X17117682Y-12069722D02*
X17127206Y-12050674D01*
X17127206Y-12050674D02*
X17146253Y-12041150D01*
X17146253Y-12041150D02*
X17174825Y-12041150D01*
X17174825Y-12041150D02*
X17193873Y-12050674D01*
X17270063Y-12250674D02*
X17279587Y-12241150D01*
X17279587Y-12241150D02*
X17298634Y-12212579D01*
X17298634Y-12212579D02*
X17308158Y-12193531D01*
X17308158Y-12193531D02*
X17317682Y-12164960D01*
X17317682Y-12164960D02*
X17327206Y-12117341D01*
X17327206Y-12117341D02*
X17327206Y-12079246D01*
X17327206Y-12079246D02*
X17317682Y-12031627D01*
X17317682Y-12031627D02*
X17308158Y-12003055D01*
X17308158Y-12003055D02*
X17298634Y-11984008D01*
X17298634Y-11984008D02*
X17279587Y-11955436D01*
X17279587Y-11955436D02*
X17270063Y-11945912D01*
D10*
X12483841Y-12373941D02*
X12483841Y-12320059D01*
X12429959Y-12320059D01*
X12429959Y-12373941D01*
X12483841Y-12373941D01*
D11*
X12793872Y-12238484D02*
X12812920Y-12238484D01*
X12812920Y-12238484D02*
X12831967Y-12248008D01*
X12831967Y-12248008D02*
X12841491Y-12257531D01*
X12841491Y-12257531D02*
X12851015Y-12276579D01*
X12851015Y-12276579D02*
X12860539Y-12314674D01*
X12860539Y-12314674D02*
X12860539Y-12362293D01*
X12860539Y-12362293D02*
X12851015Y-12400388D01*
X12851015Y-12400388D02*
X12841491Y-12419436D01*
X12841491Y-12419436D02*
X12831967Y-12428960D01*
X12831967Y-12428960D02*
X12812920Y-12438484D01*
X12812920Y-12438484D02*
X12793872Y-12438484D01*
X12793872Y-12438484D02*
X12774824Y-12428960D01*
X12774824Y-12428960D02*
X12765301Y-12419436D01*
X12765301Y-12419436D02*
X12755777Y-12400388D01*
X12755777Y-12400388D02*
X12746253Y-12362293D01*
X12746253Y-12362293D02*
X12746253Y-12314674D01*
X12746253Y-12314674D02*
X12755777Y-12276579D01*
X12755777Y-12276579D02*
X12765301Y-12257531D01*
X12765301Y-12257531D02*
X12774824Y-12248008D01*
X12774824Y-12248008D02*
X12793872Y-12238484D01*
X12946253Y-12419436D02*
X12955777Y-12428960D01*
X12955777Y-12428960D02*
X12946253Y-12438484D01*
X12946253Y-12438484D02*
X12936729Y-12428960D01*
X12936729Y-12428960D02*
X12946253Y-12419436D01*
X12946253Y-12419436D02*
X12946253Y-12438484D01*
X13022443Y-12238484D02*
X13155777Y-12238484D01*
X13155777Y-12238484D02*
X13070062Y-12438484D01*
X13317682Y-12238484D02*
X13279586Y-12238484D01*
X13279586Y-12238484D02*
X13260539Y-12248008D01*
X13260539Y-12248008D02*
X13251015Y-12257531D01*
X13251015Y-12257531D02*
X13231967Y-12286103D01*
X13231967Y-12286103D02*
X13222443Y-12324198D01*
X13222443Y-12324198D02*
X13222443Y-12400388D01*
X13222443Y-12400388D02*
X13231967Y-12419436D01*
X13231967Y-12419436D02*
X13241491Y-12428960D01*
X13241491Y-12428960D02*
X13260539Y-12438484D01*
X13260539Y-12438484D02*
X13298634Y-12438484D01*
X13298634Y-12438484D02*
X13317682Y-12428960D01*
X13317682Y-12428960D02*
X13327205Y-12419436D01*
X13327205Y-12419436D02*
X13336729Y-12400388D01*
X13336729Y-12400388D02*
X13336729Y-12352769D01*
X13336729Y-12352769D02*
X13327205Y-12333722D01*
X13327205Y-12333722D02*
X13317682Y-12324198D01*
X13317682Y-12324198D02*
X13298634Y-12314674D01*
X13298634Y-12314674D02*
X13260539Y-12314674D01*
X13260539Y-12314674D02*
X13241491Y-12324198D01*
X13241491Y-12324198D02*
X13231967Y-12333722D01*
X13231967Y-12333722D02*
X13222443Y-12352769D01*
X13412920Y-12257531D02*
X13422443Y-12248008D01*
X13422443Y-12248008D02*
X13441491Y-12238484D01*
X13441491Y-12238484D02*
X13489110Y-12238484D01*
X13489110Y-12238484D02*
X13508158Y-12248008D01*
X13508158Y-12248008D02*
X13517682Y-12257531D01*
X13517682Y-12257531D02*
X13527205Y-12276579D01*
X13527205Y-12276579D02*
X13527205Y-12295627D01*
X13527205Y-12295627D02*
X13517682Y-12324198D01*
X13517682Y-12324198D02*
X13403396Y-12438484D01*
X13403396Y-12438484D02*
X13527205Y-12438484D01*
X13612920Y-12438484D02*
X13612920Y-12305150D01*
X13612920Y-12324198D02*
X13622443Y-12314674D01*
X13622443Y-12314674D02*
X13641491Y-12305150D01*
X13641491Y-12305150D02*
X13670063Y-12305150D01*
X13670063Y-12305150D02*
X13689110Y-12314674D01*
X13689110Y-12314674D02*
X13698634Y-12333722D01*
X13698634Y-12333722D02*
X13698634Y-12438484D01*
X13698634Y-12333722D02*
X13708158Y-12314674D01*
X13708158Y-12314674D02*
X13727205Y-12305150D01*
X13727205Y-12305150D02*
X13755777Y-12305150D01*
X13755777Y-12305150D02*
X13774824Y-12314674D01*
X13774824Y-12314674D02*
X13784348Y-12333722D01*
X13784348Y-12333722D02*
X13784348Y-12438484D01*
X13879586Y-12438484D02*
X13879586Y-12305150D01*
X13879586Y-12324198D02*
X13889110Y-12314674D01*
X13889110Y-12314674D02*
X13908158Y-12305150D01*
X13908158Y-12305150D02*
X13936729Y-12305150D01*
X13936729Y-12305150D02*
X13955777Y-12314674D01*
X13955777Y-12314674D02*
X13965301Y-12333722D01*
X13965301Y-12333722D02*
X13965301Y-12438484D01*
X13965301Y-12333722D02*
X13974824Y-12314674D01*
X13974824Y-12314674D02*
X13993872Y-12305150D01*
X13993872Y-12305150D02*
X14022443Y-12305150D01*
X14022443Y-12305150D02*
X14041491Y-12314674D01*
X14041491Y-12314674D02*
X14051015Y-12333722D01*
X14051015Y-12333722D02*
X14051015Y-12438484D01*
X14441491Y-12228960D02*
X14270063Y-12486103D01*
X14698634Y-12238484D02*
X14717682Y-12238484D01*
X14717682Y-12238484D02*
X14736729Y-12248008D01*
X14736729Y-12248008D02*
X14746253Y-12257531D01*
X14746253Y-12257531D02*
X14755777Y-12276579D01*
X14755777Y-12276579D02*
X14765301Y-12314674D01*
X14765301Y-12314674D02*
X14765301Y-12362293D01*
X14765301Y-12362293D02*
X14755777Y-12400388D01*
X14755777Y-12400388D02*
X14746253Y-12419436D01*
X14746253Y-12419436D02*
X14736729Y-12428960D01*
X14736729Y-12428960D02*
X14717682Y-12438484D01*
X14717682Y-12438484D02*
X14698634Y-12438484D01*
X14698634Y-12438484D02*
X14679586Y-12428960D01*
X14679586Y-12428960D02*
X14670063Y-12419436D01*
X14670063Y-12419436D02*
X14660539Y-12400388D01*
X14660539Y-12400388D02*
X14651015Y-12362293D01*
X14651015Y-12362293D02*
X14651015Y-12314674D01*
X14651015Y-12314674D02*
X14660539Y-12276579D01*
X14660539Y-12276579D02*
X14670063Y-12257531D01*
X14670063Y-12257531D02*
X14679586Y-12248008D01*
X14679586Y-12248008D02*
X14698634Y-12238484D01*
X14851015Y-12419436D02*
X14860539Y-12428960D01*
X14860539Y-12428960D02*
X14851015Y-12438484D01*
X14851015Y-12438484D02*
X14841491Y-12428960D01*
X14841491Y-12428960D02*
X14851015Y-12419436D01*
X14851015Y-12419436D02*
X14851015Y-12438484D01*
X14984348Y-12238484D02*
X15003396Y-12238484D01*
X15003396Y-12238484D02*
X15022444Y-12248008D01*
X15022444Y-12248008D02*
X15031967Y-12257531D01*
X15031967Y-12257531D02*
X15041491Y-12276579D01*
X15041491Y-12276579D02*
X15051015Y-12314674D01*
X15051015Y-12314674D02*
X15051015Y-12362293D01*
X15051015Y-12362293D02*
X15041491Y-12400388D01*
X15041491Y-12400388D02*
X15031967Y-12419436D01*
X15031967Y-12419436D02*
X15022444Y-12428960D01*
X15022444Y-12428960D02*
X15003396Y-12438484D01*
X15003396Y-12438484D02*
X14984348Y-12438484D01*
X14984348Y-12438484D02*
X14965301Y-12428960D01*
X14965301Y-12428960D02*
X14955777Y-12419436D01*
X14955777Y-12419436D02*
X14946253Y-12400388D01*
X14946253Y-12400388D02*
X14936729Y-12362293D01*
X14936729Y-12362293D02*
X14936729Y-12314674D01*
X14936729Y-12314674D02*
X14946253Y-12276579D01*
X14946253Y-12276579D02*
X14955777Y-12257531D01*
X14955777Y-12257531D02*
X14965301Y-12248008D01*
X14965301Y-12248008D02*
X14984348Y-12238484D01*
X15117682Y-12238484D02*
X15241491Y-12238484D01*
X15241491Y-12238484D02*
X15174825Y-12314674D01*
X15174825Y-12314674D02*
X15203396Y-12314674D01*
X15203396Y-12314674D02*
X15222444Y-12324198D01*
X15222444Y-12324198D02*
X15231967Y-12333722D01*
X15231967Y-12333722D02*
X15241491Y-12352769D01*
X15241491Y-12352769D02*
X15241491Y-12400388D01*
X15241491Y-12400388D02*
X15231967Y-12419436D01*
X15231967Y-12419436D02*
X15222444Y-12428960D01*
X15222444Y-12428960D02*
X15203396Y-12438484D01*
X15203396Y-12438484D02*
X15146253Y-12438484D01*
X15146253Y-12438484D02*
X15127206Y-12428960D01*
X15127206Y-12428960D02*
X15117682Y-12419436D01*
X15365301Y-12238484D02*
X15384348Y-12238484D01*
X15384348Y-12238484D02*
X15403396Y-12248008D01*
X15403396Y-12248008D02*
X15412920Y-12257531D01*
X15412920Y-12257531D02*
X15422444Y-12276579D01*
X15422444Y-12276579D02*
X15431967Y-12314674D01*
X15431967Y-12314674D02*
X15431967Y-12362293D01*
X15431967Y-12362293D02*
X15422444Y-12400388D01*
X15422444Y-12400388D02*
X15412920Y-12419436D01*
X15412920Y-12419436D02*
X15403396Y-12428960D01*
X15403396Y-12428960D02*
X15384348Y-12438484D01*
X15384348Y-12438484D02*
X15365301Y-12438484D01*
X15365301Y-12438484D02*
X15346253Y-12428960D01*
X15346253Y-12428960D02*
X15336729Y-12419436D01*
X15336729Y-12419436D02*
X15327206Y-12400388D01*
X15327206Y-12400388D02*
X15317682Y-12362293D01*
X15317682Y-12362293D02*
X15317682Y-12314674D01*
X15317682Y-12314674D02*
X15327206Y-12276579D01*
X15327206Y-12276579D02*
X15336729Y-12257531D01*
X15336729Y-12257531D02*
X15346253Y-12248008D01*
X15346253Y-12248008D02*
X15365301Y-12238484D01*
X15555777Y-12238484D02*
X15574825Y-12238484D01*
X15574825Y-12238484D02*
X15593872Y-12248008D01*
X15593872Y-12248008D02*
X15603396Y-12257531D01*
X15603396Y-12257531D02*
X15612920Y-12276579D01*
X15612920Y-12276579D02*
X15622444Y-12314674D01*
X15622444Y-12314674D02*
X15622444Y-12362293D01*
X15622444Y-12362293D02*
X15612920Y-12400388D01*
X15612920Y-12400388D02*
X15603396Y-12419436D01*
X15603396Y-12419436D02*
X15593872Y-12428960D01*
X15593872Y-12428960D02*
X15574825Y-12438484D01*
X15574825Y-12438484D02*
X15555777Y-12438484D01*
X15555777Y-12438484D02*
X15536729Y-12428960D01*
X15536729Y-12428960D02*
X15527206Y-12419436D01*
X15527206Y-12419436D02*
X15517682Y-12400388D01*
X15517682Y-12400388D02*
X15508158Y-12362293D01*
X15508158Y-12362293D02*
X15508158Y-12314674D01*
X15508158Y-12314674D02*
X15517682Y-12276579D01*
X15517682Y-12276579D02*
X15527206Y-12257531D01*
X15527206Y-12257531D02*
X15536729Y-12248008D01*
X15536729Y-12248008D02*
X15555777Y-12238484D01*
X15698634Y-12238484D02*
X15698634Y-12276579D01*
X15774825Y-12238484D02*
X15774825Y-12276579D01*
X16070063Y-12514674D02*
X16060539Y-12505150D01*
X16060539Y-12505150D02*
X16041491Y-12476579D01*
X16041491Y-12476579D02*
X16031968Y-12457531D01*
X16031968Y-12457531D02*
X16022444Y-12428960D01*
X16022444Y-12428960D02*
X16012920Y-12381341D01*
X16012920Y-12381341D02*
X16012920Y-12343246D01*
X16012920Y-12343246D02*
X16022444Y-12295627D01*
X16022444Y-12295627D02*
X16031968Y-12267055D01*
X16031968Y-12267055D02*
X16041491Y-12248008D01*
X16041491Y-12248008D02*
X16060539Y-12219436D01*
X16060539Y-12219436D02*
X16070063Y-12209912D01*
X16184348Y-12238484D02*
X16203396Y-12238484D01*
X16203396Y-12238484D02*
X16222444Y-12248008D01*
X16222444Y-12248008D02*
X16231968Y-12257531D01*
X16231968Y-12257531D02*
X16241491Y-12276579D01*
X16241491Y-12276579D02*
X16251015Y-12314674D01*
X16251015Y-12314674D02*
X16251015Y-12362293D01*
X16251015Y-12362293D02*
X16241491Y-12400388D01*
X16241491Y-12400388D02*
X16231968Y-12419436D01*
X16231968Y-12419436D02*
X16222444Y-12428960D01*
X16222444Y-12428960D02*
X16203396Y-12438484D01*
X16203396Y-12438484D02*
X16184348Y-12438484D01*
X16184348Y-12438484D02*
X16165301Y-12428960D01*
X16165301Y-12428960D02*
X16155777Y-12419436D01*
X16155777Y-12419436D02*
X16146253Y-12400388D01*
X16146253Y-12400388D02*
X16136729Y-12362293D01*
X16136729Y-12362293D02*
X16136729Y-12314674D01*
X16136729Y-12314674D02*
X16146253Y-12276579D01*
X16146253Y-12276579D02*
X16155777Y-12257531D01*
X16155777Y-12257531D02*
X16165301Y-12248008D01*
X16165301Y-12248008D02*
X16184348Y-12238484D01*
X16489110Y-12438484D02*
X16489110Y-12238484D01*
X16574825Y-12438484D02*
X16574825Y-12333722D01*
X16574825Y-12333722D02*
X16565301Y-12314674D01*
X16565301Y-12314674D02*
X16546253Y-12305150D01*
X16546253Y-12305150D02*
X16517682Y-12305150D01*
X16517682Y-12305150D02*
X16498634Y-12314674D01*
X16498634Y-12314674D02*
X16489110Y-12324198D01*
X16698634Y-12438484D02*
X16679587Y-12428960D01*
X16679587Y-12428960D02*
X16670063Y-12419436D01*
X16670063Y-12419436D02*
X16660539Y-12400388D01*
X16660539Y-12400388D02*
X16660539Y-12343246D01*
X16660539Y-12343246D02*
X16670063Y-12324198D01*
X16670063Y-12324198D02*
X16679587Y-12314674D01*
X16679587Y-12314674D02*
X16698634Y-12305150D01*
X16698634Y-12305150D02*
X16727206Y-12305150D01*
X16727206Y-12305150D02*
X16746253Y-12314674D01*
X16746253Y-12314674D02*
X16755777Y-12324198D01*
X16755777Y-12324198D02*
X16765301Y-12343246D01*
X16765301Y-12343246D02*
X16765301Y-12400388D01*
X16765301Y-12400388D02*
X16755777Y-12419436D01*
X16755777Y-12419436D02*
X16746253Y-12428960D01*
X16746253Y-12428960D02*
X16727206Y-12438484D01*
X16727206Y-12438484D02*
X16698634Y-12438484D01*
X16879587Y-12438484D02*
X16860539Y-12428960D01*
X16860539Y-12428960D02*
X16851015Y-12409912D01*
X16851015Y-12409912D02*
X16851015Y-12238484D01*
X17031968Y-12428960D02*
X17012920Y-12438484D01*
X17012920Y-12438484D02*
X16974825Y-12438484D01*
X16974825Y-12438484D02*
X16955777Y-12428960D01*
X16955777Y-12428960D02*
X16946253Y-12409912D01*
X16946253Y-12409912D02*
X16946253Y-12333722D01*
X16946253Y-12333722D02*
X16955777Y-12314674D01*
X16955777Y-12314674D02*
X16974825Y-12305150D01*
X16974825Y-12305150D02*
X17012920Y-12305150D01*
X17012920Y-12305150D02*
X17031968Y-12314674D01*
X17031968Y-12314674D02*
X17041492Y-12333722D01*
X17041492Y-12333722D02*
X17041492Y-12352769D01*
X17041492Y-12352769D02*
X16946253Y-12371817D01*
X17117682Y-12428960D02*
X17136730Y-12438484D01*
X17136730Y-12438484D02*
X17174825Y-12438484D01*
X17174825Y-12438484D02*
X17193873Y-12428960D01*
X17193873Y-12428960D02*
X17203396Y-12409912D01*
X17203396Y-12409912D02*
X17203396Y-12400388D01*
X17203396Y-12400388D02*
X17193873Y-12381341D01*
X17193873Y-12381341D02*
X17174825Y-12371817D01*
X17174825Y-12371817D02*
X17146253Y-12371817D01*
X17146253Y-12371817D02*
X17127206Y-12362293D01*
X17127206Y-12362293D02*
X17117682Y-12343246D01*
X17117682Y-12343246D02*
X17117682Y-12333722D01*
X17117682Y-12333722D02*
X17127206Y-12314674D01*
X17127206Y-12314674D02*
X17146253Y-12305150D01*
X17146253Y-12305150D02*
X17174825Y-12305150D01*
X17174825Y-12305150D02*
X17193873Y-12314674D01*
X17441492Y-12362293D02*
X17593873Y-12362293D01*
X17517682Y-12438484D02*
X17517682Y-12286103D01*
X17831968Y-12257531D02*
X17841492Y-12248008D01*
X17841492Y-12248008D02*
X17860539Y-12238484D01*
X17860539Y-12238484D02*
X17908158Y-12238484D01*
X17908158Y-12238484D02*
X17927206Y-12248008D01*
X17927206Y-12248008D02*
X17936730Y-12257531D01*
X17936730Y-12257531D02*
X17946254Y-12276579D01*
X17946254Y-12276579D02*
X17946254Y-12295627D01*
X17946254Y-12295627D02*
X17936730Y-12324198D01*
X17936730Y-12324198D02*
X17822444Y-12438484D01*
X17822444Y-12438484D02*
X17946254Y-12438484D01*
X18174825Y-12428960D02*
X18193873Y-12438484D01*
X18193873Y-12438484D02*
X18231968Y-12438484D01*
X18231968Y-12438484D02*
X18251016Y-12428960D01*
X18251016Y-12428960D02*
X18260539Y-12409912D01*
X18260539Y-12409912D02*
X18260539Y-12400388D01*
X18260539Y-12400388D02*
X18251016Y-12381341D01*
X18251016Y-12381341D02*
X18231968Y-12371817D01*
X18231968Y-12371817D02*
X18203396Y-12371817D01*
X18203396Y-12371817D02*
X18184349Y-12362293D01*
X18184349Y-12362293D02*
X18174825Y-12343246D01*
X18174825Y-12343246D02*
X18174825Y-12333722D01*
X18174825Y-12333722D02*
X18184349Y-12314674D01*
X18184349Y-12314674D02*
X18203396Y-12305150D01*
X18203396Y-12305150D02*
X18231968Y-12305150D01*
X18231968Y-12305150D02*
X18251016Y-12314674D01*
X18374825Y-12438484D02*
X18355777Y-12428960D01*
X18355777Y-12428960D02*
X18346254Y-12409912D01*
X18346254Y-12409912D02*
X18346254Y-12238484D01*
X18479587Y-12438484D02*
X18460539Y-12428960D01*
X18460539Y-12428960D02*
X18451016Y-12419436D01*
X18451016Y-12419436D02*
X18441492Y-12400388D01*
X18441492Y-12400388D02*
X18441492Y-12343246D01*
X18441492Y-12343246D02*
X18451016Y-12324198D01*
X18451016Y-12324198D02*
X18460539Y-12314674D01*
X18460539Y-12314674D02*
X18479587Y-12305150D01*
X18479587Y-12305150D02*
X18508158Y-12305150D01*
X18508158Y-12305150D02*
X18527206Y-12314674D01*
X18527206Y-12314674D02*
X18536730Y-12324198D01*
X18536730Y-12324198D02*
X18546254Y-12343246D01*
X18546254Y-12343246D02*
X18546254Y-12400388D01*
X18546254Y-12400388D02*
X18536730Y-12419436D01*
X18536730Y-12419436D02*
X18527206Y-12428960D01*
X18527206Y-12428960D02*
X18508158Y-12438484D01*
X18508158Y-12438484D02*
X18479587Y-12438484D01*
X18603397Y-12305150D02*
X18679587Y-12305150D01*
X18631968Y-12238484D02*
X18631968Y-12409912D01*
X18631968Y-12409912D02*
X18641492Y-12428960D01*
X18641492Y-12428960D02*
X18660539Y-12438484D01*
X18660539Y-12438484D02*
X18679587Y-12438484D01*
X18736730Y-12428960D02*
X18755777Y-12438484D01*
X18755777Y-12438484D02*
X18793873Y-12438484D01*
X18793873Y-12438484D02*
X18812920Y-12428960D01*
X18812920Y-12428960D02*
X18822444Y-12409912D01*
X18822444Y-12409912D02*
X18822444Y-12400388D01*
X18822444Y-12400388D02*
X18812920Y-12381341D01*
X18812920Y-12381341D02*
X18793873Y-12371817D01*
X18793873Y-12371817D02*
X18765301Y-12371817D01*
X18765301Y-12371817D02*
X18746254Y-12362293D01*
X18746254Y-12362293D02*
X18736730Y-12343246D01*
X18736730Y-12343246D02*
X18736730Y-12333722D01*
X18736730Y-12333722D02*
X18746254Y-12314674D01*
X18746254Y-12314674D02*
X18765301Y-12305150D01*
X18765301Y-12305150D02*
X18793873Y-12305150D01*
X18793873Y-12305150D02*
X18812920Y-12314674D01*
X18889111Y-12514674D02*
X18898635Y-12505150D01*
X18898635Y-12505150D02*
X18917682Y-12476579D01*
X18917682Y-12476579D02*
X18927206Y-12457531D01*
X18927206Y-12457531D02*
X18936730Y-12428960D01*
X18936730Y-12428960D02*
X18946254Y-12381341D01*
X18946254Y-12381341D02*
X18946254Y-12343246D01*
X18946254Y-12343246D02*
X18936730Y-12295627D01*
X18936730Y-12295627D02*
X18927206Y-12267055D01*
X18927206Y-12267055D02*
X18917682Y-12248008D01*
X18917682Y-12248008D02*
X18898635Y-12219436D01*
X18898635Y-12219436D02*
X18889111Y-12209912D01*
D12*
X12443999Y-12662001D02*
X12495000Y-12611000D01*
X12443999Y-12559999D01*
X12392999Y-12611000D01*
X12443999Y-12662001D01*
D11*
X12860539Y-12702484D02*
X12746253Y-12702484D01*
X12803396Y-12702484D02*
X12803396Y-12502484D01*
X12803396Y-12502484D02*
X12784348Y-12531055D01*
X12784348Y-12531055D02*
X12765301Y-12550103D01*
X12765301Y-12550103D02*
X12746253Y-12559627D01*
X12946253Y-12683436D02*
X12955777Y-12692960D01*
X12955777Y-12692960D02*
X12946253Y-12702484D01*
X12946253Y-12702484D02*
X12936729Y-12692960D01*
X12936729Y-12692960D02*
X12946253Y-12683436D01*
X12946253Y-12683436D02*
X12946253Y-12702484D01*
X13079586Y-12502484D02*
X13098634Y-12502484D01*
X13098634Y-12502484D02*
X13117682Y-12512008D01*
X13117682Y-12512008D02*
X13127205Y-12521531D01*
X13127205Y-12521531D02*
X13136729Y-12540579D01*
X13136729Y-12540579D02*
X13146253Y-12578674D01*
X13146253Y-12578674D02*
X13146253Y-12626293D01*
X13146253Y-12626293D02*
X13136729Y-12664388D01*
X13136729Y-12664388D02*
X13127205Y-12683436D01*
X13127205Y-12683436D02*
X13117682Y-12692960D01*
X13117682Y-12692960D02*
X13098634Y-12702484D01*
X13098634Y-12702484D02*
X13079586Y-12702484D01*
X13079586Y-12702484D02*
X13060539Y-12692960D01*
X13060539Y-12692960D02*
X13051015Y-12683436D01*
X13051015Y-12683436D02*
X13041491Y-12664388D01*
X13041491Y-12664388D02*
X13031967Y-12626293D01*
X13031967Y-12626293D02*
X13031967Y-12578674D01*
X13031967Y-12578674D02*
X13041491Y-12540579D01*
X13041491Y-12540579D02*
X13051015Y-12521531D01*
X13051015Y-12521531D02*
X13060539Y-12512008D01*
X13060539Y-12512008D02*
X13079586Y-12502484D01*
X13222443Y-12521531D02*
X13231967Y-12512008D01*
X13231967Y-12512008D02*
X13251015Y-12502484D01*
X13251015Y-12502484D02*
X13298634Y-12502484D01*
X13298634Y-12502484D02*
X13317682Y-12512008D01*
X13317682Y-12512008D02*
X13327205Y-12521531D01*
X13327205Y-12521531D02*
X13336729Y-12540579D01*
X13336729Y-12540579D02*
X13336729Y-12559627D01*
X13336729Y-12559627D02*
X13327205Y-12588198D01*
X13327205Y-12588198D02*
X13212920Y-12702484D01*
X13212920Y-12702484D02*
X13336729Y-12702484D01*
X13460539Y-12502484D02*
X13479586Y-12502484D01*
X13479586Y-12502484D02*
X13498634Y-12512008D01*
X13498634Y-12512008D02*
X13508158Y-12521531D01*
X13508158Y-12521531D02*
X13517682Y-12540579D01*
X13517682Y-12540579D02*
X13527205Y-12578674D01*
X13527205Y-12578674D02*
X13527205Y-12626293D01*
X13527205Y-12626293D02*
X13517682Y-12664388D01*
X13517682Y-12664388D02*
X13508158Y-12683436D01*
X13508158Y-12683436D02*
X13498634Y-12692960D01*
X13498634Y-12692960D02*
X13479586Y-12702484D01*
X13479586Y-12702484D02*
X13460539Y-12702484D01*
X13460539Y-12702484D02*
X13441491Y-12692960D01*
X13441491Y-12692960D02*
X13431967Y-12683436D01*
X13431967Y-12683436D02*
X13422443Y-12664388D01*
X13422443Y-12664388D02*
X13412920Y-12626293D01*
X13412920Y-12626293D02*
X13412920Y-12578674D01*
X13412920Y-12578674D02*
X13422443Y-12540579D01*
X13422443Y-12540579D02*
X13431967Y-12521531D01*
X13431967Y-12521531D02*
X13441491Y-12512008D01*
X13441491Y-12512008D02*
X13460539Y-12502484D01*
X13612920Y-12702484D02*
X13612920Y-12569150D01*
X13612920Y-12588198D02*
X13622443Y-12578674D01*
X13622443Y-12578674D02*
X13641491Y-12569150D01*
X13641491Y-12569150D02*
X13670063Y-12569150D01*
X13670063Y-12569150D02*
X13689110Y-12578674D01*
X13689110Y-12578674D02*
X13698634Y-12597722D01*
X13698634Y-12597722D02*
X13698634Y-12702484D01*
X13698634Y-12597722D02*
X13708158Y-12578674D01*
X13708158Y-12578674D02*
X13727205Y-12569150D01*
X13727205Y-12569150D02*
X13755777Y-12569150D01*
X13755777Y-12569150D02*
X13774824Y-12578674D01*
X13774824Y-12578674D02*
X13784348Y-12597722D01*
X13784348Y-12597722D02*
X13784348Y-12702484D01*
X13879586Y-12702484D02*
X13879586Y-12569150D01*
X13879586Y-12588198D02*
X13889110Y-12578674D01*
X13889110Y-12578674D02*
X13908158Y-12569150D01*
X13908158Y-12569150D02*
X13936729Y-12569150D01*
X13936729Y-12569150D02*
X13955777Y-12578674D01*
X13955777Y-12578674D02*
X13965301Y-12597722D01*
X13965301Y-12597722D02*
X13965301Y-12702484D01*
X13965301Y-12597722D02*
X13974824Y-12578674D01*
X13974824Y-12578674D02*
X13993872Y-12569150D01*
X13993872Y-12569150D02*
X14022443Y-12569150D01*
X14022443Y-12569150D02*
X14041491Y-12578674D01*
X14041491Y-12578674D02*
X14051015Y-12597722D01*
X14051015Y-12597722D02*
X14051015Y-12702484D01*
X14441491Y-12492960D02*
X14270063Y-12750103D01*
X14698634Y-12502484D02*
X14717682Y-12502484D01*
X14717682Y-12502484D02*
X14736729Y-12512008D01*
X14736729Y-12512008D02*
X14746253Y-12521531D01*
X14746253Y-12521531D02*
X14755777Y-12540579D01*
X14755777Y-12540579D02*
X14765301Y-12578674D01*
X14765301Y-12578674D02*
X14765301Y-12626293D01*
X14765301Y-12626293D02*
X14755777Y-12664388D01*
X14755777Y-12664388D02*
X14746253Y-12683436D01*
X14746253Y-12683436D02*
X14736729Y-12692960D01*
X14736729Y-12692960D02*
X14717682Y-12702484D01*
X14717682Y-12702484D02*
X14698634Y-12702484D01*
X14698634Y-12702484D02*
X14679586Y-12692960D01*
X14679586Y-12692960D02*
X14670063Y-12683436D01*
X14670063Y-12683436D02*
X14660539Y-12664388D01*
X14660539Y-12664388D02*
X14651015Y-12626293D01*
X14651015Y-12626293D02*
X14651015Y-12578674D01*
X14651015Y-12578674D02*
X14660539Y-12540579D01*
X14660539Y-12540579D02*
X14670063Y-12521531D01*
X14670063Y-12521531D02*
X14679586Y-12512008D01*
X14679586Y-12512008D02*
X14698634Y-12502484D01*
X14851015Y-12683436D02*
X14860539Y-12692960D01*
X14860539Y-12692960D02*
X14851015Y-12702484D01*
X14851015Y-12702484D02*
X14841491Y-12692960D01*
X14841491Y-12692960D02*
X14851015Y-12683436D01*
X14851015Y-12683436D02*
X14851015Y-12702484D01*
X14984348Y-12502484D02*
X15003396Y-12502484D01*
X15003396Y-12502484D02*
X15022444Y-12512008D01*
X15022444Y-12512008D02*
X15031967Y-12521531D01*
X15031967Y-12521531D02*
X15041491Y-12540579D01*
X15041491Y-12540579D02*
X15051015Y-12578674D01*
X15051015Y-12578674D02*
X15051015Y-12626293D01*
X15051015Y-12626293D02*
X15041491Y-12664388D01*
X15041491Y-12664388D02*
X15031967Y-12683436D01*
X15031967Y-12683436D02*
X15022444Y-12692960D01*
X15022444Y-12692960D02*
X15003396Y-12702484D01*
X15003396Y-12702484D02*
X14984348Y-12702484D01*
X14984348Y-12702484D02*
X14965301Y-12692960D01*
X14965301Y-12692960D02*
X14955777Y-12683436D01*
X14955777Y-12683436D02*
X14946253Y-12664388D01*
X14946253Y-12664388D02*
X14936729Y-12626293D01*
X14936729Y-12626293D02*
X14936729Y-12578674D01*
X14936729Y-12578674D02*
X14946253Y-12540579D01*
X14946253Y-12540579D02*
X14955777Y-12521531D01*
X14955777Y-12521531D02*
X14965301Y-12512008D01*
X14965301Y-12512008D02*
X14984348Y-12502484D01*
X15222444Y-12569150D02*
X15222444Y-12702484D01*
X15174825Y-12492960D02*
X15127206Y-12635817D01*
X15127206Y-12635817D02*
X15251015Y-12635817D01*
X15365301Y-12502484D02*
X15384348Y-12502484D01*
X15384348Y-12502484D02*
X15403396Y-12512008D01*
X15403396Y-12512008D02*
X15412920Y-12521531D01*
X15412920Y-12521531D02*
X15422444Y-12540579D01*
X15422444Y-12540579D02*
X15431967Y-12578674D01*
X15431967Y-12578674D02*
X15431967Y-12626293D01*
X15431967Y-12626293D02*
X15422444Y-12664388D01*
X15422444Y-12664388D02*
X15412920Y-12683436D01*
X15412920Y-12683436D02*
X15403396Y-12692960D01*
X15403396Y-12692960D02*
X15384348Y-12702484D01*
X15384348Y-12702484D02*
X15365301Y-12702484D01*
X15365301Y-12702484D02*
X15346253Y-12692960D01*
X15346253Y-12692960D02*
X15336729Y-12683436D01*
X15336729Y-12683436D02*
X15327206Y-12664388D01*
X15327206Y-12664388D02*
X15317682Y-12626293D01*
X15317682Y-12626293D02*
X15317682Y-12578674D01*
X15317682Y-12578674D02*
X15327206Y-12540579D01*
X15327206Y-12540579D02*
X15336729Y-12521531D01*
X15336729Y-12521531D02*
X15346253Y-12512008D01*
X15346253Y-12512008D02*
X15365301Y-12502484D01*
X15508158Y-12521531D02*
X15517682Y-12512008D01*
X15517682Y-12512008D02*
X15536729Y-12502484D01*
X15536729Y-12502484D02*
X15584348Y-12502484D01*
X15584348Y-12502484D02*
X15603396Y-12512008D01*
X15603396Y-12512008D02*
X15612920Y-12521531D01*
X15612920Y-12521531D02*
X15622444Y-12540579D01*
X15622444Y-12540579D02*
X15622444Y-12559627D01*
X15622444Y-12559627D02*
X15612920Y-12588198D01*
X15612920Y-12588198D02*
X15498634Y-12702484D01*
X15498634Y-12702484D02*
X15622444Y-12702484D01*
X15698634Y-12502484D02*
X15698634Y-12540579D01*
X15774825Y-12502484D02*
X15774825Y-12540579D01*
X16070063Y-12778674D02*
X16060539Y-12769150D01*
X16060539Y-12769150D02*
X16041491Y-12740579D01*
X16041491Y-12740579D02*
X16031968Y-12721531D01*
X16031968Y-12721531D02*
X16022444Y-12692960D01*
X16022444Y-12692960D02*
X16012920Y-12645341D01*
X16012920Y-12645341D02*
X16012920Y-12607246D01*
X16012920Y-12607246D02*
X16022444Y-12559627D01*
X16022444Y-12559627D02*
X16031968Y-12531055D01*
X16031968Y-12531055D02*
X16041491Y-12512008D01*
X16041491Y-12512008D02*
X16060539Y-12483436D01*
X16060539Y-12483436D02*
X16070063Y-12473912D01*
X16251015Y-12702484D02*
X16136729Y-12702484D01*
X16193872Y-12702484D02*
X16193872Y-12502484D01*
X16193872Y-12502484D02*
X16174825Y-12531055D01*
X16174825Y-12531055D02*
X16155777Y-12550103D01*
X16155777Y-12550103D02*
X16136729Y-12559627D01*
X16327206Y-12521531D02*
X16336729Y-12512008D01*
X16336729Y-12512008D02*
X16355777Y-12502484D01*
X16355777Y-12502484D02*
X16403396Y-12502484D01*
X16403396Y-12502484D02*
X16422444Y-12512008D01*
X16422444Y-12512008D02*
X16431968Y-12521531D01*
X16431968Y-12521531D02*
X16441491Y-12540579D01*
X16441491Y-12540579D02*
X16441491Y-12559627D01*
X16441491Y-12559627D02*
X16431968Y-12588198D01*
X16431968Y-12588198D02*
X16317682Y-12702484D01*
X16317682Y-12702484D02*
X16441491Y-12702484D01*
X16679587Y-12702484D02*
X16679587Y-12502484D01*
X16765301Y-12702484D02*
X16765301Y-12597722D01*
X16765301Y-12597722D02*
X16755777Y-12578674D01*
X16755777Y-12578674D02*
X16736730Y-12569150D01*
X16736730Y-12569150D02*
X16708158Y-12569150D01*
X16708158Y-12569150D02*
X16689110Y-12578674D01*
X16689110Y-12578674D02*
X16679587Y-12588198D01*
X16889111Y-12702484D02*
X16870063Y-12692960D01*
X16870063Y-12692960D02*
X16860539Y-12683436D01*
X16860539Y-12683436D02*
X16851015Y-12664388D01*
X16851015Y-12664388D02*
X16851015Y-12607246D01*
X16851015Y-12607246D02*
X16860539Y-12588198D01*
X16860539Y-12588198D02*
X16870063Y-12578674D01*
X16870063Y-12578674D02*
X16889111Y-12569150D01*
X16889111Y-12569150D02*
X16917682Y-12569150D01*
X16917682Y-12569150D02*
X16936730Y-12578674D01*
X16936730Y-12578674D02*
X16946253Y-12588198D01*
X16946253Y-12588198D02*
X16955777Y-12607246D01*
X16955777Y-12607246D02*
X16955777Y-12664388D01*
X16955777Y-12664388D02*
X16946253Y-12683436D01*
X16946253Y-12683436D02*
X16936730Y-12692960D01*
X16936730Y-12692960D02*
X16917682Y-12702484D01*
X16917682Y-12702484D02*
X16889111Y-12702484D01*
X17070063Y-12702484D02*
X17051015Y-12692960D01*
X17051015Y-12692960D02*
X17041492Y-12673912D01*
X17041492Y-12673912D02*
X17041492Y-12502484D01*
X17222444Y-12692960D02*
X17203396Y-12702484D01*
X17203396Y-12702484D02*
X17165301Y-12702484D01*
X17165301Y-12702484D02*
X17146253Y-12692960D01*
X17146253Y-12692960D02*
X17136730Y-12673912D01*
X17136730Y-12673912D02*
X17136730Y-12597722D01*
X17136730Y-12597722D02*
X17146253Y-12578674D01*
X17146253Y-12578674D02*
X17165301Y-12569150D01*
X17165301Y-12569150D02*
X17203396Y-12569150D01*
X17203396Y-12569150D02*
X17222444Y-12578674D01*
X17222444Y-12578674D02*
X17231968Y-12597722D01*
X17231968Y-12597722D02*
X17231968Y-12616769D01*
X17231968Y-12616769D02*
X17136730Y-12635817D01*
X17308158Y-12692960D02*
X17327206Y-12702484D01*
X17327206Y-12702484D02*
X17365301Y-12702484D01*
X17365301Y-12702484D02*
X17384349Y-12692960D01*
X17384349Y-12692960D02*
X17393873Y-12673912D01*
X17393873Y-12673912D02*
X17393873Y-12664388D01*
X17393873Y-12664388D02*
X17384349Y-12645341D01*
X17384349Y-12645341D02*
X17365301Y-12635817D01*
X17365301Y-12635817D02*
X17336730Y-12635817D01*
X17336730Y-12635817D02*
X17317682Y-12626293D01*
X17317682Y-12626293D02*
X17308158Y-12607246D01*
X17308158Y-12607246D02*
X17308158Y-12597722D01*
X17308158Y-12597722D02*
X17317682Y-12578674D01*
X17317682Y-12578674D02*
X17336730Y-12569150D01*
X17336730Y-12569150D02*
X17365301Y-12569150D01*
X17365301Y-12569150D02*
X17384349Y-12578674D01*
X17460539Y-12778674D02*
X17470063Y-12769150D01*
X17470063Y-12769150D02*
X17489111Y-12740579D01*
X17489111Y-12740579D02*
X17498634Y-12721531D01*
X17498634Y-12721531D02*
X17508158Y-12692960D01*
X17508158Y-12692960D02*
X17517682Y-12645341D01*
X17517682Y-12645341D02*
X17517682Y-12607246D01*
X17517682Y-12607246D02*
X17508158Y-12559627D01*
X17508158Y-12559627D02*
X17498634Y-12531055D01*
X17498634Y-12531055D02*
X17489111Y-12512008D01*
X17489111Y-12512008D02*
X17470063Y-12483436D01*
X17470063Y-12483436D02*
X17460539Y-12473912D01*
M02*
