G04 #@! TF.GenerationSoftware,KiCad,Pcbnew,8.0.1*
G04 #@! TF.CreationDate,2024-04-29T00:58:12+02:00*
G04 #@! TF.ProjectId,Blinky,426c696e-6b79-42e6-9b69-6361645f7063,rev?*
G04 #@! TF.SameCoordinates,Original*
G04 #@! TF.FileFunction,Legend,Top*
G04 #@! TF.FilePolarity,Positive*
%FSLAX46Y46*%
G04 Gerber Fmt 4.6, Leading zero omitted, Abs format (unit mm)*
G04 Created by KiCad (PCBNEW 8.0.1) date 2024-04-29 00:58:12*
%MOMM*%
%LPD*%
G01*
G04 APERTURE LIST*
G04 Aperture macros list*
%AMRoundRect*
0 Rectangle with rounded corners*
0 $1 Rounding radius*
0 $2 $3 $4 $5 $6 $7 $8 $9 X,Y pos of 4 corners*
0 Add a 4 corners polygon primitive as box body*
4,1,4,$2,$3,$4,$5,$6,$7,$8,$9,$2,$3,0*
0 Add four circle primitives for the rounded corners*
1,1,$1+$1,$2,$3*
1,1,$1+$1,$4,$5*
1,1,$1+$1,$6,$7*
1,1,$1+$1,$8,$9*
0 Add four rect primitives between the rounded corners*
20,1,$1+$1,$2,$3,$4,$5,0*
20,1,$1+$1,$4,$5,$6,$7,0*
20,1,$1+$1,$6,$7,$8,$9,0*
20,1,$1+$1,$8,$9,$2,$3,0*%
%AMFreePoly0*
4,1,265,0.086386,3.626060,0.172644,3.622962,0.258827,3.617831,0.344856,3.610643,0.430658,3.601422,0.516256,3.590170,0.601549,3.576861,0.686487,3.561544,0.771044,3.544196,0.855169,3.524841,0.938811,3.503480,1.021920,3.480163,1.104445,3.454864,1.186360,3.427584,1.267590,3.398400,1.348108,3.367259,1.427838,3.334239,1.506782,3.299314,1.584862,3.262510,1.662052,3.223876,
1.738303,3.183414,1.813589,3.141148,1.887808,3.097104,1.960986,3.051308,2.033045,3.003785,2.103937,2.954534,2.173660,2.903632,2.242139,2.851080,2.309347,2.796927,2.375260,2.741173,2.439827,2.683871,2.502997,2.625070,2.564745,2.564745,2.625070,2.502997,2.683871,2.439827,2.741173,2.375260,2.796927,2.309347,2.851080,2.242139,2.903632,2.173660,2.954534,2.103937,
3.003785,2.033045,3.051308,1.960986,3.097104,1.887808,3.141148,1.813564,3.183414,1.738303,3.223876,1.662052,3.262510,1.584862,3.299314,1.506782,3.334239,1.427838,3.367259,1.348108,3.398400,1.267590,3.427584,1.186360,3.454864,1.104445,3.480163,1.021920,3.503480,0.938811,3.524841,0.855169,3.544196,0.771044,3.561544,0.686487,3.576861,0.601549,3.590170,0.516256,
3.601422,0.430658,3.610643,0.344856,3.617831,0.258827,3.622962,0.172644,3.626060,0.086386,3.627076,0.000076,3.626060,-0.086233,3.622962,-0.172492,3.617831,-0.258674,3.610643,-0.344704,3.601422,-0.430505,3.590170,-0.516104,3.576861,-0.601397,3.561544,-0.686335,3.544196,-0.770892,3.524841,-0.855017,3.503480,-0.938659,3.480163,-1.021768,3.454864,-1.104293,3.427584,-1.186208,
3.398400,-1.267437,3.367259,-1.347955,3.334239,-1.427686,3.299314,-1.506629,3.262510,-1.584709,3.223876,-1.661900,3.183414,-1.738151,3.141148,-1.813437,3.097104,-1.887656,3.051308,-1.960833,3.003785,-2.032893,2.954534,-2.103785,2.903632,-2.173508,2.851080,-2.241986,2.796927,-2.309195,2.741173,-2.375108,2.683871,-2.439675,2.625070,-2.502845,2.564745,-2.564592,2.502997,-2.624917,
2.439827,-2.683719,2.375260,-2.741021,2.309347,-2.796774,2.242139,-2.850927,2.173660,-2.903480,2.103937,-2.954382,2.033045,-3.003632,1.960986,-3.051156,1.887808,-3.096952,1.813589,-3.140996,1.738303,-3.183261,1.662052,-3.223724,1.584862,-3.262357,1.506782,-3.299162,1.427838,-3.334087,1.348108,-3.367107,1.267590,-3.398247,1.186360,-3.427432,1.104445,-3.454712,1.021920,-3.480010,
0.938811,-3.503327,0.855169,-3.524689,0.771044,-3.544044,0.686487,-3.561392,0.601549,-3.576708,0.516256,-3.590018,0.430658,-3.601270,0.344856,-3.610490,0.258827,-3.617678,0.172644,-3.622809,0.086386,-3.625908,0.000076,-3.626924,-0.086233,-3.625908,-0.172492,-3.622809,-0.258674,-3.617678,-0.344704,-3.610490,-0.430505,-3.601270,-0.516104,-3.590018,-0.601397,-3.576708,-0.686335,-3.561392,
-0.770892,-3.544044,-0.855017,-3.524689,-0.938659,-3.503327,-1.021768,-3.480010,-1.104293,-3.454712,-1.186208,-3.427432,-1.267437,-3.398247,-1.347955,-3.367107,-1.427686,-3.334087,-1.506629,-3.299162,-1.584709,-3.262357,-1.661900,-3.223724,-1.738151,-3.183261,-1.813411,-3.140996,-1.887656,-3.096952,-1.960833,-3.051156,-2.032893,-3.003632,-2.103785,-2.954382,-2.173508,-2.903480,-2.241986,-2.850927,
-2.309195,-2.796774,-2.375108,-2.741021,-2.439675,-2.683719,-2.502845,-2.624917,-2.564592,-2.564592,-2.624917,-2.502845,-2.683719,-2.439675,-2.741021,-2.375108,-2.796774,-2.309195,-2.850927,-2.241986,-2.903480,-2.173508,-2.954382,-2.103785,-3.003632,-2.032893,-3.051156,-1.960833,-3.096952,-1.887656,-3.140996,-1.813437,-3.183261,-1.738151,-3.223724,-1.661900,-3.262357,-1.584709,-3.299162,-1.506629,
-3.334087,-1.427686,-3.367107,-1.347955,-3.398247,-1.267437,-3.427432,-1.186208,-3.454712,-1.104293,-3.480010,-1.021768,-3.503327,-0.938659,-3.524689,-0.855017,-3.544044,-0.770892,-3.561392,-0.686335,-3.576708,-0.601397,-3.590018,-0.516104,-3.601270,-0.430505,-3.610490,-0.344704,-3.617678,-0.258674,-3.622809,-0.172492,-3.625908,-0.086233,-3.626924,0.000076,-3.625908,0.086386,-3.622809,0.172644,
-3.617678,0.258827,-3.610490,0.344856,-3.601270,0.430658,-3.590018,0.516256,-3.576708,0.601549,-3.561392,0.686487,-3.544044,0.771044,-3.524689,0.855169,-3.503327,0.938811,-3.480010,1.021920,-3.454712,1.104445,-3.427432,1.186360,-3.398247,1.267590,-3.367107,1.348108,-3.334087,1.427838,-3.299162,1.506782,-3.262357,1.584862,-3.223724,1.662052,-3.183261,1.738303,-3.140996,1.813589,
-3.096952,1.887808,-3.051156,1.960986,-3.003632,2.033045,-2.954382,2.103937,-2.903480,2.173660,-2.850927,2.242139,-2.796774,2.309347,-2.741021,2.375260,-2.683719,2.439827,-2.624917,2.502997,-2.564592,2.564745,-2.502845,2.625070,-2.439675,2.683871,-2.375108,2.741173,-2.309195,2.796927,-2.241986,2.851080,-2.173508,2.903632,-2.103785,2.954534,-2.032893,3.003785,-1.960833,3.051308,
-1.887656,3.097104,-1.813411,3.141148,-1.738151,3.183414,-1.661900,3.223876,-1.584709,3.262510,-1.506629,3.299314,-1.427686,3.334239,-1.347955,3.367259,-1.267437,3.398400,-1.186208,3.427584,-1.104293,3.454864,-1.021768,3.480163,-0.938659,3.503480,-0.855017,3.524841,-0.770892,3.544196,-0.686335,3.561544,-0.601397,3.576861,-0.516104,3.590170,-0.430505,3.601422,-0.344704,3.610643,
-0.258674,3.617831,-0.172492,3.622962,-0.086233,3.626060,0.000076,3.627076,0.086386,3.626060,0.086386,3.626060,$1*%
%AMFreePoly1*
4,1,265,0.086386,3.625908,0.172644,3.622809,0.258827,3.617678,0.344856,3.610490,0.430658,3.601270,0.516256,3.590018,0.601549,3.576708,0.686487,3.561392,0.771044,3.544044,0.855169,3.524689,0.938811,3.503327,1.021920,3.480010,1.104445,3.454712,1.186360,3.427432,1.267590,3.398247,1.348108,3.367107,1.427838,3.334087,1.506782,3.299162,1.584862,3.262357,1.662052,3.223724,
1.738303,3.183261,1.813589,3.140996,1.887808,3.096952,1.960986,3.051156,2.033045,3.003632,2.103937,2.954382,2.173660,2.903480,2.242139,2.850927,2.309347,2.796774,2.375260,2.741021,2.439827,2.683719,2.502997,2.624917,2.564745,2.564592,2.625070,2.502845,2.683871,2.439675,2.741173,2.375108,2.796927,2.309195,2.851080,2.241986,2.903632,2.173508,2.954534,2.103785,
3.003785,2.032893,3.051308,1.960833,3.097104,1.887656,3.141148,1.813437,3.183414,1.738151,3.223876,1.661900,3.262510,1.584709,3.299314,1.506629,3.334239,1.427686,3.367259,1.347955,3.398400,1.267437,3.427584,1.186208,3.454864,1.104293,3.480163,1.021768,3.503480,0.938659,3.524841,0.855017,3.544196,0.770892,3.561544,0.686335,3.576861,0.601397,3.590170,0.516104,
3.601422,0.430505,3.610643,0.344704,3.617831,0.258674,3.622962,0.172492,3.626060,0.086233,3.627076,-0.000076,3.626060,-0.086386,3.622962,-0.172644,3.617831,-0.258827,3.610643,-0.344856,3.601422,-0.430658,3.590170,-0.516256,3.576861,-0.601549,3.561544,-0.686487,3.544196,-0.771044,3.524841,-0.855169,3.503480,-0.938811,3.480163,-1.021920,3.454864,-1.104445,3.427584,-1.186360,
3.398400,-1.267590,3.367259,-1.348108,3.334239,-1.427838,3.299314,-1.506782,3.262510,-1.584862,3.223876,-1.662052,3.183414,-1.738303,3.141148,-1.813564,3.097104,-1.887808,3.051308,-1.960986,3.003785,-2.033045,2.954534,-2.103937,2.903632,-2.173660,2.851080,-2.242139,2.796927,-2.309347,2.741173,-2.375260,2.683871,-2.439827,2.625070,-2.502997,2.564745,-2.564745,2.502997,-2.625070,
2.439827,-2.683871,2.375260,-2.741173,2.309347,-2.796927,2.242139,-2.851080,2.173660,-2.903632,2.103937,-2.954534,2.033045,-3.003785,1.960986,-3.051308,1.887808,-3.097104,1.813589,-3.141148,1.738303,-3.183414,1.662052,-3.223876,1.584862,-3.262510,1.506782,-3.299314,1.427838,-3.334239,1.348108,-3.367259,1.267590,-3.398400,1.186360,-3.427584,1.104445,-3.454864,1.021920,-3.480163,
0.938811,-3.503480,0.855169,-3.524841,0.771044,-3.544196,0.686487,-3.561544,0.601549,-3.576861,0.516256,-3.590170,0.430658,-3.601422,0.344856,-3.610643,0.258827,-3.617831,0.172644,-3.622962,0.086386,-3.626060,0.000076,-3.627076,-0.086233,-3.626060,-0.172492,-3.622962,-0.258674,-3.617831,-0.344704,-3.610643,-0.430505,-3.601422,-0.516104,-3.590170,-0.601397,-3.576861,-0.686335,-3.561544,
-0.770892,-3.544196,-0.855017,-3.524841,-0.938659,-3.503480,-1.021768,-3.480163,-1.104293,-3.454864,-1.186208,-3.427584,-1.267437,-3.398400,-1.347955,-3.367259,-1.427686,-3.334239,-1.506629,-3.299314,-1.584709,-3.262510,-1.661900,-3.223876,-1.738151,-3.183414,-1.813411,-3.141148,-1.887656,-3.097104,-1.960833,-3.051308,-2.032893,-3.003785,-2.103785,-2.954534,-2.173508,-2.903632,-2.241986,-2.851080,
-2.309195,-2.796927,-2.375108,-2.741173,-2.439675,-2.683871,-2.502845,-2.625070,-2.564592,-2.564745,-2.624917,-2.502997,-2.683719,-2.439827,-2.741021,-2.375260,-2.796774,-2.309347,-2.850927,-2.242139,-2.903480,-2.173660,-2.954382,-2.103937,-3.003632,-2.033045,-3.051156,-1.960986,-3.096952,-1.887808,-3.140996,-1.813589,-3.183261,-1.738303,-3.223724,-1.662052,-3.262357,-1.584862,-3.299162,-1.506782,
-3.334087,-1.427838,-3.367107,-1.348108,-3.398247,-1.267590,-3.427432,-1.186360,-3.454712,-1.104445,-3.480010,-1.021920,-3.503327,-0.938811,-3.524689,-0.855169,-3.544044,-0.771044,-3.561392,-0.686487,-3.576708,-0.601549,-3.590018,-0.516256,-3.601270,-0.430658,-3.610490,-0.344856,-3.617678,-0.258827,-3.622809,-0.172644,-3.625908,-0.086386,-3.626924,-0.000076,-3.625908,0.086233,-3.622809,0.172492,
-3.617678,0.258674,-3.610490,0.344704,-3.601270,0.430505,-3.590018,0.516104,-3.576708,0.601397,-3.561392,0.686335,-3.544044,0.770892,-3.524689,0.855017,-3.503327,0.938659,-3.480010,1.021768,-3.454712,1.104293,-3.427432,1.186208,-3.398247,1.267437,-3.367107,1.347955,-3.334087,1.427686,-3.299162,1.506629,-3.262357,1.584709,-3.223724,1.661900,-3.183261,1.738151,-3.140996,1.813437,
-3.096952,1.887656,-3.051156,1.960833,-3.003632,2.032893,-2.954382,2.103785,-2.903480,2.173508,-2.850927,2.241986,-2.796774,2.309195,-2.741021,2.375108,-2.683719,2.439675,-2.624917,2.502845,-2.564592,2.564592,-2.502845,2.624917,-2.439675,2.683719,-2.375108,2.741021,-2.309195,2.796774,-2.241986,2.850927,-2.173508,2.903480,-2.103785,2.954382,-2.032893,3.003632,-1.960833,3.051156,
-1.887656,3.096952,-1.813411,3.140996,-1.738151,3.183261,-1.661900,3.223724,-1.584709,3.262357,-1.506629,3.299162,-1.427686,3.334087,-1.347955,3.367107,-1.267437,3.398247,-1.186208,3.427432,-1.104293,3.454712,-1.021768,3.480010,-0.938659,3.503327,-0.855017,3.524689,-0.770892,3.544044,-0.686335,3.561392,-0.601397,3.576708,-0.516104,3.590018,-0.430505,3.601270,-0.344704,3.610490,
-0.258674,3.617678,-0.172492,3.622809,-0.086233,3.625908,0.000076,3.626924,0.086386,3.625908,0.086386,3.625908,$1*%
G04 Aperture macros list end*
%ADD10C,0.150000*%
%ADD11C,0.100000*%
%ADD12C,0.120000*%
%ADD13C,0.254000*%
%ADD14C,0.059995*%
%ADD15C,0.150013*%
%ADD16C,0.400000*%
%ADD17C,0.152400*%
%ADD18RoundRect,0.200000X0.200000X0.275000X-0.200000X0.275000X-0.200000X-0.275000X0.200000X-0.275000X0*%
%ADD19R,1.000000X1.800000*%
%ADD20RoundRect,0.150000X0.587500X0.150000X-0.587500X0.150000X-0.587500X-0.150000X0.587500X-0.150000X0*%
%ADD21C,0.849987*%
%ADD22R,0.900000X1.800000*%
%ADD23R,1.100000X0.929997*%
%ADD24R,0.800000X0.800000*%
%ADD25RoundRect,0.112500X0.112500X-0.487500X0.112500X0.487500X-0.112500X0.487500X-0.112500X-0.487500X0*%
%ADD26RoundRect,0.286500X0.286500X-0.313500X0.286500X0.313500X-0.286500X0.313500X-0.286500X-0.313500X0*%
%ADD27RoundRect,0.218250X0.218250X-0.381750X0.218250X0.381750X-0.218250X0.381750X-0.218250X-0.381750X0*%
%ADD28RoundRect,0.225000X-0.250000X0.225000X-0.250000X-0.225000X0.250000X-0.225000X0.250000X0.225000X0*%
%ADD29RoundRect,0.200000X0.275000X-0.200000X0.275000X0.200000X-0.275000X0.200000X-0.275000X-0.200000X0*%
%ADD30RoundRect,0.200000X-0.200000X-0.275000X0.200000X-0.275000X0.200000X0.275000X-0.200000X0.275000X0*%
%ADD31R,1.350013X3.000000*%
%ADD32FreePoly0,0.000000*%
%ADD33RoundRect,0.225000X-0.225000X-0.250000X0.225000X-0.250000X0.225000X0.250000X-0.225000X0.250000X0*%
%ADD34C,3.200000*%
%ADD35R,1.600000X1.800000*%
%ADD36C,1.600000*%
%ADD37RoundRect,0.150000X-0.587500X-0.150000X0.587500X-0.150000X0.587500X0.150000X-0.587500X0.150000X0*%
%ADD38RoundRect,0.200000X-0.275000X0.200000X-0.275000X-0.200000X0.275000X-0.200000X0.275000X0.200000X0*%
%ADD39RoundRect,0.225000X0.250000X-0.225000X0.250000X0.225000X-0.250000X0.225000X-0.250000X-0.225000X0*%
%ADD40R,0.400000X1.600000*%
%ADD41C,1.300000*%
%ADD42O,1.300000X1.800000*%
%ADD43RoundRect,0.225000X0.225000X0.250000X-0.225000X0.250000X-0.225000X-0.250000X0.225000X-0.250000X0*%
%ADD44O,4.000000X1.524000*%
%ADD45R,1.500000X0.900000*%
%ADD46R,0.900000X1.500000*%
%ADD47R,0.900000X0.900000*%
%ADD48R,1.506248X2.375997*%
%ADD49R,1.000000X0.600000*%
%ADD50R,0.600000X1.200000*%
%ADD51R,3.300000X2.400000*%
%ADD52RoundRect,0.250000X-0.625000X0.350000X-0.625000X-0.350000X0.625000X-0.350000X0.625000X0.350000X0*%
%ADD53O,1.750000X1.200000*%
%ADD54FreePoly1,180.000000*%
%ADD55C,1.200000*%
G04 APERTURE END LIST*
D10*
X163454819Y-81842857D02*
X162978628Y-82176190D01*
X163454819Y-82414285D02*
X162454819Y-82414285D01*
X162454819Y-82414285D02*
X162454819Y-82033333D01*
X162454819Y-82033333D02*
X162502438Y-81938095D01*
X162502438Y-81938095D02*
X162550057Y-81890476D01*
X162550057Y-81890476D02*
X162645295Y-81842857D01*
X162645295Y-81842857D02*
X162788152Y-81842857D01*
X162788152Y-81842857D02*
X162883390Y-81890476D01*
X162883390Y-81890476D02*
X162931009Y-81938095D01*
X162931009Y-81938095D02*
X162978628Y-82033333D01*
X162978628Y-82033333D02*
X162978628Y-82414285D01*
X162550057Y-81461904D02*
X162502438Y-81414285D01*
X162502438Y-81414285D02*
X162454819Y-81319047D01*
X162454819Y-81319047D02*
X162454819Y-81080952D01*
X162454819Y-81080952D02*
X162502438Y-80985714D01*
X162502438Y-80985714D02*
X162550057Y-80938095D01*
X162550057Y-80938095D02*
X162645295Y-80890476D01*
X162645295Y-80890476D02*
X162740533Y-80890476D01*
X162740533Y-80890476D02*
X162883390Y-80938095D01*
X162883390Y-80938095D02*
X163454819Y-81509523D01*
X163454819Y-81509523D02*
X163454819Y-80890476D01*
X162454819Y-80271428D02*
X162454819Y-80176190D01*
X162454819Y-80176190D02*
X162502438Y-80080952D01*
X162502438Y-80080952D02*
X162550057Y-80033333D01*
X162550057Y-80033333D02*
X162645295Y-79985714D01*
X162645295Y-79985714D02*
X162835771Y-79938095D01*
X162835771Y-79938095D02*
X163073866Y-79938095D01*
X163073866Y-79938095D02*
X163264342Y-79985714D01*
X163264342Y-79985714D02*
X163359580Y-80033333D01*
X163359580Y-80033333D02*
X163407200Y-80080952D01*
X163407200Y-80080952D02*
X163454819Y-80176190D01*
X163454819Y-80176190D02*
X163454819Y-80271428D01*
X163454819Y-80271428D02*
X163407200Y-80366666D01*
X163407200Y-80366666D02*
X163359580Y-80414285D01*
X163359580Y-80414285D02*
X163264342Y-80461904D01*
X163264342Y-80461904D02*
X163073866Y-80509523D01*
X163073866Y-80509523D02*
X162835771Y-80509523D01*
X162835771Y-80509523D02*
X162645295Y-80461904D01*
X162645295Y-80461904D02*
X162550057Y-80414285D01*
X162550057Y-80414285D02*
X162502438Y-80366666D01*
X162502438Y-80366666D02*
X162454819Y-80271428D01*
X137228571Y-84854819D02*
X137799999Y-84854819D01*
X137514285Y-85854819D02*
X137514285Y-84854819D01*
X138038095Y-84854819D02*
X138704761Y-85854819D01*
X138704761Y-84854819D02*
X138038095Y-85854819D01*
X139038095Y-85569104D02*
X139514285Y-85569104D01*
X138942857Y-85854819D02*
X139276190Y-84854819D01*
X139276190Y-84854819D02*
X139609523Y-85854819D01*
X140419047Y-85854819D02*
X139942857Y-85854819D01*
X139942857Y-85854819D02*
X139942857Y-84854819D01*
X141276190Y-85854819D02*
X140704762Y-85854819D01*
X140990476Y-85854819D02*
X140990476Y-84854819D01*
X140990476Y-84854819D02*
X140895238Y-84997676D01*
X140895238Y-84997676D02*
X140800000Y-85092914D01*
X140800000Y-85092914D02*
X140704762Y-85140533D01*
X153481546Y-61436838D02*
X153386308Y-61389219D01*
X153386308Y-61389219D02*
X153291070Y-61293981D01*
X153291070Y-61293981D02*
X153148213Y-61151123D01*
X153148213Y-61151123D02*
X153052975Y-61103504D01*
X153052975Y-61103504D02*
X152957737Y-61103504D01*
X153005356Y-61341600D02*
X152910118Y-61293981D01*
X152910118Y-61293981D02*
X152814880Y-61198742D01*
X152814880Y-61198742D02*
X152767261Y-61008266D01*
X152767261Y-61008266D02*
X152767261Y-60674933D01*
X152767261Y-60674933D02*
X152814880Y-60484457D01*
X152814880Y-60484457D02*
X152910118Y-60389219D01*
X152910118Y-60389219D02*
X153005356Y-60341600D01*
X153005356Y-60341600D02*
X153195832Y-60341600D01*
X153195832Y-60341600D02*
X153291070Y-60389219D01*
X153291070Y-60389219D02*
X153386308Y-60484457D01*
X153386308Y-60484457D02*
X153433927Y-60674933D01*
X153433927Y-60674933D02*
X153433927Y-61008266D01*
X153433927Y-61008266D02*
X153386308Y-61198742D01*
X153386308Y-61198742D02*
X153291070Y-61293981D01*
X153291070Y-61293981D02*
X153195832Y-61341600D01*
X153195832Y-61341600D02*
X153005356Y-61341600D01*
X153767261Y-60341600D02*
X154386308Y-60341600D01*
X154386308Y-60341600D02*
X154052975Y-60722552D01*
X154052975Y-60722552D02*
X154195832Y-60722552D01*
X154195832Y-60722552D02*
X154291070Y-60770171D01*
X154291070Y-60770171D02*
X154338689Y-60817790D01*
X154338689Y-60817790D02*
X154386308Y-60913028D01*
X154386308Y-60913028D02*
X154386308Y-61151123D01*
X154386308Y-61151123D02*
X154338689Y-61246361D01*
X154338689Y-61246361D02*
X154291070Y-61293981D01*
X154291070Y-61293981D02*
X154195832Y-61341600D01*
X154195832Y-61341600D02*
X153910118Y-61341600D01*
X153910118Y-61341600D02*
X153814880Y-61293981D01*
X153814880Y-61293981D02*
X153767261Y-61246361D01*
X162466667Y-104207200D02*
X162609524Y-104254819D01*
X162609524Y-104254819D02*
X162847619Y-104254819D01*
X162847619Y-104254819D02*
X162942857Y-104207200D01*
X162942857Y-104207200D02*
X162990476Y-104159580D01*
X162990476Y-104159580D02*
X163038095Y-104064342D01*
X163038095Y-104064342D02*
X163038095Y-103969104D01*
X163038095Y-103969104D02*
X162990476Y-103873866D01*
X162990476Y-103873866D02*
X162942857Y-103826247D01*
X162942857Y-103826247D02*
X162847619Y-103778628D01*
X162847619Y-103778628D02*
X162657143Y-103731009D01*
X162657143Y-103731009D02*
X162561905Y-103683390D01*
X162561905Y-103683390D02*
X162514286Y-103635771D01*
X162514286Y-103635771D02*
X162466667Y-103540533D01*
X162466667Y-103540533D02*
X162466667Y-103445295D01*
X162466667Y-103445295D02*
X162514286Y-103350057D01*
X162514286Y-103350057D02*
X162561905Y-103302438D01*
X162561905Y-103302438D02*
X162657143Y-103254819D01*
X162657143Y-103254819D02*
X162895238Y-103254819D01*
X162895238Y-103254819D02*
X163038095Y-103302438D01*
X163371429Y-103254819D02*
X163609524Y-104254819D01*
X163609524Y-104254819D02*
X163800000Y-103540533D01*
X163800000Y-103540533D02*
X163990476Y-104254819D01*
X163990476Y-104254819D02*
X164228572Y-103254819D01*
X165133333Y-104254819D02*
X164561905Y-104254819D01*
X164847619Y-104254819D02*
X164847619Y-103254819D01*
X164847619Y-103254819D02*
X164752381Y-103397676D01*
X164752381Y-103397676D02*
X164657143Y-103492914D01*
X164657143Y-103492914D02*
X164561905Y-103540533D01*
X149633333Y-88954819D02*
X149300000Y-88478628D01*
X149061905Y-88954819D02*
X149061905Y-87954819D01*
X149061905Y-87954819D02*
X149442857Y-87954819D01*
X149442857Y-87954819D02*
X149538095Y-88002438D01*
X149538095Y-88002438D02*
X149585714Y-88050057D01*
X149585714Y-88050057D02*
X149633333Y-88145295D01*
X149633333Y-88145295D02*
X149633333Y-88288152D01*
X149633333Y-88288152D02*
X149585714Y-88383390D01*
X149585714Y-88383390D02*
X149538095Y-88431009D01*
X149538095Y-88431009D02*
X149442857Y-88478628D01*
X149442857Y-88478628D02*
X149061905Y-88478628D01*
X150490476Y-88288152D02*
X150490476Y-88954819D01*
X150252381Y-87907200D02*
X150014286Y-88621485D01*
X150014286Y-88621485D02*
X150633333Y-88621485D01*
X142964564Y-69696495D02*
X142631231Y-69220304D01*
X142393136Y-69696495D02*
X142393136Y-68696495D01*
X142393136Y-68696495D02*
X142774088Y-68696495D01*
X142774088Y-68696495D02*
X142869326Y-68744114D01*
X142869326Y-68744114D02*
X142916945Y-68791733D01*
X142916945Y-68791733D02*
X142964564Y-68886971D01*
X142964564Y-68886971D02*
X142964564Y-69029828D01*
X142964564Y-69029828D02*
X142916945Y-69125066D01*
X142916945Y-69125066D02*
X142869326Y-69172685D01*
X142869326Y-69172685D02*
X142774088Y-69220304D01*
X142774088Y-69220304D02*
X142393136Y-69220304D01*
X143345517Y-68791733D02*
X143393136Y-68744114D01*
X143393136Y-68744114D02*
X143488374Y-68696495D01*
X143488374Y-68696495D02*
X143726469Y-68696495D01*
X143726469Y-68696495D02*
X143821707Y-68744114D01*
X143821707Y-68744114D02*
X143869326Y-68791733D01*
X143869326Y-68791733D02*
X143916945Y-68886971D01*
X143916945Y-68886971D02*
X143916945Y-68982209D01*
X143916945Y-68982209D02*
X143869326Y-69125066D01*
X143869326Y-69125066D02*
X143297898Y-69696495D01*
X143297898Y-69696495D02*
X143916945Y-69696495D01*
X143073856Y-63757806D02*
X142740523Y-63281615D01*
X142502428Y-63757806D02*
X142502428Y-62757806D01*
X142502428Y-62757806D02*
X142883380Y-62757806D01*
X142883380Y-62757806D02*
X142978618Y-62805425D01*
X142978618Y-62805425D02*
X143026237Y-62853044D01*
X143026237Y-62853044D02*
X143073856Y-62948282D01*
X143073856Y-62948282D02*
X143073856Y-63091139D01*
X143073856Y-63091139D02*
X143026237Y-63186377D01*
X143026237Y-63186377D02*
X142978618Y-63233996D01*
X142978618Y-63233996D02*
X142883380Y-63281615D01*
X142883380Y-63281615D02*
X142502428Y-63281615D01*
X144026237Y-63757806D02*
X143454809Y-63757806D01*
X143740523Y-63757806D02*
X143740523Y-62757806D01*
X143740523Y-62757806D02*
X143645285Y-62900663D01*
X143645285Y-62900663D02*
X143550047Y-62995901D01*
X143550047Y-62995901D02*
X143454809Y-63043520D01*
X144930999Y-62757806D02*
X144454809Y-62757806D01*
X144454809Y-62757806D02*
X144407190Y-63233996D01*
X144407190Y-63233996D02*
X144454809Y-63186377D01*
X144454809Y-63186377D02*
X144550047Y-63138758D01*
X144550047Y-63138758D02*
X144788142Y-63138758D01*
X144788142Y-63138758D02*
X144883380Y-63186377D01*
X144883380Y-63186377D02*
X144930999Y-63233996D01*
X144930999Y-63233996D02*
X144978618Y-63329234D01*
X144978618Y-63329234D02*
X144978618Y-63567329D01*
X144978618Y-63567329D02*
X144930999Y-63662567D01*
X144930999Y-63662567D02*
X144883380Y-63710187D01*
X144883380Y-63710187D02*
X144788142Y-63757806D01*
X144788142Y-63757806D02*
X144550047Y-63757806D01*
X144550047Y-63757806D02*
X144454809Y-63710187D01*
X144454809Y-63710187D02*
X144407190Y-63662567D01*
X162787485Y-59051314D02*
X162787485Y-59860837D01*
X162787485Y-59860837D02*
X162835104Y-59956075D01*
X162835104Y-59956075D02*
X162882723Y-60003695D01*
X162882723Y-60003695D02*
X162977961Y-60051314D01*
X162977961Y-60051314D02*
X163168437Y-60051314D01*
X163168437Y-60051314D02*
X163263675Y-60003695D01*
X163263675Y-60003695D02*
X163311294Y-59956075D01*
X163311294Y-59956075D02*
X163358913Y-59860837D01*
X163358913Y-59860837D02*
X163358913Y-59051314D01*
X163882723Y-60051314D02*
X164073199Y-60051314D01*
X164073199Y-60051314D02*
X164168437Y-60003695D01*
X164168437Y-60003695D02*
X164216056Y-59956075D01*
X164216056Y-59956075D02*
X164311294Y-59813218D01*
X164311294Y-59813218D02*
X164358913Y-59622742D01*
X164358913Y-59622742D02*
X164358913Y-59241790D01*
X164358913Y-59241790D02*
X164311294Y-59146552D01*
X164311294Y-59146552D02*
X164263675Y-59098933D01*
X164263675Y-59098933D02*
X164168437Y-59051314D01*
X164168437Y-59051314D02*
X163977961Y-59051314D01*
X163977961Y-59051314D02*
X163882723Y-59098933D01*
X163882723Y-59098933D02*
X163835104Y-59146552D01*
X163835104Y-59146552D02*
X163787485Y-59241790D01*
X163787485Y-59241790D02*
X163787485Y-59479885D01*
X163787485Y-59479885D02*
X163835104Y-59575123D01*
X163835104Y-59575123D02*
X163882723Y-59622742D01*
X163882723Y-59622742D02*
X163977961Y-59670361D01*
X163977961Y-59670361D02*
X164168437Y-59670361D01*
X164168437Y-59670361D02*
X164263675Y-59622742D01*
X164263675Y-59622742D02*
X164311294Y-59575123D01*
X164311294Y-59575123D02*
X164358913Y-59479885D01*
D11*
X158992419Y-92963904D02*
X159801942Y-92963904D01*
X159801942Y-92963904D02*
X159897180Y-92916285D01*
X159897180Y-92916285D02*
X159944800Y-92868666D01*
X159944800Y-92868666D02*
X159992419Y-92773428D01*
X159992419Y-92773428D02*
X159992419Y-92582952D01*
X159992419Y-92582952D02*
X159944800Y-92487714D01*
X159944800Y-92487714D02*
X159897180Y-92440095D01*
X159897180Y-92440095D02*
X159801942Y-92392476D01*
X159801942Y-92392476D02*
X158992419Y-92392476D01*
X158992419Y-91440095D02*
X158992419Y-91916285D01*
X158992419Y-91916285D02*
X159468609Y-91963904D01*
X159468609Y-91963904D02*
X159420990Y-91916285D01*
X159420990Y-91916285D02*
X159373371Y-91821047D01*
X159373371Y-91821047D02*
X159373371Y-91582952D01*
X159373371Y-91582952D02*
X159420990Y-91487714D01*
X159420990Y-91487714D02*
X159468609Y-91440095D01*
X159468609Y-91440095D02*
X159563847Y-91392476D01*
X159563847Y-91392476D02*
X159801942Y-91392476D01*
X159801942Y-91392476D02*
X159897180Y-91440095D01*
X159897180Y-91440095D02*
X159944800Y-91487714D01*
X159944800Y-91487714D02*
X159992419Y-91582952D01*
X159992419Y-91582952D02*
X159992419Y-91821047D01*
X159992419Y-91821047D02*
X159944800Y-91916285D01*
X159944800Y-91916285D02*
X159897180Y-91963904D01*
D10*
X130791580Y-94654666D02*
X130839200Y-94702285D01*
X130839200Y-94702285D02*
X130886819Y-94845142D01*
X130886819Y-94845142D02*
X130886819Y-94940380D01*
X130886819Y-94940380D02*
X130839200Y-95083237D01*
X130839200Y-95083237D02*
X130743961Y-95178475D01*
X130743961Y-95178475D02*
X130648723Y-95226094D01*
X130648723Y-95226094D02*
X130458247Y-95273713D01*
X130458247Y-95273713D02*
X130315390Y-95273713D01*
X130315390Y-95273713D02*
X130124914Y-95226094D01*
X130124914Y-95226094D02*
X130029676Y-95178475D01*
X130029676Y-95178475D02*
X129934438Y-95083237D01*
X129934438Y-95083237D02*
X129886819Y-94940380D01*
X129886819Y-94940380D02*
X129886819Y-94845142D01*
X129886819Y-94845142D02*
X129934438Y-94702285D01*
X129934438Y-94702285D02*
X129982057Y-94654666D01*
X129982057Y-94273713D02*
X129934438Y-94226094D01*
X129934438Y-94226094D02*
X129886819Y-94130856D01*
X129886819Y-94130856D02*
X129886819Y-93892761D01*
X129886819Y-93892761D02*
X129934438Y-93797523D01*
X129934438Y-93797523D02*
X129982057Y-93749904D01*
X129982057Y-93749904D02*
X130077295Y-93702285D01*
X130077295Y-93702285D02*
X130172533Y-93702285D01*
X130172533Y-93702285D02*
X130315390Y-93749904D01*
X130315390Y-93749904D02*
X130886819Y-94321332D01*
X130886819Y-94321332D02*
X130886819Y-93702285D01*
X128054819Y-98042857D02*
X127578628Y-98376190D01*
X128054819Y-98614285D02*
X127054819Y-98614285D01*
X127054819Y-98614285D02*
X127054819Y-98233333D01*
X127054819Y-98233333D02*
X127102438Y-98138095D01*
X127102438Y-98138095D02*
X127150057Y-98090476D01*
X127150057Y-98090476D02*
X127245295Y-98042857D01*
X127245295Y-98042857D02*
X127388152Y-98042857D01*
X127388152Y-98042857D02*
X127483390Y-98090476D01*
X127483390Y-98090476D02*
X127531009Y-98138095D01*
X127531009Y-98138095D02*
X127578628Y-98233333D01*
X127578628Y-98233333D02*
X127578628Y-98614285D01*
X127054819Y-97709523D02*
X127054819Y-97090476D01*
X127054819Y-97090476D02*
X127435771Y-97423809D01*
X127435771Y-97423809D02*
X127435771Y-97280952D01*
X127435771Y-97280952D02*
X127483390Y-97185714D01*
X127483390Y-97185714D02*
X127531009Y-97138095D01*
X127531009Y-97138095D02*
X127626247Y-97090476D01*
X127626247Y-97090476D02*
X127864342Y-97090476D01*
X127864342Y-97090476D02*
X127959580Y-97138095D01*
X127959580Y-97138095D02*
X128007200Y-97185714D01*
X128007200Y-97185714D02*
X128054819Y-97280952D01*
X128054819Y-97280952D02*
X128054819Y-97566666D01*
X128054819Y-97566666D02*
X128007200Y-97661904D01*
X128007200Y-97661904D02*
X127959580Y-97709523D01*
X127388152Y-96233333D02*
X128054819Y-96233333D01*
X127007200Y-96471428D02*
X127721485Y-96709523D01*
X127721485Y-96709523D02*
X127721485Y-96090476D01*
X132933333Y-53154819D02*
X132600000Y-52678628D01*
X132361905Y-53154819D02*
X132361905Y-52154819D01*
X132361905Y-52154819D02*
X132742857Y-52154819D01*
X132742857Y-52154819D02*
X132838095Y-52202438D01*
X132838095Y-52202438D02*
X132885714Y-52250057D01*
X132885714Y-52250057D02*
X132933333Y-52345295D01*
X132933333Y-52345295D02*
X132933333Y-52488152D01*
X132933333Y-52488152D02*
X132885714Y-52583390D01*
X132885714Y-52583390D02*
X132838095Y-52631009D01*
X132838095Y-52631009D02*
X132742857Y-52678628D01*
X132742857Y-52678628D02*
X132361905Y-52678628D01*
X133409524Y-53154819D02*
X133600000Y-53154819D01*
X133600000Y-53154819D02*
X133695238Y-53107200D01*
X133695238Y-53107200D02*
X133742857Y-53059580D01*
X133742857Y-53059580D02*
X133838095Y-52916723D01*
X133838095Y-52916723D02*
X133885714Y-52726247D01*
X133885714Y-52726247D02*
X133885714Y-52345295D01*
X133885714Y-52345295D02*
X133838095Y-52250057D01*
X133838095Y-52250057D02*
X133790476Y-52202438D01*
X133790476Y-52202438D02*
X133695238Y-52154819D01*
X133695238Y-52154819D02*
X133504762Y-52154819D01*
X133504762Y-52154819D02*
X133409524Y-52202438D01*
X133409524Y-52202438D02*
X133361905Y-52250057D01*
X133361905Y-52250057D02*
X133314286Y-52345295D01*
X133314286Y-52345295D02*
X133314286Y-52583390D01*
X133314286Y-52583390D02*
X133361905Y-52678628D01*
X133361905Y-52678628D02*
X133409524Y-52726247D01*
X133409524Y-52726247D02*
X133504762Y-52773866D01*
X133504762Y-52773866D02*
X133695238Y-52773866D01*
X133695238Y-52773866D02*
X133790476Y-52726247D01*
X133790476Y-52726247D02*
X133838095Y-52678628D01*
X133838095Y-52678628D02*
X133885714Y-52583390D01*
X141980952Y-45854819D02*
X141504762Y-45854819D01*
X141504762Y-45854819D02*
X141504762Y-44854819D01*
X142314286Y-45331009D02*
X142647619Y-45331009D01*
X142790476Y-45854819D02*
X142314286Y-45854819D01*
X142314286Y-45854819D02*
X142314286Y-44854819D01*
X142314286Y-44854819D02*
X142790476Y-44854819D01*
X143219048Y-45854819D02*
X143219048Y-44854819D01*
X143219048Y-44854819D02*
X143457143Y-44854819D01*
X143457143Y-44854819D02*
X143600000Y-44902438D01*
X143600000Y-44902438D02*
X143695238Y-44997676D01*
X143695238Y-44997676D02*
X143742857Y-45092914D01*
X143742857Y-45092914D02*
X143790476Y-45283390D01*
X143790476Y-45283390D02*
X143790476Y-45426247D01*
X143790476Y-45426247D02*
X143742857Y-45616723D01*
X143742857Y-45616723D02*
X143695238Y-45711961D01*
X143695238Y-45711961D02*
X143600000Y-45807200D01*
X143600000Y-45807200D02*
X143457143Y-45854819D01*
X143457143Y-45854819D02*
X143219048Y-45854819D01*
X144742857Y-45854819D02*
X144171429Y-45854819D01*
X144457143Y-45854819D02*
X144457143Y-44854819D01*
X144457143Y-44854819D02*
X144361905Y-44997676D01*
X144361905Y-44997676D02*
X144266667Y-45092914D01*
X144266667Y-45092914D02*
X144171429Y-45140533D01*
X165032142Y-65254819D02*
X164698809Y-64778628D01*
X164460714Y-65254819D02*
X164460714Y-64254819D01*
X164460714Y-64254819D02*
X164841666Y-64254819D01*
X164841666Y-64254819D02*
X164936904Y-64302438D01*
X164936904Y-64302438D02*
X164984523Y-64350057D01*
X164984523Y-64350057D02*
X165032142Y-64445295D01*
X165032142Y-64445295D02*
X165032142Y-64588152D01*
X165032142Y-64588152D02*
X164984523Y-64683390D01*
X164984523Y-64683390D02*
X164936904Y-64731009D01*
X164936904Y-64731009D02*
X164841666Y-64778628D01*
X164841666Y-64778628D02*
X164460714Y-64778628D01*
X165413095Y-64350057D02*
X165460714Y-64302438D01*
X165460714Y-64302438D02*
X165555952Y-64254819D01*
X165555952Y-64254819D02*
X165794047Y-64254819D01*
X165794047Y-64254819D02*
X165889285Y-64302438D01*
X165889285Y-64302438D02*
X165936904Y-64350057D01*
X165936904Y-64350057D02*
X165984523Y-64445295D01*
X165984523Y-64445295D02*
X165984523Y-64540533D01*
X165984523Y-64540533D02*
X165936904Y-64683390D01*
X165936904Y-64683390D02*
X165365476Y-65254819D01*
X165365476Y-65254819D02*
X165984523Y-65254819D01*
X166365476Y-64350057D02*
X166413095Y-64302438D01*
X166413095Y-64302438D02*
X166508333Y-64254819D01*
X166508333Y-64254819D02*
X166746428Y-64254819D01*
X166746428Y-64254819D02*
X166841666Y-64302438D01*
X166841666Y-64302438D02*
X166889285Y-64350057D01*
X166889285Y-64350057D02*
X166936904Y-64445295D01*
X166936904Y-64445295D02*
X166936904Y-64540533D01*
X166936904Y-64540533D02*
X166889285Y-64683390D01*
X166889285Y-64683390D02*
X166317857Y-65254819D01*
X166317857Y-65254819D02*
X166936904Y-65254819D01*
X129234580Y-90566666D02*
X129282200Y-90614285D01*
X129282200Y-90614285D02*
X129329819Y-90757142D01*
X129329819Y-90757142D02*
X129329819Y-90852380D01*
X129329819Y-90852380D02*
X129282200Y-90995237D01*
X129282200Y-90995237D02*
X129186961Y-91090475D01*
X129186961Y-91090475D02*
X129091723Y-91138094D01*
X129091723Y-91138094D02*
X128901247Y-91185713D01*
X128901247Y-91185713D02*
X128758390Y-91185713D01*
X128758390Y-91185713D02*
X128567914Y-91138094D01*
X128567914Y-91138094D02*
X128472676Y-91090475D01*
X128472676Y-91090475D02*
X128377438Y-90995237D01*
X128377438Y-90995237D02*
X128329819Y-90852380D01*
X128329819Y-90852380D02*
X128329819Y-90757142D01*
X128329819Y-90757142D02*
X128377438Y-90614285D01*
X128377438Y-90614285D02*
X128425057Y-90566666D01*
X128329819Y-90233332D02*
X128329819Y-89614285D01*
X128329819Y-89614285D02*
X128710771Y-89947618D01*
X128710771Y-89947618D02*
X128710771Y-89804761D01*
X128710771Y-89804761D02*
X128758390Y-89709523D01*
X128758390Y-89709523D02*
X128806009Y-89661904D01*
X128806009Y-89661904D02*
X128901247Y-89614285D01*
X128901247Y-89614285D02*
X129139342Y-89614285D01*
X129139342Y-89614285D02*
X129234580Y-89661904D01*
X129234580Y-89661904D02*
X129282200Y-89709523D01*
X129282200Y-89709523D02*
X129329819Y-89804761D01*
X129329819Y-89804761D02*
X129329819Y-90090475D01*
X129329819Y-90090475D02*
X129282200Y-90185713D01*
X129282200Y-90185713D02*
X129234580Y-90233332D01*
X167438095Y-94354819D02*
X167438095Y-93354819D01*
X167438095Y-93831009D02*
X168009523Y-93831009D01*
X168009523Y-94354819D02*
X168009523Y-93354819D01*
X168438095Y-93450057D02*
X168485714Y-93402438D01*
X168485714Y-93402438D02*
X168580952Y-93354819D01*
X168580952Y-93354819D02*
X168819047Y-93354819D01*
X168819047Y-93354819D02*
X168914285Y-93402438D01*
X168914285Y-93402438D02*
X168961904Y-93450057D01*
X168961904Y-93450057D02*
X169009523Y-93545295D01*
X169009523Y-93545295D02*
X169009523Y-93640533D01*
X169009523Y-93640533D02*
X168961904Y-93783390D01*
X168961904Y-93783390D02*
X168390476Y-94354819D01*
X168390476Y-94354819D02*
X169009523Y-94354819D01*
X142257142Y-86259580D02*
X142209523Y-86307200D01*
X142209523Y-86307200D02*
X142066666Y-86354819D01*
X142066666Y-86354819D02*
X141971428Y-86354819D01*
X141971428Y-86354819D02*
X141828571Y-86307200D01*
X141828571Y-86307200D02*
X141733333Y-86211961D01*
X141733333Y-86211961D02*
X141685714Y-86116723D01*
X141685714Y-86116723D02*
X141638095Y-85926247D01*
X141638095Y-85926247D02*
X141638095Y-85783390D01*
X141638095Y-85783390D02*
X141685714Y-85592914D01*
X141685714Y-85592914D02*
X141733333Y-85497676D01*
X141733333Y-85497676D02*
X141828571Y-85402438D01*
X141828571Y-85402438D02*
X141971428Y-85354819D01*
X141971428Y-85354819D02*
X142066666Y-85354819D01*
X142066666Y-85354819D02*
X142209523Y-85402438D01*
X142209523Y-85402438D02*
X142257142Y-85450057D01*
X143209523Y-86354819D02*
X142638095Y-86354819D01*
X142923809Y-86354819D02*
X142923809Y-85354819D01*
X142923809Y-85354819D02*
X142828571Y-85497676D01*
X142828571Y-85497676D02*
X142733333Y-85592914D01*
X142733333Y-85592914D02*
X142638095Y-85640533D01*
X143542857Y-85354819D02*
X144161904Y-85354819D01*
X144161904Y-85354819D02*
X143828571Y-85735771D01*
X143828571Y-85735771D02*
X143971428Y-85735771D01*
X143971428Y-85735771D02*
X144066666Y-85783390D01*
X144066666Y-85783390D02*
X144114285Y-85831009D01*
X144114285Y-85831009D02*
X144161904Y-85926247D01*
X144161904Y-85926247D02*
X144161904Y-86164342D01*
X144161904Y-86164342D02*
X144114285Y-86259580D01*
X144114285Y-86259580D02*
X144066666Y-86307200D01*
X144066666Y-86307200D02*
X143971428Y-86354819D01*
X143971428Y-86354819D02*
X143685714Y-86354819D01*
X143685714Y-86354819D02*
X143590476Y-86307200D01*
X143590476Y-86307200D02*
X143542857Y-86259580D01*
X141518600Y-87651421D02*
X141185267Y-87175230D01*
X140947172Y-87651421D02*
X140947172Y-86651421D01*
X140947172Y-86651421D02*
X141328124Y-86651421D01*
X141328124Y-86651421D02*
X141423362Y-86699040D01*
X141423362Y-86699040D02*
X141470981Y-86746659D01*
X141470981Y-86746659D02*
X141518600Y-86841897D01*
X141518600Y-86841897D02*
X141518600Y-86984754D01*
X141518600Y-86984754D02*
X141470981Y-87079992D01*
X141470981Y-87079992D02*
X141423362Y-87127611D01*
X141423362Y-87127611D02*
X141328124Y-87175230D01*
X141328124Y-87175230D02*
X140947172Y-87175230D01*
X142470981Y-87651421D02*
X141899553Y-87651421D01*
X142185267Y-87651421D02*
X142185267Y-86651421D01*
X142185267Y-86651421D02*
X142090029Y-86794278D01*
X142090029Y-86794278D02*
X141994791Y-86889516D01*
X141994791Y-86889516D02*
X141899553Y-86937135D01*
X143328124Y-86984754D02*
X143328124Y-87651421D01*
X143090029Y-86603802D02*
X142851934Y-87318087D01*
X142851934Y-87318087D02*
X143470981Y-87318087D01*
X167904806Y-81333346D02*
X168619091Y-81333346D01*
X168619091Y-81333346D02*
X168761948Y-81380965D01*
X168761948Y-81380965D02*
X168857187Y-81476203D01*
X168857187Y-81476203D02*
X168904806Y-81619060D01*
X168904806Y-81619060D02*
X168904806Y-81714298D01*
X168000044Y-80904774D02*
X167952425Y-80857155D01*
X167952425Y-80857155D02*
X167904806Y-80761917D01*
X167904806Y-80761917D02*
X167904806Y-80523822D01*
X167904806Y-80523822D02*
X167952425Y-80428584D01*
X167952425Y-80428584D02*
X168000044Y-80380965D01*
X168000044Y-80380965D02*
X168095282Y-80333346D01*
X168095282Y-80333346D02*
X168190520Y-80333346D01*
X168190520Y-80333346D02*
X168333377Y-80380965D01*
X168333377Y-80380965D02*
X168904806Y-80952393D01*
X168904806Y-80952393D02*
X168904806Y-80333346D01*
X126315557Y-47769025D02*
X126220319Y-47721406D01*
X126220319Y-47721406D02*
X126125081Y-47626168D01*
X126125081Y-47626168D02*
X125982224Y-47483310D01*
X125982224Y-47483310D02*
X125886986Y-47435691D01*
X125886986Y-47435691D02*
X125791748Y-47435691D01*
X125839367Y-47673787D02*
X125744129Y-47626168D01*
X125744129Y-47626168D02*
X125648891Y-47530929D01*
X125648891Y-47530929D02*
X125601272Y-47340453D01*
X125601272Y-47340453D02*
X125601272Y-47007120D01*
X125601272Y-47007120D02*
X125648891Y-46816644D01*
X125648891Y-46816644D02*
X125744129Y-46721406D01*
X125744129Y-46721406D02*
X125839367Y-46673787D01*
X125839367Y-46673787D02*
X126029843Y-46673787D01*
X126029843Y-46673787D02*
X126125081Y-46721406D01*
X126125081Y-46721406D02*
X126220319Y-46816644D01*
X126220319Y-46816644D02*
X126267938Y-47007120D01*
X126267938Y-47007120D02*
X126267938Y-47340453D01*
X126267938Y-47340453D02*
X126220319Y-47530929D01*
X126220319Y-47530929D02*
X126125081Y-47626168D01*
X126125081Y-47626168D02*
X126029843Y-47673787D01*
X126029843Y-47673787D02*
X125839367Y-47673787D01*
X127125081Y-47007120D02*
X127125081Y-47673787D01*
X126886986Y-46626168D02*
X126648891Y-47340453D01*
X126648891Y-47340453D02*
X127267938Y-47340453D01*
X150867319Y-83917857D02*
X150391128Y-84251190D01*
X150867319Y-84489285D02*
X149867319Y-84489285D01*
X149867319Y-84489285D02*
X149867319Y-84108333D01*
X149867319Y-84108333D02*
X149914938Y-84013095D01*
X149914938Y-84013095D02*
X149962557Y-83965476D01*
X149962557Y-83965476D02*
X150057795Y-83917857D01*
X150057795Y-83917857D02*
X150200652Y-83917857D01*
X150200652Y-83917857D02*
X150295890Y-83965476D01*
X150295890Y-83965476D02*
X150343509Y-84013095D01*
X150343509Y-84013095D02*
X150391128Y-84108333D01*
X150391128Y-84108333D02*
X150391128Y-84489285D01*
X150867319Y-82965476D02*
X150867319Y-83536904D01*
X150867319Y-83251190D02*
X149867319Y-83251190D01*
X149867319Y-83251190D02*
X150010176Y-83346428D01*
X150010176Y-83346428D02*
X150105414Y-83441666D01*
X150105414Y-83441666D02*
X150153033Y-83536904D01*
X150867319Y-82489285D02*
X150867319Y-82298809D01*
X150867319Y-82298809D02*
X150819700Y-82203571D01*
X150819700Y-82203571D02*
X150772080Y-82155952D01*
X150772080Y-82155952D02*
X150629223Y-82060714D01*
X150629223Y-82060714D02*
X150438747Y-82013095D01*
X150438747Y-82013095D02*
X150057795Y-82013095D01*
X150057795Y-82013095D02*
X149962557Y-82060714D01*
X149962557Y-82060714D02*
X149914938Y-82108333D01*
X149914938Y-82108333D02*
X149867319Y-82203571D01*
X149867319Y-82203571D02*
X149867319Y-82394047D01*
X149867319Y-82394047D02*
X149914938Y-82489285D01*
X149914938Y-82489285D02*
X149962557Y-82536904D01*
X149962557Y-82536904D02*
X150057795Y-82584523D01*
X150057795Y-82584523D02*
X150295890Y-82584523D01*
X150295890Y-82584523D02*
X150391128Y-82536904D01*
X150391128Y-82536904D02*
X150438747Y-82489285D01*
X150438747Y-82489285D02*
X150486366Y-82394047D01*
X150486366Y-82394047D02*
X150486366Y-82203571D01*
X150486366Y-82203571D02*
X150438747Y-82108333D01*
X150438747Y-82108333D02*
X150391128Y-82060714D01*
X150391128Y-82060714D02*
X150295890Y-82013095D01*
X154858333Y-69084819D02*
X154525000Y-68608628D01*
X154286905Y-69084819D02*
X154286905Y-68084819D01*
X154286905Y-68084819D02*
X154667857Y-68084819D01*
X154667857Y-68084819D02*
X154763095Y-68132438D01*
X154763095Y-68132438D02*
X154810714Y-68180057D01*
X154810714Y-68180057D02*
X154858333Y-68275295D01*
X154858333Y-68275295D02*
X154858333Y-68418152D01*
X154858333Y-68418152D02*
X154810714Y-68513390D01*
X154810714Y-68513390D02*
X154763095Y-68561009D01*
X154763095Y-68561009D02*
X154667857Y-68608628D01*
X154667857Y-68608628D02*
X154286905Y-68608628D01*
X155715476Y-68084819D02*
X155525000Y-68084819D01*
X155525000Y-68084819D02*
X155429762Y-68132438D01*
X155429762Y-68132438D02*
X155382143Y-68180057D01*
X155382143Y-68180057D02*
X155286905Y-68322914D01*
X155286905Y-68322914D02*
X155239286Y-68513390D01*
X155239286Y-68513390D02*
X155239286Y-68894342D01*
X155239286Y-68894342D02*
X155286905Y-68989580D01*
X155286905Y-68989580D02*
X155334524Y-69037200D01*
X155334524Y-69037200D02*
X155429762Y-69084819D01*
X155429762Y-69084819D02*
X155620238Y-69084819D01*
X155620238Y-69084819D02*
X155715476Y-69037200D01*
X155715476Y-69037200D02*
X155763095Y-68989580D01*
X155763095Y-68989580D02*
X155810714Y-68894342D01*
X155810714Y-68894342D02*
X155810714Y-68656247D01*
X155810714Y-68656247D02*
X155763095Y-68561009D01*
X155763095Y-68561009D02*
X155715476Y-68513390D01*
X155715476Y-68513390D02*
X155620238Y-68465771D01*
X155620238Y-68465771D02*
X155429762Y-68465771D01*
X155429762Y-68465771D02*
X155334524Y-68513390D01*
X155334524Y-68513390D02*
X155286905Y-68561009D01*
X155286905Y-68561009D02*
X155239286Y-68656247D01*
D11*
X128078490Y-102321428D02*
X128102300Y-102345237D01*
X128102300Y-102345237D02*
X128126109Y-102416666D01*
X128126109Y-102416666D02*
X128126109Y-102464285D01*
X128126109Y-102464285D02*
X128102300Y-102535713D01*
X128102300Y-102535713D02*
X128054680Y-102583332D01*
X128054680Y-102583332D02*
X128007061Y-102607142D01*
X128007061Y-102607142D02*
X127911823Y-102630951D01*
X127911823Y-102630951D02*
X127840395Y-102630951D01*
X127840395Y-102630951D02*
X127745157Y-102607142D01*
X127745157Y-102607142D02*
X127697538Y-102583332D01*
X127697538Y-102583332D02*
X127649919Y-102535713D01*
X127649919Y-102535713D02*
X127626109Y-102464285D01*
X127626109Y-102464285D02*
X127626109Y-102416666D01*
X127626109Y-102416666D02*
X127649919Y-102345237D01*
X127649919Y-102345237D02*
X127673728Y-102321428D01*
X128126109Y-101845237D02*
X128126109Y-102130951D01*
X128126109Y-101988094D02*
X127626109Y-101988094D01*
X127626109Y-101988094D02*
X127697538Y-102035713D01*
X127697538Y-102035713D02*
X127745157Y-102083332D01*
X127745157Y-102083332D02*
X127768966Y-102130951D01*
X128126109Y-101369047D02*
X128126109Y-101654761D01*
X128126109Y-101511904D02*
X127626109Y-101511904D01*
X127626109Y-101511904D02*
X127697538Y-101559523D01*
X127697538Y-101559523D02*
X127745157Y-101607142D01*
X127745157Y-101607142D02*
X127768966Y-101654761D01*
D10*
X152161905Y-101763379D02*
X152161905Y-102572902D01*
X152161905Y-102572902D02*
X152209524Y-102668140D01*
X152209524Y-102668140D02*
X152257143Y-102715760D01*
X152257143Y-102715760D02*
X152352381Y-102763379D01*
X152352381Y-102763379D02*
X152542857Y-102763379D01*
X152542857Y-102763379D02*
X152638095Y-102715760D01*
X152638095Y-102715760D02*
X152685714Y-102668140D01*
X152685714Y-102668140D02*
X152733333Y-102572902D01*
X152733333Y-102572902D02*
X152733333Y-101763379D01*
X153161905Y-102715760D02*
X153304762Y-102763379D01*
X153304762Y-102763379D02*
X153542857Y-102763379D01*
X153542857Y-102763379D02*
X153638095Y-102715760D01*
X153638095Y-102715760D02*
X153685714Y-102668140D01*
X153685714Y-102668140D02*
X153733333Y-102572902D01*
X153733333Y-102572902D02*
X153733333Y-102477664D01*
X153733333Y-102477664D02*
X153685714Y-102382426D01*
X153685714Y-102382426D02*
X153638095Y-102334807D01*
X153638095Y-102334807D02*
X153542857Y-102287188D01*
X153542857Y-102287188D02*
X153352381Y-102239569D01*
X153352381Y-102239569D02*
X153257143Y-102191950D01*
X153257143Y-102191950D02*
X153209524Y-102144331D01*
X153209524Y-102144331D02*
X153161905Y-102049093D01*
X153161905Y-102049093D02*
X153161905Y-101953855D01*
X153161905Y-101953855D02*
X153209524Y-101858617D01*
X153209524Y-101858617D02*
X153257143Y-101810998D01*
X153257143Y-101810998D02*
X153352381Y-101763379D01*
X153352381Y-101763379D02*
X153590476Y-101763379D01*
X153590476Y-101763379D02*
X153733333Y-101810998D01*
X154495238Y-102239569D02*
X154638095Y-102287188D01*
X154638095Y-102287188D02*
X154685714Y-102334807D01*
X154685714Y-102334807D02*
X154733333Y-102430045D01*
X154733333Y-102430045D02*
X154733333Y-102572902D01*
X154733333Y-102572902D02*
X154685714Y-102668140D01*
X154685714Y-102668140D02*
X154638095Y-102715760D01*
X154638095Y-102715760D02*
X154542857Y-102763379D01*
X154542857Y-102763379D02*
X154161905Y-102763379D01*
X154161905Y-102763379D02*
X154161905Y-101763379D01*
X154161905Y-101763379D02*
X154495238Y-101763379D01*
X154495238Y-101763379D02*
X154590476Y-101810998D01*
X154590476Y-101810998D02*
X154638095Y-101858617D01*
X154638095Y-101858617D02*
X154685714Y-101953855D01*
X154685714Y-101953855D02*
X154685714Y-102049093D01*
X154685714Y-102049093D02*
X154638095Y-102144331D01*
X154638095Y-102144331D02*
X154590476Y-102191950D01*
X154590476Y-102191950D02*
X154495238Y-102239569D01*
X154495238Y-102239569D02*
X154161905Y-102239569D01*
X155685714Y-102763379D02*
X155114286Y-102763379D01*
X155400000Y-102763379D02*
X155400000Y-101763379D01*
X155400000Y-101763379D02*
X155304762Y-101906236D01*
X155304762Y-101906236D02*
X155209524Y-102001474D01*
X155209524Y-102001474D02*
X155114286Y-102049093D01*
X165959580Y-69966666D02*
X166007200Y-70014285D01*
X166007200Y-70014285D02*
X166054819Y-70157142D01*
X166054819Y-70157142D02*
X166054819Y-70252380D01*
X166054819Y-70252380D02*
X166007200Y-70395237D01*
X166007200Y-70395237D02*
X165911961Y-70490475D01*
X165911961Y-70490475D02*
X165816723Y-70538094D01*
X165816723Y-70538094D02*
X165626247Y-70585713D01*
X165626247Y-70585713D02*
X165483390Y-70585713D01*
X165483390Y-70585713D02*
X165292914Y-70538094D01*
X165292914Y-70538094D02*
X165197676Y-70490475D01*
X165197676Y-70490475D02*
X165102438Y-70395237D01*
X165102438Y-70395237D02*
X165054819Y-70252380D01*
X165054819Y-70252380D02*
X165054819Y-70157142D01*
X165054819Y-70157142D02*
X165102438Y-70014285D01*
X165102438Y-70014285D02*
X165150057Y-69966666D01*
X165483390Y-69395237D02*
X165435771Y-69490475D01*
X165435771Y-69490475D02*
X165388152Y-69538094D01*
X165388152Y-69538094D02*
X165292914Y-69585713D01*
X165292914Y-69585713D02*
X165245295Y-69585713D01*
X165245295Y-69585713D02*
X165150057Y-69538094D01*
X165150057Y-69538094D02*
X165102438Y-69490475D01*
X165102438Y-69490475D02*
X165054819Y-69395237D01*
X165054819Y-69395237D02*
X165054819Y-69204761D01*
X165054819Y-69204761D02*
X165102438Y-69109523D01*
X165102438Y-69109523D02*
X165150057Y-69061904D01*
X165150057Y-69061904D02*
X165245295Y-69014285D01*
X165245295Y-69014285D02*
X165292914Y-69014285D01*
X165292914Y-69014285D02*
X165388152Y-69061904D01*
X165388152Y-69061904D02*
X165435771Y-69109523D01*
X165435771Y-69109523D02*
X165483390Y-69204761D01*
X165483390Y-69204761D02*
X165483390Y-69395237D01*
X165483390Y-69395237D02*
X165531009Y-69490475D01*
X165531009Y-69490475D02*
X165578628Y-69538094D01*
X165578628Y-69538094D02*
X165673866Y-69585713D01*
X165673866Y-69585713D02*
X165864342Y-69585713D01*
X165864342Y-69585713D02*
X165959580Y-69538094D01*
X165959580Y-69538094D02*
X166007200Y-69490475D01*
X166007200Y-69490475D02*
X166054819Y-69395237D01*
X166054819Y-69395237D02*
X166054819Y-69204761D01*
X166054819Y-69204761D02*
X166007200Y-69109523D01*
X166007200Y-69109523D02*
X165959580Y-69061904D01*
X165959580Y-69061904D02*
X165864342Y-69014285D01*
X165864342Y-69014285D02*
X165673866Y-69014285D01*
X165673866Y-69014285D02*
X165578628Y-69061904D01*
X165578628Y-69061904D02*
X165531009Y-69109523D01*
X165531009Y-69109523D02*
X165483390Y-69204761D01*
X126515557Y-51114502D02*
X126420319Y-51066883D01*
X126420319Y-51066883D02*
X126325081Y-50971645D01*
X126325081Y-50971645D02*
X126182224Y-50828787D01*
X126182224Y-50828787D02*
X126086986Y-50781168D01*
X126086986Y-50781168D02*
X125991748Y-50781168D01*
X126039367Y-51019264D02*
X125944129Y-50971645D01*
X125944129Y-50971645D02*
X125848891Y-50876406D01*
X125848891Y-50876406D02*
X125801272Y-50685930D01*
X125801272Y-50685930D02*
X125801272Y-50352597D01*
X125801272Y-50352597D02*
X125848891Y-50162121D01*
X125848891Y-50162121D02*
X125944129Y-50066883D01*
X125944129Y-50066883D02*
X126039367Y-50019264D01*
X126039367Y-50019264D02*
X126229843Y-50019264D01*
X126229843Y-50019264D02*
X126325081Y-50066883D01*
X126325081Y-50066883D02*
X126420319Y-50162121D01*
X126420319Y-50162121D02*
X126467938Y-50352597D01*
X126467938Y-50352597D02*
X126467938Y-50685930D01*
X126467938Y-50685930D02*
X126420319Y-50876406D01*
X126420319Y-50876406D02*
X126325081Y-50971645D01*
X126325081Y-50971645D02*
X126229843Y-51019264D01*
X126229843Y-51019264D02*
X126039367Y-51019264D01*
X127372700Y-50019264D02*
X126896510Y-50019264D01*
X126896510Y-50019264D02*
X126848891Y-50495454D01*
X126848891Y-50495454D02*
X126896510Y-50447835D01*
X126896510Y-50447835D02*
X126991748Y-50400216D01*
X126991748Y-50400216D02*
X127229843Y-50400216D01*
X127229843Y-50400216D02*
X127325081Y-50447835D01*
X127325081Y-50447835D02*
X127372700Y-50495454D01*
X127372700Y-50495454D02*
X127420319Y-50590692D01*
X127420319Y-50590692D02*
X127420319Y-50828787D01*
X127420319Y-50828787D02*
X127372700Y-50924025D01*
X127372700Y-50924025D02*
X127325081Y-50971645D01*
X127325081Y-50971645D02*
X127229843Y-51019264D01*
X127229843Y-51019264D02*
X126991748Y-51019264D01*
X126991748Y-51019264D02*
X126896510Y-50971645D01*
X126896510Y-50971645D02*
X126848891Y-50924025D01*
X135157142Y-86159580D02*
X135109523Y-86207200D01*
X135109523Y-86207200D02*
X134966666Y-86254819D01*
X134966666Y-86254819D02*
X134871428Y-86254819D01*
X134871428Y-86254819D02*
X134728571Y-86207200D01*
X134728571Y-86207200D02*
X134633333Y-86111961D01*
X134633333Y-86111961D02*
X134585714Y-86016723D01*
X134585714Y-86016723D02*
X134538095Y-85826247D01*
X134538095Y-85826247D02*
X134538095Y-85683390D01*
X134538095Y-85683390D02*
X134585714Y-85492914D01*
X134585714Y-85492914D02*
X134633333Y-85397676D01*
X134633333Y-85397676D02*
X134728571Y-85302438D01*
X134728571Y-85302438D02*
X134871428Y-85254819D01*
X134871428Y-85254819D02*
X134966666Y-85254819D01*
X134966666Y-85254819D02*
X135109523Y-85302438D01*
X135109523Y-85302438D02*
X135157142Y-85350057D01*
X136109523Y-86254819D02*
X135538095Y-86254819D01*
X135823809Y-86254819D02*
X135823809Y-85254819D01*
X135823809Y-85254819D02*
X135728571Y-85397676D01*
X135728571Y-85397676D02*
X135633333Y-85492914D01*
X135633333Y-85492914D02*
X135538095Y-85540533D01*
X136966666Y-85588152D02*
X136966666Y-86254819D01*
X136728571Y-85207200D02*
X136490476Y-85921485D01*
X136490476Y-85921485D02*
X137109523Y-85921485D01*
X158062438Y-57108299D02*
X158062438Y-57917822D01*
X158062438Y-57917822D02*
X158110057Y-58013060D01*
X158110057Y-58013060D02*
X158157676Y-58060680D01*
X158157676Y-58060680D02*
X158252914Y-58108299D01*
X158252914Y-58108299D02*
X158443390Y-58108299D01*
X158443390Y-58108299D02*
X158538628Y-58060680D01*
X158538628Y-58060680D02*
X158586247Y-58013060D01*
X158586247Y-58013060D02*
X158633866Y-57917822D01*
X158633866Y-57917822D02*
X158633866Y-57108299D01*
X159633866Y-58108299D02*
X159062438Y-58108299D01*
X159348152Y-58108299D02*
X159348152Y-57108299D01*
X159348152Y-57108299D02*
X159252914Y-57251156D01*
X159252914Y-57251156D02*
X159157676Y-57346394D01*
X159157676Y-57346394D02*
X159062438Y-57394013D01*
X160252914Y-57108299D02*
X160348152Y-57108299D01*
X160348152Y-57108299D02*
X160443390Y-57155918D01*
X160443390Y-57155918D02*
X160491009Y-57203537D01*
X160491009Y-57203537D02*
X160538628Y-57298775D01*
X160538628Y-57298775D02*
X160586247Y-57489251D01*
X160586247Y-57489251D02*
X160586247Y-57727346D01*
X160586247Y-57727346D02*
X160538628Y-57917822D01*
X160538628Y-57917822D02*
X160491009Y-58013060D01*
X160491009Y-58013060D02*
X160443390Y-58060680D01*
X160443390Y-58060680D02*
X160348152Y-58108299D01*
X160348152Y-58108299D02*
X160252914Y-58108299D01*
X160252914Y-58108299D02*
X160157676Y-58060680D01*
X160157676Y-58060680D02*
X160110057Y-58013060D01*
X160110057Y-58013060D02*
X160062438Y-57917822D01*
X160062438Y-57917822D02*
X160014819Y-57727346D01*
X160014819Y-57727346D02*
X160014819Y-57489251D01*
X160014819Y-57489251D02*
X160062438Y-57298775D01*
X160062438Y-57298775D02*
X160110057Y-57203537D01*
X160110057Y-57203537D02*
X160157676Y-57155918D01*
X160157676Y-57155918D02*
X160252914Y-57108299D01*
X153750057Y-68595238D02*
X153702438Y-68690476D01*
X153702438Y-68690476D02*
X153607200Y-68785714D01*
X153607200Y-68785714D02*
X153464342Y-68928571D01*
X153464342Y-68928571D02*
X153416723Y-69023809D01*
X153416723Y-69023809D02*
X153416723Y-69119047D01*
X153654819Y-69071428D02*
X153607200Y-69166666D01*
X153607200Y-69166666D02*
X153511961Y-69261904D01*
X153511961Y-69261904D02*
X153321485Y-69309523D01*
X153321485Y-69309523D02*
X152988152Y-69309523D01*
X152988152Y-69309523D02*
X152797676Y-69261904D01*
X152797676Y-69261904D02*
X152702438Y-69166666D01*
X152702438Y-69166666D02*
X152654819Y-69071428D01*
X152654819Y-69071428D02*
X152654819Y-68880952D01*
X152654819Y-68880952D02*
X152702438Y-68785714D01*
X152702438Y-68785714D02*
X152797676Y-68690476D01*
X152797676Y-68690476D02*
X152988152Y-68642857D01*
X152988152Y-68642857D02*
X153321485Y-68642857D01*
X153321485Y-68642857D02*
X153511961Y-68690476D01*
X153511961Y-68690476D02*
X153607200Y-68785714D01*
X153607200Y-68785714D02*
X153654819Y-68880952D01*
X153654819Y-68880952D02*
X153654819Y-69071428D01*
X153654819Y-67690476D02*
X153654819Y-68261904D01*
X153654819Y-67976190D02*
X152654819Y-67976190D01*
X152654819Y-67976190D02*
X152797676Y-68071428D01*
X152797676Y-68071428D02*
X152892914Y-68166666D01*
X152892914Y-68166666D02*
X152940533Y-68261904D01*
D11*
X127278571Y-106826109D02*
X127111905Y-106588014D01*
X126992857Y-106826109D02*
X126992857Y-106326109D01*
X126992857Y-106326109D02*
X127183333Y-106326109D01*
X127183333Y-106326109D02*
X127230952Y-106349919D01*
X127230952Y-106349919D02*
X127254762Y-106373728D01*
X127254762Y-106373728D02*
X127278571Y-106421347D01*
X127278571Y-106421347D02*
X127278571Y-106492776D01*
X127278571Y-106492776D02*
X127254762Y-106540395D01*
X127254762Y-106540395D02*
X127230952Y-106564204D01*
X127230952Y-106564204D02*
X127183333Y-106588014D01*
X127183333Y-106588014D02*
X126992857Y-106588014D01*
X127445238Y-106326109D02*
X127754762Y-106326109D01*
X127754762Y-106326109D02*
X127588095Y-106516585D01*
X127588095Y-106516585D02*
X127659524Y-106516585D01*
X127659524Y-106516585D02*
X127707143Y-106540395D01*
X127707143Y-106540395D02*
X127730952Y-106564204D01*
X127730952Y-106564204D02*
X127754762Y-106611823D01*
X127754762Y-106611823D02*
X127754762Y-106730871D01*
X127754762Y-106730871D02*
X127730952Y-106778490D01*
X127730952Y-106778490D02*
X127707143Y-106802300D01*
X127707143Y-106802300D02*
X127659524Y-106826109D01*
X127659524Y-106826109D02*
X127516667Y-106826109D01*
X127516667Y-106826109D02*
X127469048Y-106802300D01*
X127469048Y-106802300D02*
X127445238Y-106778490D01*
X127945238Y-106373728D02*
X127969047Y-106349919D01*
X127969047Y-106349919D02*
X128016666Y-106326109D01*
X128016666Y-106326109D02*
X128135714Y-106326109D01*
X128135714Y-106326109D02*
X128183333Y-106349919D01*
X128183333Y-106349919D02*
X128207142Y-106373728D01*
X128207142Y-106373728D02*
X128230952Y-106421347D01*
X128230952Y-106421347D02*
X128230952Y-106468966D01*
X128230952Y-106468966D02*
X128207142Y-106540395D01*
X128207142Y-106540395D02*
X127921428Y-106826109D01*
X127921428Y-106826109D02*
X128230952Y-106826109D01*
D10*
X153182080Y-83817857D02*
X153229700Y-83865476D01*
X153229700Y-83865476D02*
X153277319Y-84008333D01*
X153277319Y-84008333D02*
X153277319Y-84103571D01*
X153277319Y-84103571D02*
X153229700Y-84246428D01*
X153229700Y-84246428D02*
X153134461Y-84341666D01*
X153134461Y-84341666D02*
X153039223Y-84389285D01*
X153039223Y-84389285D02*
X152848747Y-84436904D01*
X152848747Y-84436904D02*
X152705890Y-84436904D01*
X152705890Y-84436904D02*
X152515414Y-84389285D01*
X152515414Y-84389285D02*
X152420176Y-84341666D01*
X152420176Y-84341666D02*
X152324938Y-84246428D01*
X152324938Y-84246428D02*
X152277319Y-84103571D01*
X152277319Y-84103571D02*
X152277319Y-84008333D01*
X152277319Y-84008333D02*
X152324938Y-83865476D01*
X152324938Y-83865476D02*
X152372557Y-83817857D01*
X153277319Y-82865476D02*
X153277319Y-83436904D01*
X153277319Y-83151190D02*
X152277319Y-83151190D01*
X152277319Y-83151190D02*
X152420176Y-83246428D01*
X152420176Y-83246428D02*
X152515414Y-83341666D01*
X152515414Y-83341666D02*
X152563033Y-83436904D01*
X152372557Y-82484523D02*
X152324938Y-82436904D01*
X152324938Y-82436904D02*
X152277319Y-82341666D01*
X152277319Y-82341666D02*
X152277319Y-82103571D01*
X152277319Y-82103571D02*
X152324938Y-82008333D01*
X152324938Y-82008333D02*
X152372557Y-81960714D01*
X152372557Y-81960714D02*
X152467795Y-81913095D01*
X152467795Y-81913095D02*
X152563033Y-81913095D01*
X152563033Y-81913095D02*
X152705890Y-81960714D01*
X152705890Y-81960714D02*
X153277319Y-82532142D01*
X153277319Y-82532142D02*
X153277319Y-81913095D01*
X148347319Y-83917857D02*
X147871128Y-84251190D01*
X148347319Y-84489285D02*
X147347319Y-84489285D01*
X147347319Y-84489285D02*
X147347319Y-84108333D01*
X147347319Y-84108333D02*
X147394938Y-84013095D01*
X147394938Y-84013095D02*
X147442557Y-83965476D01*
X147442557Y-83965476D02*
X147537795Y-83917857D01*
X147537795Y-83917857D02*
X147680652Y-83917857D01*
X147680652Y-83917857D02*
X147775890Y-83965476D01*
X147775890Y-83965476D02*
X147823509Y-84013095D01*
X147823509Y-84013095D02*
X147871128Y-84108333D01*
X147871128Y-84108333D02*
X147871128Y-84489285D01*
X147442557Y-83536904D02*
X147394938Y-83489285D01*
X147394938Y-83489285D02*
X147347319Y-83394047D01*
X147347319Y-83394047D02*
X147347319Y-83155952D01*
X147347319Y-83155952D02*
X147394938Y-83060714D01*
X147394938Y-83060714D02*
X147442557Y-83013095D01*
X147442557Y-83013095D02*
X147537795Y-82965476D01*
X147537795Y-82965476D02*
X147633033Y-82965476D01*
X147633033Y-82965476D02*
X147775890Y-83013095D01*
X147775890Y-83013095D02*
X148347319Y-83584523D01*
X148347319Y-83584523D02*
X148347319Y-82965476D01*
X147680652Y-82108333D02*
X148347319Y-82108333D01*
X147299700Y-82346428D02*
X148013985Y-82584523D01*
X148013985Y-82584523D02*
X148013985Y-81965476D01*
X132633333Y-47024819D02*
X132300000Y-46548628D01*
X132061905Y-47024819D02*
X132061905Y-46024819D01*
X132061905Y-46024819D02*
X132442857Y-46024819D01*
X132442857Y-46024819D02*
X132538095Y-46072438D01*
X132538095Y-46072438D02*
X132585714Y-46120057D01*
X132585714Y-46120057D02*
X132633333Y-46215295D01*
X132633333Y-46215295D02*
X132633333Y-46358152D01*
X132633333Y-46358152D02*
X132585714Y-46453390D01*
X132585714Y-46453390D02*
X132538095Y-46501009D01*
X132538095Y-46501009D02*
X132442857Y-46548628D01*
X132442857Y-46548628D02*
X132061905Y-46548628D01*
X132966667Y-46024819D02*
X133633333Y-46024819D01*
X133633333Y-46024819D02*
X133204762Y-47024819D01*
D11*
X153358109Y-95671428D02*
X153120014Y-95838094D01*
X153358109Y-95957142D02*
X152858109Y-95957142D01*
X152858109Y-95957142D02*
X152858109Y-95766666D01*
X152858109Y-95766666D02*
X152881919Y-95719047D01*
X152881919Y-95719047D02*
X152905728Y-95695237D01*
X152905728Y-95695237D02*
X152953347Y-95671428D01*
X152953347Y-95671428D02*
X153024776Y-95671428D01*
X153024776Y-95671428D02*
X153072395Y-95695237D01*
X153072395Y-95695237D02*
X153096204Y-95719047D01*
X153096204Y-95719047D02*
X153120014Y-95766666D01*
X153120014Y-95766666D02*
X153120014Y-95957142D01*
X152858109Y-95504761D02*
X152858109Y-95195237D01*
X152858109Y-95195237D02*
X153048585Y-95361904D01*
X153048585Y-95361904D02*
X153048585Y-95290475D01*
X153048585Y-95290475D02*
X153072395Y-95242856D01*
X153072395Y-95242856D02*
X153096204Y-95219047D01*
X153096204Y-95219047D02*
X153143823Y-95195237D01*
X153143823Y-95195237D02*
X153262871Y-95195237D01*
X153262871Y-95195237D02*
X153310490Y-95219047D01*
X153310490Y-95219047D02*
X153334300Y-95242856D01*
X153334300Y-95242856D02*
X153358109Y-95290475D01*
X153358109Y-95290475D02*
X153358109Y-95433332D01*
X153358109Y-95433332D02*
X153334300Y-95480951D01*
X153334300Y-95480951D02*
X153310490Y-95504761D01*
X152858109Y-94766666D02*
X152858109Y-94861904D01*
X152858109Y-94861904D02*
X152881919Y-94909523D01*
X152881919Y-94909523D02*
X152905728Y-94933333D01*
X152905728Y-94933333D02*
X152977157Y-94980952D01*
X152977157Y-94980952D02*
X153072395Y-95004761D01*
X153072395Y-95004761D02*
X153262871Y-95004761D01*
X153262871Y-95004761D02*
X153310490Y-94980952D01*
X153310490Y-94980952D02*
X153334300Y-94957142D01*
X153334300Y-94957142D02*
X153358109Y-94909523D01*
X153358109Y-94909523D02*
X153358109Y-94814285D01*
X153358109Y-94814285D02*
X153334300Y-94766666D01*
X153334300Y-94766666D02*
X153310490Y-94742857D01*
X153310490Y-94742857D02*
X153262871Y-94719047D01*
X153262871Y-94719047D02*
X153143823Y-94719047D01*
X153143823Y-94719047D02*
X153096204Y-94742857D01*
X153096204Y-94742857D02*
X153072395Y-94766666D01*
X153072395Y-94766666D02*
X153048585Y-94814285D01*
X153048585Y-94814285D02*
X153048585Y-94909523D01*
X153048585Y-94909523D02*
X153072395Y-94957142D01*
X153072395Y-94957142D02*
X153096204Y-94980952D01*
X153096204Y-94980952D02*
X153143823Y-95004761D01*
X156678387Y-45326645D02*
X156678387Y-44612360D01*
X156678387Y-44612360D02*
X156726006Y-44469503D01*
X156726006Y-44469503D02*
X156821244Y-44374265D01*
X156821244Y-44374265D02*
X156964101Y-44326645D01*
X156964101Y-44326645D02*
X157059339Y-44326645D01*
X155773625Y-44993312D02*
X155773625Y-44326645D01*
X156011720Y-45374265D02*
X156249815Y-44659979D01*
X156249815Y-44659979D02*
X155630768Y-44659979D01*
X126078571Y-107526109D02*
X125911905Y-107288014D01*
X125792857Y-107526109D02*
X125792857Y-107026109D01*
X125792857Y-107026109D02*
X125983333Y-107026109D01*
X125983333Y-107026109D02*
X126030952Y-107049919D01*
X126030952Y-107049919D02*
X126054762Y-107073728D01*
X126054762Y-107073728D02*
X126078571Y-107121347D01*
X126078571Y-107121347D02*
X126078571Y-107192776D01*
X126078571Y-107192776D02*
X126054762Y-107240395D01*
X126054762Y-107240395D02*
X126030952Y-107264204D01*
X126030952Y-107264204D02*
X125983333Y-107288014D01*
X125983333Y-107288014D02*
X125792857Y-107288014D01*
X126269048Y-107073728D02*
X126292857Y-107049919D01*
X126292857Y-107049919D02*
X126340476Y-107026109D01*
X126340476Y-107026109D02*
X126459524Y-107026109D01*
X126459524Y-107026109D02*
X126507143Y-107049919D01*
X126507143Y-107049919D02*
X126530952Y-107073728D01*
X126530952Y-107073728D02*
X126554762Y-107121347D01*
X126554762Y-107121347D02*
X126554762Y-107168966D01*
X126554762Y-107168966D02*
X126530952Y-107240395D01*
X126530952Y-107240395D02*
X126245238Y-107526109D01*
X126245238Y-107526109D02*
X126554762Y-107526109D01*
X126792857Y-107526109D02*
X126888095Y-107526109D01*
X126888095Y-107526109D02*
X126935714Y-107502300D01*
X126935714Y-107502300D02*
X126959523Y-107478490D01*
X126959523Y-107478490D02*
X127007142Y-107407061D01*
X127007142Y-107407061D02*
X127030952Y-107311823D01*
X127030952Y-107311823D02*
X127030952Y-107121347D01*
X127030952Y-107121347D02*
X127007142Y-107073728D01*
X127007142Y-107073728D02*
X126983333Y-107049919D01*
X126983333Y-107049919D02*
X126935714Y-107026109D01*
X126935714Y-107026109D02*
X126840476Y-107026109D01*
X126840476Y-107026109D02*
X126792857Y-107049919D01*
X126792857Y-107049919D02*
X126769047Y-107073728D01*
X126769047Y-107073728D02*
X126745238Y-107121347D01*
X126745238Y-107121347D02*
X126745238Y-107240395D01*
X126745238Y-107240395D02*
X126769047Y-107288014D01*
X126769047Y-107288014D02*
X126792857Y-107311823D01*
X126792857Y-107311823D02*
X126840476Y-107335633D01*
X126840476Y-107335633D02*
X126935714Y-107335633D01*
X126935714Y-107335633D02*
X126983333Y-107311823D01*
X126983333Y-107311823D02*
X127007142Y-107288014D01*
X127007142Y-107288014D02*
X127030952Y-107240395D01*
D10*
X129689142Y-98468819D02*
X129355809Y-97992628D01*
X129117714Y-98468819D02*
X129117714Y-97468819D01*
X129117714Y-97468819D02*
X129498666Y-97468819D01*
X129498666Y-97468819D02*
X129593904Y-97516438D01*
X129593904Y-97516438D02*
X129641523Y-97564057D01*
X129641523Y-97564057D02*
X129689142Y-97659295D01*
X129689142Y-97659295D02*
X129689142Y-97802152D01*
X129689142Y-97802152D02*
X129641523Y-97897390D01*
X129641523Y-97897390D02*
X129593904Y-97945009D01*
X129593904Y-97945009D02*
X129498666Y-97992628D01*
X129498666Y-97992628D02*
X129117714Y-97992628D01*
X130022476Y-97468819D02*
X130641523Y-97468819D01*
X130641523Y-97468819D02*
X130308190Y-97849771D01*
X130308190Y-97849771D02*
X130451047Y-97849771D01*
X130451047Y-97849771D02*
X130546285Y-97897390D01*
X130546285Y-97897390D02*
X130593904Y-97945009D01*
X130593904Y-97945009D02*
X130641523Y-98040247D01*
X130641523Y-98040247D02*
X130641523Y-98278342D01*
X130641523Y-98278342D02*
X130593904Y-98373580D01*
X130593904Y-98373580D02*
X130546285Y-98421200D01*
X130546285Y-98421200D02*
X130451047Y-98468819D01*
X130451047Y-98468819D02*
X130165333Y-98468819D01*
X130165333Y-98468819D02*
X130070095Y-98421200D01*
X130070095Y-98421200D02*
X130022476Y-98373580D01*
X130974857Y-97468819D02*
X131593904Y-97468819D01*
X131593904Y-97468819D02*
X131260571Y-97849771D01*
X131260571Y-97849771D02*
X131403428Y-97849771D01*
X131403428Y-97849771D02*
X131498666Y-97897390D01*
X131498666Y-97897390D02*
X131546285Y-97945009D01*
X131546285Y-97945009D02*
X131593904Y-98040247D01*
X131593904Y-98040247D02*
X131593904Y-98278342D01*
X131593904Y-98278342D02*
X131546285Y-98373580D01*
X131546285Y-98373580D02*
X131498666Y-98421200D01*
X131498666Y-98421200D02*
X131403428Y-98468819D01*
X131403428Y-98468819D02*
X131117714Y-98468819D01*
X131117714Y-98468819D02*
X131022476Y-98421200D01*
X131022476Y-98421200D02*
X130974857Y-98373580D01*
X130556818Y-63871657D02*
X130223485Y-63395466D01*
X129985390Y-63871657D02*
X129985390Y-62871657D01*
X129985390Y-62871657D02*
X130366342Y-62871657D01*
X130366342Y-62871657D02*
X130461580Y-62919276D01*
X130461580Y-62919276D02*
X130509199Y-62966895D01*
X130509199Y-62966895D02*
X130556818Y-63062133D01*
X130556818Y-63062133D02*
X130556818Y-63204990D01*
X130556818Y-63204990D02*
X130509199Y-63300228D01*
X130509199Y-63300228D02*
X130461580Y-63347847D01*
X130461580Y-63347847D02*
X130366342Y-63395466D01*
X130366342Y-63395466D02*
X129985390Y-63395466D01*
X131509199Y-63871657D02*
X130937771Y-63871657D01*
X131223485Y-63871657D02*
X131223485Y-62871657D01*
X131223485Y-62871657D02*
X131128247Y-63014514D01*
X131128247Y-63014514D02*
X131033009Y-63109752D01*
X131033009Y-63109752D02*
X130937771Y-63157371D01*
X132366342Y-62871657D02*
X132175866Y-62871657D01*
X132175866Y-62871657D02*
X132080628Y-62919276D01*
X132080628Y-62919276D02*
X132033009Y-62966895D01*
X132033009Y-62966895D02*
X131937771Y-63109752D01*
X131937771Y-63109752D02*
X131890152Y-63300228D01*
X131890152Y-63300228D02*
X131890152Y-63681180D01*
X131890152Y-63681180D02*
X131937771Y-63776418D01*
X131937771Y-63776418D02*
X131985390Y-63824038D01*
X131985390Y-63824038D02*
X132080628Y-63871657D01*
X132080628Y-63871657D02*
X132271104Y-63871657D01*
X132271104Y-63871657D02*
X132366342Y-63824038D01*
X132366342Y-63824038D02*
X132413961Y-63776418D01*
X132413961Y-63776418D02*
X132461580Y-63681180D01*
X132461580Y-63681180D02*
X132461580Y-63443085D01*
X132461580Y-63443085D02*
X132413961Y-63347847D01*
X132413961Y-63347847D02*
X132366342Y-63300228D01*
X132366342Y-63300228D02*
X132271104Y-63252609D01*
X132271104Y-63252609D02*
X132080628Y-63252609D01*
X132080628Y-63252609D02*
X131985390Y-63300228D01*
X131985390Y-63300228D02*
X131937771Y-63347847D01*
X131937771Y-63347847D02*
X131890152Y-63443085D01*
D11*
X128018109Y-95409428D02*
X127780014Y-95576094D01*
X128018109Y-95695142D02*
X127518109Y-95695142D01*
X127518109Y-95695142D02*
X127518109Y-95504666D01*
X127518109Y-95504666D02*
X127541919Y-95457047D01*
X127541919Y-95457047D02*
X127565728Y-95433237D01*
X127565728Y-95433237D02*
X127613347Y-95409428D01*
X127613347Y-95409428D02*
X127684776Y-95409428D01*
X127684776Y-95409428D02*
X127732395Y-95433237D01*
X127732395Y-95433237D02*
X127756204Y-95457047D01*
X127756204Y-95457047D02*
X127780014Y-95504666D01*
X127780014Y-95504666D02*
X127780014Y-95695142D01*
X127565728Y-95218951D02*
X127541919Y-95195142D01*
X127541919Y-95195142D02*
X127518109Y-95147523D01*
X127518109Y-95147523D02*
X127518109Y-95028475D01*
X127518109Y-95028475D02*
X127541919Y-94980856D01*
X127541919Y-94980856D02*
X127565728Y-94957047D01*
X127565728Y-94957047D02*
X127613347Y-94933237D01*
X127613347Y-94933237D02*
X127660966Y-94933237D01*
X127660966Y-94933237D02*
X127732395Y-94957047D01*
X127732395Y-94957047D02*
X128018109Y-95242761D01*
X128018109Y-95242761D02*
X128018109Y-94933237D01*
X127518109Y-94766571D02*
X127518109Y-94433238D01*
X127518109Y-94433238D02*
X128018109Y-94647523D01*
D10*
X130555630Y-60503613D02*
X130222297Y-60027422D01*
X129984202Y-60503613D02*
X129984202Y-59503613D01*
X129984202Y-59503613D02*
X130365154Y-59503613D01*
X130365154Y-59503613D02*
X130460392Y-59551232D01*
X130460392Y-59551232D02*
X130508011Y-59598851D01*
X130508011Y-59598851D02*
X130555630Y-59694089D01*
X130555630Y-59694089D02*
X130555630Y-59836946D01*
X130555630Y-59836946D02*
X130508011Y-59932184D01*
X130508011Y-59932184D02*
X130460392Y-59979803D01*
X130460392Y-59979803D02*
X130365154Y-60027422D01*
X130365154Y-60027422D02*
X129984202Y-60027422D01*
X131508011Y-60503613D02*
X130936583Y-60503613D01*
X131222297Y-60503613D02*
X131222297Y-59503613D01*
X131222297Y-59503613D02*
X131127059Y-59646470D01*
X131127059Y-59646470D02*
X131031821Y-59741708D01*
X131031821Y-59741708D02*
X130936583Y-59789327D01*
X132079440Y-59932184D02*
X131984202Y-59884565D01*
X131984202Y-59884565D02*
X131936583Y-59836946D01*
X131936583Y-59836946D02*
X131888964Y-59741708D01*
X131888964Y-59741708D02*
X131888964Y-59694089D01*
X131888964Y-59694089D02*
X131936583Y-59598851D01*
X131936583Y-59598851D02*
X131984202Y-59551232D01*
X131984202Y-59551232D02*
X132079440Y-59503613D01*
X132079440Y-59503613D02*
X132269916Y-59503613D01*
X132269916Y-59503613D02*
X132365154Y-59551232D01*
X132365154Y-59551232D02*
X132412773Y-59598851D01*
X132412773Y-59598851D02*
X132460392Y-59694089D01*
X132460392Y-59694089D02*
X132460392Y-59741708D01*
X132460392Y-59741708D02*
X132412773Y-59836946D01*
X132412773Y-59836946D02*
X132365154Y-59884565D01*
X132365154Y-59884565D02*
X132269916Y-59932184D01*
X132269916Y-59932184D02*
X132079440Y-59932184D01*
X132079440Y-59932184D02*
X131984202Y-59979803D01*
X131984202Y-59979803D02*
X131936583Y-60027422D01*
X131936583Y-60027422D02*
X131888964Y-60122660D01*
X131888964Y-60122660D02*
X131888964Y-60313136D01*
X131888964Y-60313136D02*
X131936583Y-60408374D01*
X131936583Y-60408374D02*
X131984202Y-60455994D01*
X131984202Y-60455994D02*
X132079440Y-60503613D01*
X132079440Y-60503613D02*
X132269916Y-60503613D01*
X132269916Y-60503613D02*
X132365154Y-60455994D01*
X132365154Y-60455994D02*
X132412773Y-60408374D01*
X132412773Y-60408374D02*
X132460392Y-60313136D01*
X132460392Y-60313136D02*
X132460392Y-60122660D01*
X132460392Y-60122660D02*
X132412773Y-60027422D01*
X132412773Y-60027422D02*
X132365154Y-59979803D01*
X132365154Y-59979803D02*
X132269916Y-59932184D01*
X134607142Y-60654819D02*
X134273809Y-60178628D01*
X134035714Y-60654819D02*
X134035714Y-59654819D01*
X134035714Y-59654819D02*
X134416666Y-59654819D01*
X134416666Y-59654819D02*
X134511904Y-59702438D01*
X134511904Y-59702438D02*
X134559523Y-59750057D01*
X134559523Y-59750057D02*
X134607142Y-59845295D01*
X134607142Y-59845295D02*
X134607142Y-59988152D01*
X134607142Y-59988152D02*
X134559523Y-60083390D01*
X134559523Y-60083390D02*
X134511904Y-60131009D01*
X134511904Y-60131009D02*
X134416666Y-60178628D01*
X134416666Y-60178628D02*
X134035714Y-60178628D01*
X135559523Y-60654819D02*
X134988095Y-60654819D01*
X135273809Y-60654819D02*
X135273809Y-59654819D01*
X135273809Y-59654819D02*
X135178571Y-59797676D01*
X135178571Y-59797676D02*
X135083333Y-59892914D01*
X135083333Y-59892914D02*
X134988095Y-59940533D01*
X136511904Y-60654819D02*
X135940476Y-60654819D01*
X136226190Y-60654819D02*
X136226190Y-59654819D01*
X136226190Y-59654819D02*
X136130952Y-59797676D01*
X136130952Y-59797676D02*
X136035714Y-59892914D01*
X136035714Y-59892914D02*
X135940476Y-59940533D01*
X143007952Y-68145351D02*
X142674619Y-67669160D01*
X142436524Y-68145351D02*
X142436524Y-67145351D01*
X142436524Y-67145351D02*
X142817476Y-67145351D01*
X142817476Y-67145351D02*
X142912714Y-67192970D01*
X142912714Y-67192970D02*
X142960333Y-67240589D01*
X142960333Y-67240589D02*
X143007952Y-67335827D01*
X143007952Y-67335827D02*
X143007952Y-67478684D01*
X143007952Y-67478684D02*
X142960333Y-67573922D01*
X142960333Y-67573922D02*
X142912714Y-67621541D01*
X142912714Y-67621541D02*
X142817476Y-67669160D01*
X142817476Y-67669160D02*
X142436524Y-67669160D01*
X143960333Y-68145351D02*
X143388905Y-68145351D01*
X143674619Y-68145351D02*
X143674619Y-67145351D01*
X143674619Y-67145351D02*
X143579381Y-67288208D01*
X143579381Y-67288208D02*
X143484143Y-67383446D01*
X143484143Y-67383446D02*
X143388905Y-67431065D01*
X161633333Y-103859580D02*
X161585714Y-103907200D01*
X161585714Y-103907200D02*
X161442857Y-103954819D01*
X161442857Y-103954819D02*
X161347619Y-103954819D01*
X161347619Y-103954819D02*
X161204762Y-103907200D01*
X161204762Y-103907200D02*
X161109524Y-103811961D01*
X161109524Y-103811961D02*
X161061905Y-103716723D01*
X161061905Y-103716723D02*
X161014286Y-103526247D01*
X161014286Y-103526247D02*
X161014286Y-103383390D01*
X161014286Y-103383390D02*
X161061905Y-103192914D01*
X161061905Y-103192914D02*
X161109524Y-103097676D01*
X161109524Y-103097676D02*
X161204762Y-103002438D01*
X161204762Y-103002438D02*
X161347619Y-102954819D01*
X161347619Y-102954819D02*
X161442857Y-102954819D01*
X161442857Y-102954819D02*
X161585714Y-103002438D01*
X161585714Y-103002438D02*
X161633333Y-103050057D01*
X161966667Y-102954819D02*
X162633333Y-102954819D01*
X162633333Y-102954819D02*
X162204762Y-103954819D01*
X143638171Y-88029749D02*
X143638171Y-88839272D01*
X143638171Y-88839272D02*
X143685790Y-88934510D01*
X143685790Y-88934510D02*
X143733409Y-88982130D01*
X143733409Y-88982130D02*
X143828647Y-89029749D01*
X143828647Y-89029749D02*
X144019123Y-89029749D01*
X144019123Y-89029749D02*
X144114361Y-88982130D01*
X144114361Y-88982130D02*
X144161980Y-88934510D01*
X144161980Y-88934510D02*
X144209599Y-88839272D01*
X144209599Y-88839272D02*
X144209599Y-88029749D01*
X144590552Y-88029749D02*
X145209599Y-88029749D01*
X145209599Y-88029749D02*
X144876266Y-88410701D01*
X144876266Y-88410701D02*
X145019123Y-88410701D01*
X145019123Y-88410701D02*
X145114361Y-88458320D01*
X145114361Y-88458320D02*
X145161980Y-88505939D01*
X145161980Y-88505939D02*
X145209599Y-88601177D01*
X145209599Y-88601177D02*
X145209599Y-88839272D01*
X145209599Y-88839272D02*
X145161980Y-88934510D01*
X145161980Y-88934510D02*
X145114361Y-88982130D01*
X145114361Y-88982130D02*
X145019123Y-89029749D01*
X145019123Y-89029749D02*
X144733409Y-89029749D01*
X144733409Y-89029749D02*
X144638171Y-88982130D01*
X144638171Y-88982130D02*
X144590552Y-88934510D01*
X164827580Y-75858666D02*
X164875200Y-75906285D01*
X164875200Y-75906285D02*
X164922819Y-76049142D01*
X164922819Y-76049142D02*
X164922819Y-76144380D01*
X164922819Y-76144380D02*
X164875200Y-76287237D01*
X164875200Y-76287237D02*
X164779961Y-76382475D01*
X164779961Y-76382475D02*
X164684723Y-76430094D01*
X164684723Y-76430094D02*
X164494247Y-76477713D01*
X164494247Y-76477713D02*
X164351390Y-76477713D01*
X164351390Y-76477713D02*
X164160914Y-76430094D01*
X164160914Y-76430094D02*
X164065676Y-76382475D01*
X164065676Y-76382475D02*
X163970438Y-76287237D01*
X163970438Y-76287237D02*
X163922819Y-76144380D01*
X163922819Y-76144380D02*
X163922819Y-76049142D01*
X163922819Y-76049142D02*
X163970438Y-75906285D01*
X163970438Y-75906285D02*
X164018057Y-75858666D01*
X163922819Y-75001523D02*
X163922819Y-75191999D01*
X163922819Y-75191999D02*
X163970438Y-75287237D01*
X163970438Y-75287237D02*
X164018057Y-75334856D01*
X164018057Y-75334856D02*
X164160914Y-75430094D01*
X164160914Y-75430094D02*
X164351390Y-75477713D01*
X164351390Y-75477713D02*
X164732342Y-75477713D01*
X164732342Y-75477713D02*
X164827580Y-75430094D01*
X164827580Y-75430094D02*
X164875200Y-75382475D01*
X164875200Y-75382475D02*
X164922819Y-75287237D01*
X164922819Y-75287237D02*
X164922819Y-75096761D01*
X164922819Y-75096761D02*
X164875200Y-75001523D01*
X164875200Y-75001523D02*
X164827580Y-74953904D01*
X164827580Y-74953904D02*
X164732342Y-74906285D01*
X164732342Y-74906285D02*
X164494247Y-74906285D01*
X164494247Y-74906285D02*
X164399009Y-74953904D01*
X164399009Y-74953904D02*
X164351390Y-75001523D01*
X164351390Y-75001523D02*
X164303771Y-75096761D01*
X164303771Y-75096761D02*
X164303771Y-75287237D01*
X164303771Y-75287237D02*
X164351390Y-75382475D01*
X164351390Y-75382475D02*
X164399009Y-75430094D01*
X164399009Y-75430094D02*
X164494247Y-75477713D01*
X142997105Y-66691831D02*
X142663772Y-66215640D01*
X142425677Y-66691831D02*
X142425677Y-65691831D01*
X142425677Y-65691831D02*
X142806629Y-65691831D01*
X142806629Y-65691831D02*
X142901867Y-65739450D01*
X142901867Y-65739450D02*
X142949486Y-65787069D01*
X142949486Y-65787069D02*
X142997105Y-65882307D01*
X142997105Y-65882307D02*
X142997105Y-66025164D01*
X142997105Y-66025164D02*
X142949486Y-66120402D01*
X142949486Y-66120402D02*
X142901867Y-66168021D01*
X142901867Y-66168021D02*
X142806629Y-66215640D01*
X142806629Y-66215640D02*
X142425677Y-66215640D01*
X143330439Y-65691831D02*
X143949486Y-65691831D01*
X143949486Y-65691831D02*
X143616153Y-66072783D01*
X143616153Y-66072783D02*
X143759010Y-66072783D01*
X143759010Y-66072783D02*
X143854248Y-66120402D01*
X143854248Y-66120402D02*
X143901867Y-66168021D01*
X143901867Y-66168021D02*
X143949486Y-66263259D01*
X143949486Y-66263259D02*
X143949486Y-66501354D01*
X143949486Y-66501354D02*
X143901867Y-66596592D01*
X143901867Y-66596592D02*
X143854248Y-66644212D01*
X143854248Y-66644212D02*
X143759010Y-66691831D01*
X143759010Y-66691831D02*
X143473296Y-66691831D01*
X143473296Y-66691831D02*
X143378058Y-66644212D01*
X143378058Y-66644212D02*
X143330439Y-66596592D01*
X130555630Y-62187635D02*
X130222297Y-61711444D01*
X129984202Y-62187635D02*
X129984202Y-61187635D01*
X129984202Y-61187635D02*
X130365154Y-61187635D01*
X130365154Y-61187635D02*
X130460392Y-61235254D01*
X130460392Y-61235254D02*
X130508011Y-61282873D01*
X130508011Y-61282873D02*
X130555630Y-61378111D01*
X130555630Y-61378111D02*
X130555630Y-61520968D01*
X130555630Y-61520968D02*
X130508011Y-61616206D01*
X130508011Y-61616206D02*
X130460392Y-61663825D01*
X130460392Y-61663825D02*
X130365154Y-61711444D01*
X130365154Y-61711444D02*
X129984202Y-61711444D01*
X131508011Y-62187635D02*
X130936583Y-62187635D01*
X131222297Y-62187635D02*
X131222297Y-61187635D01*
X131222297Y-61187635D02*
X131127059Y-61330492D01*
X131127059Y-61330492D02*
X131031821Y-61425730D01*
X131031821Y-61425730D02*
X130936583Y-61473349D01*
X131841345Y-61187635D02*
X132508011Y-61187635D01*
X132508011Y-61187635D02*
X132079440Y-62187635D01*
X128833333Y-103359580D02*
X128785714Y-103407200D01*
X128785714Y-103407200D02*
X128642857Y-103454819D01*
X128642857Y-103454819D02*
X128547619Y-103454819D01*
X128547619Y-103454819D02*
X128404762Y-103407200D01*
X128404762Y-103407200D02*
X128309524Y-103311961D01*
X128309524Y-103311961D02*
X128261905Y-103216723D01*
X128261905Y-103216723D02*
X128214286Y-103026247D01*
X128214286Y-103026247D02*
X128214286Y-102883390D01*
X128214286Y-102883390D02*
X128261905Y-102692914D01*
X128261905Y-102692914D02*
X128309524Y-102597676D01*
X128309524Y-102597676D02*
X128404762Y-102502438D01*
X128404762Y-102502438D02*
X128547619Y-102454819D01*
X128547619Y-102454819D02*
X128642857Y-102454819D01*
X128642857Y-102454819D02*
X128785714Y-102502438D01*
X128785714Y-102502438D02*
X128833333Y-102550057D01*
X129690476Y-102788152D02*
X129690476Y-103454819D01*
X129452381Y-102407200D02*
X129214286Y-103121485D01*
X129214286Y-103121485D02*
X129833333Y-103121485D01*
X157304819Y-59166666D02*
X156828628Y-59499999D01*
X157304819Y-59738094D02*
X156304819Y-59738094D01*
X156304819Y-59738094D02*
X156304819Y-59357142D01*
X156304819Y-59357142D02*
X156352438Y-59261904D01*
X156352438Y-59261904D02*
X156400057Y-59214285D01*
X156400057Y-59214285D02*
X156495295Y-59166666D01*
X156495295Y-59166666D02*
X156638152Y-59166666D01*
X156638152Y-59166666D02*
X156733390Y-59214285D01*
X156733390Y-59214285D02*
X156781009Y-59261904D01*
X156781009Y-59261904D02*
X156828628Y-59357142D01*
X156828628Y-59357142D02*
X156828628Y-59738094D01*
X156304819Y-58261904D02*
X156304819Y-58738094D01*
X156304819Y-58738094D02*
X156781009Y-58785713D01*
X156781009Y-58785713D02*
X156733390Y-58738094D01*
X156733390Y-58738094D02*
X156685771Y-58642856D01*
X156685771Y-58642856D02*
X156685771Y-58404761D01*
X156685771Y-58404761D02*
X156733390Y-58309523D01*
X156733390Y-58309523D02*
X156781009Y-58261904D01*
X156781009Y-58261904D02*
X156876247Y-58214285D01*
X156876247Y-58214285D02*
X157114342Y-58214285D01*
X157114342Y-58214285D02*
X157209580Y-58261904D01*
X157209580Y-58261904D02*
X157257200Y-58309523D01*
X157257200Y-58309523D02*
X157304819Y-58404761D01*
X157304819Y-58404761D02*
X157304819Y-58642856D01*
X157304819Y-58642856D02*
X157257200Y-58738094D01*
X157257200Y-58738094D02*
X157209580Y-58785713D01*
X166057142Y-104054819D02*
X165723809Y-103578628D01*
X165485714Y-104054819D02*
X165485714Y-103054819D01*
X165485714Y-103054819D02*
X165866666Y-103054819D01*
X165866666Y-103054819D02*
X165961904Y-103102438D01*
X165961904Y-103102438D02*
X166009523Y-103150057D01*
X166009523Y-103150057D02*
X166057142Y-103245295D01*
X166057142Y-103245295D02*
X166057142Y-103388152D01*
X166057142Y-103388152D02*
X166009523Y-103483390D01*
X166009523Y-103483390D02*
X165961904Y-103531009D01*
X165961904Y-103531009D02*
X165866666Y-103578628D01*
X165866666Y-103578628D02*
X165485714Y-103578628D01*
X166438095Y-103150057D02*
X166485714Y-103102438D01*
X166485714Y-103102438D02*
X166580952Y-103054819D01*
X166580952Y-103054819D02*
X166819047Y-103054819D01*
X166819047Y-103054819D02*
X166914285Y-103102438D01*
X166914285Y-103102438D02*
X166961904Y-103150057D01*
X166961904Y-103150057D02*
X167009523Y-103245295D01*
X167009523Y-103245295D02*
X167009523Y-103340533D01*
X167009523Y-103340533D02*
X166961904Y-103483390D01*
X166961904Y-103483390D02*
X166390476Y-104054819D01*
X166390476Y-104054819D02*
X167009523Y-104054819D01*
X167961904Y-104054819D02*
X167390476Y-104054819D01*
X167676190Y-104054819D02*
X167676190Y-103054819D01*
X167676190Y-103054819D02*
X167580952Y-103197676D01*
X167580952Y-103197676D02*
X167485714Y-103292914D01*
X167485714Y-103292914D02*
X167390476Y-103340533D01*
X165657142Y-50359580D02*
X165609523Y-50407200D01*
X165609523Y-50407200D02*
X165466666Y-50454819D01*
X165466666Y-50454819D02*
X165371428Y-50454819D01*
X165371428Y-50454819D02*
X165228571Y-50407200D01*
X165228571Y-50407200D02*
X165133333Y-50311961D01*
X165133333Y-50311961D02*
X165085714Y-50216723D01*
X165085714Y-50216723D02*
X165038095Y-50026247D01*
X165038095Y-50026247D02*
X165038095Y-49883390D01*
X165038095Y-49883390D02*
X165085714Y-49692914D01*
X165085714Y-49692914D02*
X165133333Y-49597676D01*
X165133333Y-49597676D02*
X165228571Y-49502438D01*
X165228571Y-49502438D02*
X165371428Y-49454819D01*
X165371428Y-49454819D02*
X165466666Y-49454819D01*
X165466666Y-49454819D02*
X165609523Y-49502438D01*
X165609523Y-49502438D02*
X165657142Y-49550057D01*
X166609523Y-50454819D02*
X166038095Y-50454819D01*
X166323809Y-50454819D02*
X166323809Y-49454819D01*
X166323809Y-49454819D02*
X166228571Y-49597676D01*
X166228571Y-49597676D02*
X166133333Y-49692914D01*
X166133333Y-49692914D02*
X166038095Y-49740533D01*
X167228571Y-49454819D02*
X167323809Y-49454819D01*
X167323809Y-49454819D02*
X167419047Y-49502438D01*
X167419047Y-49502438D02*
X167466666Y-49550057D01*
X167466666Y-49550057D02*
X167514285Y-49645295D01*
X167514285Y-49645295D02*
X167561904Y-49835771D01*
X167561904Y-49835771D02*
X167561904Y-50073866D01*
X167561904Y-50073866D02*
X167514285Y-50264342D01*
X167514285Y-50264342D02*
X167466666Y-50359580D01*
X167466666Y-50359580D02*
X167419047Y-50407200D01*
X167419047Y-50407200D02*
X167323809Y-50454819D01*
X167323809Y-50454819D02*
X167228571Y-50454819D01*
X167228571Y-50454819D02*
X167133333Y-50407200D01*
X167133333Y-50407200D02*
X167085714Y-50359580D01*
X167085714Y-50359580D02*
X167038095Y-50264342D01*
X167038095Y-50264342D02*
X166990476Y-50073866D01*
X166990476Y-50073866D02*
X166990476Y-49835771D01*
X166990476Y-49835771D02*
X167038095Y-49645295D01*
X167038095Y-49645295D02*
X167085714Y-49550057D01*
X167085714Y-49550057D02*
X167133333Y-49502438D01*
X167133333Y-49502438D02*
X167228571Y-49454819D01*
X129454819Y-93542857D02*
X128978628Y-93876190D01*
X129454819Y-94114285D02*
X128454819Y-94114285D01*
X128454819Y-94114285D02*
X128454819Y-93733333D01*
X128454819Y-93733333D02*
X128502438Y-93638095D01*
X128502438Y-93638095D02*
X128550057Y-93590476D01*
X128550057Y-93590476D02*
X128645295Y-93542857D01*
X128645295Y-93542857D02*
X128788152Y-93542857D01*
X128788152Y-93542857D02*
X128883390Y-93590476D01*
X128883390Y-93590476D02*
X128931009Y-93638095D01*
X128931009Y-93638095D02*
X128978628Y-93733333D01*
X128978628Y-93733333D02*
X128978628Y-94114285D01*
X128550057Y-93161904D02*
X128502438Y-93114285D01*
X128502438Y-93114285D02*
X128454819Y-93019047D01*
X128454819Y-93019047D02*
X128454819Y-92780952D01*
X128454819Y-92780952D02*
X128502438Y-92685714D01*
X128502438Y-92685714D02*
X128550057Y-92638095D01*
X128550057Y-92638095D02*
X128645295Y-92590476D01*
X128645295Y-92590476D02*
X128740533Y-92590476D01*
X128740533Y-92590476D02*
X128883390Y-92638095D01*
X128883390Y-92638095D02*
X129454819Y-93209523D01*
X129454819Y-93209523D02*
X129454819Y-92590476D01*
X128454819Y-91733333D02*
X128454819Y-91923809D01*
X128454819Y-91923809D02*
X128502438Y-92019047D01*
X128502438Y-92019047D02*
X128550057Y-92066666D01*
X128550057Y-92066666D02*
X128692914Y-92161904D01*
X128692914Y-92161904D02*
X128883390Y-92209523D01*
X128883390Y-92209523D02*
X129264342Y-92209523D01*
X129264342Y-92209523D02*
X129359580Y-92161904D01*
X129359580Y-92161904D02*
X129407200Y-92114285D01*
X129407200Y-92114285D02*
X129454819Y-92019047D01*
X129454819Y-92019047D02*
X129454819Y-91828571D01*
X129454819Y-91828571D02*
X129407200Y-91733333D01*
X129407200Y-91733333D02*
X129359580Y-91685714D01*
X129359580Y-91685714D02*
X129264342Y-91638095D01*
X129264342Y-91638095D02*
X129026247Y-91638095D01*
X129026247Y-91638095D02*
X128931009Y-91685714D01*
X128931009Y-91685714D02*
X128883390Y-91733333D01*
X128883390Y-91733333D02*
X128835771Y-91828571D01*
X128835771Y-91828571D02*
X128835771Y-92019047D01*
X128835771Y-92019047D02*
X128883390Y-92114285D01*
X128883390Y-92114285D02*
X128931009Y-92161904D01*
X128931009Y-92161904D02*
X129026247Y-92209523D01*
X129804806Y-81333346D02*
X130519091Y-81333346D01*
X130519091Y-81333346D02*
X130661948Y-81380965D01*
X130661948Y-81380965D02*
X130757187Y-81476203D01*
X130757187Y-81476203D02*
X130804806Y-81619060D01*
X130804806Y-81619060D02*
X130804806Y-81714298D01*
X130804806Y-80333346D02*
X130804806Y-80904774D01*
X130804806Y-80619060D02*
X129804806Y-80619060D01*
X129804806Y-80619060D02*
X129947663Y-80714298D01*
X129947663Y-80714298D02*
X130042901Y-80809536D01*
X130042901Y-80809536D02*
X130090520Y-80904774D01*
X130706224Y-57679687D02*
X130372891Y-57203496D01*
X130134796Y-57679687D02*
X130134796Y-56679687D01*
X130134796Y-56679687D02*
X130515748Y-56679687D01*
X130515748Y-56679687D02*
X130610986Y-56727306D01*
X130610986Y-56727306D02*
X130658605Y-56774925D01*
X130658605Y-56774925D02*
X130706224Y-56870163D01*
X130706224Y-56870163D02*
X130706224Y-57013020D01*
X130706224Y-57013020D02*
X130658605Y-57108258D01*
X130658605Y-57108258D02*
X130610986Y-57155877D01*
X130610986Y-57155877D02*
X130515748Y-57203496D01*
X130515748Y-57203496D02*
X130134796Y-57203496D01*
X131658605Y-57679687D02*
X131087177Y-57679687D01*
X131372891Y-57679687D02*
X131372891Y-56679687D01*
X131372891Y-56679687D02*
X131277653Y-56822544D01*
X131277653Y-56822544D02*
X131182415Y-56917782D01*
X131182415Y-56917782D02*
X131087177Y-56965401D01*
X132039558Y-56774925D02*
X132087177Y-56727306D01*
X132087177Y-56727306D02*
X132182415Y-56679687D01*
X132182415Y-56679687D02*
X132420510Y-56679687D01*
X132420510Y-56679687D02*
X132515748Y-56727306D01*
X132515748Y-56727306D02*
X132563367Y-56774925D01*
X132563367Y-56774925D02*
X132610986Y-56870163D01*
X132610986Y-56870163D02*
X132610986Y-56965401D01*
X132610986Y-56965401D02*
X132563367Y-57108258D01*
X132563367Y-57108258D02*
X131991939Y-57679687D01*
X131991939Y-57679687D02*
X132610986Y-57679687D01*
X158182142Y-65554819D02*
X157848809Y-65078628D01*
X157610714Y-65554819D02*
X157610714Y-64554819D01*
X157610714Y-64554819D02*
X157991666Y-64554819D01*
X157991666Y-64554819D02*
X158086904Y-64602438D01*
X158086904Y-64602438D02*
X158134523Y-64650057D01*
X158134523Y-64650057D02*
X158182142Y-64745295D01*
X158182142Y-64745295D02*
X158182142Y-64888152D01*
X158182142Y-64888152D02*
X158134523Y-64983390D01*
X158134523Y-64983390D02*
X158086904Y-65031009D01*
X158086904Y-65031009D02*
X157991666Y-65078628D01*
X157991666Y-65078628D02*
X157610714Y-65078628D01*
X158563095Y-64650057D02*
X158610714Y-64602438D01*
X158610714Y-64602438D02*
X158705952Y-64554819D01*
X158705952Y-64554819D02*
X158944047Y-64554819D01*
X158944047Y-64554819D02*
X159039285Y-64602438D01*
X159039285Y-64602438D02*
X159086904Y-64650057D01*
X159086904Y-64650057D02*
X159134523Y-64745295D01*
X159134523Y-64745295D02*
X159134523Y-64840533D01*
X159134523Y-64840533D02*
X159086904Y-64983390D01*
X159086904Y-64983390D02*
X158515476Y-65554819D01*
X158515476Y-65554819D02*
X159134523Y-65554819D01*
X159467857Y-64554819D02*
X160086904Y-64554819D01*
X160086904Y-64554819D02*
X159753571Y-64935771D01*
X159753571Y-64935771D02*
X159896428Y-64935771D01*
X159896428Y-64935771D02*
X159991666Y-64983390D01*
X159991666Y-64983390D02*
X160039285Y-65031009D01*
X160039285Y-65031009D02*
X160086904Y-65126247D01*
X160086904Y-65126247D02*
X160086904Y-65364342D01*
X160086904Y-65364342D02*
X160039285Y-65459580D01*
X160039285Y-65459580D02*
X159991666Y-65507200D01*
X159991666Y-65507200D02*
X159896428Y-65554819D01*
X159896428Y-65554819D02*
X159610714Y-65554819D01*
X159610714Y-65554819D02*
X159515476Y-65507200D01*
X159515476Y-65507200D02*
X159467857Y-65459580D01*
X159438095Y-77954819D02*
X159438095Y-78764342D01*
X159438095Y-78764342D02*
X159485714Y-78859580D01*
X159485714Y-78859580D02*
X159533333Y-78907200D01*
X159533333Y-78907200D02*
X159628571Y-78954819D01*
X159628571Y-78954819D02*
X159819047Y-78954819D01*
X159819047Y-78954819D02*
X159914285Y-78907200D01*
X159914285Y-78907200D02*
X159961904Y-78859580D01*
X159961904Y-78859580D02*
X160009523Y-78764342D01*
X160009523Y-78764342D02*
X160009523Y-77954819D01*
X160628571Y-78383390D02*
X160533333Y-78335771D01*
X160533333Y-78335771D02*
X160485714Y-78288152D01*
X160485714Y-78288152D02*
X160438095Y-78192914D01*
X160438095Y-78192914D02*
X160438095Y-78145295D01*
X160438095Y-78145295D02*
X160485714Y-78050057D01*
X160485714Y-78050057D02*
X160533333Y-78002438D01*
X160533333Y-78002438D02*
X160628571Y-77954819D01*
X160628571Y-77954819D02*
X160819047Y-77954819D01*
X160819047Y-77954819D02*
X160914285Y-78002438D01*
X160914285Y-78002438D02*
X160961904Y-78050057D01*
X160961904Y-78050057D02*
X161009523Y-78145295D01*
X161009523Y-78145295D02*
X161009523Y-78192914D01*
X161009523Y-78192914D02*
X160961904Y-78288152D01*
X160961904Y-78288152D02*
X160914285Y-78335771D01*
X160914285Y-78335771D02*
X160819047Y-78383390D01*
X160819047Y-78383390D02*
X160628571Y-78383390D01*
X160628571Y-78383390D02*
X160533333Y-78431009D01*
X160533333Y-78431009D02*
X160485714Y-78478628D01*
X160485714Y-78478628D02*
X160438095Y-78573866D01*
X160438095Y-78573866D02*
X160438095Y-78764342D01*
X160438095Y-78764342D02*
X160485714Y-78859580D01*
X160485714Y-78859580D02*
X160533333Y-78907200D01*
X160533333Y-78907200D02*
X160628571Y-78954819D01*
X160628571Y-78954819D02*
X160819047Y-78954819D01*
X160819047Y-78954819D02*
X160914285Y-78907200D01*
X160914285Y-78907200D02*
X160961904Y-78859580D01*
X160961904Y-78859580D02*
X161009523Y-78764342D01*
X161009523Y-78764342D02*
X161009523Y-78573866D01*
X161009523Y-78573866D02*
X160961904Y-78478628D01*
X160961904Y-78478628D02*
X160914285Y-78431009D01*
X160914285Y-78431009D02*
X160819047Y-78383390D01*
X164038095Y-45854819D02*
X164038095Y-44854819D01*
X164038095Y-45331009D02*
X164609523Y-45331009D01*
X164609523Y-45854819D02*
X164609523Y-44854819D01*
X165609523Y-45854819D02*
X165038095Y-45854819D01*
X165323809Y-45854819D02*
X165323809Y-44854819D01*
X165323809Y-44854819D02*
X165228571Y-44997676D01*
X165228571Y-44997676D02*
X165133333Y-45092914D01*
X165133333Y-45092914D02*
X165038095Y-45140533D01*
X126564369Y-54755227D02*
X126469131Y-54707608D01*
X126469131Y-54707608D02*
X126373893Y-54612370D01*
X126373893Y-54612370D02*
X126231036Y-54469512D01*
X126231036Y-54469512D02*
X126135798Y-54421893D01*
X126135798Y-54421893D02*
X126040560Y-54421893D01*
X126088179Y-54659989D02*
X125992941Y-54612370D01*
X125992941Y-54612370D02*
X125897703Y-54517131D01*
X125897703Y-54517131D02*
X125850084Y-54326655D01*
X125850084Y-54326655D02*
X125850084Y-53993322D01*
X125850084Y-53993322D02*
X125897703Y-53802846D01*
X125897703Y-53802846D02*
X125992941Y-53707608D01*
X125992941Y-53707608D02*
X126088179Y-53659989D01*
X126088179Y-53659989D02*
X126278655Y-53659989D01*
X126278655Y-53659989D02*
X126373893Y-53707608D01*
X126373893Y-53707608D02*
X126469131Y-53802846D01*
X126469131Y-53802846D02*
X126516750Y-53993322D01*
X126516750Y-53993322D02*
X126516750Y-54326655D01*
X126516750Y-54326655D02*
X126469131Y-54517131D01*
X126469131Y-54517131D02*
X126373893Y-54612370D01*
X126373893Y-54612370D02*
X126278655Y-54659989D01*
X126278655Y-54659989D02*
X126088179Y-54659989D01*
X127373893Y-53659989D02*
X127183417Y-53659989D01*
X127183417Y-53659989D02*
X127088179Y-53707608D01*
X127088179Y-53707608D02*
X127040560Y-53755227D01*
X127040560Y-53755227D02*
X126945322Y-53898084D01*
X126945322Y-53898084D02*
X126897703Y-54088560D01*
X126897703Y-54088560D02*
X126897703Y-54469512D01*
X126897703Y-54469512D02*
X126945322Y-54564750D01*
X126945322Y-54564750D02*
X126992941Y-54612370D01*
X126992941Y-54612370D02*
X127088179Y-54659989D01*
X127088179Y-54659989D02*
X127278655Y-54659989D01*
X127278655Y-54659989D02*
X127373893Y-54612370D01*
X127373893Y-54612370D02*
X127421512Y-54564750D01*
X127421512Y-54564750D02*
X127469131Y-54469512D01*
X127469131Y-54469512D02*
X127469131Y-54231417D01*
X127469131Y-54231417D02*
X127421512Y-54136179D01*
X127421512Y-54136179D02*
X127373893Y-54088560D01*
X127373893Y-54088560D02*
X127278655Y-54040941D01*
X127278655Y-54040941D02*
X127088179Y-54040941D01*
X127088179Y-54040941D02*
X126992941Y-54088560D01*
X126992941Y-54088560D02*
X126945322Y-54136179D01*
X126945322Y-54136179D02*
X126897703Y-54231417D01*
X162054819Y-70761904D02*
X162864342Y-70761904D01*
X162864342Y-70761904D02*
X162959580Y-70714285D01*
X162959580Y-70714285D02*
X163007200Y-70666666D01*
X163007200Y-70666666D02*
X163054819Y-70571428D01*
X163054819Y-70571428D02*
X163054819Y-70380952D01*
X163054819Y-70380952D02*
X163007200Y-70285714D01*
X163007200Y-70285714D02*
X162959580Y-70238095D01*
X162959580Y-70238095D02*
X162864342Y-70190476D01*
X162864342Y-70190476D02*
X162054819Y-70190476D01*
X162054819Y-69285714D02*
X162054819Y-69476190D01*
X162054819Y-69476190D02*
X162102438Y-69571428D01*
X162102438Y-69571428D02*
X162150057Y-69619047D01*
X162150057Y-69619047D02*
X162292914Y-69714285D01*
X162292914Y-69714285D02*
X162483390Y-69761904D01*
X162483390Y-69761904D02*
X162864342Y-69761904D01*
X162864342Y-69761904D02*
X162959580Y-69714285D01*
X162959580Y-69714285D02*
X163007200Y-69666666D01*
X163007200Y-69666666D02*
X163054819Y-69571428D01*
X163054819Y-69571428D02*
X163054819Y-69380952D01*
X163054819Y-69380952D02*
X163007200Y-69285714D01*
X163007200Y-69285714D02*
X162959580Y-69238095D01*
X162959580Y-69238095D02*
X162864342Y-69190476D01*
X162864342Y-69190476D02*
X162626247Y-69190476D01*
X162626247Y-69190476D02*
X162531009Y-69238095D01*
X162531009Y-69238095D02*
X162483390Y-69285714D01*
X162483390Y-69285714D02*
X162435771Y-69380952D01*
X162435771Y-69380952D02*
X162435771Y-69571428D01*
X162435771Y-69571428D02*
X162483390Y-69666666D01*
X162483390Y-69666666D02*
X162531009Y-69714285D01*
X162531009Y-69714285D02*
X162626247Y-69761904D01*
D11*
X127678571Y-100626109D02*
X127511905Y-100388014D01*
X127392857Y-100626109D02*
X127392857Y-100126109D01*
X127392857Y-100126109D02*
X127583333Y-100126109D01*
X127583333Y-100126109D02*
X127630952Y-100149919D01*
X127630952Y-100149919D02*
X127654762Y-100173728D01*
X127654762Y-100173728D02*
X127678571Y-100221347D01*
X127678571Y-100221347D02*
X127678571Y-100292776D01*
X127678571Y-100292776D02*
X127654762Y-100340395D01*
X127654762Y-100340395D02*
X127630952Y-100364204D01*
X127630952Y-100364204D02*
X127583333Y-100388014D01*
X127583333Y-100388014D02*
X127392857Y-100388014D01*
X127869048Y-100173728D02*
X127892857Y-100149919D01*
X127892857Y-100149919D02*
X127940476Y-100126109D01*
X127940476Y-100126109D02*
X128059524Y-100126109D01*
X128059524Y-100126109D02*
X128107143Y-100149919D01*
X128107143Y-100149919D02*
X128130952Y-100173728D01*
X128130952Y-100173728D02*
X128154762Y-100221347D01*
X128154762Y-100221347D02*
X128154762Y-100268966D01*
X128154762Y-100268966D02*
X128130952Y-100340395D01*
X128130952Y-100340395D02*
X127845238Y-100626109D01*
X127845238Y-100626109D02*
X128154762Y-100626109D01*
X128440476Y-100340395D02*
X128392857Y-100316585D01*
X128392857Y-100316585D02*
X128369047Y-100292776D01*
X128369047Y-100292776D02*
X128345238Y-100245157D01*
X128345238Y-100245157D02*
X128345238Y-100221347D01*
X128345238Y-100221347D02*
X128369047Y-100173728D01*
X128369047Y-100173728D02*
X128392857Y-100149919D01*
X128392857Y-100149919D02*
X128440476Y-100126109D01*
X128440476Y-100126109D02*
X128535714Y-100126109D01*
X128535714Y-100126109D02*
X128583333Y-100149919D01*
X128583333Y-100149919D02*
X128607142Y-100173728D01*
X128607142Y-100173728D02*
X128630952Y-100221347D01*
X128630952Y-100221347D02*
X128630952Y-100245157D01*
X128630952Y-100245157D02*
X128607142Y-100292776D01*
X128607142Y-100292776D02*
X128583333Y-100316585D01*
X128583333Y-100316585D02*
X128535714Y-100340395D01*
X128535714Y-100340395D02*
X128440476Y-100340395D01*
X128440476Y-100340395D02*
X128392857Y-100364204D01*
X128392857Y-100364204D02*
X128369047Y-100388014D01*
X128369047Y-100388014D02*
X128345238Y-100435633D01*
X128345238Y-100435633D02*
X128345238Y-100530871D01*
X128345238Y-100530871D02*
X128369047Y-100578490D01*
X128369047Y-100578490D02*
X128392857Y-100602300D01*
X128392857Y-100602300D02*
X128440476Y-100626109D01*
X128440476Y-100626109D02*
X128535714Y-100626109D01*
X128535714Y-100626109D02*
X128583333Y-100602300D01*
X128583333Y-100602300D02*
X128607142Y-100578490D01*
X128607142Y-100578490D02*
X128630952Y-100530871D01*
X128630952Y-100530871D02*
X128630952Y-100435633D01*
X128630952Y-100435633D02*
X128607142Y-100388014D01*
X128607142Y-100388014D02*
X128583333Y-100364204D01*
X128583333Y-100364204D02*
X128535714Y-100340395D01*
D10*
X135833333Y-49324819D02*
X135500000Y-48848628D01*
X135261905Y-49324819D02*
X135261905Y-48324819D01*
X135261905Y-48324819D02*
X135642857Y-48324819D01*
X135642857Y-48324819D02*
X135738095Y-48372438D01*
X135738095Y-48372438D02*
X135785714Y-48420057D01*
X135785714Y-48420057D02*
X135833333Y-48515295D01*
X135833333Y-48515295D02*
X135833333Y-48658152D01*
X135833333Y-48658152D02*
X135785714Y-48753390D01*
X135785714Y-48753390D02*
X135738095Y-48801009D01*
X135738095Y-48801009D02*
X135642857Y-48848628D01*
X135642857Y-48848628D02*
X135261905Y-48848628D01*
X136404762Y-48753390D02*
X136309524Y-48705771D01*
X136309524Y-48705771D02*
X136261905Y-48658152D01*
X136261905Y-48658152D02*
X136214286Y-48562914D01*
X136214286Y-48562914D02*
X136214286Y-48515295D01*
X136214286Y-48515295D02*
X136261905Y-48420057D01*
X136261905Y-48420057D02*
X136309524Y-48372438D01*
X136309524Y-48372438D02*
X136404762Y-48324819D01*
X136404762Y-48324819D02*
X136595238Y-48324819D01*
X136595238Y-48324819D02*
X136690476Y-48372438D01*
X136690476Y-48372438D02*
X136738095Y-48420057D01*
X136738095Y-48420057D02*
X136785714Y-48515295D01*
X136785714Y-48515295D02*
X136785714Y-48562914D01*
X136785714Y-48562914D02*
X136738095Y-48658152D01*
X136738095Y-48658152D02*
X136690476Y-48705771D01*
X136690476Y-48705771D02*
X136595238Y-48753390D01*
X136595238Y-48753390D02*
X136404762Y-48753390D01*
X136404762Y-48753390D02*
X136309524Y-48801009D01*
X136309524Y-48801009D02*
X136261905Y-48848628D01*
X136261905Y-48848628D02*
X136214286Y-48943866D01*
X136214286Y-48943866D02*
X136214286Y-49134342D01*
X136214286Y-49134342D02*
X136261905Y-49229580D01*
X136261905Y-49229580D02*
X136309524Y-49277200D01*
X136309524Y-49277200D02*
X136404762Y-49324819D01*
X136404762Y-49324819D02*
X136595238Y-49324819D01*
X136595238Y-49324819D02*
X136690476Y-49277200D01*
X136690476Y-49277200D02*
X136738095Y-49229580D01*
X136738095Y-49229580D02*
X136785714Y-49134342D01*
X136785714Y-49134342D02*
X136785714Y-48943866D01*
X136785714Y-48943866D02*
X136738095Y-48848628D01*
X136738095Y-48848628D02*
X136690476Y-48801009D01*
X136690476Y-48801009D02*
X136595238Y-48753390D01*
X135557142Y-54954819D02*
X135223809Y-54478628D01*
X134985714Y-54954819D02*
X134985714Y-53954819D01*
X134985714Y-53954819D02*
X135366666Y-53954819D01*
X135366666Y-53954819D02*
X135461904Y-54002438D01*
X135461904Y-54002438D02*
X135509523Y-54050057D01*
X135509523Y-54050057D02*
X135557142Y-54145295D01*
X135557142Y-54145295D02*
X135557142Y-54288152D01*
X135557142Y-54288152D02*
X135509523Y-54383390D01*
X135509523Y-54383390D02*
X135461904Y-54431009D01*
X135461904Y-54431009D02*
X135366666Y-54478628D01*
X135366666Y-54478628D02*
X134985714Y-54478628D01*
X136509523Y-54954819D02*
X135938095Y-54954819D01*
X136223809Y-54954819D02*
X136223809Y-53954819D01*
X136223809Y-53954819D02*
X136128571Y-54097676D01*
X136128571Y-54097676D02*
X136033333Y-54192914D01*
X136033333Y-54192914D02*
X135938095Y-54240533D01*
X137128571Y-53954819D02*
X137223809Y-53954819D01*
X137223809Y-53954819D02*
X137319047Y-54002438D01*
X137319047Y-54002438D02*
X137366666Y-54050057D01*
X137366666Y-54050057D02*
X137414285Y-54145295D01*
X137414285Y-54145295D02*
X137461904Y-54335771D01*
X137461904Y-54335771D02*
X137461904Y-54573866D01*
X137461904Y-54573866D02*
X137414285Y-54764342D01*
X137414285Y-54764342D02*
X137366666Y-54859580D01*
X137366666Y-54859580D02*
X137319047Y-54907200D01*
X137319047Y-54907200D02*
X137223809Y-54954819D01*
X137223809Y-54954819D02*
X137128571Y-54954819D01*
X137128571Y-54954819D02*
X137033333Y-54907200D01*
X137033333Y-54907200D02*
X136985714Y-54859580D01*
X136985714Y-54859580D02*
X136938095Y-54764342D01*
X136938095Y-54764342D02*
X136890476Y-54573866D01*
X136890476Y-54573866D02*
X136890476Y-54335771D01*
X136890476Y-54335771D02*
X136938095Y-54145295D01*
X136938095Y-54145295D02*
X136985714Y-54050057D01*
X136985714Y-54050057D02*
X137033333Y-54002438D01*
X137033333Y-54002438D02*
X137128571Y-53954819D01*
X143049450Y-65270985D02*
X142716117Y-64794794D01*
X142478022Y-65270985D02*
X142478022Y-64270985D01*
X142478022Y-64270985D02*
X142858974Y-64270985D01*
X142858974Y-64270985D02*
X142954212Y-64318604D01*
X142954212Y-64318604D02*
X143001831Y-64366223D01*
X143001831Y-64366223D02*
X143049450Y-64461461D01*
X143049450Y-64461461D02*
X143049450Y-64604318D01*
X143049450Y-64604318D02*
X143001831Y-64699556D01*
X143001831Y-64699556D02*
X142954212Y-64747175D01*
X142954212Y-64747175D02*
X142858974Y-64794794D01*
X142858974Y-64794794D02*
X142478022Y-64794794D01*
X144001831Y-65270985D02*
X143430403Y-65270985D01*
X143716117Y-65270985D02*
X143716117Y-64270985D01*
X143716117Y-64270985D02*
X143620879Y-64413842D01*
X143620879Y-64413842D02*
X143525641Y-64509080D01*
X143525641Y-64509080D02*
X143430403Y-64556699D01*
X144335165Y-64270985D02*
X144954212Y-64270985D01*
X144954212Y-64270985D02*
X144620879Y-64651937D01*
X144620879Y-64651937D02*
X144763736Y-64651937D01*
X144763736Y-64651937D02*
X144858974Y-64699556D01*
X144858974Y-64699556D02*
X144906593Y-64747175D01*
X144906593Y-64747175D02*
X144954212Y-64842413D01*
X144954212Y-64842413D02*
X144954212Y-65080508D01*
X144954212Y-65080508D02*
X144906593Y-65175746D01*
X144906593Y-65175746D02*
X144858974Y-65223366D01*
X144858974Y-65223366D02*
X144763736Y-65270985D01*
X144763736Y-65270985D02*
X144478022Y-65270985D01*
X144478022Y-65270985D02*
X144382784Y-65223366D01*
X144382784Y-65223366D02*
X144335165Y-65175746D01*
D11*
X157326109Y-95146428D02*
X157088014Y-95313094D01*
X157326109Y-95432142D02*
X156826109Y-95432142D01*
X156826109Y-95432142D02*
X156826109Y-95241666D01*
X156826109Y-95241666D02*
X156849919Y-95194047D01*
X156849919Y-95194047D02*
X156873728Y-95170237D01*
X156873728Y-95170237D02*
X156921347Y-95146428D01*
X156921347Y-95146428D02*
X156992776Y-95146428D01*
X156992776Y-95146428D02*
X157040395Y-95170237D01*
X157040395Y-95170237D02*
X157064204Y-95194047D01*
X157064204Y-95194047D02*
X157088014Y-95241666D01*
X157088014Y-95241666D02*
X157088014Y-95432142D01*
X156826109Y-94979761D02*
X156826109Y-94670237D01*
X156826109Y-94670237D02*
X157016585Y-94836904D01*
X157016585Y-94836904D02*
X157016585Y-94765475D01*
X157016585Y-94765475D02*
X157040395Y-94717856D01*
X157040395Y-94717856D02*
X157064204Y-94694047D01*
X157064204Y-94694047D02*
X157111823Y-94670237D01*
X157111823Y-94670237D02*
X157230871Y-94670237D01*
X157230871Y-94670237D02*
X157278490Y-94694047D01*
X157278490Y-94694047D02*
X157302300Y-94717856D01*
X157302300Y-94717856D02*
X157326109Y-94765475D01*
X157326109Y-94765475D02*
X157326109Y-94908332D01*
X157326109Y-94908332D02*
X157302300Y-94955951D01*
X157302300Y-94955951D02*
X157278490Y-94979761D01*
X156826109Y-94217857D02*
X156826109Y-94455952D01*
X156826109Y-94455952D02*
X157064204Y-94479761D01*
X157064204Y-94479761D02*
X157040395Y-94455952D01*
X157040395Y-94455952D02*
X157016585Y-94408333D01*
X157016585Y-94408333D02*
X157016585Y-94289285D01*
X157016585Y-94289285D02*
X157040395Y-94241666D01*
X157040395Y-94241666D02*
X157064204Y-94217857D01*
X157064204Y-94217857D02*
X157111823Y-94194047D01*
X157111823Y-94194047D02*
X157230871Y-94194047D01*
X157230871Y-94194047D02*
X157278490Y-94217857D01*
X157278490Y-94217857D02*
X157302300Y-94241666D01*
X157302300Y-94241666D02*
X157326109Y-94289285D01*
X157326109Y-94289285D02*
X157326109Y-94408333D01*
X157326109Y-94408333D02*
X157302300Y-94455952D01*
X157302300Y-94455952D02*
X157278490Y-94479761D01*
D10*
X150479594Y-61412432D02*
X150384356Y-61364813D01*
X150384356Y-61364813D02*
X150289118Y-61269575D01*
X150289118Y-61269575D02*
X150146261Y-61126717D01*
X150146261Y-61126717D02*
X150051023Y-61079098D01*
X150051023Y-61079098D02*
X149955785Y-61079098D01*
X150003404Y-61317194D02*
X149908166Y-61269575D01*
X149908166Y-61269575D02*
X149812928Y-61174336D01*
X149812928Y-61174336D02*
X149765309Y-60983860D01*
X149765309Y-60983860D02*
X149765309Y-60650527D01*
X149765309Y-60650527D02*
X149812928Y-60460051D01*
X149812928Y-60460051D02*
X149908166Y-60364813D01*
X149908166Y-60364813D02*
X150003404Y-60317194D01*
X150003404Y-60317194D02*
X150193880Y-60317194D01*
X150193880Y-60317194D02*
X150289118Y-60364813D01*
X150289118Y-60364813D02*
X150384356Y-60460051D01*
X150384356Y-60460051D02*
X150431975Y-60650527D01*
X150431975Y-60650527D02*
X150431975Y-60983860D01*
X150431975Y-60983860D02*
X150384356Y-61174336D01*
X150384356Y-61174336D02*
X150289118Y-61269575D01*
X150289118Y-61269575D02*
X150193880Y-61317194D01*
X150193880Y-61317194D02*
X150003404Y-61317194D01*
X150812928Y-60412432D02*
X150860547Y-60364813D01*
X150860547Y-60364813D02*
X150955785Y-60317194D01*
X150955785Y-60317194D02*
X151193880Y-60317194D01*
X151193880Y-60317194D02*
X151289118Y-60364813D01*
X151289118Y-60364813D02*
X151336737Y-60412432D01*
X151336737Y-60412432D02*
X151384356Y-60507670D01*
X151384356Y-60507670D02*
X151384356Y-60602908D01*
X151384356Y-60602908D02*
X151336737Y-60745765D01*
X151336737Y-60745765D02*
X150765309Y-61317194D01*
X150765309Y-61317194D02*
X151384356Y-61317194D01*
X125538095Y-66454819D02*
X125538095Y-65454819D01*
X125538095Y-65931009D02*
X126109523Y-65931009D01*
X126109523Y-66454819D02*
X126109523Y-65454819D01*
X126490476Y-65454819D02*
X127109523Y-65454819D01*
X127109523Y-65454819D02*
X126776190Y-65835771D01*
X126776190Y-65835771D02*
X126919047Y-65835771D01*
X126919047Y-65835771D02*
X127014285Y-65883390D01*
X127014285Y-65883390D02*
X127061904Y-65931009D01*
X127061904Y-65931009D02*
X127109523Y-66026247D01*
X127109523Y-66026247D02*
X127109523Y-66264342D01*
X127109523Y-66264342D02*
X127061904Y-66359580D01*
X127061904Y-66359580D02*
X127014285Y-66407200D01*
X127014285Y-66407200D02*
X126919047Y-66454819D01*
X126919047Y-66454819D02*
X126633333Y-66454819D01*
X126633333Y-66454819D02*
X126538095Y-66407200D01*
X126538095Y-66407200D02*
X126490476Y-66359580D01*
D12*
G04 #@! TO.C,R20*
X161137258Y-80677500D02*
X160662742Y-80677500D01*
X161137258Y-81722500D02*
X160662742Y-81722500D01*
G04 #@! TO.C,TXAL1*
X138625000Y-86525000D02*
X139975000Y-86525000D01*
X138625000Y-88275000D02*
X139975000Y-88275000D01*
G04 #@! TO.C,Q3*
X154812500Y-61690000D02*
X154162500Y-61690000D01*
X154812500Y-61690000D02*
X155462500Y-61690000D01*
X154812500Y-64810000D02*
X154162500Y-64810000D01*
X154812500Y-64810000D02*
X155462500Y-64810000D01*
X156215000Y-65090000D02*
X155735000Y-65090000D01*
X155975000Y-64760000D01*
X156215000Y-65090000D01*
G36*
X156215000Y-65090000D02*
G01*
X155735000Y-65090000D01*
X155975000Y-64760000D01*
X156215000Y-65090000D01*
G37*
D13*
G04 #@! TO.C,SW1*
X161599848Y-107839294D02*
X161599848Y-106915494D01*
X164899873Y-110227432D02*
X164899873Y-108727356D01*
X164991770Y-106027432D02*
X163308026Y-106027432D01*
X166199949Y-108727356D02*
X166199949Y-110227432D01*
X166199949Y-110227432D02*
X164899873Y-110227432D01*
X166491770Y-106027432D02*
X166307976Y-106027432D01*
X168099873Y-108727356D02*
X161699873Y-108727356D01*
X168199898Y-107839294D02*
X168199898Y-106915494D01*
D14*
X161077343Y-105015926D02*
G75*
G02*
X161017349Y-105015926I-29997J0D01*
G01*
X161017349Y-105015926D02*
G75*
G02*
X161077343Y-105015926I29997J0D01*
G01*
D12*
G04 #@! TO.C,R4*
X150037258Y-86677500D02*
X149562742Y-86677500D01*
X150037258Y-87722500D02*
X149562742Y-87722500D01*
G04 #@! TO.C,R2*
X146987258Y-68727500D02*
X146512742Y-68727500D01*
X146987258Y-69772500D02*
X146512742Y-69772500D01*
G04 #@! TO.C,R15*
X146987258Y-62727500D02*
X146512742Y-62727500D01*
X146987258Y-63772500D02*
X146512742Y-63772500D01*
D15*
G04 #@! TO.C,U9*
X162010389Y-60645669D02*
X162310338Y-60345720D01*
X162010389Y-60745822D02*
X162010389Y-60645669D01*
X162010389Y-60745822D02*
X162010389Y-61445771D01*
X162010389Y-61445771D02*
X162010389Y-61545796D01*
X162010389Y-61545796D02*
X162310338Y-61845847D01*
X163360452Y-60345720D02*
X162310338Y-60345720D01*
X163360452Y-61845847D02*
X162310338Y-61845847D01*
X163710465Y-61423520D02*
X163380417Y-61093472D01*
X163720422Y-60743485D02*
X163720422Y-60753467D01*
X163720422Y-60743485D02*
X163720422Y-61423520D01*
X163720422Y-60753467D02*
X163380417Y-61093472D01*
X163720422Y-61093472D02*
X163380417Y-61093472D01*
X163720422Y-61423520D02*
X163710465Y-61423520D01*
X163740462Y-60343409D02*
X164890475Y-60343409D01*
X163740462Y-61843536D02*
X164890475Y-61843536D01*
X164890475Y-60343510D02*
X164890475Y-61823444D01*
D14*
X162730429Y-61503404D02*
G75*
G02*
X162670485Y-61503404I-29972J0D01*
G01*
X162670485Y-61503404D02*
G75*
G02*
X162730429Y-61503404I29972J0D01*
G01*
D12*
G04 #@! TO.C,C2*
X128522000Y-94347420D02*
X128522000Y-94628580D01*
X129542000Y-94347420D02*
X129542000Y-94628580D01*
G04 #@! TO.C,R34*
X125677500Y-97737258D02*
X125677500Y-97262742D01*
X126722500Y-97737258D02*
X126722500Y-97262742D01*
G04 #@! TO.C,R9*
X135062742Y-52077500D02*
X135537258Y-52077500D01*
X135062742Y-53122500D02*
X135537258Y-53122500D01*
D13*
G04 #@! TO.C,LED1*
X140800076Y-50499924D02*
X140800076Y-49499924D01*
X140844399Y-57527407D02*
X140844399Y-58399924D01*
X145155601Y-50472593D02*
X145155601Y-49499924D01*
X145199924Y-57500076D02*
X145199924Y-58399924D01*
X140844399Y-57527407D02*
G75*
G02*
X140800075Y-50499923I2155678J3527478D01*
G01*
X145155601Y-50472593D02*
G75*
G02*
X145199925Y-57500077I-2155678J-3527478D01*
G01*
D14*
X138900178Y-46750064D02*
G75*
G02*
X138840234Y-46750064I-29972J0D01*
G01*
X138840234Y-46750064D02*
G75*
G02*
X138900178Y-46750064I29972J0D01*
G01*
D16*
X140100076Y-48400051D02*
G75*
G02*
X139700280Y-48400051I-199898J0D01*
G01*
X139700280Y-48400051D02*
G75*
G02*
X140100076Y-48400051I199898J0D01*
G01*
D12*
G04 #@! TO.C,R22*
X165437742Y-65477500D02*
X165912258Y-65477500D01*
X165437742Y-66522500D02*
X165912258Y-66522500D01*
G04 #@! TO.C,C3*
X126734420Y-89890000D02*
X127015580Y-89890000D01*
X126734420Y-90910000D02*
X127015580Y-90910000D01*
G04 #@! TO.C,C13*
X142759420Y-86790000D02*
X143040580Y-86790000D01*
X142759420Y-87810000D02*
X143040580Y-87810000D01*
G04 #@! TO.C,R14*
X146262742Y-86677500D02*
X146737258Y-86677500D01*
X146262742Y-87722500D02*
X146737258Y-87722500D01*
D13*
G04 #@! TO.C,J2*
X163950013Y-73150013D02*
X166149987Y-73150013D01*
X163950013Y-88850013D02*
X163950013Y-73150013D01*
X166100000Y-73150013D02*
X166449987Y-73150013D01*
X166449987Y-73150013D02*
X166449987Y-88850013D01*
X166449987Y-88850013D02*
X163950013Y-88850013D01*
D14*
X163980036Y-73130048D02*
G75*
G02*
X163920092Y-73130048I-29972J0D01*
G01*
X163920092Y-73130048D02*
G75*
G02*
X163980036Y-73130048I29972J0D01*
G01*
D13*
X167399898Y-74350013D02*
G75*
G02*
X166799950Y-74350013I-299974J0D01*
G01*
X166799950Y-74350013D02*
G75*
G02*
X167399898Y-74350013I299974J0D01*
G01*
D12*
G04 #@! TO.C,Q4*
X129200000Y-45540000D02*
X128550000Y-45540000D01*
X129200000Y-45540000D02*
X129850000Y-45540000D01*
X129200000Y-48660000D02*
X128550000Y-48660000D01*
X129200000Y-48660000D02*
X129850000Y-48660000D01*
X128037500Y-45590000D02*
X127797500Y-45260000D01*
X128277500Y-45260000D01*
X128037500Y-45590000D01*
G36*
X128037500Y-45590000D02*
G01*
X127797500Y-45260000D01*
X128277500Y-45260000D01*
X128037500Y-45590000D01*
G37*
G04 #@! TO.C,R19*
X148690000Y-83037742D02*
X148690000Y-83512258D01*
X149735000Y-83037742D02*
X149735000Y-83512258D01*
G04 #@! TO.C,R6*
X155262258Y-66677500D02*
X154787742Y-66677500D01*
X155262258Y-67722500D02*
X154787742Y-67722500D01*
G04 #@! TO.C,C11*
X128990000Y-102040580D02*
X128990000Y-101759420D01*
X130010000Y-102040580D02*
X130010000Y-101759420D01*
D13*
G04 #@! TO.C,USB1*
X152229997Y-108942240D02*
X152354534Y-108027483D01*
X152354534Y-103402235D02*
X152826289Y-103402235D01*
X152354534Y-105185725D02*
X152354534Y-103402235D01*
X152354534Y-108027483D02*
X152354534Y-107431395D01*
X152364999Y-104987757D02*
X152368707Y-104779985D01*
X152367285Y-104987402D02*
X152368123Y-104812827D01*
X152650013Y-108447219D02*
X152229997Y-108942240D01*
X153100000Y-108427229D02*
X152650013Y-108447219D01*
X153100000Y-108427229D02*
X153100000Y-108927229D01*
X153100000Y-108427229D02*
X159200000Y-108427229D01*
X153100000Y-108927229D02*
X159189992Y-108957226D01*
X154286411Y-103004953D02*
X154368885Y-103005283D01*
X157831140Y-103019025D02*
X157898984Y-103019279D01*
X159189992Y-108957226D02*
X159200000Y-108427229D01*
X159200000Y-108427229D02*
X159500000Y-108427229D01*
X159373787Y-103402235D02*
X159889992Y-103402235D01*
X159500000Y-108427229D02*
X160029997Y-108902235D01*
X159889992Y-103402235D02*
X159889992Y-105193066D01*
X159889992Y-107424054D02*
X159889992Y-108016536D01*
X160029997Y-108902235D02*
X159900000Y-108016536D01*
D14*
X152159944Y-102946355D02*
G75*
G02*
X152100000Y-102946355I-29972J0D01*
G01*
X152100000Y-102946355D02*
G75*
G02*
X152159944Y-102946355I29972J0D01*
G01*
D12*
G04 #@! TO.C,C8*
X166290000Y-70140580D02*
X166290000Y-69859420D01*
X167310000Y-70140580D02*
X167310000Y-69859420D01*
G04 #@! TO.C,Q5*
X129400000Y-49040000D02*
X128750000Y-49040000D01*
X129400000Y-49040000D02*
X130050000Y-49040000D01*
X129400000Y-52160000D02*
X128750000Y-52160000D01*
X129400000Y-52160000D02*
X130050000Y-52160000D01*
X128237500Y-49090000D02*
X127997500Y-48760000D01*
X128477500Y-48760000D01*
X128237500Y-49090000D01*
G36*
X128237500Y-49090000D02*
G01*
X127997500Y-48760000D01*
X128477500Y-48760000D01*
X128237500Y-49090000D01*
G37*
G04 #@! TO.C,C14*
X135840580Y-86790000D02*
X135559420Y-86790000D01*
X135840580Y-87810000D02*
X135559420Y-87810000D01*
D15*
G04 #@! TO.C,U10*
X158409500Y-61856515D02*
X158409500Y-60376530D01*
X159559563Y-60356439D02*
X158409500Y-60356439D01*
X159559563Y-61856566D02*
X158409500Y-61856566D01*
X159579604Y-60776505D02*
X159589510Y-60776505D01*
X159579604Y-61106528D02*
X159919609Y-61106528D01*
X159579604Y-61446533D02*
X159919609Y-61106528D01*
X159579604Y-61456541D02*
X159579604Y-60776505D01*
X159579604Y-61456541D02*
X159579604Y-61446533D01*
X159589510Y-60776505D02*
X159919609Y-61106528D01*
X159939573Y-60354153D02*
X160989688Y-60354153D01*
X159939573Y-61854280D02*
X160989688Y-61854280D01*
X161289637Y-60654229D02*
X160989688Y-60354153D01*
X161289637Y-60754255D02*
X161289637Y-60654229D01*
X161289637Y-61454178D02*
X161289637Y-60754255D01*
X161289637Y-61454178D02*
X161289637Y-61554331D01*
X161289637Y-61554331D02*
X160989688Y-61854280D01*
D14*
X160629439Y-60696571D02*
G75*
G02*
X160569495Y-60696571I-29972J0D01*
G01*
X160569495Y-60696571D02*
G75*
G02*
X160629439Y-60696571I29972J0D01*
G01*
D12*
G04 #@! TO.C,Q1*
X150500000Y-66590000D02*
X149850000Y-66590000D01*
X150500000Y-66590000D02*
X151150000Y-66590000D01*
X150500000Y-69710000D02*
X149850000Y-69710000D01*
X150500000Y-69710000D02*
X151150000Y-69710000D01*
X151902500Y-69990000D02*
X151422500Y-69990000D01*
X151662500Y-69660000D01*
X151902500Y-69990000D01*
G36*
X151902500Y-69990000D02*
G01*
X151422500Y-69990000D01*
X151662500Y-69660000D01*
X151902500Y-69990000D01*
G37*
G04 #@! TO.C,R32*
X127137258Y-107177500D02*
X126662742Y-107177500D01*
X127137258Y-108222500D02*
X126662742Y-108222500D01*
G04 #@! TO.C,C12*
X151102500Y-83134420D02*
X151102500Y-83415580D01*
X152122500Y-83134420D02*
X152122500Y-83415580D01*
G04 #@! TO.C,R24*
X146180000Y-83512258D02*
X146180000Y-83037742D01*
X147225000Y-83512258D02*
X147225000Y-83037742D01*
G04 #@! TO.C,R7*
X132562742Y-47477500D02*
X133037258Y-47477500D01*
X132562742Y-48522500D02*
X133037258Y-48522500D01*
G04 #@! TO.C,R36*
X153909500Y-95487258D02*
X153909500Y-95012742D01*
X154954500Y-95487258D02*
X154954500Y-95012742D01*
G04 #@! TO.C,R29*
X126662742Y-105577500D02*
X127137258Y-105577500D01*
X126662742Y-106622500D02*
X127137258Y-106622500D01*
G04 #@! TO.C,R33*
X128794742Y-98791500D02*
X129269258Y-98791500D01*
X128794742Y-99836500D02*
X129269258Y-99836500D01*
G04 #@! TO.C,R16*
X128237742Y-62902500D02*
X128712258Y-62902500D01*
X128237742Y-63947500D02*
X128712258Y-63947500D01*
G04 #@! TO.C,R27*
X125969500Y-94725258D02*
X125969500Y-94250742D01*
X127014500Y-94725258D02*
X127014500Y-94250742D01*
G04 #@! TO.C,R18*
X128187742Y-59402500D02*
X128662258Y-59402500D01*
X128187742Y-60447500D02*
X128662258Y-60447500D01*
G04 #@! TO.C,R11*
X134437258Y-58377500D02*
X133962742Y-58377500D01*
X134437258Y-59422500D02*
X133962742Y-59422500D01*
G04 #@! TO.C,R1*
X146987258Y-67227500D02*
X146512742Y-67227500D01*
X146987258Y-68272500D02*
X146512742Y-68272500D01*
G04 #@! TO.C,C7*
X162859420Y-101590000D02*
X163140580Y-101590000D01*
X162859420Y-102610000D02*
X163140580Y-102610000D01*
D13*
G04 #@! TO.C,U3*
X132082982Y-90455931D02*
X132082982Y-91303785D01*
X132082982Y-109176124D02*
X132082982Y-115982982D01*
X132099975Y-115994996D02*
X150100025Y-115994996D01*
X133433833Y-90455931D02*
X132082982Y-90455931D01*
X133802819Y-109955372D02*
X133802819Y-114839980D01*
X133802819Y-114839980D02*
X136038024Y-114839980D01*
X135834823Y-109955372D02*
X135834823Y-114839980D01*
X135834823Y-114839980D02*
X138686995Y-114839980D01*
X138686995Y-112680975D02*
X141227000Y-112680975D01*
X138686995Y-114839980D02*
X138686995Y-112680975D01*
X141227000Y-112680975D02*
X141227000Y-114839980D01*
X141227000Y-114839980D02*
X143767005Y-114839980D01*
X143767005Y-112680975D02*
X146053010Y-112680975D01*
X143767005Y-114839980D02*
X143767005Y-112680975D01*
X146053010Y-112680975D02*
X146053010Y-114839980D01*
X146053010Y-114839980D02*
X148339014Y-114839980D01*
X148339014Y-114839980D02*
X148339014Y-111156972D01*
X150100025Y-90455931D02*
X148766167Y-90455931D01*
X150100025Y-91303785D02*
X150100025Y-90455931D01*
X150100025Y-109955372D02*
X132082982Y-109955372D01*
X150100025Y-115994996D02*
X150100025Y-109176124D01*
D14*
X150129972Y-115994844D02*
G75*
G02*
X150070028Y-115994844I-29972J0D01*
G01*
X150070028Y-115994844D02*
G75*
G02*
X150129972Y-115994844I29972J0D01*
G01*
D13*
X151915596Y-109124892D02*
G75*
G02*
X151112446Y-109124892I-401575J0D01*
G01*
X151112446Y-109124892D02*
G75*
G02*
X151915596Y-109124892I401575J0D01*
G01*
D12*
G04 #@! TO.C,C6*
X162558000Y-75832580D02*
X162558000Y-75551420D01*
X163578000Y-75832580D02*
X163578000Y-75551420D01*
G04 #@! TO.C,R3*
X146987258Y-65727500D02*
X146512742Y-65727500D01*
X146987258Y-66772500D02*
X146512742Y-66772500D01*
G04 #@! TO.C,R17*
X128187742Y-61152500D02*
X128662258Y-61152500D01*
X128187742Y-62197500D02*
X128662258Y-62197500D01*
G04 #@! TO.C,C4*
X126559420Y-102390000D02*
X126840580Y-102390000D01*
X126559420Y-103410000D02*
X126840580Y-103410000D01*
G04 #@! TO.C,R5*
X155077500Y-59537258D02*
X155077500Y-59062742D01*
X156122500Y-59537258D02*
X156122500Y-59062742D01*
G04 #@! TO.C,R21*
X165862742Y-101577500D02*
X166337258Y-101577500D01*
X165862742Y-102622500D02*
X166337258Y-102622500D01*
D17*
G04 #@! TO.C,C10*
X165395682Y-54076200D02*
X165395682Y-51123800D01*
X168126187Y-51123800D02*
X164473813Y-51123800D01*
X168126187Y-51123800D02*
X168126187Y-51208763D01*
X168126187Y-54076200D02*
X164473813Y-54076200D01*
X168126187Y-54076200D02*
X168126187Y-53991237D01*
D14*
X164350038Y-54000051D02*
G75*
G02*
X164290094Y-54000051I-29972J0D01*
G01*
X164290094Y-54000051D02*
G75*
G02*
X164350038Y-54000051I29972J0D01*
G01*
D12*
G04 #@! TO.C,R26*
X127137258Y-91577500D02*
X126662742Y-91577500D01*
X127137258Y-92622500D02*
X126662742Y-92622500D01*
D13*
G04 #@! TO.C,J1*
X125850013Y-73150013D02*
X128049987Y-73150013D01*
X125850013Y-88850013D02*
X125850013Y-73150013D01*
X128000000Y-73150013D02*
X128349987Y-73150013D01*
X128349987Y-73150013D02*
X128349987Y-88850013D01*
X128349987Y-88850013D02*
X125850013Y-88850013D01*
D14*
X125880036Y-73130048D02*
G75*
G02*
X125820092Y-73130048I-29972J0D01*
G01*
X125820092Y-73130048D02*
G75*
G02*
X125880036Y-73130048I29972J0D01*
G01*
D13*
X129299898Y-74350013D02*
G75*
G02*
X128699950Y-74350013I-299974J0D01*
G01*
X128699950Y-74350013D02*
G75*
G02*
X129299898Y-74350013I299974J0D01*
G01*
D12*
G04 #@! TO.C,R12*
X128362742Y-56677500D02*
X128837258Y-56677500D01*
X128362742Y-57722500D02*
X128837258Y-57722500D01*
G04 #@! TO.C,R23*
X159062258Y-62977500D02*
X158587742Y-62977500D01*
X159062258Y-64022500D02*
X158587742Y-64022500D01*
D13*
G04 #@! TO.C,U8*
X161174051Y-74449936D02*
X159374025Y-74449936D01*
X161174051Y-75599924D02*
X161174051Y-76399949D01*
X161174051Y-77549962D02*
X159374025Y-77549962D01*
X158877124Y-74348997D02*
G75*
G02*
X158623124Y-74348997I-127000J0D01*
G01*
X158623124Y-74348997D02*
G75*
G02*
X158877124Y-74348997I127000J0D01*
G01*
D14*
X158904048Y-74549911D02*
G75*
G02*
X158844104Y-74549911I-29972J0D01*
G01*
X158844104Y-74549911D02*
G75*
G02*
X158904048Y-74549911I29972J0D01*
G01*
D12*
G04 #@! TO.C,Q6*
X129400000Y-52640000D02*
X128750000Y-52640000D01*
X129400000Y-52640000D02*
X130050000Y-52640000D01*
X129400000Y-55760000D02*
X128750000Y-55760000D01*
X129400000Y-55760000D02*
X130050000Y-55760000D01*
X128237500Y-52690000D02*
X127997500Y-52360000D01*
X128477500Y-52360000D01*
X128237500Y-52690000D01*
G36*
X128237500Y-52690000D02*
G01*
X127997500Y-52360000D01*
X128477500Y-52360000D01*
X128237500Y-52690000D01*
G37*
D13*
G04 #@! TO.C,U6*
X156450089Y-67949962D02*
X161550165Y-67949962D01*
X156450089Y-69199898D02*
X156450089Y-67949962D01*
X156450089Y-70800102D02*
X156450089Y-72050038D01*
X161549911Y-67949962D02*
X161549911Y-72050038D01*
X161549911Y-72050038D02*
X156449835Y-72050038D01*
X156500127Y-69199899D02*
G75*
G02*
X156500127Y-70800101I-375289J-800101D01*
G01*
X156140208Y-72500127D02*
G75*
G02*
X155799848Y-72500127I-170180J0D01*
G01*
X155799848Y-72500127D02*
G75*
G02*
X156140208Y-72500127I170180J0D01*
G01*
D14*
X156575819Y-72949962D02*
G75*
G02*
X156515875Y-72949962I-29972J0D01*
G01*
X156515875Y-72949962D02*
G75*
G02*
X156575819Y-72949962I29972J0D01*
G01*
D12*
G04 #@! TO.C,R28*
X126462742Y-100877500D02*
X126937258Y-100877500D01*
X126462742Y-101922500D02*
X126937258Y-101922500D01*
G04 #@! TO.C,R8*
X135762742Y-49777500D02*
X136237258Y-49777500D01*
X135762742Y-50822500D02*
X136237258Y-50822500D01*
G04 #@! TO.C,R10*
X135962742Y-55177500D02*
X136437258Y-55177500D01*
X135962742Y-56222500D02*
X136437258Y-56222500D01*
G04 #@! TO.C,R13*
X146987258Y-64227500D02*
X146512742Y-64227500D01*
X146987258Y-65272500D02*
X146512742Y-65272500D01*
G04 #@! TO.C,R35*
X155377500Y-95462258D02*
X155377500Y-94987742D01*
X156422500Y-95462258D02*
X156422500Y-94987742D01*
G04 #@! TO.C,Q2*
X150500000Y-62690000D02*
X149850000Y-62690000D01*
X150500000Y-62690000D02*
X151150000Y-62690000D01*
X150500000Y-65810000D02*
X149850000Y-65810000D01*
X150500000Y-65810000D02*
X151150000Y-65810000D01*
X151902500Y-66090000D02*
X151422500Y-66090000D01*
X151662500Y-65760000D01*
X151902500Y-66090000D01*
G36*
X151902500Y-66090000D02*
G01*
X151422500Y-66090000D01*
X151662500Y-65760000D01*
X151902500Y-66090000D01*
G37*
G04 #@! TD*
%LPC*%
D18*
G04 #@! TO.C,R20*
X161725000Y-81200000D03*
X160075000Y-81200000D03*
G04 #@! TD*
D19*
G04 #@! TO.C,TXAL1*
X140550000Y-87400000D03*
X138050000Y-87400000D03*
G04 #@! TD*
D20*
G04 #@! TO.C,Q3*
X155750000Y-64200000D03*
X155750000Y-62300000D03*
X153875000Y-63250000D03*
G04 #@! TD*
D21*
G04 #@! TO.C,SW1*
X163400000Y-107377318D03*
X166400000Y-107377318D03*
D22*
X162649936Y-105345568D03*
X165649936Y-105345568D03*
X167149809Y-105345568D03*
D23*
X168699975Y-106242444D03*
X168699975Y-108512446D03*
X161100025Y-108512446D03*
X161100025Y-106242444D03*
G04 #@! TD*
D18*
G04 #@! TO.C,R4*
X150625000Y-87200000D03*
X148975000Y-87200000D03*
G04 #@! TD*
G04 #@! TO.C,R2*
X147575000Y-69250000D03*
X145925000Y-69250000D03*
G04 #@! TD*
G04 #@! TO.C,R15*
X147575000Y-63250000D03*
X145925000Y-63250000D03*
G04 #@! TD*
D24*
G04 #@! TO.C,U9*
X162700457Y-61103607D03*
X164299390Y-61096495D03*
G04 #@! TD*
D25*
G04 #@! TO.C,U5*
X160497000Y-93702000D03*
D26*
X161735000Y-93702000D03*
D27*
X161826500Y-90702000D03*
X160753500Y-90702000D03*
G04 #@! TD*
D28*
G04 #@! TO.C,C2*
X129032000Y-93713000D03*
X129032000Y-95263000D03*
G04 #@! TD*
D29*
G04 #@! TO.C,R34*
X126200000Y-98325000D03*
X126200000Y-96675000D03*
G04 #@! TD*
D30*
G04 #@! TO.C,R9*
X134475000Y-52600000D03*
X136125000Y-52600000D03*
G04 #@! TD*
D31*
G04 #@! TO.C,LED1*
X141299975Y-47849886D03*
X141299975Y-60149860D03*
X143000000Y-47849886D03*
X143000000Y-60149860D03*
X144700025Y-47849886D03*
X144700025Y-60149860D03*
D32*
X143000000Y-54000000D03*
G04 #@! TD*
D30*
G04 #@! TO.C,R22*
X164850000Y-66000000D03*
X166500000Y-66000000D03*
G04 #@! TD*
D33*
G04 #@! TO.C,C3*
X126100000Y-90400000D03*
X127650000Y-90400000D03*
G04 #@! TD*
D34*
G04 #@! TO.C,H2*
X167500000Y-96500000D03*
G04 #@! TD*
D33*
G04 #@! TO.C,C13*
X142125000Y-87300000D03*
X143675000Y-87300000D03*
G04 #@! TD*
D30*
G04 #@! TO.C,R14*
X145675000Y-87200000D03*
X147325000Y-87200000D03*
G04 #@! TD*
D35*
G04 #@! TO.C,J2*
X165200000Y-74649987D03*
D36*
X165200000Y-77189992D03*
X165200000Y-79729997D03*
X165200000Y-82270003D03*
X165200000Y-84810008D03*
X165200000Y-87350013D03*
G04 #@! TD*
D37*
G04 #@! TO.C,Q4*
X128262500Y-46150000D03*
X128262500Y-48050000D03*
X130137500Y-47100000D03*
G04 #@! TD*
D38*
G04 #@! TO.C,R19*
X149212500Y-82450000D03*
X149212500Y-84100000D03*
G04 #@! TD*
D18*
G04 #@! TO.C,R6*
X155850000Y-67200000D03*
X154200000Y-67200000D03*
G04 #@! TD*
D39*
G04 #@! TO.C,C11*
X129500000Y-102675000D03*
X129500000Y-101125000D03*
G04 #@! TD*
D40*
G04 #@! TO.C,USB1*
X154800025Y-103115774D03*
X155450013Y-103115774D03*
X156100000Y-103115774D03*
X156749987Y-103115774D03*
X157399975Y-103115774D03*
D41*
X158524943Y-103638253D03*
D42*
X159724841Y-106308560D03*
X152475159Y-106308560D03*
D41*
X153675057Y-103638507D03*
G04 #@! TD*
D39*
G04 #@! TO.C,C8*
X166800000Y-70775000D03*
X166800000Y-69225000D03*
G04 #@! TD*
D37*
G04 #@! TO.C,Q5*
X128462500Y-49650000D03*
X128462500Y-51550000D03*
X130337500Y-50600000D03*
G04 #@! TD*
D43*
G04 #@! TO.C,C14*
X136475000Y-87300000D03*
X134925000Y-87300000D03*
G04 #@! TD*
D24*
G04 #@! TO.C,U10*
X160599467Y-61096622D03*
X159000533Y-61103480D03*
G04 #@! TD*
D20*
G04 #@! TO.C,Q1*
X151437500Y-69100000D03*
X151437500Y-67200000D03*
X149562500Y-68150000D03*
G04 #@! TD*
D18*
G04 #@! TO.C,R32*
X127725000Y-107700000D03*
X126075000Y-107700000D03*
G04 #@! TD*
D28*
G04 #@! TO.C,C12*
X151612500Y-82500000D03*
X151612500Y-84050000D03*
G04 #@! TD*
D29*
G04 #@! TO.C,R24*
X146702500Y-84100000D03*
X146702500Y-82450000D03*
G04 #@! TD*
D30*
G04 #@! TO.C,R7*
X131975000Y-48000000D03*
X133625000Y-48000000D03*
G04 #@! TD*
D29*
G04 #@! TO.C,R36*
X154432000Y-96075000D03*
X154432000Y-94425000D03*
G04 #@! TD*
D44*
G04 #@! TO.C,J4*
X156345054Y-44284065D03*
X139845054Y-44284065D03*
G04 #@! TD*
D30*
G04 #@! TO.C,R29*
X126075000Y-106100000D03*
X127725000Y-106100000D03*
G04 #@! TD*
G04 #@! TO.C,R33*
X128207000Y-99314000D03*
X129857000Y-99314000D03*
G04 #@! TD*
G04 #@! TO.C,R16*
X127650000Y-63425000D03*
X129300000Y-63425000D03*
G04 #@! TD*
D29*
G04 #@! TO.C,R27*
X126492000Y-95313000D03*
X126492000Y-93663000D03*
G04 #@! TD*
D30*
G04 #@! TO.C,R18*
X127600000Y-59925000D03*
X129250000Y-59925000D03*
G04 #@! TD*
D18*
G04 #@! TO.C,R11*
X135025000Y-58900000D03*
X133375000Y-58900000D03*
G04 #@! TD*
G04 #@! TO.C,R1*
X147575000Y-67750000D03*
X145925000Y-67750000D03*
G04 #@! TD*
D33*
G04 #@! TO.C,C7*
X162225000Y-102100000D03*
X163775000Y-102100000D03*
G04 #@! TD*
D45*
G04 #@! TO.C,U3*
X149850064Y-108494971D03*
X149850064Y-107224968D03*
X149850064Y-105954966D03*
X149850064Y-104684963D03*
X149850064Y-103414961D03*
X149850064Y-102144958D03*
X149850064Y-100874956D03*
X149850064Y-99604953D03*
X149850064Y-98334950D03*
X149850064Y-97064948D03*
X149850064Y-95794945D03*
X149850064Y-94524943D03*
X149850064Y-93254940D03*
X149850064Y-91984938D03*
D46*
X148085014Y-90705029D03*
X146815011Y-90705029D03*
X145545009Y-90705029D03*
X144275006Y-90705029D03*
X143005004Y-90705029D03*
X141735001Y-90705029D03*
X140464999Y-90705029D03*
X139194996Y-90705029D03*
X137924994Y-90705029D03*
X136654991Y-90705029D03*
X135384989Y-90705029D03*
X134114986Y-90735001D03*
D45*
X132349936Y-91984938D03*
X132349936Y-93254940D03*
X132349936Y-94524943D03*
X132349936Y-95794945D03*
X132349936Y-97064948D03*
X132349936Y-98334950D03*
X132349936Y-99604953D03*
X132349936Y-100874956D03*
X132349936Y-102144958D03*
X132349936Y-103414961D03*
X132349936Y-104684963D03*
X132349936Y-105954966D03*
X132349936Y-107224968D03*
X132349936Y-108494971D03*
D47*
X144000178Y-102174930D03*
X144000178Y-100774879D03*
X144000178Y-99374829D03*
X142600127Y-102174930D03*
X142600127Y-100774879D03*
X142600127Y-99374829D03*
X141200076Y-102174930D03*
X141200076Y-100774879D03*
X141200076Y-99374829D03*
G04 #@! TD*
D39*
G04 #@! TO.C,C6*
X163068000Y-76467000D03*
X163068000Y-74917000D03*
G04 #@! TD*
D18*
G04 #@! TO.C,R3*
X147575000Y-66250000D03*
X145925000Y-66250000D03*
G04 #@! TD*
D30*
G04 #@! TO.C,R17*
X127600000Y-61675000D03*
X129250000Y-61675000D03*
G04 #@! TD*
D33*
G04 #@! TO.C,C4*
X125925000Y-102900000D03*
X127475000Y-102900000D03*
G04 #@! TD*
D29*
G04 #@! TO.C,R5*
X155600000Y-60125000D03*
X155600000Y-58475000D03*
G04 #@! TD*
D30*
G04 #@! TO.C,R21*
X165275000Y-102100000D03*
X166925000Y-102100000D03*
G04 #@! TD*
D48*
G04 #@! TO.C,C10*
X164439446Y-52600000D03*
X168160554Y-52600000D03*
G04 #@! TD*
D18*
G04 #@! TO.C,R26*
X127725000Y-92100000D03*
X126075000Y-92100000D03*
G04 #@! TD*
D35*
G04 #@! TO.C,J1*
X127100000Y-74649987D03*
D36*
X127100000Y-77189992D03*
X127100000Y-79729997D03*
X127100000Y-82270003D03*
X127100000Y-84810008D03*
X127100000Y-87350013D03*
G04 #@! TD*
D30*
G04 #@! TO.C,R12*
X127775000Y-57200000D03*
X129425000Y-57200000D03*
G04 #@! TD*
D18*
G04 #@! TO.C,R23*
X159650000Y-63500000D03*
X158000000Y-63500000D03*
G04 #@! TD*
D49*
G04 #@! TO.C,U8*
X158973898Y-75050038D03*
X158973898Y-76000000D03*
X158973898Y-76949962D03*
X161574102Y-76949962D03*
X161574102Y-75050038D03*
G04 #@! TD*
D34*
G04 #@! TO.C,H1*
X166900000Y-47200000D03*
G04 #@! TD*
D37*
G04 #@! TO.C,Q6*
X128462500Y-53250000D03*
X128462500Y-55150000D03*
X130337500Y-54200000D03*
G04 #@! TD*
D50*
G04 #@! TO.C,U6*
X157094996Y-72908306D03*
X158364999Y-72908306D03*
X159635001Y-72908306D03*
X160905004Y-72908306D03*
X160905004Y-67091694D03*
X159635001Y-67091694D03*
X158364999Y-67091694D03*
X157094996Y-67091694D03*
D51*
X159000000Y-70000000D03*
G04 #@! TD*
D30*
G04 #@! TO.C,R28*
X125875000Y-101400000D03*
X127525000Y-101400000D03*
G04 #@! TD*
G04 #@! TO.C,R8*
X135175000Y-50300000D03*
X136825000Y-50300000D03*
G04 #@! TD*
G04 #@! TO.C,R10*
X135375000Y-55700000D03*
X137025000Y-55700000D03*
G04 #@! TD*
D18*
G04 #@! TO.C,R13*
X147575000Y-64750000D03*
X145925000Y-64750000D03*
G04 #@! TD*
D29*
G04 #@! TO.C,R35*
X155900000Y-96050000D03*
X155900000Y-94400000D03*
G04 #@! TD*
D20*
G04 #@! TO.C,Q2*
X151437500Y-65200000D03*
X151437500Y-63300000D03*
X149562500Y-64250000D03*
G04 #@! TD*
D34*
G04 #@! TO.C,H3*
X127600000Y-68300000D03*
G04 #@! TD*
D52*
G04 #@! TO.C,J3*
X156422000Y-82312000D03*
D53*
X156422000Y-84312000D03*
G04 #@! TD*
D54*
G04 #@! TO.C,LED2*
X152300000Y-53900000D03*
G04 #@! TD*
D55*
G04 #@! TO.C,MIC1*
X127650038Y-104400000D03*
X129549962Y-104400000D03*
G04 #@! TD*
D52*
G04 #@! TO.C,J5*
X156464000Y-89408000D03*
D53*
X156464000Y-91408000D03*
G04 #@! TD*
%LPD*%
M02*
