G04 #@! TF.GenerationSoftware,KiCad,Pcbnew,8.0.1*
G04 #@! TF.CreationDate,2024-04-29T00:58:12+02:00*
G04 #@! TF.ProjectId,Blinky,426c696e-6b79-42e6-9b69-6361645f7063,rev?*
G04 #@! TF.SameCoordinates,Original*
G04 #@! TF.FileFunction,Soldermask,Top*
G04 #@! TF.FilePolarity,Negative*
%FSLAX46Y46*%
G04 Gerber Fmt 4.6, Leading zero omitted, Abs format (unit mm)*
G04 Created by KiCad (PCBNEW 8.0.1) date 2024-04-29 00:58:12*
%MOMM*%
%LPD*%
G01*
G04 APERTURE LIST*
G04 Aperture macros list*
%AMRoundRect*
0 Rectangle with rounded corners*
0 $1 Rounding radius*
0 $2 $3 $4 $5 $6 $7 $8 $9 X,Y pos of 4 corners*
0 Add a 4 corners polygon primitive as box body*
4,1,4,$2,$3,$4,$5,$6,$7,$8,$9,$2,$3,0*
0 Add four circle primitives for the rounded corners*
1,1,$1+$1,$2,$3*
1,1,$1+$1,$4,$5*
1,1,$1+$1,$6,$7*
1,1,$1+$1,$8,$9*
0 Add four rect primitives between the rounded corners*
20,1,$1+$1,$2,$3,$4,$5,0*
20,1,$1+$1,$4,$5,$6,$7,0*
20,1,$1+$1,$6,$7,$8,$9,0*
20,1,$1+$1,$8,$9,$2,$3,0*%
%AMFreePoly0*
4,1,265,0.086386,3.626060,0.172644,3.622962,0.258827,3.617831,0.344856,3.610643,0.430658,3.601422,0.516256,3.590170,0.601549,3.576861,0.686487,3.561544,0.771044,3.544196,0.855169,3.524841,0.938811,3.503480,1.021920,3.480163,1.104445,3.454864,1.186360,3.427584,1.267590,3.398400,1.348108,3.367259,1.427838,3.334239,1.506782,3.299314,1.584862,3.262510,1.662052,3.223876,
1.738303,3.183414,1.813589,3.141148,1.887808,3.097104,1.960986,3.051308,2.033045,3.003785,2.103937,2.954534,2.173660,2.903632,2.242139,2.851080,2.309347,2.796927,2.375260,2.741173,2.439827,2.683871,2.502997,2.625070,2.564745,2.564745,2.625070,2.502997,2.683871,2.439827,2.741173,2.375260,2.796927,2.309347,2.851080,2.242139,2.903632,2.173660,2.954534,2.103937,
3.003785,2.033045,3.051308,1.960986,3.097104,1.887808,3.141148,1.813564,3.183414,1.738303,3.223876,1.662052,3.262510,1.584862,3.299314,1.506782,3.334239,1.427838,3.367259,1.348108,3.398400,1.267590,3.427584,1.186360,3.454864,1.104445,3.480163,1.021920,3.503480,0.938811,3.524841,0.855169,3.544196,0.771044,3.561544,0.686487,3.576861,0.601549,3.590170,0.516256,
3.601422,0.430658,3.610643,0.344856,3.617831,0.258827,3.622962,0.172644,3.626060,0.086386,3.627076,0.000076,3.626060,-0.086233,3.622962,-0.172492,3.617831,-0.258674,3.610643,-0.344704,3.601422,-0.430505,3.590170,-0.516104,3.576861,-0.601397,3.561544,-0.686335,3.544196,-0.770892,3.524841,-0.855017,3.503480,-0.938659,3.480163,-1.021768,3.454864,-1.104293,3.427584,-1.186208,
3.398400,-1.267437,3.367259,-1.347955,3.334239,-1.427686,3.299314,-1.506629,3.262510,-1.584709,3.223876,-1.661900,3.183414,-1.738151,3.141148,-1.813437,3.097104,-1.887656,3.051308,-1.960833,3.003785,-2.032893,2.954534,-2.103785,2.903632,-2.173508,2.851080,-2.241986,2.796927,-2.309195,2.741173,-2.375108,2.683871,-2.439675,2.625070,-2.502845,2.564745,-2.564592,2.502997,-2.624917,
2.439827,-2.683719,2.375260,-2.741021,2.309347,-2.796774,2.242139,-2.850927,2.173660,-2.903480,2.103937,-2.954382,2.033045,-3.003632,1.960986,-3.051156,1.887808,-3.096952,1.813589,-3.140996,1.738303,-3.183261,1.662052,-3.223724,1.584862,-3.262357,1.506782,-3.299162,1.427838,-3.334087,1.348108,-3.367107,1.267590,-3.398247,1.186360,-3.427432,1.104445,-3.454712,1.021920,-3.480010,
0.938811,-3.503327,0.855169,-3.524689,0.771044,-3.544044,0.686487,-3.561392,0.601549,-3.576708,0.516256,-3.590018,0.430658,-3.601270,0.344856,-3.610490,0.258827,-3.617678,0.172644,-3.622809,0.086386,-3.625908,0.000076,-3.626924,-0.086233,-3.625908,-0.172492,-3.622809,-0.258674,-3.617678,-0.344704,-3.610490,-0.430505,-3.601270,-0.516104,-3.590018,-0.601397,-3.576708,-0.686335,-3.561392,
-0.770892,-3.544044,-0.855017,-3.524689,-0.938659,-3.503327,-1.021768,-3.480010,-1.104293,-3.454712,-1.186208,-3.427432,-1.267437,-3.398247,-1.347955,-3.367107,-1.427686,-3.334087,-1.506629,-3.299162,-1.584709,-3.262357,-1.661900,-3.223724,-1.738151,-3.183261,-1.813411,-3.140996,-1.887656,-3.096952,-1.960833,-3.051156,-2.032893,-3.003632,-2.103785,-2.954382,-2.173508,-2.903480,-2.241986,-2.850927,
-2.309195,-2.796774,-2.375108,-2.741021,-2.439675,-2.683719,-2.502845,-2.624917,-2.564592,-2.564592,-2.624917,-2.502845,-2.683719,-2.439675,-2.741021,-2.375108,-2.796774,-2.309195,-2.850927,-2.241986,-2.903480,-2.173508,-2.954382,-2.103785,-3.003632,-2.032893,-3.051156,-1.960833,-3.096952,-1.887656,-3.140996,-1.813437,-3.183261,-1.738151,-3.223724,-1.661900,-3.262357,-1.584709,-3.299162,-1.506629,
-3.334087,-1.427686,-3.367107,-1.347955,-3.398247,-1.267437,-3.427432,-1.186208,-3.454712,-1.104293,-3.480010,-1.021768,-3.503327,-0.938659,-3.524689,-0.855017,-3.544044,-0.770892,-3.561392,-0.686335,-3.576708,-0.601397,-3.590018,-0.516104,-3.601270,-0.430505,-3.610490,-0.344704,-3.617678,-0.258674,-3.622809,-0.172492,-3.625908,-0.086233,-3.626924,0.000076,-3.625908,0.086386,-3.622809,0.172644,
-3.617678,0.258827,-3.610490,0.344856,-3.601270,0.430658,-3.590018,0.516256,-3.576708,0.601549,-3.561392,0.686487,-3.544044,0.771044,-3.524689,0.855169,-3.503327,0.938811,-3.480010,1.021920,-3.454712,1.104445,-3.427432,1.186360,-3.398247,1.267590,-3.367107,1.348108,-3.334087,1.427838,-3.299162,1.506782,-3.262357,1.584862,-3.223724,1.662052,-3.183261,1.738303,-3.140996,1.813589,
-3.096952,1.887808,-3.051156,1.960986,-3.003632,2.033045,-2.954382,2.103937,-2.903480,2.173660,-2.850927,2.242139,-2.796774,2.309347,-2.741021,2.375260,-2.683719,2.439827,-2.624917,2.502997,-2.564592,2.564745,-2.502845,2.625070,-2.439675,2.683871,-2.375108,2.741173,-2.309195,2.796927,-2.241986,2.851080,-2.173508,2.903632,-2.103785,2.954534,-2.032893,3.003785,-1.960833,3.051308,
-1.887656,3.097104,-1.813411,3.141148,-1.738151,3.183414,-1.661900,3.223876,-1.584709,3.262510,-1.506629,3.299314,-1.427686,3.334239,-1.347955,3.367259,-1.267437,3.398400,-1.186208,3.427584,-1.104293,3.454864,-1.021768,3.480163,-0.938659,3.503480,-0.855017,3.524841,-0.770892,3.544196,-0.686335,3.561544,-0.601397,3.576861,-0.516104,3.590170,-0.430505,3.601422,-0.344704,3.610643,
-0.258674,3.617831,-0.172492,3.622962,-0.086233,3.626060,0.000076,3.627076,0.086386,3.626060,0.086386,3.626060,$1*%
%AMFreePoly1*
4,1,265,0.086386,3.625908,0.172644,3.622809,0.258827,3.617678,0.344856,3.610490,0.430658,3.601270,0.516256,3.590018,0.601549,3.576708,0.686487,3.561392,0.771044,3.544044,0.855169,3.524689,0.938811,3.503327,1.021920,3.480010,1.104445,3.454712,1.186360,3.427432,1.267590,3.398247,1.348108,3.367107,1.427838,3.334087,1.506782,3.299162,1.584862,3.262357,1.662052,3.223724,
1.738303,3.183261,1.813589,3.140996,1.887808,3.096952,1.960986,3.051156,2.033045,3.003632,2.103937,2.954382,2.173660,2.903480,2.242139,2.850927,2.309347,2.796774,2.375260,2.741021,2.439827,2.683719,2.502997,2.624917,2.564745,2.564592,2.625070,2.502845,2.683871,2.439675,2.741173,2.375108,2.796927,2.309195,2.851080,2.241986,2.903632,2.173508,2.954534,2.103785,
3.003785,2.032893,3.051308,1.960833,3.097104,1.887656,3.141148,1.813437,3.183414,1.738151,3.223876,1.661900,3.262510,1.584709,3.299314,1.506629,3.334239,1.427686,3.367259,1.347955,3.398400,1.267437,3.427584,1.186208,3.454864,1.104293,3.480163,1.021768,3.503480,0.938659,3.524841,0.855017,3.544196,0.770892,3.561544,0.686335,3.576861,0.601397,3.590170,0.516104,
3.601422,0.430505,3.610643,0.344704,3.617831,0.258674,3.622962,0.172492,3.626060,0.086233,3.627076,-0.000076,3.626060,-0.086386,3.622962,-0.172644,3.617831,-0.258827,3.610643,-0.344856,3.601422,-0.430658,3.590170,-0.516256,3.576861,-0.601549,3.561544,-0.686487,3.544196,-0.771044,3.524841,-0.855169,3.503480,-0.938811,3.480163,-1.021920,3.454864,-1.104445,3.427584,-1.186360,
3.398400,-1.267590,3.367259,-1.348108,3.334239,-1.427838,3.299314,-1.506782,3.262510,-1.584862,3.223876,-1.662052,3.183414,-1.738303,3.141148,-1.813564,3.097104,-1.887808,3.051308,-1.960986,3.003785,-2.033045,2.954534,-2.103937,2.903632,-2.173660,2.851080,-2.242139,2.796927,-2.309347,2.741173,-2.375260,2.683871,-2.439827,2.625070,-2.502997,2.564745,-2.564745,2.502997,-2.625070,
2.439827,-2.683871,2.375260,-2.741173,2.309347,-2.796927,2.242139,-2.851080,2.173660,-2.903632,2.103937,-2.954534,2.033045,-3.003785,1.960986,-3.051308,1.887808,-3.097104,1.813589,-3.141148,1.738303,-3.183414,1.662052,-3.223876,1.584862,-3.262510,1.506782,-3.299314,1.427838,-3.334239,1.348108,-3.367259,1.267590,-3.398400,1.186360,-3.427584,1.104445,-3.454864,1.021920,-3.480163,
0.938811,-3.503480,0.855169,-3.524841,0.771044,-3.544196,0.686487,-3.561544,0.601549,-3.576861,0.516256,-3.590170,0.430658,-3.601422,0.344856,-3.610643,0.258827,-3.617831,0.172644,-3.622962,0.086386,-3.626060,0.000076,-3.627076,-0.086233,-3.626060,-0.172492,-3.622962,-0.258674,-3.617831,-0.344704,-3.610643,-0.430505,-3.601422,-0.516104,-3.590170,-0.601397,-3.576861,-0.686335,-3.561544,
-0.770892,-3.544196,-0.855017,-3.524841,-0.938659,-3.503480,-1.021768,-3.480163,-1.104293,-3.454864,-1.186208,-3.427584,-1.267437,-3.398400,-1.347955,-3.367259,-1.427686,-3.334239,-1.506629,-3.299314,-1.584709,-3.262510,-1.661900,-3.223876,-1.738151,-3.183414,-1.813411,-3.141148,-1.887656,-3.097104,-1.960833,-3.051308,-2.032893,-3.003785,-2.103785,-2.954534,-2.173508,-2.903632,-2.241986,-2.851080,
-2.309195,-2.796927,-2.375108,-2.741173,-2.439675,-2.683871,-2.502845,-2.625070,-2.564592,-2.564745,-2.624917,-2.502997,-2.683719,-2.439827,-2.741021,-2.375260,-2.796774,-2.309347,-2.850927,-2.242139,-2.903480,-2.173660,-2.954382,-2.103937,-3.003632,-2.033045,-3.051156,-1.960986,-3.096952,-1.887808,-3.140996,-1.813589,-3.183261,-1.738303,-3.223724,-1.662052,-3.262357,-1.584862,-3.299162,-1.506782,
-3.334087,-1.427838,-3.367107,-1.348108,-3.398247,-1.267590,-3.427432,-1.186360,-3.454712,-1.104445,-3.480010,-1.021920,-3.503327,-0.938811,-3.524689,-0.855169,-3.544044,-0.771044,-3.561392,-0.686487,-3.576708,-0.601549,-3.590018,-0.516256,-3.601270,-0.430658,-3.610490,-0.344856,-3.617678,-0.258827,-3.622809,-0.172644,-3.625908,-0.086386,-3.626924,-0.000076,-3.625908,0.086233,-3.622809,0.172492,
-3.617678,0.258674,-3.610490,0.344704,-3.601270,0.430505,-3.590018,0.516104,-3.576708,0.601397,-3.561392,0.686335,-3.544044,0.770892,-3.524689,0.855017,-3.503327,0.938659,-3.480010,1.021768,-3.454712,1.104293,-3.427432,1.186208,-3.398247,1.267437,-3.367107,1.347955,-3.334087,1.427686,-3.299162,1.506629,-3.262357,1.584709,-3.223724,1.661900,-3.183261,1.738151,-3.140996,1.813437,
-3.096952,1.887656,-3.051156,1.960833,-3.003632,2.032893,-2.954382,2.103785,-2.903480,2.173508,-2.850927,2.241986,-2.796774,2.309195,-2.741021,2.375108,-2.683719,2.439675,-2.624917,2.502845,-2.564592,2.564592,-2.502845,2.624917,-2.439675,2.683719,-2.375108,2.741021,-2.309195,2.796774,-2.241986,2.850927,-2.173508,2.903480,-2.103785,2.954382,-2.032893,3.003632,-1.960833,3.051156,
-1.887656,3.096952,-1.813411,3.140996,-1.738151,3.183261,-1.661900,3.223724,-1.584709,3.262357,-1.506629,3.299162,-1.427686,3.334087,-1.347955,3.367107,-1.267437,3.398247,-1.186208,3.427432,-1.104293,3.454712,-1.021768,3.480010,-0.938659,3.503327,-0.855017,3.524689,-0.770892,3.544044,-0.686335,3.561392,-0.601397,3.576708,-0.516104,3.590018,-0.430505,3.601270,-0.344704,3.610490,
-0.258674,3.617678,-0.172492,3.622809,-0.086233,3.625908,0.000076,3.626924,0.086386,3.625908,0.086386,3.625908,$1*%
G04 Aperture macros list end*
%ADD10RoundRect,0.200000X0.200000X0.275000X-0.200000X0.275000X-0.200000X-0.275000X0.200000X-0.275000X0*%
%ADD11R,1.000000X1.800000*%
%ADD12RoundRect,0.150000X0.587500X0.150000X-0.587500X0.150000X-0.587500X-0.150000X0.587500X-0.150000X0*%
%ADD13C,0.849987*%
%ADD14R,0.900000X1.800000*%
%ADD15R,1.100000X0.929997*%
%ADD16R,0.800000X0.800000*%
%ADD17RoundRect,0.112500X0.112500X-0.487500X0.112500X0.487500X-0.112500X0.487500X-0.112500X-0.487500X0*%
%ADD18RoundRect,0.286500X0.286500X-0.313500X0.286500X0.313500X-0.286500X0.313500X-0.286500X-0.313500X0*%
%ADD19RoundRect,0.218250X0.218250X-0.381750X0.218250X0.381750X-0.218250X0.381750X-0.218250X-0.381750X0*%
%ADD20RoundRect,0.225000X-0.250000X0.225000X-0.250000X-0.225000X0.250000X-0.225000X0.250000X0.225000X0*%
%ADD21RoundRect,0.200000X0.275000X-0.200000X0.275000X0.200000X-0.275000X0.200000X-0.275000X-0.200000X0*%
%ADD22RoundRect,0.200000X-0.200000X-0.275000X0.200000X-0.275000X0.200000X0.275000X-0.200000X0.275000X0*%
%ADD23R,1.350013X3.000000*%
%ADD24FreePoly0,0.000000*%
%ADD25RoundRect,0.225000X-0.225000X-0.250000X0.225000X-0.250000X0.225000X0.250000X-0.225000X0.250000X0*%
%ADD26C,3.200000*%
%ADD27R,1.600000X1.800000*%
%ADD28C,1.600000*%
%ADD29RoundRect,0.150000X-0.587500X-0.150000X0.587500X-0.150000X0.587500X0.150000X-0.587500X0.150000X0*%
%ADD30RoundRect,0.200000X-0.275000X0.200000X-0.275000X-0.200000X0.275000X-0.200000X0.275000X0.200000X0*%
%ADD31RoundRect,0.225000X0.250000X-0.225000X0.250000X0.225000X-0.250000X0.225000X-0.250000X-0.225000X0*%
%ADD32R,0.400000X1.600000*%
%ADD33C,1.300000*%
%ADD34O,1.300000X1.800000*%
%ADD35RoundRect,0.225000X0.225000X0.250000X-0.225000X0.250000X-0.225000X-0.250000X0.225000X-0.250000X0*%
%ADD36O,4.000000X1.524000*%
%ADD37R,1.500000X0.900000*%
%ADD38R,0.900000X1.500000*%
%ADD39R,0.900000X0.900000*%
%ADD40R,1.506248X2.375997*%
%ADD41R,1.000000X0.600000*%
%ADD42R,0.600000X1.200000*%
%ADD43R,3.300000X2.400000*%
%ADD44RoundRect,0.250000X-0.625000X0.350000X-0.625000X-0.350000X0.625000X-0.350000X0.625000X0.350000X0*%
%ADD45O,1.750000X1.200000*%
%ADD46FreePoly1,180.000000*%
%ADD47C,1.200000*%
G04 APERTURE END LIST*
D10*
G04 #@! TO.C,R20*
X161725000Y-81200000D03*
X160075000Y-81200000D03*
G04 #@! TD*
D11*
G04 #@! TO.C,TXAL1*
X140550000Y-87400000D03*
X138050000Y-87400000D03*
G04 #@! TD*
D12*
G04 #@! TO.C,Q3*
X155750000Y-64200000D03*
X155750000Y-62300000D03*
X153875000Y-63250000D03*
G04 #@! TD*
D13*
G04 #@! TO.C,SW1*
X163400000Y-107377318D03*
X166400000Y-107377318D03*
D14*
X162649936Y-105345568D03*
X165649936Y-105345568D03*
X167149809Y-105345568D03*
D15*
X168699975Y-106242444D03*
X168699975Y-108512446D03*
X161100025Y-108512446D03*
X161100025Y-106242444D03*
G04 #@! TD*
D10*
G04 #@! TO.C,R4*
X150625000Y-87200000D03*
X148975000Y-87200000D03*
G04 #@! TD*
G04 #@! TO.C,R2*
X147575000Y-69250000D03*
X145925000Y-69250000D03*
G04 #@! TD*
G04 #@! TO.C,R15*
X147575000Y-63250000D03*
X145925000Y-63250000D03*
G04 #@! TD*
D16*
G04 #@! TO.C,U9*
X162700457Y-61103607D03*
X164299390Y-61096495D03*
G04 #@! TD*
D17*
G04 #@! TO.C,U5*
X160497000Y-93702000D03*
D18*
X161735000Y-93702000D03*
D19*
X161826500Y-90702000D03*
X160753500Y-90702000D03*
G04 #@! TD*
D20*
G04 #@! TO.C,C2*
X129032000Y-93713000D03*
X129032000Y-95263000D03*
G04 #@! TD*
D21*
G04 #@! TO.C,R34*
X126200000Y-98325000D03*
X126200000Y-96675000D03*
G04 #@! TD*
D22*
G04 #@! TO.C,R9*
X134475000Y-52600000D03*
X136125000Y-52600000D03*
G04 #@! TD*
D23*
G04 #@! TO.C,LED1*
X141299975Y-47849886D03*
X141299975Y-60149860D03*
X143000000Y-47849886D03*
X143000000Y-60149860D03*
X144700025Y-47849886D03*
X144700025Y-60149860D03*
D24*
X143000000Y-54000000D03*
G04 #@! TD*
D22*
G04 #@! TO.C,R22*
X164850000Y-66000000D03*
X166500000Y-66000000D03*
G04 #@! TD*
D25*
G04 #@! TO.C,C3*
X126100000Y-90400000D03*
X127650000Y-90400000D03*
G04 #@! TD*
D26*
G04 #@! TO.C,H2*
X167500000Y-96500000D03*
G04 #@! TD*
D25*
G04 #@! TO.C,C13*
X142125000Y-87300000D03*
X143675000Y-87300000D03*
G04 #@! TD*
D22*
G04 #@! TO.C,R14*
X145675000Y-87200000D03*
X147325000Y-87200000D03*
G04 #@! TD*
D27*
G04 #@! TO.C,J2*
X165200000Y-74649987D03*
D28*
X165200000Y-77189992D03*
X165200000Y-79729997D03*
X165200000Y-82270003D03*
X165200000Y-84810008D03*
X165200000Y-87350013D03*
G04 #@! TD*
D29*
G04 #@! TO.C,Q4*
X128262500Y-46150000D03*
X128262500Y-48050000D03*
X130137500Y-47100000D03*
G04 #@! TD*
D30*
G04 #@! TO.C,R19*
X149212500Y-82450000D03*
X149212500Y-84100000D03*
G04 #@! TD*
D10*
G04 #@! TO.C,R6*
X155850000Y-67200000D03*
X154200000Y-67200000D03*
G04 #@! TD*
D31*
G04 #@! TO.C,C11*
X129500000Y-102675000D03*
X129500000Y-101125000D03*
G04 #@! TD*
D32*
G04 #@! TO.C,USB1*
X154800025Y-103115774D03*
X155450013Y-103115774D03*
X156100000Y-103115774D03*
X156749987Y-103115774D03*
X157399975Y-103115774D03*
D33*
X158524943Y-103638253D03*
D34*
X159724841Y-106308560D03*
X152475159Y-106308560D03*
D33*
X153675057Y-103638507D03*
G04 #@! TD*
D31*
G04 #@! TO.C,C8*
X166800000Y-70775000D03*
X166800000Y-69225000D03*
G04 #@! TD*
D29*
G04 #@! TO.C,Q5*
X128462500Y-49650000D03*
X128462500Y-51550000D03*
X130337500Y-50600000D03*
G04 #@! TD*
D35*
G04 #@! TO.C,C14*
X136475000Y-87300000D03*
X134925000Y-87300000D03*
G04 #@! TD*
D16*
G04 #@! TO.C,U10*
X160599467Y-61096622D03*
X159000533Y-61103480D03*
G04 #@! TD*
D12*
G04 #@! TO.C,Q1*
X151437500Y-69100000D03*
X151437500Y-67200000D03*
X149562500Y-68150000D03*
G04 #@! TD*
D10*
G04 #@! TO.C,R32*
X127725000Y-107700000D03*
X126075000Y-107700000D03*
G04 #@! TD*
D20*
G04 #@! TO.C,C12*
X151612500Y-82500000D03*
X151612500Y-84050000D03*
G04 #@! TD*
D21*
G04 #@! TO.C,R24*
X146702500Y-84100000D03*
X146702500Y-82450000D03*
G04 #@! TD*
D22*
G04 #@! TO.C,R7*
X131975000Y-48000000D03*
X133625000Y-48000000D03*
G04 #@! TD*
D21*
G04 #@! TO.C,R36*
X154432000Y-96075000D03*
X154432000Y-94425000D03*
G04 #@! TD*
D36*
G04 #@! TO.C,J4*
X156345054Y-44284065D03*
X139845054Y-44284065D03*
G04 #@! TD*
D22*
G04 #@! TO.C,R29*
X126075000Y-106100000D03*
X127725000Y-106100000D03*
G04 #@! TD*
G04 #@! TO.C,R33*
X128207000Y-99314000D03*
X129857000Y-99314000D03*
G04 #@! TD*
G04 #@! TO.C,R16*
X127650000Y-63425000D03*
X129300000Y-63425000D03*
G04 #@! TD*
D21*
G04 #@! TO.C,R27*
X126492000Y-95313000D03*
X126492000Y-93663000D03*
G04 #@! TD*
D22*
G04 #@! TO.C,R18*
X127600000Y-59925000D03*
X129250000Y-59925000D03*
G04 #@! TD*
D10*
G04 #@! TO.C,R11*
X135025000Y-58900000D03*
X133375000Y-58900000D03*
G04 #@! TD*
G04 #@! TO.C,R1*
X147575000Y-67750000D03*
X145925000Y-67750000D03*
G04 #@! TD*
D25*
G04 #@! TO.C,C7*
X162225000Y-102100000D03*
X163775000Y-102100000D03*
G04 #@! TD*
D37*
G04 #@! TO.C,U3*
X149850064Y-108494971D03*
X149850064Y-107224968D03*
X149850064Y-105954966D03*
X149850064Y-104684963D03*
X149850064Y-103414961D03*
X149850064Y-102144958D03*
X149850064Y-100874956D03*
X149850064Y-99604953D03*
X149850064Y-98334950D03*
X149850064Y-97064948D03*
X149850064Y-95794945D03*
X149850064Y-94524943D03*
X149850064Y-93254940D03*
X149850064Y-91984938D03*
D38*
X148085014Y-90705029D03*
X146815011Y-90705029D03*
X145545009Y-90705029D03*
X144275006Y-90705029D03*
X143005004Y-90705029D03*
X141735001Y-90705029D03*
X140464999Y-90705029D03*
X139194996Y-90705029D03*
X137924994Y-90705029D03*
X136654991Y-90705029D03*
X135384989Y-90705029D03*
X134114986Y-90735001D03*
D37*
X132349936Y-91984938D03*
X132349936Y-93254940D03*
X132349936Y-94524943D03*
X132349936Y-95794945D03*
X132349936Y-97064948D03*
X132349936Y-98334950D03*
X132349936Y-99604953D03*
X132349936Y-100874956D03*
X132349936Y-102144958D03*
X132349936Y-103414961D03*
X132349936Y-104684963D03*
X132349936Y-105954966D03*
X132349936Y-107224968D03*
X132349936Y-108494971D03*
D39*
X144000178Y-102174930D03*
X144000178Y-100774879D03*
X144000178Y-99374829D03*
X142600127Y-102174930D03*
X142600127Y-100774879D03*
X142600127Y-99374829D03*
X141200076Y-102174930D03*
X141200076Y-100774879D03*
X141200076Y-99374829D03*
G04 #@! TD*
D31*
G04 #@! TO.C,C6*
X163068000Y-76467000D03*
X163068000Y-74917000D03*
G04 #@! TD*
D10*
G04 #@! TO.C,R3*
X147575000Y-66250000D03*
X145925000Y-66250000D03*
G04 #@! TD*
D22*
G04 #@! TO.C,R17*
X127600000Y-61675000D03*
X129250000Y-61675000D03*
G04 #@! TD*
D25*
G04 #@! TO.C,C4*
X125925000Y-102900000D03*
X127475000Y-102900000D03*
G04 #@! TD*
D21*
G04 #@! TO.C,R5*
X155600000Y-60125000D03*
X155600000Y-58475000D03*
G04 #@! TD*
D22*
G04 #@! TO.C,R21*
X165275000Y-102100000D03*
X166925000Y-102100000D03*
G04 #@! TD*
D40*
G04 #@! TO.C,C10*
X164439446Y-52600000D03*
X168160554Y-52600000D03*
G04 #@! TD*
D10*
G04 #@! TO.C,R26*
X127725000Y-92100000D03*
X126075000Y-92100000D03*
G04 #@! TD*
D27*
G04 #@! TO.C,J1*
X127100000Y-74649987D03*
D28*
X127100000Y-77189992D03*
X127100000Y-79729997D03*
X127100000Y-82270003D03*
X127100000Y-84810008D03*
X127100000Y-87350013D03*
G04 #@! TD*
D22*
G04 #@! TO.C,R12*
X127775000Y-57200000D03*
X129425000Y-57200000D03*
G04 #@! TD*
D10*
G04 #@! TO.C,R23*
X159650000Y-63500000D03*
X158000000Y-63500000D03*
G04 #@! TD*
D41*
G04 #@! TO.C,U8*
X158973898Y-75050038D03*
X158973898Y-76000000D03*
X158973898Y-76949962D03*
X161574102Y-76949962D03*
X161574102Y-75050038D03*
G04 #@! TD*
D26*
G04 #@! TO.C,H1*
X166900000Y-47200000D03*
G04 #@! TD*
D29*
G04 #@! TO.C,Q6*
X128462500Y-53250000D03*
X128462500Y-55150000D03*
X130337500Y-54200000D03*
G04 #@! TD*
D42*
G04 #@! TO.C,U6*
X157094996Y-72908306D03*
X158364999Y-72908306D03*
X159635001Y-72908306D03*
X160905004Y-72908306D03*
X160905004Y-67091694D03*
X159635001Y-67091694D03*
X158364999Y-67091694D03*
X157094996Y-67091694D03*
D43*
X159000000Y-70000000D03*
G04 #@! TD*
D22*
G04 #@! TO.C,R28*
X125875000Y-101400000D03*
X127525000Y-101400000D03*
G04 #@! TD*
G04 #@! TO.C,R8*
X135175000Y-50300000D03*
X136825000Y-50300000D03*
G04 #@! TD*
G04 #@! TO.C,R10*
X135375000Y-55700000D03*
X137025000Y-55700000D03*
G04 #@! TD*
D10*
G04 #@! TO.C,R13*
X147575000Y-64750000D03*
X145925000Y-64750000D03*
G04 #@! TD*
D21*
G04 #@! TO.C,R35*
X155900000Y-96050000D03*
X155900000Y-94400000D03*
G04 #@! TD*
D12*
G04 #@! TO.C,Q2*
X151437500Y-65200000D03*
X151437500Y-63300000D03*
X149562500Y-64250000D03*
G04 #@! TD*
D26*
G04 #@! TO.C,H3*
X127600000Y-68300000D03*
G04 #@! TD*
D44*
G04 #@! TO.C,J3*
X156422000Y-82312000D03*
D45*
X156422000Y-84312000D03*
G04 #@! TD*
D46*
G04 #@! TO.C,LED2*
X152300000Y-53900000D03*
G04 #@! TD*
D47*
G04 #@! TO.C,MIC1*
X127650038Y-104400000D03*
X129549962Y-104400000D03*
G04 #@! TD*
D44*
G04 #@! TO.C,J5*
X156464000Y-89408000D03*
D45*
X156464000Y-91408000D03*
G04 #@! TD*
M02*
