%TF.GenerationSoftware,KiCad,Pcbnew,8.0.0*%
%TF.CreationDate,2024-03-03T22:06:13+01:00*%
%TF.ProjectId,Blinky,426c696e-6b79-42e6-9b69-6361645f7063,rev?*%
%TF.SameCoordinates,Original*%
%TF.FileFunction,Legend,Top*%
%TF.FilePolarity,Positive*%
%FSLAX46Y46*%
G04 Gerber Fmt 4.6, Leading zero omitted, Abs format (unit mm)*
G04 Created by KiCad (PCBNEW 8.0.0) date 2024-03-03 22:06:13*
%MOMM*%
%LPD*%
G01*
G04 APERTURE LIST*
%ADD10C,0.150000*%
%ADD11C,0.100000*%
%ADD12C,0.120000*%
%ADD13C,0.254000*%
%ADD14C,0.059995*%
%ADD15C,0.150013*%
%ADD16C,0.400000*%
%ADD17C,0.152400*%
%ADD18C,0.300000*%
G04 APERTURE END LIST*
D10*
X163454819Y-81842857D02*
X162978628Y-82176190D01*
X163454819Y-82414285D02*
X162454819Y-82414285D01*
X162454819Y-82414285D02*
X162454819Y-82033333D01*
X162454819Y-82033333D02*
X162502438Y-81938095D01*
X162502438Y-81938095D02*
X162550057Y-81890476D01*
X162550057Y-81890476D02*
X162645295Y-81842857D01*
X162645295Y-81842857D02*
X162788152Y-81842857D01*
X162788152Y-81842857D02*
X162883390Y-81890476D01*
X162883390Y-81890476D02*
X162931009Y-81938095D01*
X162931009Y-81938095D02*
X162978628Y-82033333D01*
X162978628Y-82033333D02*
X162978628Y-82414285D01*
X162550057Y-81461904D02*
X162502438Y-81414285D01*
X162502438Y-81414285D02*
X162454819Y-81319047D01*
X162454819Y-81319047D02*
X162454819Y-81080952D01*
X162454819Y-81080952D02*
X162502438Y-80985714D01*
X162502438Y-80985714D02*
X162550057Y-80938095D01*
X162550057Y-80938095D02*
X162645295Y-80890476D01*
X162645295Y-80890476D02*
X162740533Y-80890476D01*
X162740533Y-80890476D02*
X162883390Y-80938095D01*
X162883390Y-80938095D02*
X163454819Y-81509523D01*
X163454819Y-81509523D02*
X163454819Y-80890476D01*
X162454819Y-80271428D02*
X162454819Y-80176190D01*
X162454819Y-80176190D02*
X162502438Y-80080952D01*
X162502438Y-80080952D02*
X162550057Y-80033333D01*
X162550057Y-80033333D02*
X162645295Y-79985714D01*
X162645295Y-79985714D02*
X162835771Y-79938095D01*
X162835771Y-79938095D02*
X163073866Y-79938095D01*
X163073866Y-79938095D02*
X163264342Y-79985714D01*
X163264342Y-79985714D02*
X163359580Y-80033333D01*
X163359580Y-80033333D02*
X163407200Y-80080952D01*
X163407200Y-80080952D02*
X163454819Y-80176190D01*
X163454819Y-80176190D02*
X163454819Y-80271428D01*
X163454819Y-80271428D02*
X163407200Y-80366666D01*
X163407200Y-80366666D02*
X163359580Y-80414285D01*
X163359580Y-80414285D02*
X163264342Y-80461904D01*
X163264342Y-80461904D02*
X163073866Y-80509523D01*
X163073866Y-80509523D02*
X162835771Y-80509523D01*
X162835771Y-80509523D02*
X162645295Y-80461904D01*
X162645295Y-80461904D02*
X162550057Y-80414285D01*
X162550057Y-80414285D02*
X162502438Y-80366666D01*
X162502438Y-80366666D02*
X162454819Y-80271428D01*
X153481546Y-61436838D02*
X153386308Y-61389219D01*
X153386308Y-61389219D02*
X153291070Y-61293981D01*
X153291070Y-61293981D02*
X153148213Y-61151123D01*
X153148213Y-61151123D02*
X153052975Y-61103504D01*
X153052975Y-61103504D02*
X152957737Y-61103504D01*
X153005356Y-61341600D02*
X152910118Y-61293981D01*
X152910118Y-61293981D02*
X152814880Y-61198742D01*
X152814880Y-61198742D02*
X152767261Y-61008266D01*
X152767261Y-61008266D02*
X152767261Y-60674933D01*
X152767261Y-60674933D02*
X152814880Y-60484457D01*
X152814880Y-60484457D02*
X152910118Y-60389219D01*
X152910118Y-60389219D02*
X153005356Y-60341600D01*
X153005356Y-60341600D02*
X153195832Y-60341600D01*
X153195832Y-60341600D02*
X153291070Y-60389219D01*
X153291070Y-60389219D02*
X153386308Y-60484457D01*
X153386308Y-60484457D02*
X153433927Y-60674933D01*
X153433927Y-60674933D02*
X153433927Y-61008266D01*
X153433927Y-61008266D02*
X153386308Y-61198742D01*
X153386308Y-61198742D02*
X153291070Y-61293981D01*
X153291070Y-61293981D02*
X153195832Y-61341600D01*
X153195832Y-61341600D02*
X153005356Y-61341600D01*
X153767261Y-60341600D02*
X154386308Y-60341600D01*
X154386308Y-60341600D02*
X154052975Y-60722552D01*
X154052975Y-60722552D02*
X154195832Y-60722552D01*
X154195832Y-60722552D02*
X154291070Y-60770171D01*
X154291070Y-60770171D02*
X154338689Y-60817790D01*
X154338689Y-60817790D02*
X154386308Y-60913028D01*
X154386308Y-60913028D02*
X154386308Y-61151123D01*
X154386308Y-61151123D02*
X154338689Y-61246361D01*
X154338689Y-61246361D02*
X154291070Y-61293981D01*
X154291070Y-61293981D02*
X154195832Y-61341600D01*
X154195832Y-61341600D02*
X153910118Y-61341600D01*
X153910118Y-61341600D02*
X153814880Y-61293981D01*
X153814880Y-61293981D02*
X153767261Y-61246361D01*
X155866667Y-104107200D02*
X156009524Y-104154819D01*
X156009524Y-104154819D02*
X156247619Y-104154819D01*
X156247619Y-104154819D02*
X156342857Y-104107200D01*
X156342857Y-104107200D02*
X156390476Y-104059580D01*
X156390476Y-104059580D02*
X156438095Y-103964342D01*
X156438095Y-103964342D02*
X156438095Y-103869104D01*
X156438095Y-103869104D02*
X156390476Y-103773866D01*
X156390476Y-103773866D02*
X156342857Y-103726247D01*
X156342857Y-103726247D02*
X156247619Y-103678628D01*
X156247619Y-103678628D02*
X156057143Y-103631009D01*
X156057143Y-103631009D02*
X155961905Y-103583390D01*
X155961905Y-103583390D02*
X155914286Y-103535771D01*
X155914286Y-103535771D02*
X155866667Y-103440533D01*
X155866667Y-103440533D02*
X155866667Y-103345295D01*
X155866667Y-103345295D02*
X155914286Y-103250057D01*
X155914286Y-103250057D02*
X155961905Y-103202438D01*
X155961905Y-103202438D02*
X156057143Y-103154819D01*
X156057143Y-103154819D02*
X156295238Y-103154819D01*
X156295238Y-103154819D02*
X156438095Y-103202438D01*
X156771429Y-103154819D02*
X157009524Y-104154819D01*
X157009524Y-104154819D02*
X157200000Y-103440533D01*
X157200000Y-103440533D02*
X157390476Y-104154819D01*
X157390476Y-104154819D02*
X157628572Y-103154819D01*
X158533333Y-104154819D02*
X157961905Y-104154819D01*
X158247619Y-104154819D02*
X158247619Y-103154819D01*
X158247619Y-103154819D02*
X158152381Y-103297676D01*
X158152381Y-103297676D02*
X158057143Y-103392914D01*
X158057143Y-103392914D02*
X157961905Y-103440533D01*
X151758333Y-73154819D02*
X151425000Y-72678628D01*
X151186905Y-73154819D02*
X151186905Y-72154819D01*
X151186905Y-72154819D02*
X151567857Y-72154819D01*
X151567857Y-72154819D02*
X151663095Y-72202438D01*
X151663095Y-72202438D02*
X151710714Y-72250057D01*
X151710714Y-72250057D02*
X151758333Y-72345295D01*
X151758333Y-72345295D02*
X151758333Y-72488152D01*
X151758333Y-72488152D02*
X151710714Y-72583390D01*
X151710714Y-72583390D02*
X151663095Y-72631009D01*
X151663095Y-72631009D02*
X151567857Y-72678628D01*
X151567857Y-72678628D02*
X151186905Y-72678628D01*
X152615476Y-72488152D02*
X152615476Y-73154819D01*
X152377381Y-72107200D02*
X152139286Y-72821485D01*
X152139286Y-72821485D02*
X152758333Y-72821485D01*
X142964564Y-69696495D02*
X142631231Y-69220304D01*
X142393136Y-69696495D02*
X142393136Y-68696495D01*
X142393136Y-68696495D02*
X142774088Y-68696495D01*
X142774088Y-68696495D02*
X142869326Y-68744114D01*
X142869326Y-68744114D02*
X142916945Y-68791733D01*
X142916945Y-68791733D02*
X142964564Y-68886971D01*
X142964564Y-68886971D02*
X142964564Y-69029828D01*
X142964564Y-69029828D02*
X142916945Y-69125066D01*
X142916945Y-69125066D02*
X142869326Y-69172685D01*
X142869326Y-69172685D02*
X142774088Y-69220304D01*
X142774088Y-69220304D02*
X142393136Y-69220304D01*
X143345517Y-68791733D02*
X143393136Y-68744114D01*
X143393136Y-68744114D02*
X143488374Y-68696495D01*
X143488374Y-68696495D02*
X143726469Y-68696495D01*
X143726469Y-68696495D02*
X143821707Y-68744114D01*
X143821707Y-68744114D02*
X143869326Y-68791733D01*
X143869326Y-68791733D02*
X143916945Y-68886971D01*
X143916945Y-68886971D02*
X143916945Y-68982209D01*
X143916945Y-68982209D02*
X143869326Y-69125066D01*
X143869326Y-69125066D02*
X143297898Y-69696495D01*
X143297898Y-69696495D02*
X143916945Y-69696495D01*
X143073856Y-63757806D02*
X142740523Y-63281615D01*
X142502428Y-63757806D02*
X142502428Y-62757806D01*
X142502428Y-62757806D02*
X142883380Y-62757806D01*
X142883380Y-62757806D02*
X142978618Y-62805425D01*
X142978618Y-62805425D02*
X143026237Y-62853044D01*
X143026237Y-62853044D02*
X143073856Y-62948282D01*
X143073856Y-62948282D02*
X143073856Y-63091139D01*
X143073856Y-63091139D02*
X143026237Y-63186377D01*
X143026237Y-63186377D02*
X142978618Y-63233996D01*
X142978618Y-63233996D02*
X142883380Y-63281615D01*
X142883380Y-63281615D02*
X142502428Y-63281615D01*
X144026237Y-63757806D02*
X143454809Y-63757806D01*
X143740523Y-63757806D02*
X143740523Y-62757806D01*
X143740523Y-62757806D02*
X143645285Y-62900663D01*
X143645285Y-62900663D02*
X143550047Y-62995901D01*
X143550047Y-62995901D02*
X143454809Y-63043520D01*
X144930999Y-62757806D02*
X144454809Y-62757806D01*
X144454809Y-62757806D02*
X144407190Y-63233996D01*
X144407190Y-63233996D02*
X144454809Y-63186377D01*
X144454809Y-63186377D02*
X144550047Y-63138758D01*
X144550047Y-63138758D02*
X144788142Y-63138758D01*
X144788142Y-63138758D02*
X144883380Y-63186377D01*
X144883380Y-63186377D02*
X144930999Y-63233996D01*
X144930999Y-63233996D02*
X144978618Y-63329234D01*
X144978618Y-63329234D02*
X144978618Y-63567329D01*
X144978618Y-63567329D02*
X144930999Y-63662567D01*
X144930999Y-63662567D02*
X144883380Y-63710187D01*
X144883380Y-63710187D02*
X144788142Y-63757806D01*
X144788142Y-63757806D02*
X144550047Y-63757806D01*
X144550047Y-63757806D02*
X144454809Y-63710187D01*
X144454809Y-63710187D02*
X144407190Y-63662567D01*
X161238095Y-61454819D02*
X161238095Y-62264342D01*
X161238095Y-62264342D02*
X161285714Y-62359580D01*
X161285714Y-62359580D02*
X161333333Y-62407200D01*
X161333333Y-62407200D02*
X161428571Y-62454819D01*
X161428571Y-62454819D02*
X161619047Y-62454819D01*
X161619047Y-62454819D02*
X161714285Y-62407200D01*
X161714285Y-62407200D02*
X161761904Y-62359580D01*
X161761904Y-62359580D02*
X161809523Y-62264342D01*
X161809523Y-62264342D02*
X161809523Y-61454819D01*
X162333333Y-62454819D02*
X162523809Y-62454819D01*
X162523809Y-62454819D02*
X162619047Y-62407200D01*
X162619047Y-62407200D02*
X162666666Y-62359580D01*
X162666666Y-62359580D02*
X162761904Y-62216723D01*
X162761904Y-62216723D02*
X162809523Y-62026247D01*
X162809523Y-62026247D02*
X162809523Y-61645295D01*
X162809523Y-61645295D02*
X162761904Y-61550057D01*
X162761904Y-61550057D02*
X162714285Y-61502438D01*
X162714285Y-61502438D02*
X162619047Y-61454819D01*
X162619047Y-61454819D02*
X162428571Y-61454819D01*
X162428571Y-61454819D02*
X162333333Y-61502438D01*
X162333333Y-61502438D02*
X162285714Y-61550057D01*
X162285714Y-61550057D02*
X162238095Y-61645295D01*
X162238095Y-61645295D02*
X162238095Y-61883390D01*
X162238095Y-61883390D02*
X162285714Y-61978628D01*
X162285714Y-61978628D02*
X162333333Y-62026247D01*
X162333333Y-62026247D02*
X162428571Y-62073866D01*
X162428571Y-62073866D02*
X162619047Y-62073866D01*
X162619047Y-62073866D02*
X162714285Y-62026247D01*
X162714285Y-62026247D02*
X162761904Y-61978628D01*
X162761904Y-61978628D02*
X162809523Y-61883390D01*
D11*
X164138095Y-97202419D02*
X164138095Y-98011942D01*
X164138095Y-98011942D02*
X164185714Y-98107180D01*
X164185714Y-98107180D02*
X164233333Y-98154800D01*
X164233333Y-98154800D02*
X164328571Y-98202419D01*
X164328571Y-98202419D02*
X164519047Y-98202419D01*
X164519047Y-98202419D02*
X164614285Y-98154800D01*
X164614285Y-98154800D02*
X164661904Y-98107180D01*
X164661904Y-98107180D02*
X164709523Y-98011942D01*
X164709523Y-98011942D02*
X164709523Y-97202419D01*
X165661904Y-97202419D02*
X165185714Y-97202419D01*
X165185714Y-97202419D02*
X165138095Y-97678609D01*
X165138095Y-97678609D02*
X165185714Y-97630990D01*
X165185714Y-97630990D02*
X165280952Y-97583371D01*
X165280952Y-97583371D02*
X165519047Y-97583371D01*
X165519047Y-97583371D02*
X165614285Y-97630990D01*
X165614285Y-97630990D02*
X165661904Y-97678609D01*
X165661904Y-97678609D02*
X165709523Y-97773847D01*
X165709523Y-97773847D02*
X165709523Y-98011942D01*
X165709523Y-98011942D02*
X165661904Y-98107180D01*
X165661904Y-98107180D02*
X165614285Y-98154800D01*
X165614285Y-98154800D02*
X165519047Y-98202419D01*
X165519047Y-98202419D02*
X165280952Y-98202419D01*
X165280952Y-98202419D02*
X165185714Y-98154800D01*
X165185714Y-98154800D02*
X165138095Y-98107180D01*
D10*
X158329580Y-89466666D02*
X158377200Y-89514285D01*
X158377200Y-89514285D02*
X158424819Y-89657142D01*
X158424819Y-89657142D02*
X158424819Y-89752380D01*
X158424819Y-89752380D02*
X158377200Y-89895237D01*
X158377200Y-89895237D02*
X158281961Y-89990475D01*
X158281961Y-89990475D02*
X158186723Y-90038094D01*
X158186723Y-90038094D02*
X157996247Y-90085713D01*
X157996247Y-90085713D02*
X157853390Y-90085713D01*
X157853390Y-90085713D02*
X157662914Y-90038094D01*
X157662914Y-90038094D02*
X157567676Y-89990475D01*
X157567676Y-89990475D02*
X157472438Y-89895237D01*
X157472438Y-89895237D02*
X157424819Y-89752380D01*
X157424819Y-89752380D02*
X157424819Y-89657142D01*
X157424819Y-89657142D02*
X157472438Y-89514285D01*
X157472438Y-89514285D02*
X157520057Y-89466666D01*
X157520057Y-89085713D02*
X157472438Y-89038094D01*
X157472438Y-89038094D02*
X157424819Y-88942856D01*
X157424819Y-88942856D02*
X157424819Y-88704761D01*
X157424819Y-88704761D02*
X157472438Y-88609523D01*
X157472438Y-88609523D02*
X157520057Y-88561904D01*
X157520057Y-88561904D02*
X157615295Y-88514285D01*
X157615295Y-88514285D02*
X157710533Y-88514285D01*
X157710533Y-88514285D02*
X157853390Y-88561904D01*
X157853390Y-88561904D02*
X158424819Y-89133332D01*
X158424819Y-89133332D02*
X158424819Y-88514285D01*
X133654819Y-99542857D02*
X133178628Y-99876190D01*
X133654819Y-100114285D02*
X132654819Y-100114285D01*
X132654819Y-100114285D02*
X132654819Y-99733333D01*
X132654819Y-99733333D02*
X132702438Y-99638095D01*
X132702438Y-99638095D02*
X132750057Y-99590476D01*
X132750057Y-99590476D02*
X132845295Y-99542857D01*
X132845295Y-99542857D02*
X132988152Y-99542857D01*
X132988152Y-99542857D02*
X133083390Y-99590476D01*
X133083390Y-99590476D02*
X133131009Y-99638095D01*
X133131009Y-99638095D02*
X133178628Y-99733333D01*
X133178628Y-99733333D02*
X133178628Y-100114285D01*
X132654819Y-99209523D02*
X132654819Y-98590476D01*
X132654819Y-98590476D02*
X133035771Y-98923809D01*
X133035771Y-98923809D02*
X133035771Y-98780952D01*
X133035771Y-98780952D02*
X133083390Y-98685714D01*
X133083390Y-98685714D02*
X133131009Y-98638095D01*
X133131009Y-98638095D02*
X133226247Y-98590476D01*
X133226247Y-98590476D02*
X133464342Y-98590476D01*
X133464342Y-98590476D02*
X133559580Y-98638095D01*
X133559580Y-98638095D02*
X133607200Y-98685714D01*
X133607200Y-98685714D02*
X133654819Y-98780952D01*
X133654819Y-98780952D02*
X133654819Y-99066666D01*
X133654819Y-99066666D02*
X133607200Y-99161904D01*
X133607200Y-99161904D02*
X133559580Y-99209523D01*
X132988152Y-97733333D02*
X133654819Y-97733333D01*
X132607200Y-97971428D02*
X133321485Y-98209523D01*
X133321485Y-98209523D02*
X133321485Y-97590476D01*
X132933333Y-53154819D02*
X132600000Y-52678628D01*
X132361905Y-53154819D02*
X132361905Y-52154819D01*
X132361905Y-52154819D02*
X132742857Y-52154819D01*
X132742857Y-52154819D02*
X132838095Y-52202438D01*
X132838095Y-52202438D02*
X132885714Y-52250057D01*
X132885714Y-52250057D02*
X132933333Y-52345295D01*
X132933333Y-52345295D02*
X132933333Y-52488152D01*
X132933333Y-52488152D02*
X132885714Y-52583390D01*
X132885714Y-52583390D02*
X132838095Y-52631009D01*
X132838095Y-52631009D02*
X132742857Y-52678628D01*
X132742857Y-52678628D02*
X132361905Y-52678628D01*
X133409524Y-53154819D02*
X133600000Y-53154819D01*
X133600000Y-53154819D02*
X133695238Y-53107200D01*
X133695238Y-53107200D02*
X133742857Y-53059580D01*
X133742857Y-53059580D02*
X133838095Y-52916723D01*
X133838095Y-52916723D02*
X133885714Y-52726247D01*
X133885714Y-52726247D02*
X133885714Y-52345295D01*
X133885714Y-52345295D02*
X133838095Y-52250057D01*
X133838095Y-52250057D02*
X133790476Y-52202438D01*
X133790476Y-52202438D02*
X133695238Y-52154819D01*
X133695238Y-52154819D02*
X133504762Y-52154819D01*
X133504762Y-52154819D02*
X133409524Y-52202438D01*
X133409524Y-52202438D02*
X133361905Y-52250057D01*
X133361905Y-52250057D02*
X133314286Y-52345295D01*
X133314286Y-52345295D02*
X133314286Y-52583390D01*
X133314286Y-52583390D02*
X133361905Y-52678628D01*
X133361905Y-52678628D02*
X133409524Y-52726247D01*
X133409524Y-52726247D02*
X133504762Y-52773866D01*
X133504762Y-52773866D02*
X133695238Y-52773866D01*
X133695238Y-52773866D02*
X133790476Y-52726247D01*
X133790476Y-52726247D02*
X133838095Y-52678628D01*
X133838095Y-52678628D02*
X133885714Y-52583390D01*
X141980952Y-45854819D02*
X141504762Y-45854819D01*
X141504762Y-45854819D02*
X141504762Y-44854819D01*
X142314286Y-45331009D02*
X142647619Y-45331009D01*
X142790476Y-45854819D02*
X142314286Y-45854819D01*
X142314286Y-45854819D02*
X142314286Y-44854819D01*
X142314286Y-44854819D02*
X142790476Y-44854819D01*
X143219048Y-45854819D02*
X143219048Y-44854819D01*
X143219048Y-44854819D02*
X143457143Y-44854819D01*
X143457143Y-44854819D02*
X143600000Y-44902438D01*
X143600000Y-44902438D02*
X143695238Y-44997676D01*
X143695238Y-44997676D02*
X143742857Y-45092914D01*
X143742857Y-45092914D02*
X143790476Y-45283390D01*
X143790476Y-45283390D02*
X143790476Y-45426247D01*
X143790476Y-45426247D02*
X143742857Y-45616723D01*
X143742857Y-45616723D02*
X143695238Y-45711961D01*
X143695238Y-45711961D02*
X143600000Y-45807200D01*
X143600000Y-45807200D02*
X143457143Y-45854819D01*
X143457143Y-45854819D02*
X143219048Y-45854819D01*
X144742857Y-45854819D02*
X144171429Y-45854819D01*
X144457143Y-45854819D02*
X144457143Y-44854819D01*
X144457143Y-44854819D02*
X144361905Y-44997676D01*
X144361905Y-44997676D02*
X144266667Y-45092914D01*
X144266667Y-45092914D02*
X144171429Y-45140533D01*
X165032142Y-65254819D02*
X164698809Y-64778628D01*
X164460714Y-65254819D02*
X164460714Y-64254819D01*
X164460714Y-64254819D02*
X164841666Y-64254819D01*
X164841666Y-64254819D02*
X164936904Y-64302438D01*
X164936904Y-64302438D02*
X164984523Y-64350057D01*
X164984523Y-64350057D02*
X165032142Y-64445295D01*
X165032142Y-64445295D02*
X165032142Y-64588152D01*
X165032142Y-64588152D02*
X164984523Y-64683390D01*
X164984523Y-64683390D02*
X164936904Y-64731009D01*
X164936904Y-64731009D02*
X164841666Y-64778628D01*
X164841666Y-64778628D02*
X164460714Y-64778628D01*
X165413095Y-64350057D02*
X165460714Y-64302438D01*
X165460714Y-64302438D02*
X165555952Y-64254819D01*
X165555952Y-64254819D02*
X165794047Y-64254819D01*
X165794047Y-64254819D02*
X165889285Y-64302438D01*
X165889285Y-64302438D02*
X165936904Y-64350057D01*
X165936904Y-64350057D02*
X165984523Y-64445295D01*
X165984523Y-64445295D02*
X165984523Y-64540533D01*
X165984523Y-64540533D02*
X165936904Y-64683390D01*
X165936904Y-64683390D02*
X165365476Y-65254819D01*
X165365476Y-65254819D02*
X165984523Y-65254819D01*
X166365476Y-64350057D02*
X166413095Y-64302438D01*
X166413095Y-64302438D02*
X166508333Y-64254819D01*
X166508333Y-64254819D02*
X166746428Y-64254819D01*
X166746428Y-64254819D02*
X166841666Y-64302438D01*
X166841666Y-64302438D02*
X166889285Y-64350057D01*
X166889285Y-64350057D02*
X166936904Y-64445295D01*
X166936904Y-64445295D02*
X166936904Y-64540533D01*
X166936904Y-64540533D02*
X166889285Y-64683390D01*
X166889285Y-64683390D02*
X166317857Y-65254819D01*
X166317857Y-65254819D02*
X166936904Y-65254819D01*
X133638095Y-63754819D02*
X134209523Y-63754819D01*
X133923809Y-64754819D02*
X133923809Y-63754819D01*
X135066666Y-64754819D02*
X134495238Y-64754819D01*
X134780952Y-64754819D02*
X134780952Y-63754819D01*
X134780952Y-63754819D02*
X134685714Y-63897676D01*
X134685714Y-63897676D02*
X134590476Y-63992914D01*
X134590476Y-63992914D02*
X134495238Y-64040533D01*
X126857142Y-67724819D02*
X126523809Y-67248628D01*
X126285714Y-67724819D02*
X126285714Y-66724819D01*
X126285714Y-66724819D02*
X126666666Y-66724819D01*
X126666666Y-66724819D02*
X126761904Y-66772438D01*
X126761904Y-66772438D02*
X126809523Y-66820057D01*
X126809523Y-66820057D02*
X126857142Y-66915295D01*
X126857142Y-66915295D02*
X126857142Y-67058152D01*
X126857142Y-67058152D02*
X126809523Y-67153390D01*
X126809523Y-67153390D02*
X126761904Y-67201009D01*
X126761904Y-67201009D02*
X126666666Y-67248628D01*
X126666666Y-67248628D02*
X126285714Y-67248628D01*
X127190476Y-66724819D02*
X127809523Y-66724819D01*
X127809523Y-66724819D02*
X127476190Y-67105771D01*
X127476190Y-67105771D02*
X127619047Y-67105771D01*
X127619047Y-67105771D02*
X127714285Y-67153390D01*
X127714285Y-67153390D02*
X127761904Y-67201009D01*
X127761904Y-67201009D02*
X127809523Y-67296247D01*
X127809523Y-67296247D02*
X127809523Y-67534342D01*
X127809523Y-67534342D02*
X127761904Y-67629580D01*
X127761904Y-67629580D02*
X127714285Y-67677200D01*
X127714285Y-67677200D02*
X127619047Y-67724819D01*
X127619047Y-67724819D02*
X127333333Y-67724819D01*
X127333333Y-67724819D02*
X127238095Y-67677200D01*
X127238095Y-67677200D02*
X127190476Y-67629580D01*
X128761904Y-67724819D02*
X128190476Y-67724819D01*
X128476190Y-67724819D02*
X128476190Y-66724819D01*
X128476190Y-66724819D02*
X128380952Y-66867676D01*
X128380952Y-66867676D02*
X128285714Y-66962914D01*
X128285714Y-66962914D02*
X128190476Y-67010533D01*
X149833333Y-87085818D02*
X149785714Y-87133438D01*
X149785714Y-87133438D02*
X149642857Y-87181057D01*
X149642857Y-87181057D02*
X149547619Y-87181057D01*
X149547619Y-87181057D02*
X149404762Y-87133438D01*
X149404762Y-87133438D02*
X149309524Y-87038199D01*
X149309524Y-87038199D02*
X149261905Y-86942961D01*
X149261905Y-86942961D02*
X149214286Y-86752485D01*
X149214286Y-86752485D02*
X149214286Y-86609628D01*
X149214286Y-86609628D02*
X149261905Y-86419152D01*
X149261905Y-86419152D02*
X149309524Y-86323914D01*
X149309524Y-86323914D02*
X149404762Y-86228676D01*
X149404762Y-86228676D02*
X149547619Y-86181057D01*
X149547619Y-86181057D02*
X149642857Y-86181057D01*
X149642857Y-86181057D02*
X149785714Y-86228676D01*
X149785714Y-86228676D02*
X149833333Y-86276295D01*
X150738095Y-86181057D02*
X150261905Y-86181057D01*
X150261905Y-86181057D02*
X150214286Y-86657247D01*
X150214286Y-86657247D02*
X150261905Y-86609628D01*
X150261905Y-86609628D02*
X150357143Y-86562009D01*
X150357143Y-86562009D02*
X150595238Y-86562009D01*
X150595238Y-86562009D02*
X150690476Y-86609628D01*
X150690476Y-86609628D02*
X150738095Y-86657247D01*
X150738095Y-86657247D02*
X150785714Y-86752485D01*
X150785714Y-86752485D02*
X150785714Y-86990580D01*
X150785714Y-86990580D02*
X150738095Y-87085818D01*
X150738095Y-87085818D02*
X150690476Y-87133438D01*
X150690476Y-87133438D02*
X150595238Y-87181057D01*
X150595238Y-87181057D02*
X150357143Y-87181057D01*
X150357143Y-87181057D02*
X150261905Y-87133438D01*
X150261905Y-87133438D02*
X150214286Y-87085818D01*
X163259580Y-83866666D02*
X163307200Y-83914285D01*
X163307200Y-83914285D02*
X163354819Y-84057142D01*
X163354819Y-84057142D02*
X163354819Y-84152380D01*
X163354819Y-84152380D02*
X163307200Y-84295237D01*
X163307200Y-84295237D02*
X163211961Y-84390475D01*
X163211961Y-84390475D02*
X163116723Y-84438094D01*
X163116723Y-84438094D02*
X162926247Y-84485713D01*
X162926247Y-84485713D02*
X162783390Y-84485713D01*
X162783390Y-84485713D02*
X162592914Y-84438094D01*
X162592914Y-84438094D02*
X162497676Y-84390475D01*
X162497676Y-84390475D02*
X162402438Y-84295237D01*
X162402438Y-84295237D02*
X162354819Y-84152380D01*
X162354819Y-84152380D02*
X162354819Y-84057142D01*
X162354819Y-84057142D02*
X162402438Y-83914285D01*
X162402438Y-83914285D02*
X162450057Y-83866666D01*
X162354819Y-83533332D02*
X162354819Y-82914285D01*
X162354819Y-82914285D02*
X162735771Y-83247618D01*
X162735771Y-83247618D02*
X162735771Y-83104761D01*
X162735771Y-83104761D02*
X162783390Y-83009523D01*
X162783390Y-83009523D02*
X162831009Y-82961904D01*
X162831009Y-82961904D02*
X162926247Y-82914285D01*
X162926247Y-82914285D02*
X163164342Y-82914285D01*
X163164342Y-82914285D02*
X163259580Y-82961904D01*
X163259580Y-82961904D02*
X163307200Y-83009523D01*
X163307200Y-83009523D02*
X163354819Y-83104761D01*
X163354819Y-83104761D02*
X163354819Y-83390475D01*
X163354819Y-83390475D02*
X163307200Y-83485713D01*
X163307200Y-83485713D02*
X163259580Y-83533332D01*
X142918600Y-71851421D02*
X142585267Y-71375230D01*
X142347172Y-71851421D02*
X142347172Y-70851421D01*
X142347172Y-70851421D02*
X142728124Y-70851421D01*
X142728124Y-70851421D02*
X142823362Y-70899040D01*
X142823362Y-70899040D02*
X142870981Y-70946659D01*
X142870981Y-70946659D02*
X142918600Y-71041897D01*
X142918600Y-71041897D02*
X142918600Y-71184754D01*
X142918600Y-71184754D02*
X142870981Y-71279992D01*
X142870981Y-71279992D02*
X142823362Y-71327611D01*
X142823362Y-71327611D02*
X142728124Y-71375230D01*
X142728124Y-71375230D02*
X142347172Y-71375230D01*
X143870981Y-71851421D02*
X143299553Y-71851421D01*
X143585267Y-71851421D02*
X143585267Y-70851421D01*
X143585267Y-70851421D02*
X143490029Y-70994278D01*
X143490029Y-70994278D02*
X143394791Y-71089516D01*
X143394791Y-71089516D02*
X143299553Y-71137135D01*
X144728124Y-71184754D02*
X144728124Y-71851421D01*
X144490029Y-70803802D02*
X144251934Y-71518087D01*
X144251934Y-71518087D02*
X144870981Y-71518087D01*
X165266666Y-79054819D02*
X165266666Y-79769104D01*
X165266666Y-79769104D02*
X165219047Y-79911961D01*
X165219047Y-79911961D02*
X165123809Y-80007200D01*
X165123809Y-80007200D02*
X164980952Y-80054819D01*
X164980952Y-80054819D02*
X164885714Y-80054819D01*
X165695238Y-79150057D02*
X165742857Y-79102438D01*
X165742857Y-79102438D02*
X165838095Y-79054819D01*
X165838095Y-79054819D02*
X166076190Y-79054819D01*
X166076190Y-79054819D02*
X166171428Y-79102438D01*
X166171428Y-79102438D02*
X166219047Y-79150057D01*
X166219047Y-79150057D02*
X166266666Y-79245295D01*
X166266666Y-79245295D02*
X166266666Y-79340533D01*
X166266666Y-79340533D02*
X166219047Y-79483390D01*
X166219047Y-79483390D02*
X165647619Y-80054819D01*
X165647619Y-80054819D02*
X166266666Y-80054819D01*
X126315557Y-47769025D02*
X126220319Y-47721406D01*
X126220319Y-47721406D02*
X126125081Y-47626168D01*
X126125081Y-47626168D02*
X125982224Y-47483310D01*
X125982224Y-47483310D02*
X125886986Y-47435691D01*
X125886986Y-47435691D02*
X125791748Y-47435691D01*
X125839367Y-47673787D02*
X125744129Y-47626168D01*
X125744129Y-47626168D02*
X125648891Y-47530929D01*
X125648891Y-47530929D02*
X125601272Y-47340453D01*
X125601272Y-47340453D02*
X125601272Y-47007120D01*
X125601272Y-47007120D02*
X125648891Y-46816644D01*
X125648891Y-46816644D02*
X125744129Y-46721406D01*
X125744129Y-46721406D02*
X125839367Y-46673787D01*
X125839367Y-46673787D02*
X126029843Y-46673787D01*
X126029843Y-46673787D02*
X126125081Y-46721406D01*
X126125081Y-46721406D02*
X126220319Y-46816644D01*
X126220319Y-46816644D02*
X126267938Y-47007120D01*
X126267938Y-47007120D02*
X126267938Y-47340453D01*
X126267938Y-47340453D02*
X126220319Y-47530929D01*
X126220319Y-47530929D02*
X126125081Y-47626168D01*
X126125081Y-47626168D02*
X126029843Y-47673787D01*
X126029843Y-47673787D02*
X125839367Y-47673787D01*
X127125081Y-47007120D02*
X127125081Y-47673787D01*
X126886986Y-46626168D02*
X126648891Y-47340453D01*
X126648891Y-47340453D02*
X127267938Y-47340453D01*
X149254819Y-74942857D02*
X148778628Y-75276190D01*
X149254819Y-75514285D02*
X148254819Y-75514285D01*
X148254819Y-75514285D02*
X148254819Y-75133333D01*
X148254819Y-75133333D02*
X148302438Y-75038095D01*
X148302438Y-75038095D02*
X148350057Y-74990476D01*
X148350057Y-74990476D02*
X148445295Y-74942857D01*
X148445295Y-74942857D02*
X148588152Y-74942857D01*
X148588152Y-74942857D02*
X148683390Y-74990476D01*
X148683390Y-74990476D02*
X148731009Y-75038095D01*
X148731009Y-75038095D02*
X148778628Y-75133333D01*
X148778628Y-75133333D02*
X148778628Y-75514285D01*
X149254819Y-73990476D02*
X149254819Y-74561904D01*
X149254819Y-74276190D02*
X148254819Y-74276190D01*
X148254819Y-74276190D02*
X148397676Y-74371428D01*
X148397676Y-74371428D02*
X148492914Y-74466666D01*
X148492914Y-74466666D02*
X148540533Y-74561904D01*
X149254819Y-73514285D02*
X149254819Y-73323809D01*
X149254819Y-73323809D02*
X149207200Y-73228571D01*
X149207200Y-73228571D02*
X149159580Y-73180952D01*
X149159580Y-73180952D02*
X149016723Y-73085714D01*
X149016723Y-73085714D02*
X148826247Y-73038095D01*
X148826247Y-73038095D02*
X148445295Y-73038095D01*
X148445295Y-73038095D02*
X148350057Y-73085714D01*
X148350057Y-73085714D02*
X148302438Y-73133333D01*
X148302438Y-73133333D02*
X148254819Y-73228571D01*
X148254819Y-73228571D02*
X148254819Y-73419047D01*
X148254819Y-73419047D02*
X148302438Y-73514285D01*
X148302438Y-73514285D02*
X148350057Y-73561904D01*
X148350057Y-73561904D02*
X148445295Y-73609523D01*
X148445295Y-73609523D02*
X148683390Y-73609523D01*
X148683390Y-73609523D02*
X148778628Y-73561904D01*
X148778628Y-73561904D02*
X148826247Y-73514285D01*
X148826247Y-73514285D02*
X148873866Y-73419047D01*
X148873866Y-73419047D02*
X148873866Y-73228571D01*
X148873866Y-73228571D02*
X148826247Y-73133333D01*
X148826247Y-73133333D02*
X148778628Y-73085714D01*
X148778628Y-73085714D02*
X148683390Y-73038095D01*
X154858333Y-69084819D02*
X154525000Y-68608628D01*
X154286905Y-69084819D02*
X154286905Y-68084819D01*
X154286905Y-68084819D02*
X154667857Y-68084819D01*
X154667857Y-68084819D02*
X154763095Y-68132438D01*
X154763095Y-68132438D02*
X154810714Y-68180057D01*
X154810714Y-68180057D02*
X154858333Y-68275295D01*
X154858333Y-68275295D02*
X154858333Y-68418152D01*
X154858333Y-68418152D02*
X154810714Y-68513390D01*
X154810714Y-68513390D02*
X154763095Y-68561009D01*
X154763095Y-68561009D02*
X154667857Y-68608628D01*
X154667857Y-68608628D02*
X154286905Y-68608628D01*
X155715476Y-68084819D02*
X155525000Y-68084819D01*
X155525000Y-68084819D02*
X155429762Y-68132438D01*
X155429762Y-68132438D02*
X155382143Y-68180057D01*
X155382143Y-68180057D02*
X155286905Y-68322914D01*
X155286905Y-68322914D02*
X155239286Y-68513390D01*
X155239286Y-68513390D02*
X155239286Y-68894342D01*
X155239286Y-68894342D02*
X155286905Y-68989580D01*
X155286905Y-68989580D02*
X155334524Y-69037200D01*
X155334524Y-69037200D02*
X155429762Y-69084819D01*
X155429762Y-69084819D02*
X155620238Y-69084819D01*
X155620238Y-69084819D02*
X155715476Y-69037200D01*
X155715476Y-69037200D02*
X155763095Y-68989580D01*
X155763095Y-68989580D02*
X155810714Y-68894342D01*
X155810714Y-68894342D02*
X155810714Y-68656247D01*
X155810714Y-68656247D02*
X155763095Y-68561009D01*
X155763095Y-68561009D02*
X155715476Y-68513390D01*
X155715476Y-68513390D02*
X155620238Y-68465771D01*
X155620238Y-68465771D02*
X155429762Y-68465771D01*
X155429762Y-68465771D02*
X155334524Y-68513390D01*
X155334524Y-68513390D02*
X155286905Y-68561009D01*
X155286905Y-68561009D02*
X155239286Y-68656247D01*
X126659580Y-93142857D02*
X126707200Y-93190476D01*
X126707200Y-93190476D02*
X126754819Y-93333333D01*
X126754819Y-93333333D02*
X126754819Y-93428571D01*
X126754819Y-93428571D02*
X126707200Y-93571428D01*
X126707200Y-93571428D02*
X126611961Y-93666666D01*
X126611961Y-93666666D02*
X126516723Y-93714285D01*
X126516723Y-93714285D02*
X126326247Y-93761904D01*
X126326247Y-93761904D02*
X126183390Y-93761904D01*
X126183390Y-93761904D02*
X125992914Y-93714285D01*
X125992914Y-93714285D02*
X125897676Y-93666666D01*
X125897676Y-93666666D02*
X125802438Y-93571428D01*
X125802438Y-93571428D02*
X125754819Y-93428571D01*
X125754819Y-93428571D02*
X125754819Y-93333333D01*
X125754819Y-93333333D02*
X125802438Y-93190476D01*
X125802438Y-93190476D02*
X125850057Y-93142857D01*
X126754819Y-92190476D02*
X126754819Y-92761904D01*
X126754819Y-92476190D02*
X125754819Y-92476190D01*
X125754819Y-92476190D02*
X125897676Y-92571428D01*
X125897676Y-92571428D02*
X125992914Y-92666666D01*
X125992914Y-92666666D02*
X126040533Y-92761904D01*
X126754819Y-91238095D02*
X126754819Y-91809523D01*
X126754819Y-91523809D02*
X125754819Y-91523809D01*
X125754819Y-91523809D02*
X125897676Y-91619047D01*
X125897676Y-91619047D02*
X125992914Y-91714285D01*
X125992914Y-91714285D02*
X126040533Y-91809523D01*
X160251212Y-51532938D02*
X161060735Y-51532938D01*
X161060735Y-51532938D02*
X161155973Y-51485319D01*
X161155973Y-51485319D02*
X161203593Y-51437700D01*
X161203593Y-51437700D02*
X161251212Y-51342462D01*
X161251212Y-51342462D02*
X161251212Y-51151986D01*
X161251212Y-51151986D02*
X161203593Y-51056748D01*
X161203593Y-51056748D02*
X161155973Y-51009129D01*
X161155973Y-51009129D02*
X161060735Y-50961510D01*
X161060735Y-50961510D02*
X160251212Y-50961510D01*
X161203593Y-50532938D02*
X161251212Y-50390081D01*
X161251212Y-50390081D02*
X161251212Y-50151986D01*
X161251212Y-50151986D02*
X161203593Y-50056748D01*
X161203593Y-50056748D02*
X161155973Y-50009129D01*
X161155973Y-50009129D02*
X161060735Y-49961510D01*
X161060735Y-49961510D02*
X160965497Y-49961510D01*
X160965497Y-49961510D02*
X160870259Y-50009129D01*
X160870259Y-50009129D02*
X160822640Y-50056748D01*
X160822640Y-50056748D02*
X160775021Y-50151986D01*
X160775021Y-50151986D02*
X160727402Y-50342462D01*
X160727402Y-50342462D02*
X160679783Y-50437700D01*
X160679783Y-50437700D02*
X160632164Y-50485319D01*
X160632164Y-50485319D02*
X160536926Y-50532938D01*
X160536926Y-50532938D02*
X160441688Y-50532938D01*
X160441688Y-50532938D02*
X160346450Y-50485319D01*
X160346450Y-50485319D02*
X160298831Y-50437700D01*
X160298831Y-50437700D02*
X160251212Y-50342462D01*
X160251212Y-50342462D02*
X160251212Y-50104367D01*
X160251212Y-50104367D02*
X160298831Y-49961510D01*
X160727402Y-49199605D02*
X160775021Y-49056748D01*
X160775021Y-49056748D02*
X160822640Y-49009129D01*
X160822640Y-49009129D02*
X160917878Y-48961510D01*
X160917878Y-48961510D02*
X161060735Y-48961510D01*
X161060735Y-48961510D02*
X161155973Y-49009129D01*
X161155973Y-49009129D02*
X161203593Y-49056748D01*
X161203593Y-49056748D02*
X161251212Y-49151986D01*
X161251212Y-49151986D02*
X161251212Y-49532938D01*
X161251212Y-49532938D02*
X160251212Y-49532938D01*
X160251212Y-49532938D02*
X160251212Y-49199605D01*
X160251212Y-49199605D02*
X160298831Y-49104367D01*
X160298831Y-49104367D02*
X160346450Y-49056748D01*
X160346450Y-49056748D02*
X160441688Y-49009129D01*
X160441688Y-49009129D02*
X160536926Y-49009129D01*
X160536926Y-49009129D02*
X160632164Y-49056748D01*
X160632164Y-49056748D02*
X160679783Y-49104367D01*
X160679783Y-49104367D02*
X160727402Y-49199605D01*
X160727402Y-49199605D02*
X160727402Y-49532938D01*
X161251212Y-48009129D02*
X161251212Y-48580557D01*
X161251212Y-48294843D02*
X160251212Y-48294843D01*
X160251212Y-48294843D02*
X160394069Y-48390081D01*
X160394069Y-48390081D02*
X160489307Y-48485319D01*
X160489307Y-48485319D02*
X160536926Y-48580557D01*
X165559580Y-73466666D02*
X165607200Y-73514285D01*
X165607200Y-73514285D02*
X165654819Y-73657142D01*
X165654819Y-73657142D02*
X165654819Y-73752380D01*
X165654819Y-73752380D02*
X165607200Y-73895237D01*
X165607200Y-73895237D02*
X165511961Y-73990475D01*
X165511961Y-73990475D02*
X165416723Y-74038094D01*
X165416723Y-74038094D02*
X165226247Y-74085713D01*
X165226247Y-74085713D02*
X165083390Y-74085713D01*
X165083390Y-74085713D02*
X164892914Y-74038094D01*
X164892914Y-74038094D02*
X164797676Y-73990475D01*
X164797676Y-73990475D02*
X164702438Y-73895237D01*
X164702438Y-73895237D02*
X164654819Y-73752380D01*
X164654819Y-73752380D02*
X164654819Y-73657142D01*
X164654819Y-73657142D02*
X164702438Y-73514285D01*
X164702438Y-73514285D02*
X164750057Y-73466666D01*
X165083390Y-72895237D02*
X165035771Y-72990475D01*
X165035771Y-72990475D02*
X164988152Y-73038094D01*
X164988152Y-73038094D02*
X164892914Y-73085713D01*
X164892914Y-73085713D02*
X164845295Y-73085713D01*
X164845295Y-73085713D02*
X164750057Y-73038094D01*
X164750057Y-73038094D02*
X164702438Y-72990475D01*
X164702438Y-72990475D02*
X164654819Y-72895237D01*
X164654819Y-72895237D02*
X164654819Y-72704761D01*
X164654819Y-72704761D02*
X164702438Y-72609523D01*
X164702438Y-72609523D02*
X164750057Y-72561904D01*
X164750057Y-72561904D02*
X164845295Y-72514285D01*
X164845295Y-72514285D02*
X164892914Y-72514285D01*
X164892914Y-72514285D02*
X164988152Y-72561904D01*
X164988152Y-72561904D02*
X165035771Y-72609523D01*
X165035771Y-72609523D02*
X165083390Y-72704761D01*
X165083390Y-72704761D02*
X165083390Y-72895237D01*
X165083390Y-72895237D02*
X165131009Y-72990475D01*
X165131009Y-72990475D02*
X165178628Y-73038094D01*
X165178628Y-73038094D02*
X165273866Y-73085713D01*
X165273866Y-73085713D02*
X165464342Y-73085713D01*
X165464342Y-73085713D02*
X165559580Y-73038094D01*
X165559580Y-73038094D02*
X165607200Y-72990475D01*
X165607200Y-72990475D02*
X165654819Y-72895237D01*
X165654819Y-72895237D02*
X165654819Y-72704761D01*
X165654819Y-72704761D02*
X165607200Y-72609523D01*
X165607200Y-72609523D02*
X165559580Y-72561904D01*
X165559580Y-72561904D02*
X165464342Y-72514285D01*
X165464342Y-72514285D02*
X165273866Y-72514285D01*
X165273866Y-72514285D02*
X165178628Y-72561904D01*
X165178628Y-72561904D02*
X165131009Y-72609523D01*
X165131009Y-72609523D02*
X165083390Y-72704761D01*
X126515557Y-51114502D02*
X126420319Y-51066883D01*
X126420319Y-51066883D02*
X126325081Y-50971645D01*
X126325081Y-50971645D02*
X126182224Y-50828787D01*
X126182224Y-50828787D02*
X126086986Y-50781168D01*
X126086986Y-50781168D02*
X125991748Y-50781168D01*
X126039367Y-51019264D02*
X125944129Y-50971645D01*
X125944129Y-50971645D02*
X125848891Y-50876406D01*
X125848891Y-50876406D02*
X125801272Y-50685930D01*
X125801272Y-50685930D02*
X125801272Y-50352597D01*
X125801272Y-50352597D02*
X125848891Y-50162121D01*
X125848891Y-50162121D02*
X125944129Y-50066883D01*
X125944129Y-50066883D02*
X126039367Y-50019264D01*
X126039367Y-50019264D02*
X126229843Y-50019264D01*
X126229843Y-50019264D02*
X126325081Y-50066883D01*
X126325081Y-50066883D02*
X126420319Y-50162121D01*
X126420319Y-50162121D02*
X126467938Y-50352597D01*
X126467938Y-50352597D02*
X126467938Y-50685930D01*
X126467938Y-50685930D02*
X126420319Y-50876406D01*
X126420319Y-50876406D02*
X126325081Y-50971645D01*
X126325081Y-50971645D02*
X126229843Y-51019264D01*
X126229843Y-51019264D02*
X126039367Y-51019264D01*
X127372700Y-50019264D02*
X126896510Y-50019264D01*
X126896510Y-50019264D02*
X126848891Y-50495454D01*
X126848891Y-50495454D02*
X126896510Y-50447835D01*
X126896510Y-50447835D02*
X126991748Y-50400216D01*
X126991748Y-50400216D02*
X127229843Y-50400216D01*
X127229843Y-50400216D02*
X127325081Y-50447835D01*
X127325081Y-50447835D02*
X127372700Y-50495454D01*
X127372700Y-50495454D02*
X127420319Y-50590692D01*
X127420319Y-50590692D02*
X127420319Y-50828787D01*
X127420319Y-50828787D02*
X127372700Y-50924025D01*
X127372700Y-50924025D02*
X127325081Y-50971645D01*
X127325081Y-50971645D02*
X127229843Y-51019264D01*
X127229843Y-51019264D02*
X126991748Y-51019264D01*
X126991748Y-51019264D02*
X126896510Y-50971645D01*
X126896510Y-50971645D02*
X126848891Y-50924025D01*
X155962438Y-57008299D02*
X155962438Y-57817822D01*
X155962438Y-57817822D02*
X156010057Y-57913060D01*
X156010057Y-57913060D02*
X156057676Y-57960680D01*
X156057676Y-57960680D02*
X156152914Y-58008299D01*
X156152914Y-58008299D02*
X156343390Y-58008299D01*
X156343390Y-58008299D02*
X156438628Y-57960680D01*
X156438628Y-57960680D02*
X156486247Y-57913060D01*
X156486247Y-57913060D02*
X156533866Y-57817822D01*
X156533866Y-57817822D02*
X156533866Y-57008299D01*
X157533866Y-58008299D02*
X156962438Y-58008299D01*
X157248152Y-58008299D02*
X157248152Y-57008299D01*
X157248152Y-57008299D02*
X157152914Y-57151156D01*
X157152914Y-57151156D02*
X157057676Y-57246394D01*
X157057676Y-57246394D02*
X156962438Y-57294013D01*
X158152914Y-57008299D02*
X158248152Y-57008299D01*
X158248152Y-57008299D02*
X158343390Y-57055918D01*
X158343390Y-57055918D02*
X158391009Y-57103537D01*
X158391009Y-57103537D02*
X158438628Y-57198775D01*
X158438628Y-57198775D02*
X158486247Y-57389251D01*
X158486247Y-57389251D02*
X158486247Y-57627346D01*
X158486247Y-57627346D02*
X158438628Y-57817822D01*
X158438628Y-57817822D02*
X158391009Y-57913060D01*
X158391009Y-57913060D02*
X158343390Y-57960680D01*
X158343390Y-57960680D02*
X158248152Y-58008299D01*
X158248152Y-58008299D02*
X158152914Y-58008299D01*
X158152914Y-58008299D02*
X158057676Y-57960680D01*
X158057676Y-57960680D02*
X158010057Y-57913060D01*
X158010057Y-57913060D02*
X157962438Y-57817822D01*
X157962438Y-57817822D02*
X157914819Y-57627346D01*
X157914819Y-57627346D02*
X157914819Y-57389251D01*
X157914819Y-57389251D02*
X157962438Y-57198775D01*
X157962438Y-57198775D02*
X158010057Y-57103537D01*
X158010057Y-57103537D02*
X158057676Y-57055918D01*
X158057676Y-57055918D02*
X158152914Y-57008299D01*
X153750057Y-68595238D02*
X153702438Y-68690476D01*
X153702438Y-68690476D02*
X153607200Y-68785714D01*
X153607200Y-68785714D02*
X153464342Y-68928571D01*
X153464342Y-68928571D02*
X153416723Y-69023809D01*
X153416723Y-69023809D02*
X153416723Y-69119047D01*
X153654819Y-69071428D02*
X153607200Y-69166666D01*
X153607200Y-69166666D02*
X153511961Y-69261904D01*
X153511961Y-69261904D02*
X153321485Y-69309523D01*
X153321485Y-69309523D02*
X152988152Y-69309523D01*
X152988152Y-69309523D02*
X152797676Y-69261904D01*
X152797676Y-69261904D02*
X152702438Y-69166666D01*
X152702438Y-69166666D02*
X152654819Y-69071428D01*
X152654819Y-69071428D02*
X152654819Y-68880952D01*
X152654819Y-68880952D02*
X152702438Y-68785714D01*
X152702438Y-68785714D02*
X152797676Y-68690476D01*
X152797676Y-68690476D02*
X152988152Y-68642857D01*
X152988152Y-68642857D02*
X153321485Y-68642857D01*
X153321485Y-68642857D02*
X153511961Y-68690476D01*
X153511961Y-68690476D02*
X153607200Y-68785714D01*
X153607200Y-68785714D02*
X153654819Y-68880952D01*
X153654819Y-68880952D02*
X153654819Y-69071428D01*
X153654819Y-67690476D02*
X153654819Y-68261904D01*
X153654819Y-67976190D02*
X152654819Y-67976190D01*
X152654819Y-67976190D02*
X152797676Y-68071428D01*
X152797676Y-68071428D02*
X152892914Y-68166666D01*
X152892914Y-68166666D02*
X152940533Y-68261904D01*
X133954819Y-102542857D02*
X133478628Y-102876190D01*
X133954819Y-103114285D02*
X132954819Y-103114285D01*
X132954819Y-103114285D02*
X132954819Y-102733333D01*
X132954819Y-102733333D02*
X133002438Y-102638095D01*
X133002438Y-102638095D02*
X133050057Y-102590476D01*
X133050057Y-102590476D02*
X133145295Y-102542857D01*
X133145295Y-102542857D02*
X133288152Y-102542857D01*
X133288152Y-102542857D02*
X133383390Y-102590476D01*
X133383390Y-102590476D02*
X133431009Y-102638095D01*
X133431009Y-102638095D02*
X133478628Y-102733333D01*
X133478628Y-102733333D02*
X133478628Y-103114285D01*
X132954819Y-102209523D02*
X132954819Y-101590476D01*
X132954819Y-101590476D02*
X133335771Y-101923809D01*
X133335771Y-101923809D02*
X133335771Y-101780952D01*
X133335771Y-101780952D02*
X133383390Y-101685714D01*
X133383390Y-101685714D02*
X133431009Y-101638095D01*
X133431009Y-101638095D02*
X133526247Y-101590476D01*
X133526247Y-101590476D02*
X133764342Y-101590476D01*
X133764342Y-101590476D02*
X133859580Y-101638095D01*
X133859580Y-101638095D02*
X133907200Y-101685714D01*
X133907200Y-101685714D02*
X133954819Y-101780952D01*
X133954819Y-101780952D02*
X133954819Y-102066666D01*
X133954819Y-102066666D02*
X133907200Y-102161904D01*
X133907200Y-102161904D02*
X133859580Y-102209523D01*
X133050057Y-101209523D02*
X133002438Y-101161904D01*
X133002438Y-101161904D02*
X132954819Y-101066666D01*
X132954819Y-101066666D02*
X132954819Y-100828571D01*
X132954819Y-100828571D02*
X133002438Y-100733333D01*
X133002438Y-100733333D02*
X133050057Y-100685714D01*
X133050057Y-100685714D02*
X133145295Y-100638095D01*
X133145295Y-100638095D02*
X133240533Y-100638095D01*
X133240533Y-100638095D02*
X133383390Y-100685714D01*
X133383390Y-100685714D02*
X133954819Y-101257142D01*
X133954819Y-101257142D02*
X133954819Y-100638095D01*
X151549580Y-75042857D02*
X151597200Y-75090476D01*
X151597200Y-75090476D02*
X151644819Y-75233333D01*
X151644819Y-75233333D02*
X151644819Y-75328571D01*
X151644819Y-75328571D02*
X151597200Y-75471428D01*
X151597200Y-75471428D02*
X151501961Y-75566666D01*
X151501961Y-75566666D02*
X151406723Y-75614285D01*
X151406723Y-75614285D02*
X151216247Y-75661904D01*
X151216247Y-75661904D02*
X151073390Y-75661904D01*
X151073390Y-75661904D02*
X150882914Y-75614285D01*
X150882914Y-75614285D02*
X150787676Y-75566666D01*
X150787676Y-75566666D02*
X150692438Y-75471428D01*
X150692438Y-75471428D02*
X150644819Y-75328571D01*
X150644819Y-75328571D02*
X150644819Y-75233333D01*
X150644819Y-75233333D02*
X150692438Y-75090476D01*
X150692438Y-75090476D02*
X150740057Y-75042857D01*
X151644819Y-74090476D02*
X151644819Y-74661904D01*
X151644819Y-74376190D02*
X150644819Y-74376190D01*
X150644819Y-74376190D02*
X150787676Y-74471428D01*
X150787676Y-74471428D02*
X150882914Y-74566666D01*
X150882914Y-74566666D02*
X150930533Y-74661904D01*
X150740057Y-73709523D02*
X150692438Y-73661904D01*
X150692438Y-73661904D02*
X150644819Y-73566666D01*
X150644819Y-73566666D02*
X150644819Y-73328571D01*
X150644819Y-73328571D02*
X150692438Y-73233333D01*
X150692438Y-73233333D02*
X150740057Y-73185714D01*
X150740057Y-73185714D02*
X150835295Y-73138095D01*
X150835295Y-73138095D02*
X150930533Y-73138095D01*
X150930533Y-73138095D02*
X151073390Y-73185714D01*
X151073390Y-73185714D02*
X151644819Y-73757142D01*
X151644819Y-73757142D02*
X151644819Y-73138095D01*
X155538095Y-94354819D02*
X155538095Y-95164342D01*
X155538095Y-95164342D02*
X155585714Y-95259580D01*
X155585714Y-95259580D02*
X155633333Y-95307200D01*
X155633333Y-95307200D02*
X155728571Y-95354819D01*
X155728571Y-95354819D02*
X155919047Y-95354819D01*
X155919047Y-95354819D02*
X156014285Y-95307200D01*
X156014285Y-95307200D02*
X156061904Y-95259580D01*
X156061904Y-95259580D02*
X156109523Y-95164342D01*
X156109523Y-95164342D02*
X156109523Y-94354819D01*
X157014285Y-94688152D02*
X157014285Y-95354819D01*
X156776190Y-94307200D02*
X156538095Y-95021485D01*
X156538095Y-95021485D02*
X157157142Y-95021485D01*
X146754819Y-74942857D02*
X146278628Y-75276190D01*
X146754819Y-75514285D02*
X145754819Y-75514285D01*
X145754819Y-75514285D02*
X145754819Y-75133333D01*
X145754819Y-75133333D02*
X145802438Y-75038095D01*
X145802438Y-75038095D02*
X145850057Y-74990476D01*
X145850057Y-74990476D02*
X145945295Y-74942857D01*
X145945295Y-74942857D02*
X146088152Y-74942857D01*
X146088152Y-74942857D02*
X146183390Y-74990476D01*
X146183390Y-74990476D02*
X146231009Y-75038095D01*
X146231009Y-75038095D02*
X146278628Y-75133333D01*
X146278628Y-75133333D02*
X146278628Y-75514285D01*
X145850057Y-74561904D02*
X145802438Y-74514285D01*
X145802438Y-74514285D02*
X145754819Y-74419047D01*
X145754819Y-74419047D02*
X145754819Y-74180952D01*
X145754819Y-74180952D02*
X145802438Y-74085714D01*
X145802438Y-74085714D02*
X145850057Y-74038095D01*
X145850057Y-74038095D02*
X145945295Y-73990476D01*
X145945295Y-73990476D02*
X146040533Y-73990476D01*
X146040533Y-73990476D02*
X146183390Y-74038095D01*
X146183390Y-74038095D02*
X146754819Y-74609523D01*
X146754819Y-74609523D02*
X146754819Y-73990476D01*
X146088152Y-73133333D02*
X146754819Y-73133333D01*
X145707200Y-73371428D02*
X146421485Y-73609523D01*
X146421485Y-73609523D02*
X146421485Y-72990476D01*
X132633333Y-47024819D02*
X132300000Y-46548628D01*
X132061905Y-47024819D02*
X132061905Y-46024819D01*
X132061905Y-46024819D02*
X132442857Y-46024819D01*
X132442857Y-46024819D02*
X132538095Y-46072438D01*
X132538095Y-46072438D02*
X132585714Y-46120057D01*
X132585714Y-46120057D02*
X132633333Y-46215295D01*
X132633333Y-46215295D02*
X132633333Y-46358152D01*
X132633333Y-46358152D02*
X132585714Y-46453390D01*
X132585714Y-46453390D02*
X132538095Y-46501009D01*
X132538095Y-46501009D02*
X132442857Y-46548628D01*
X132442857Y-46548628D02*
X132061905Y-46548628D01*
X132966667Y-46024819D02*
X133633333Y-46024819D01*
X133633333Y-46024819D02*
X133204762Y-47024819D01*
X154557142Y-97424819D02*
X154223809Y-96948628D01*
X153985714Y-97424819D02*
X153985714Y-96424819D01*
X153985714Y-96424819D02*
X154366666Y-96424819D01*
X154366666Y-96424819D02*
X154461904Y-96472438D01*
X154461904Y-96472438D02*
X154509523Y-96520057D01*
X154509523Y-96520057D02*
X154557142Y-96615295D01*
X154557142Y-96615295D02*
X154557142Y-96758152D01*
X154557142Y-96758152D02*
X154509523Y-96853390D01*
X154509523Y-96853390D02*
X154461904Y-96901009D01*
X154461904Y-96901009D02*
X154366666Y-96948628D01*
X154366666Y-96948628D02*
X153985714Y-96948628D01*
X154938095Y-96520057D02*
X154985714Y-96472438D01*
X154985714Y-96472438D02*
X155080952Y-96424819D01*
X155080952Y-96424819D02*
X155319047Y-96424819D01*
X155319047Y-96424819D02*
X155414285Y-96472438D01*
X155414285Y-96472438D02*
X155461904Y-96520057D01*
X155461904Y-96520057D02*
X155509523Y-96615295D01*
X155509523Y-96615295D02*
X155509523Y-96710533D01*
X155509523Y-96710533D02*
X155461904Y-96853390D01*
X155461904Y-96853390D02*
X154890476Y-97424819D01*
X154890476Y-97424819D02*
X155509523Y-97424819D01*
X156414285Y-96424819D02*
X155938095Y-96424819D01*
X155938095Y-96424819D02*
X155890476Y-96901009D01*
X155890476Y-96901009D02*
X155938095Y-96853390D01*
X155938095Y-96853390D02*
X156033333Y-96805771D01*
X156033333Y-96805771D02*
X156271428Y-96805771D01*
X156271428Y-96805771D02*
X156366666Y-96853390D01*
X156366666Y-96853390D02*
X156414285Y-96901009D01*
X156414285Y-96901009D02*
X156461904Y-96996247D01*
X156461904Y-96996247D02*
X156461904Y-97234342D01*
X156461904Y-97234342D02*
X156414285Y-97329580D01*
X156414285Y-97329580D02*
X156366666Y-97377200D01*
X156366666Y-97377200D02*
X156271428Y-97424819D01*
X156271428Y-97424819D02*
X156033333Y-97424819D01*
X156033333Y-97424819D02*
X155938095Y-97377200D01*
X155938095Y-97377200D02*
X155890476Y-97329580D01*
X160457142Y-55284819D02*
X160123809Y-54808628D01*
X159885714Y-55284819D02*
X159885714Y-54284819D01*
X159885714Y-54284819D02*
X160266666Y-54284819D01*
X160266666Y-54284819D02*
X160361904Y-54332438D01*
X160361904Y-54332438D02*
X160409523Y-54380057D01*
X160409523Y-54380057D02*
X160457142Y-54475295D01*
X160457142Y-54475295D02*
X160457142Y-54618152D01*
X160457142Y-54618152D02*
X160409523Y-54713390D01*
X160409523Y-54713390D02*
X160361904Y-54761009D01*
X160361904Y-54761009D02*
X160266666Y-54808628D01*
X160266666Y-54808628D02*
X159885714Y-54808628D01*
X160790476Y-54284819D02*
X161409523Y-54284819D01*
X161409523Y-54284819D02*
X161076190Y-54665771D01*
X161076190Y-54665771D02*
X161219047Y-54665771D01*
X161219047Y-54665771D02*
X161314285Y-54713390D01*
X161314285Y-54713390D02*
X161361904Y-54761009D01*
X161361904Y-54761009D02*
X161409523Y-54856247D01*
X161409523Y-54856247D02*
X161409523Y-55094342D01*
X161409523Y-55094342D02*
X161361904Y-55189580D01*
X161361904Y-55189580D02*
X161314285Y-55237200D01*
X161314285Y-55237200D02*
X161219047Y-55284819D01*
X161219047Y-55284819D02*
X160933333Y-55284819D01*
X160933333Y-55284819D02*
X160838095Y-55237200D01*
X160838095Y-55237200D02*
X160790476Y-55189580D01*
X162266666Y-54284819D02*
X162076190Y-54284819D01*
X162076190Y-54284819D02*
X161980952Y-54332438D01*
X161980952Y-54332438D02*
X161933333Y-54380057D01*
X161933333Y-54380057D02*
X161838095Y-54522914D01*
X161838095Y-54522914D02*
X161790476Y-54713390D01*
X161790476Y-54713390D02*
X161790476Y-55094342D01*
X161790476Y-55094342D02*
X161838095Y-55189580D01*
X161838095Y-55189580D02*
X161885714Y-55237200D01*
X161885714Y-55237200D02*
X161980952Y-55284819D01*
X161980952Y-55284819D02*
X162171428Y-55284819D01*
X162171428Y-55284819D02*
X162266666Y-55237200D01*
X162266666Y-55237200D02*
X162314285Y-55189580D01*
X162314285Y-55189580D02*
X162361904Y-55094342D01*
X162361904Y-55094342D02*
X162361904Y-54856247D01*
X162361904Y-54856247D02*
X162314285Y-54761009D01*
X162314285Y-54761009D02*
X162266666Y-54713390D01*
X162266666Y-54713390D02*
X162171428Y-54665771D01*
X162171428Y-54665771D02*
X161980952Y-54665771D01*
X161980952Y-54665771D02*
X161885714Y-54713390D01*
X161885714Y-54713390D02*
X161838095Y-54761009D01*
X161838095Y-54761009D02*
X161790476Y-54856247D01*
D11*
X156678387Y-45326645D02*
X156678387Y-44612360D01*
X156678387Y-44612360D02*
X156726006Y-44469503D01*
X156726006Y-44469503D02*
X156821244Y-44374265D01*
X156821244Y-44374265D02*
X156964101Y-44326645D01*
X156964101Y-44326645D02*
X157059339Y-44326645D01*
X155773625Y-44993312D02*
X155773625Y-44326645D01*
X156011720Y-45374265D02*
X156249815Y-44659979D01*
X156249815Y-44659979D02*
X155630768Y-44659979D01*
D10*
X126254819Y-102242857D02*
X125778628Y-102576190D01*
X126254819Y-102814285D02*
X125254819Y-102814285D01*
X125254819Y-102814285D02*
X125254819Y-102433333D01*
X125254819Y-102433333D02*
X125302438Y-102338095D01*
X125302438Y-102338095D02*
X125350057Y-102290476D01*
X125350057Y-102290476D02*
X125445295Y-102242857D01*
X125445295Y-102242857D02*
X125588152Y-102242857D01*
X125588152Y-102242857D02*
X125683390Y-102290476D01*
X125683390Y-102290476D02*
X125731009Y-102338095D01*
X125731009Y-102338095D02*
X125778628Y-102433333D01*
X125778628Y-102433333D02*
X125778628Y-102814285D01*
X125350057Y-101861904D02*
X125302438Y-101814285D01*
X125302438Y-101814285D02*
X125254819Y-101719047D01*
X125254819Y-101719047D02*
X125254819Y-101480952D01*
X125254819Y-101480952D02*
X125302438Y-101385714D01*
X125302438Y-101385714D02*
X125350057Y-101338095D01*
X125350057Y-101338095D02*
X125445295Y-101290476D01*
X125445295Y-101290476D02*
X125540533Y-101290476D01*
X125540533Y-101290476D02*
X125683390Y-101338095D01*
X125683390Y-101338095D02*
X126254819Y-101909523D01*
X126254819Y-101909523D02*
X126254819Y-101290476D01*
X126254819Y-100814285D02*
X126254819Y-100623809D01*
X126254819Y-100623809D02*
X126207200Y-100528571D01*
X126207200Y-100528571D02*
X126159580Y-100480952D01*
X126159580Y-100480952D02*
X126016723Y-100385714D01*
X126016723Y-100385714D02*
X125826247Y-100338095D01*
X125826247Y-100338095D02*
X125445295Y-100338095D01*
X125445295Y-100338095D02*
X125350057Y-100385714D01*
X125350057Y-100385714D02*
X125302438Y-100433333D01*
X125302438Y-100433333D02*
X125254819Y-100528571D01*
X125254819Y-100528571D02*
X125254819Y-100719047D01*
X125254819Y-100719047D02*
X125302438Y-100814285D01*
X125302438Y-100814285D02*
X125350057Y-100861904D01*
X125350057Y-100861904D02*
X125445295Y-100909523D01*
X125445295Y-100909523D02*
X125683390Y-100909523D01*
X125683390Y-100909523D02*
X125778628Y-100861904D01*
X125778628Y-100861904D02*
X125826247Y-100814285D01*
X125826247Y-100814285D02*
X125873866Y-100719047D01*
X125873866Y-100719047D02*
X125873866Y-100528571D01*
X125873866Y-100528571D02*
X125826247Y-100433333D01*
X125826247Y-100433333D02*
X125778628Y-100385714D01*
X125778628Y-100385714D02*
X125683390Y-100338095D01*
X157057142Y-102854819D02*
X156723809Y-102378628D01*
X156485714Y-102854819D02*
X156485714Y-101854819D01*
X156485714Y-101854819D02*
X156866666Y-101854819D01*
X156866666Y-101854819D02*
X156961904Y-101902438D01*
X156961904Y-101902438D02*
X157009523Y-101950057D01*
X157009523Y-101950057D02*
X157057142Y-102045295D01*
X157057142Y-102045295D02*
X157057142Y-102188152D01*
X157057142Y-102188152D02*
X157009523Y-102283390D01*
X157009523Y-102283390D02*
X156961904Y-102331009D01*
X156961904Y-102331009D02*
X156866666Y-102378628D01*
X156866666Y-102378628D02*
X156485714Y-102378628D01*
X157390476Y-101854819D02*
X158009523Y-101854819D01*
X158009523Y-101854819D02*
X157676190Y-102235771D01*
X157676190Y-102235771D02*
X157819047Y-102235771D01*
X157819047Y-102235771D02*
X157914285Y-102283390D01*
X157914285Y-102283390D02*
X157961904Y-102331009D01*
X157961904Y-102331009D02*
X158009523Y-102426247D01*
X158009523Y-102426247D02*
X158009523Y-102664342D01*
X158009523Y-102664342D02*
X157961904Y-102759580D01*
X157961904Y-102759580D02*
X157914285Y-102807200D01*
X157914285Y-102807200D02*
X157819047Y-102854819D01*
X157819047Y-102854819D02*
X157533333Y-102854819D01*
X157533333Y-102854819D02*
X157438095Y-102807200D01*
X157438095Y-102807200D02*
X157390476Y-102759580D01*
X158342857Y-101854819D02*
X158961904Y-101854819D01*
X158961904Y-101854819D02*
X158628571Y-102235771D01*
X158628571Y-102235771D02*
X158771428Y-102235771D01*
X158771428Y-102235771D02*
X158866666Y-102283390D01*
X158866666Y-102283390D02*
X158914285Y-102331009D01*
X158914285Y-102331009D02*
X158961904Y-102426247D01*
X158961904Y-102426247D02*
X158961904Y-102664342D01*
X158961904Y-102664342D02*
X158914285Y-102759580D01*
X158914285Y-102759580D02*
X158866666Y-102807200D01*
X158866666Y-102807200D02*
X158771428Y-102854819D01*
X158771428Y-102854819D02*
X158485714Y-102854819D01*
X158485714Y-102854819D02*
X158390476Y-102807200D01*
X158390476Y-102807200D02*
X158342857Y-102759580D01*
X130556818Y-63871657D02*
X130223485Y-63395466D01*
X129985390Y-63871657D02*
X129985390Y-62871657D01*
X129985390Y-62871657D02*
X130366342Y-62871657D01*
X130366342Y-62871657D02*
X130461580Y-62919276D01*
X130461580Y-62919276D02*
X130509199Y-62966895D01*
X130509199Y-62966895D02*
X130556818Y-63062133D01*
X130556818Y-63062133D02*
X130556818Y-63204990D01*
X130556818Y-63204990D02*
X130509199Y-63300228D01*
X130509199Y-63300228D02*
X130461580Y-63347847D01*
X130461580Y-63347847D02*
X130366342Y-63395466D01*
X130366342Y-63395466D02*
X129985390Y-63395466D01*
X131509199Y-63871657D02*
X130937771Y-63871657D01*
X131223485Y-63871657D02*
X131223485Y-62871657D01*
X131223485Y-62871657D02*
X131128247Y-63014514D01*
X131128247Y-63014514D02*
X131033009Y-63109752D01*
X131033009Y-63109752D02*
X130937771Y-63157371D01*
X132366342Y-62871657D02*
X132175866Y-62871657D01*
X132175866Y-62871657D02*
X132080628Y-62919276D01*
X132080628Y-62919276D02*
X132033009Y-62966895D01*
X132033009Y-62966895D02*
X131937771Y-63109752D01*
X131937771Y-63109752D02*
X131890152Y-63300228D01*
X131890152Y-63300228D02*
X131890152Y-63681180D01*
X131890152Y-63681180D02*
X131937771Y-63776418D01*
X131937771Y-63776418D02*
X131985390Y-63824038D01*
X131985390Y-63824038D02*
X132080628Y-63871657D01*
X132080628Y-63871657D02*
X132271104Y-63871657D01*
X132271104Y-63871657D02*
X132366342Y-63824038D01*
X132366342Y-63824038D02*
X132413961Y-63776418D01*
X132413961Y-63776418D02*
X132461580Y-63681180D01*
X132461580Y-63681180D02*
X132461580Y-63443085D01*
X132461580Y-63443085D02*
X132413961Y-63347847D01*
X132413961Y-63347847D02*
X132366342Y-63300228D01*
X132366342Y-63300228D02*
X132271104Y-63252609D01*
X132271104Y-63252609D02*
X132080628Y-63252609D01*
X132080628Y-63252609D02*
X131985390Y-63300228D01*
X131985390Y-63300228D02*
X131937771Y-63347847D01*
X131937771Y-63347847D02*
X131890152Y-63443085D01*
X126854819Y-96442857D02*
X126378628Y-96776190D01*
X126854819Y-97014285D02*
X125854819Y-97014285D01*
X125854819Y-97014285D02*
X125854819Y-96633333D01*
X125854819Y-96633333D02*
X125902438Y-96538095D01*
X125902438Y-96538095D02*
X125950057Y-96490476D01*
X125950057Y-96490476D02*
X126045295Y-96442857D01*
X126045295Y-96442857D02*
X126188152Y-96442857D01*
X126188152Y-96442857D02*
X126283390Y-96490476D01*
X126283390Y-96490476D02*
X126331009Y-96538095D01*
X126331009Y-96538095D02*
X126378628Y-96633333D01*
X126378628Y-96633333D02*
X126378628Y-97014285D01*
X125950057Y-96061904D02*
X125902438Y-96014285D01*
X125902438Y-96014285D02*
X125854819Y-95919047D01*
X125854819Y-95919047D02*
X125854819Y-95680952D01*
X125854819Y-95680952D02*
X125902438Y-95585714D01*
X125902438Y-95585714D02*
X125950057Y-95538095D01*
X125950057Y-95538095D02*
X126045295Y-95490476D01*
X126045295Y-95490476D02*
X126140533Y-95490476D01*
X126140533Y-95490476D02*
X126283390Y-95538095D01*
X126283390Y-95538095D02*
X126854819Y-96109523D01*
X126854819Y-96109523D02*
X126854819Y-95490476D01*
X125854819Y-95157142D02*
X125854819Y-94490476D01*
X125854819Y-94490476D02*
X126854819Y-94919047D01*
X130555630Y-60503613D02*
X130222297Y-60027422D01*
X129984202Y-60503613D02*
X129984202Y-59503613D01*
X129984202Y-59503613D02*
X130365154Y-59503613D01*
X130365154Y-59503613D02*
X130460392Y-59551232D01*
X130460392Y-59551232D02*
X130508011Y-59598851D01*
X130508011Y-59598851D02*
X130555630Y-59694089D01*
X130555630Y-59694089D02*
X130555630Y-59836946D01*
X130555630Y-59836946D02*
X130508011Y-59932184D01*
X130508011Y-59932184D02*
X130460392Y-59979803D01*
X130460392Y-59979803D02*
X130365154Y-60027422D01*
X130365154Y-60027422D02*
X129984202Y-60027422D01*
X131508011Y-60503613D02*
X130936583Y-60503613D01*
X131222297Y-60503613D02*
X131222297Y-59503613D01*
X131222297Y-59503613D02*
X131127059Y-59646470D01*
X131127059Y-59646470D02*
X131031821Y-59741708D01*
X131031821Y-59741708D02*
X130936583Y-59789327D01*
X132079440Y-59932184D02*
X131984202Y-59884565D01*
X131984202Y-59884565D02*
X131936583Y-59836946D01*
X131936583Y-59836946D02*
X131888964Y-59741708D01*
X131888964Y-59741708D02*
X131888964Y-59694089D01*
X131888964Y-59694089D02*
X131936583Y-59598851D01*
X131936583Y-59598851D02*
X131984202Y-59551232D01*
X131984202Y-59551232D02*
X132079440Y-59503613D01*
X132079440Y-59503613D02*
X132269916Y-59503613D01*
X132269916Y-59503613D02*
X132365154Y-59551232D01*
X132365154Y-59551232D02*
X132412773Y-59598851D01*
X132412773Y-59598851D02*
X132460392Y-59694089D01*
X132460392Y-59694089D02*
X132460392Y-59741708D01*
X132460392Y-59741708D02*
X132412773Y-59836946D01*
X132412773Y-59836946D02*
X132365154Y-59884565D01*
X132365154Y-59884565D02*
X132269916Y-59932184D01*
X132269916Y-59932184D02*
X132079440Y-59932184D01*
X132079440Y-59932184D02*
X131984202Y-59979803D01*
X131984202Y-59979803D02*
X131936583Y-60027422D01*
X131936583Y-60027422D02*
X131888964Y-60122660D01*
X131888964Y-60122660D02*
X131888964Y-60313136D01*
X131888964Y-60313136D02*
X131936583Y-60408374D01*
X131936583Y-60408374D02*
X131984202Y-60455994D01*
X131984202Y-60455994D02*
X132079440Y-60503613D01*
X132079440Y-60503613D02*
X132269916Y-60503613D01*
X132269916Y-60503613D02*
X132365154Y-60455994D01*
X132365154Y-60455994D02*
X132412773Y-60408374D01*
X132412773Y-60408374D02*
X132460392Y-60313136D01*
X132460392Y-60313136D02*
X132460392Y-60122660D01*
X132460392Y-60122660D02*
X132412773Y-60027422D01*
X132412773Y-60027422D02*
X132365154Y-59979803D01*
X132365154Y-59979803D02*
X132269916Y-59932184D01*
X134607142Y-60654819D02*
X134273809Y-60178628D01*
X134035714Y-60654819D02*
X134035714Y-59654819D01*
X134035714Y-59654819D02*
X134416666Y-59654819D01*
X134416666Y-59654819D02*
X134511904Y-59702438D01*
X134511904Y-59702438D02*
X134559523Y-59750057D01*
X134559523Y-59750057D02*
X134607142Y-59845295D01*
X134607142Y-59845295D02*
X134607142Y-59988152D01*
X134607142Y-59988152D02*
X134559523Y-60083390D01*
X134559523Y-60083390D02*
X134511904Y-60131009D01*
X134511904Y-60131009D02*
X134416666Y-60178628D01*
X134416666Y-60178628D02*
X134035714Y-60178628D01*
X135559523Y-60654819D02*
X134988095Y-60654819D01*
X135273809Y-60654819D02*
X135273809Y-59654819D01*
X135273809Y-59654819D02*
X135178571Y-59797676D01*
X135178571Y-59797676D02*
X135083333Y-59892914D01*
X135083333Y-59892914D02*
X134988095Y-59940533D01*
X136511904Y-60654819D02*
X135940476Y-60654819D01*
X136226190Y-60654819D02*
X136226190Y-59654819D01*
X136226190Y-59654819D02*
X136130952Y-59797676D01*
X136130952Y-59797676D02*
X136035714Y-59892914D01*
X136035714Y-59892914D02*
X135940476Y-59940533D01*
X130852381Y-108554819D02*
X130852381Y-107554819D01*
X130852381Y-107554819D02*
X131185714Y-108269104D01*
X131185714Y-108269104D02*
X131519047Y-107554819D01*
X131519047Y-107554819D02*
X131519047Y-108554819D01*
X131995238Y-108554819D02*
X131995238Y-107554819D01*
X133042856Y-108459580D02*
X132995237Y-108507200D01*
X132995237Y-108507200D02*
X132852380Y-108554819D01*
X132852380Y-108554819D02*
X132757142Y-108554819D01*
X132757142Y-108554819D02*
X132614285Y-108507200D01*
X132614285Y-108507200D02*
X132519047Y-108411961D01*
X132519047Y-108411961D02*
X132471428Y-108316723D01*
X132471428Y-108316723D02*
X132423809Y-108126247D01*
X132423809Y-108126247D02*
X132423809Y-107983390D01*
X132423809Y-107983390D02*
X132471428Y-107792914D01*
X132471428Y-107792914D02*
X132519047Y-107697676D01*
X132519047Y-107697676D02*
X132614285Y-107602438D01*
X132614285Y-107602438D02*
X132757142Y-107554819D01*
X132757142Y-107554819D02*
X132852380Y-107554819D01*
X132852380Y-107554819D02*
X132995237Y-107602438D01*
X132995237Y-107602438D02*
X133042856Y-107650057D01*
X133995237Y-108554819D02*
X133423809Y-108554819D01*
X133709523Y-108554819D02*
X133709523Y-107554819D01*
X133709523Y-107554819D02*
X133614285Y-107697676D01*
X133614285Y-107697676D02*
X133519047Y-107792914D01*
X133519047Y-107792914D02*
X133423809Y-107840533D01*
X143007952Y-68145351D02*
X142674619Y-67669160D01*
X142436524Y-68145351D02*
X142436524Y-67145351D01*
X142436524Y-67145351D02*
X142817476Y-67145351D01*
X142817476Y-67145351D02*
X142912714Y-67192970D01*
X142912714Y-67192970D02*
X142960333Y-67240589D01*
X142960333Y-67240589D02*
X143007952Y-67335827D01*
X143007952Y-67335827D02*
X143007952Y-67478684D01*
X143007952Y-67478684D02*
X142960333Y-67573922D01*
X142960333Y-67573922D02*
X142912714Y-67621541D01*
X142912714Y-67621541D02*
X142817476Y-67669160D01*
X142817476Y-67669160D02*
X142436524Y-67669160D01*
X143960333Y-68145351D02*
X143388905Y-68145351D01*
X143674619Y-68145351D02*
X143674619Y-67145351D01*
X143674619Y-67145351D02*
X143579381Y-67288208D01*
X143579381Y-67288208D02*
X143484143Y-67383446D01*
X143484143Y-67383446D02*
X143388905Y-67431065D01*
X162333333Y-103859580D02*
X162285714Y-103907200D01*
X162285714Y-103907200D02*
X162142857Y-103954819D01*
X162142857Y-103954819D02*
X162047619Y-103954819D01*
X162047619Y-103954819D02*
X161904762Y-103907200D01*
X161904762Y-103907200D02*
X161809524Y-103811961D01*
X161809524Y-103811961D02*
X161761905Y-103716723D01*
X161761905Y-103716723D02*
X161714286Y-103526247D01*
X161714286Y-103526247D02*
X161714286Y-103383390D01*
X161714286Y-103383390D02*
X161761905Y-103192914D01*
X161761905Y-103192914D02*
X161809524Y-103097676D01*
X161809524Y-103097676D02*
X161904762Y-103002438D01*
X161904762Y-103002438D02*
X162047619Y-102954819D01*
X162047619Y-102954819D02*
X162142857Y-102954819D01*
X162142857Y-102954819D02*
X162285714Y-103002438D01*
X162285714Y-103002438D02*
X162333333Y-103050057D01*
X162666667Y-102954819D02*
X163333333Y-102954819D01*
X163333333Y-102954819D02*
X162904762Y-103954819D01*
X143838095Y-84254819D02*
X143838095Y-85064342D01*
X143838095Y-85064342D02*
X143885714Y-85159580D01*
X143885714Y-85159580D02*
X143933333Y-85207200D01*
X143933333Y-85207200D02*
X144028571Y-85254819D01*
X144028571Y-85254819D02*
X144219047Y-85254819D01*
X144219047Y-85254819D02*
X144314285Y-85207200D01*
X144314285Y-85207200D02*
X144361904Y-85159580D01*
X144361904Y-85159580D02*
X144409523Y-85064342D01*
X144409523Y-85064342D02*
X144409523Y-84254819D01*
X144790476Y-84254819D02*
X145409523Y-84254819D01*
X145409523Y-84254819D02*
X145076190Y-84635771D01*
X145076190Y-84635771D02*
X145219047Y-84635771D01*
X145219047Y-84635771D02*
X145314285Y-84683390D01*
X145314285Y-84683390D02*
X145361904Y-84731009D01*
X145361904Y-84731009D02*
X145409523Y-84826247D01*
X145409523Y-84826247D02*
X145409523Y-85064342D01*
X145409523Y-85064342D02*
X145361904Y-85159580D01*
X145361904Y-85159580D02*
X145314285Y-85207200D01*
X145314285Y-85207200D02*
X145219047Y-85254819D01*
X145219047Y-85254819D02*
X144933333Y-85254819D01*
X144933333Y-85254819D02*
X144838095Y-85207200D01*
X144838095Y-85207200D02*
X144790476Y-85159580D01*
X160733333Y-78559580D02*
X160685714Y-78607200D01*
X160685714Y-78607200D02*
X160542857Y-78654819D01*
X160542857Y-78654819D02*
X160447619Y-78654819D01*
X160447619Y-78654819D02*
X160304762Y-78607200D01*
X160304762Y-78607200D02*
X160209524Y-78511961D01*
X160209524Y-78511961D02*
X160161905Y-78416723D01*
X160161905Y-78416723D02*
X160114286Y-78226247D01*
X160114286Y-78226247D02*
X160114286Y-78083390D01*
X160114286Y-78083390D02*
X160161905Y-77892914D01*
X160161905Y-77892914D02*
X160209524Y-77797676D01*
X160209524Y-77797676D02*
X160304762Y-77702438D01*
X160304762Y-77702438D02*
X160447619Y-77654819D01*
X160447619Y-77654819D02*
X160542857Y-77654819D01*
X160542857Y-77654819D02*
X160685714Y-77702438D01*
X160685714Y-77702438D02*
X160733333Y-77750057D01*
X161590476Y-77654819D02*
X161400000Y-77654819D01*
X161400000Y-77654819D02*
X161304762Y-77702438D01*
X161304762Y-77702438D02*
X161257143Y-77750057D01*
X161257143Y-77750057D02*
X161161905Y-77892914D01*
X161161905Y-77892914D02*
X161114286Y-78083390D01*
X161114286Y-78083390D02*
X161114286Y-78464342D01*
X161114286Y-78464342D02*
X161161905Y-78559580D01*
X161161905Y-78559580D02*
X161209524Y-78607200D01*
X161209524Y-78607200D02*
X161304762Y-78654819D01*
X161304762Y-78654819D02*
X161495238Y-78654819D01*
X161495238Y-78654819D02*
X161590476Y-78607200D01*
X161590476Y-78607200D02*
X161638095Y-78559580D01*
X161638095Y-78559580D02*
X161685714Y-78464342D01*
X161685714Y-78464342D02*
X161685714Y-78226247D01*
X161685714Y-78226247D02*
X161638095Y-78131009D01*
X161638095Y-78131009D02*
X161590476Y-78083390D01*
X161590476Y-78083390D02*
X161495238Y-78035771D01*
X161495238Y-78035771D02*
X161304762Y-78035771D01*
X161304762Y-78035771D02*
X161209524Y-78083390D01*
X161209524Y-78083390D02*
X161161905Y-78131009D01*
X161161905Y-78131009D02*
X161114286Y-78226247D01*
X142997105Y-66691831D02*
X142663772Y-66215640D01*
X142425677Y-66691831D02*
X142425677Y-65691831D01*
X142425677Y-65691831D02*
X142806629Y-65691831D01*
X142806629Y-65691831D02*
X142901867Y-65739450D01*
X142901867Y-65739450D02*
X142949486Y-65787069D01*
X142949486Y-65787069D02*
X142997105Y-65882307D01*
X142997105Y-65882307D02*
X142997105Y-66025164D01*
X142997105Y-66025164D02*
X142949486Y-66120402D01*
X142949486Y-66120402D02*
X142901867Y-66168021D01*
X142901867Y-66168021D02*
X142806629Y-66215640D01*
X142806629Y-66215640D02*
X142425677Y-66215640D01*
X143330439Y-65691831D02*
X143949486Y-65691831D01*
X143949486Y-65691831D02*
X143616153Y-66072783D01*
X143616153Y-66072783D02*
X143759010Y-66072783D01*
X143759010Y-66072783D02*
X143854248Y-66120402D01*
X143854248Y-66120402D02*
X143901867Y-66168021D01*
X143901867Y-66168021D02*
X143949486Y-66263259D01*
X143949486Y-66263259D02*
X143949486Y-66501354D01*
X143949486Y-66501354D02*
X143901867Y-66596592D01*
X143901867Y-66596592D02*
X143854248Y-66644212D01*
X143854248Y-66644212D02*
X143759010Y-66691831D01*
X143759010Y-66691831D02*
X143473296Y-66691831D01*
X143473296Y-66691831D02*
X143378058Y-66644212D01*
X143378058Y-66644212D02*
X143330439Y-66596592D01*
X130555630Y-62187635D02*
X130222297Y-61711444D01*
X129984202Y-62187635D02*
X129984202Y-61187635D01*
X129984202Y-61187635D02*
X130365154Y-61187635D01*
X130365154Y-61187635D02*
X130460392Y-61235254D01*
X130460392Y-61235254D02*
X130508011Y-61282873D01*
X130508011Y-61282873D02*
X130555630Y-61378111D01*
X130555630Y-61378111D02*
X130555630Y-61520968D01*
X130555630Y-61520968D02*
X130508011Y-61616206D01*
X130508011Y-61616206D02*
X130460392Y-61663825D01*
X130460392Y-61663825D02*
X130365154Y-61711444D01*
X130365154Y-61711444D02*
X129984202Y-61711444D01*
X131508011Y-62187635D02*
X130936583Y-62187635D01*
X131222297Y-62187635D02*
X131222297Y-61187635D01*
X131222297Y-61187635D02*
X131127059Y-61330492D01*
X131127059Y-61330492D02*
X131031821Y-61425730D01*
X131031821Y-61425730D02*
X130936583Y-61473349D01*
X131841345Y-61187635D02*
X132508011Y-61187635D01*
X132508011Y-61187635D02*
X132079440Y-62187635D01*
X130033333Y-100259580D02*
X129985714Y-100307200D01*
X129985714Y-100307200D02*
X129842857Y-100354819D01*
X129842857Y-100354819D02*
X129747619Y-100354819D01*
X129747619Y-100354819D02*
X129604762Y-100307200D01*
X129604762Y-100307200D02*
X129509524Y-100211961D01*
X129509524Y-100211961D02*
X129461905Y-100116723D01*
X129461905Y-100116723D02*
X129414286Y-99926247D01*
X129414286Y-99926247D02*
X129414286Y-99783390D01*
X129414286Y-99783390D02*
X129461905Y-99592914D01*
X129461905Y-99592914D02*
X129509524Y-99497676D01*
X129509524Y-99497676D02*
X129604762Y-99402438D01*
X129604762Y-99402438D02*
X129747619Y-99354819D01*
X129747619Y-99354819D02*
X129842857Y-99354819D01*
X129842857Y-99354819D02*
X129985714Y-99402438D01*
X129985714Y-99402438D02*
X130033333Y-99450057D01*
X130890476Y-99688152D02*
X130890476Y-100354819D01*
X130652381Y-99307200D02*
X130414286Y-100021485D01*
X130414286Y-100021485D02*
X131033333Y-100021485D01*
X157304819Y-59166666D02*
X156828628Y-59499999D01*
X157304819Y-59738094D02*
X156304819Y-59738094D01*
X156304819Y-59738094D02*
X156304819Y-59357142D01*
X156304819Y-59357142D02*
X156352438Y-59261904D01*
X156352438Y-59261904D02*
X156400057Y-59214285D01*
X156400057Y-59214285D02*
X156495295Y-59166666D01*
X156495295Y-59166666D02*
X156638152Y-59166666D01*
X156638152Y-59166666D02*
X156733390Y-59214285D01*
X156733390Y-59214285D02*
X156781009Y-59261904D01*
X156781009Y-59261904D02*
X156828628Y-59357142D01*
X156828628Y-59357142D02*
X156828628Y-59738094D01*
X156304819Y-58261904D02*
X156304819Y-58738094D01*
X156304819Y-58738094D02*
X156781009Y-58785713D01*
X156781009Y-58785713D02*
X156733390Y-58738094D01*
X156733390Y-58738094D02*
X156685771Y-58642856D01*
X156685771Y-58642856D02*
X156685771Y-58404761D01*
X156685771Y-58404761D02*
X156733390Y-58309523D01*
X156733390Y-58309523D02*
X156781009Y-58261904D01*
X156781009Y-58261904D02*
X156876247Y-58214285D01*
X156876247Y-58214285D02*
X157114342Y-58214285D01*
X157114342Y-58214285D02*
X157209580Y-58261904D01*
X157209580Y-58261904D02*
X157257200Y-58309523D01*
X157257200Y-58309523D02*
X157304819Y-58404761D01*
X157304819Y-58404761D02*
X157304819Y-58642856D01*
X157304819Y-58642856D02*
X157257200Y-58738094D01*
X157257200Y-58738094D02*
X157209580Y-58785713D01*
X166157142Y-104554819D02*
X165823809Y-104078628D01*
X165585714Y-104554819D02*
X165585714Y-103554819D01*
X165585714Y-103554819D02*
X165966666Y-103554819D01*
X165966666Y-103554819D02*
X166061904Y-103602438D01*
X166061904Y-103602438D02*
X166109523Y-103650057D01*
X166109523Y-103650057D02*
X166157142Y-103745295D01*
X166157142Y-103745295D02*
X166157142Y-103888152D01*
X166157142Y-103888152D02*
X166109523Y-103983390D01*
X166109523Y-103983390D02*
X166061904Y-104031009D01*
X166061904Y-104031009D02*
X165966666Y-104078628D01*
X165966666Y-104078628D02*
X165585714Y-104078628D01*
X166538095Y-103650057D02*
X166585714Y-103602438D01*
X166585714Y-103602438D02*
X166680952Y-103554819D01*
X166680952Y-103554819D02*
X166919047Y-103554819D01*
X166919047Y-103554819D02*
X167014285Y-103602438D01*
X167014285Y-103602438D02*
X167061904Y-103650057D01*
X167061904Y-103650057D02*
X167109523Y-103745295D01*
X167109523Y-103745295D02*
X167109523Y-103840533D01*
X167109523Y-103840533D02*
X167061904Y-103983390D01*
X167061904Y-103983390D02*
X166490476Y-104554819D01*
X166490476Y-104554819D02*
X167109523Y-104554819D01*
X168061904Y-104554819D02*
X167490476Y-104554819D01*
X167776190Y-104554819D02*
X167776190Y-103554819D01*
X167776190Y-103554819D02*
X167680952Y-103697676D01*
X167680952Y-103697676D02*
X167585714Y-103792914D01*
X167585714Y-103792914D02*
X167490476Y-103840533D01*
X129359580Y-74342857D02*
X129407200Y-74390476D01*
X129407200Y-74390476D02*
X129454819Y-74533333D01*
X129454819Y-74533333D02*
X129454819Y-74628571D01*
X129454819Y-74628571D02*
X129407200Y-74771428D01*
X129407200Y-74771428D02*
X129311961Y-74866666D01*
X129311961Y-74866666D02*
X129216723Y-74914285D01*
X129216723Y-74914285D02*
X129026247Y-74961904D01*
X129026247Y-74961904D02*
X128883390Y-74961904D01*
X128883390Y-74961904D02*
X128692914Y-74914285D01*
X128692914Y-74914285D02*
X128597676Y-74866666D01*
X128597676Y-74866666D02*
X128502438Y-74771428D01*
X128502438Y-74771428D02*
X128454819Y-74628571D01*
X128454819Y-74628571D02*
X128454819Y-74533333D01*
X128454819Y-74533333D02*
X128502438Y-74390476D01*
X128502438Y-74390476D02*
X128550057Y-74342857D01*
X129454819Y-73390476D02*
X129454819Y-73961904D01*
X129454819Y-73676190D02*
X128454819Y-73676190D01*
X128454819Y-73676190D02*
X128597676Y-73771428D01*
X128597676Y-73771428D02*
X128692914Y-73866666D01*
X128692914Y-73866666D02*
X128740533Y-73961904D01*
X128454819Y-72771428D02*
X128454819Y-72676190D01*
X128454819Y-72676190D02*
X128502438Y-72580952D01*
X128502438Y-72580952D02*
X128550057Y-72533333D01*
X128550057Y-72533333D02*
X128645295Y-72485714D01*
X128645295Y-72485714D02*
X128835771Y-72438095D01*
X128835771Y-72438095D02*
X129073866Y-72438095D01*
X129073866Y-72438095D02*
X129264342Y-72485714D01*
X129264342Y-72485714D02*
X129359580Y-72533333D01*
X129359580Y-72533333D02*
X129407200Y-72580952D01*
X129407200Y-72580952D02*
X129454819Y-72676190D01*
X129454819Y-72676190D02*
X129454819Y-72771428D01*
X129454819Y-72771428D02*
X129407200Y-72866666D01*
X129407200Y-72866666D02*
X129359580Y-72914285D01*
X129359580Y-72914285D02*
X129264342Y-72961904D01*
X129264342Y-72961904D02*
X129073866Y-73009523D01*
X129073866Y-73009523D02*
X128835771Y-73009523D01*
X128835771Y-73009523D02*
X128645295Y-72961904D01*
X128645295Y-72961904D02*
X128550057Y-72914285D01*
X128550057Y-72914285D02*
X128502438Y-72866666D01*
X128502438Y-72866666D02*
X128454819Y-72771428D01*
X163454819Y-86742857D02*
X162978628Y-87076190D01*
X163454819Y-87314285D02*
X162454819Y-87314285D01*
X162454819Y-87314285D02*
X162454819Y-86933333D01*
X162454819Y-86933333D02*
X162502438Y-86838095D01*
X162502438Y-86838095D02*
X162550057Y-86790476D01*
X162550057Y-86790476D02*
X162645295Y-86742857D01*
X162645295Y-86742857D02*
X162788152Y-86742857D01*
X162788152Y-86742857D02*
X162883390Y-86790476D01*
X162883390Y-86790476D02*
X162931009Y-86838095D01*
X162931009Y-86838095D02*
X162978628Y-86933333D01*
X162978628Y-86933333D02*
X162978628Y-87314285D01*
X162550057Y-86361904D02*
X162502438Y-86314285D01*
X162502438Y-86314285D02*
X162454819Y-86219047D01*
X162454819Y-86219047D02*
X162454819Y-85980952D01*
X162454819Y-85980952D02*
X162502438Y-85885714D01*
X162502438Y-85885714D02*
X162550057Y-85838095D01*
X162550057Y-85838095D02*
X162645295Y-85790476D01*
X162645295Y-85790476D02*
X162740533Y-85790476D01*
X162740533Y-85790476D02*
X162883390Y-85838095D01*
X162883390Y-85838095D02*
X163454819Y-86409523D01*
X163454819Y-86409523D02*
X163454819Y-85790476D01*
X162454819Y-84933333D02*
X162454819Y-85123809D01*
X162454819Y-85123809D02*
X162502438Y-85219047D01*
X162502438Y-85219047D02*
X162550057Y-85266666D01*
X162550057Y-85266666D02*
X162692914Y-85361904D01*
X162692914Y-85361904D02*
X162883390Y-85409523D01*
X162883390Y-85409523D02*
X163264342Y-85409523D01*
X163264342Y-85409523D02*
X163359580Y-85361904D01*
X163359580Y-85361904D02*
X163407200Y-85314285D01*
X163407200Y-85314285D02*
X163454819Y-85219047D01*
X163454819Y-85219047D02*
X163454819Y-85028571D01*
X163454819Y-85028571D02*
X163407200Y-84933333D01*
X163407200Y-84933333D02*
X163359580Y-84885714D01*
X163359580Y-84885714D02*
X163264342Y-84838095D01*
X163264342Y-84838095D02*
X163026247Y-84838095D01*
X163026247Y-84838095D02*
X162931009Y-84885714D01*
X162931009Y-84885714D02*
X162883390Y-84933333D01*
X162883390Y-84933333D02*
X162835771Y-85028571D01*
X162835771Y-85028571D02*
X162835771Y-85219047D01*
X162835771Y-85219047D02*
X162883390Y-85314285D01*
X162883390Y-85314285D02*
X162931009Y-85361904D01*
X162931009Y-85361904D02*
X163026247Y-85409523D01*
X135733333Y-79089580D02*
X135685714Y-79137200D01*
X135685714Y-79137200D02*
X135542857Y-79184819D01*
X135542857Y-79184819D02*
X135447619Y-79184819D01*
X135447619Y-79184819D02*
X135304762Y-79137200D01*
X135304762Y-79137200D02*
X135209524Y-79041961D01*
X135209524Y-79041961D02*
X135161905Y-78946723D01*
X135161905Y-78946723D02*
X135114286Y-78756247D01*
X135114286Y-78756247D02*
X135114286Y-78613390D01*
X135114286Y-78613390D02*
X135161905Y-78422914D01*
X135161905Y-78422914D02*
X135209524Y-78327676D01*
X135209524Y-78327676D02*
X135304762Y-78232438D01*
X135304762Y-78232438D02*
X135447619Y-78184819D01*
X135447619Y-78184819D02*
X135542857Y-78184819D01*
X135542857Y-78184819D02*
X135685714Y-78232438D01*
X135685714Y-78232438D02*
X135733333Y-78280057D01*
X136209524Y-79184819D02*
X136400000Y-79184819D01*
X136400000Y-79184819D02*
X136495238Y-79137200D01*
X136495238Y-79137200D02*
X136542857Y-79089580D01*
X136542857Y-79089580D02*
X136638095Y-78946723D01*
X136638095Y-78946723D02*
X136685714Y-78756247D01*
X136685714Y-78756247D02*
X136685714Y-78375295D01*
X136685714Y-78375295D02*
X136638095Y-78280057D01*
X136638095Y-78280057D02*
X136590476Y-78232438D01*
X136590476Y-78232438D02*
X136495238Y-78184819D01*
X136495238Y-78184819D02*
X136304762Y-78184819D01*
X136304762Y-78184819D02*
X136209524Y-78232438D01*
X136209524Y-78232438D02*
X136161905Y-78280057D01*
X136161905Y-78280057D02*
X136114286Y-78375295D01*
X136114286Y-78375295D02*
X136114286Y-78613390D01*
X136114286Y-78613390D02*
X136161905Y-78708628D01*
X136161905Y-78708628D02*
X136209524Y-78756247D01*
X136209524Y-78756247D02*
X136304762Y-78803866D01*
X136304762Y-78803866D02*
X136495238Y-78803866D01*
X136495238Y-78803866D02*
X136590476Y-78756247D01*
X136590476Y-78756247D02*
X136638095Y-78708628D01*
X136638095Y-78708628D02*
X136685714Y-78613390D01*
X127954819Y-88733333D02*
X128669104Y-88733333D01*
X128669104Y-88733333D02*
X128811961Y-88780952D01*
X128811961Y-88780952D02*
X128907200Y-88876190D01*
X128907200Y-88876190D02*
X128954819Y-89019047D01*
X128954819Y-89019047D02*
X128954819Y-89114285D01*
X128954819Y-87733333D02*
X128954819Y-88304761D01*
X128954819Y-88019047D02*
X127954819Y-88019047D01*
X127954819Y-88019047D02*
X128097676Y-88114285D01*
X128097676Y-88114285D02*
X128192914Y-88209523D01*
X128192914Y-88209523D02*
X128240533Y-88304761D01*
X130706224Y-57679687D02*
X130372891Y-57203496D01*
X130134796Y-57679687D02*
X130134796Y-56679687D01*
X130134796Y-56679687D02*
X130515748Y-56679687D01*
X130515748Y-56679687D02*
X130610986Y-56727306D01*
X130610986Y-56727306D02*
X130658605Y-56774925D01*
X130658605Y-56774925D02*
X130706224Y-56870163D01*
X130706224Y-56870163D02*
X130706224Y-57013020D01*
X130706224Y-57013020D02*
X130658605Y-57108258D01*
X130658605Y-57108258D02*
X130610986Y-57155877D01*
X130610986Y-57155877D02*
X130515748Y-57203496D01*
X130515748Y-57203496D02*
X130134796Y-57203496D01*
X131658605Y-57679687D02*
X131087177Y-57679687D01*
X131372891Y-57679687D02*
X131372891Y-56679687D01*
X131372891Y-56679687D02*
X131277653Y-56822544D01*
X131277653Y-56822544D02*
X131182415Y-56917782D01*
X131182415Y-56917782D02*
X131087177Y-56965401D01*
X132039558Y-56774925D02*
X132087177Y-56727306D01*
X132087177Y-56727306D02*
X132182415Y-56679687D01*
X132182415Y-56679687D02*
X132420510Y-56679687D01*
X132420510Y-56679687D02*
X132515748Y-56727306D01*
X132515748Y-56727306D02*
X132563367Y-56774925D01*
X132563367Y-56774925D02*
X132610986Y-56870163D01*
X132610986Y-56870163D02*
X132610986Y-56965401D01*
X132610986Y-56965401D02*
X132563367Y-57108258D01*
X132563367Y-57108258D02*
X131991939Y-57679687D01*
X131991939Y-57679687D02*
X132610986Y-57679687D01*
X158182142Y-65554819D02*
X157848809Y-65078628D01*
X157610714Y-65554819D02*
X157610714Y-64554819D01*
X157610714Y-64554819D02*
X157991666Y-64554819D01*
X157991666Y-64554819D02*
X158086904Y-64602438D01*
X158086904Y-64602438D02*
X158134523Y-64650057D01*
X158134523Y-64650057D02*
X158182142Y-64745295D01*
X158182142Y-64745295D02*
X158182142Y-64888152D01*
X158182142Y-64888152D02*
X158134523Y-64983390D01*
X158134523Y-64983390D02*
X158086904Y-65031009D01*
X158086904Y-65031009D02*
X157991666Y-65078628D01*
X157991666Y-65078628D02*
X157610714Y-65078628D01*
X158563095Y-64650057D02*
X158610714Y-64602438D01*
X158610714Y-64602438D02*
X158705952Y-64554819D01*
X158705952Y-64554819D02*
X158944047Y-64554819D01*
X158944047Y-64554819D02*
X159039285Y-64602438D01*
X159039285Y-64602438D02*
X159086904Y-64650057D01*
X159086904Y-64650057D02*
X159134523Y-64745295D01*
X159134523Y-64745295D02*
X159134523Y-64840533D01*
X159134523Y-64840533D02*
X159086904Y-64983390D01*
X159086904Y-64983390D02*
X158515476Y-65554819D01*
X158515476Y-65554819D02*
X159134523Y-65554819D01*
X159467857Y-64554819D02*
X160086904Y-64554819D01*
X160086904Y-64554819D02*
X159753571Y-64935771D01*
X159753571Y-64935771D02*
X159896428Y-64935771D01*
X159896428Y-64935771D02*
X159991666Y-64983390D01*
X159991666Y-64983390D02*
X160039285Y-65031009D01*
X160039285Y-65031009D02*
X160086904Y-65126247D01*
X160086904Y-65126247D02*
X160086904Y-65364342D01*
X160086904Y-65364342D02*
X160039285Y-65459580D01*
X160039285Y-65459580D02*
X159991666Y-65507200D01*
X159991666Y-65507200D02*
X159896428Y-65554819D01*
X159896428Y-65554819D02*
X159610714Y-65554819D01*
X159610714Y-65554819D02*
X159515476Y-65507200D01*
X159515476Y-65507200D02*
X159467857Y-65459580D01*
X163038095Y-77954819D02*
X163038095Y-78764342D01*
X163038095Y-78764342D02*
X163085714Y-78859580D01*
X163085714Y-78859580D02*
X163133333Y-78907200D01*
X163133333Y-78907200D02*
X163228571Y-78954819D01*
X163228571Y-78954819D02*
X163419047Y-78954819D01*
X163419047Y-78954819D02*
X163514285Y-78907200D01*
X163514285Y-78907200D02*
X163561904Y-78859580D01*
X163561904Y-78859580D02*
X163609523Y-78764342D01*
X163609523Y-78764342D02*
X163609523Y-77954819D01*
X164228571Y-78383390D02*
X164133333Y-78335771D01*
X164133333Y-78335771D02*
X164085714Y-78288152D01*
X164085714Y-78288152D02*
X164038095Y-78192914D01*
X164038095Y-78192914D02*
X164038095Y-78145295D01*
X164038095Y-78145295D02*
X164085714Y-78050057D01*
X164085714Y-78050057D02*
X164133333Y-78002438D01*
X164133333Y-78002438D02*
X164228571Y-77954819D01*
X164228571Y-77954819D02*
X164419047Y-77954819D01*
X164419047Y-77954819D02*
X164514285Y-78002438D01*
X164514285Y-78002438D02*
X164561904Y-78050057D01*
X164561904Y-78050057D02*
X164609523Y-78145295D01*
X164609523Y-78145295D02*
X164609523Y-78192914D01*
X164609523Y-78192914D02*
X164561904Y-78288152D01*
X164561904Y-78288152D02*
X164514285Y-78335771D01*
X164514285Y-78335771D02*
X164419047Y-78383390D01*
X164419047Y-78383390D02*
X164228571Y-78383390D01*
X164228571Y-78383390D02*
X164133333Y-78431009D01*
X164133333Y-78431009D02*
X164085714Y-78478628D01*
X164085714Y-78478628D02*
X164038095Y-78573866D01*
X164038095Y-78573866D02*
X164038095Y-78764342D01*
X164038095Y-78764342D02*
X164085714Y-78859580D01*
X164085714Y-78859580D02*
X164133333Y-78907200D01*
X164133333Y-78907200D02*
X164228571Y-78954819D01*
X164228571Y-78954819D02*
X164419047Y-78954819D01*
X164419047Y-78954819D02*
X164514285Y-78907200D01*
X164514285Y-78907200D02*
X164561904Y-78859580D01*
X164561904Y-78859580D02*
X164609523Y-78764342D01*
X164609523Y-78764342D02*
X164609523Y-78573866D01*
X164609523Y-78573866D02*
X164561904Y-78478628D01*
X164561904Y-78478628D02*
X164514285Y-78431009D01*
X164514285Y-78431009D02*
X164419047Y-78383390D01*
X130833333Y-71429580D02*
X130785714Y-71477200D01*
X130785714Y-71477200D02*
X130642857Y-71524819D01*
X130642857Y-71524819D02*
X130547619Y-71524819D01*
X130547619Y-71524819D02*
X130404762Y-71477200D01*
X130404762Y-71477200D02*
X130309524Y-71381961D01*
X130309524Y-71381961D02*
X130261905Y-71286723D01*
X130261905Y-71286723D02*
X130214286Y-71096247D01*
X130214286Y-71096247D02*
X130214286Y-70953390D01*
X130214286Y-70953390D02*
X130261905Y-70762914D01*
X130261905Y-70762914D02*
X130309524Y-70667676D01*
X130309524Y-70667676D02*
X130404762Y-70572438D01*
X130404762Y-70572438D02*
X130547619Y-70524819D01*
X130547619Y-70524819D02*
X130642857Y-70524819D01*
X130642857Y-70524819D02*
X130785714Y-70572438D01*
X130785714Y-70572438D02*
X130833333Y-70620057D01*
X131785714Y-71524819D02*
X131214286Y-71524819D01*
X131500000Y-71524819D02*
X131500000Y-70524819D01*
X131500000Y-70524819D02*
X131404762Y-70667676D01*
X131404762Y-70667676D02*
X131309524Y-70762914D01*
X131309524Y-70762914D02*
X131214286Y-70810533D01*
X126564369Y-54755227D02*
X126469131Y-54707608D01*
X126469131Y-54707608D02*
X126373893Y-54612370D01*
X126373893Y-54612370D02*
X126231036Y-54469512D01*
X126231036Y-54469512D02*
X126135798Y-54421893D01*
X126135798Y-54421893D02*
X126040560Y-54421893D01*
X126088179Y-54659989D02*
X125992941Y-54612370D01*
X125992941Y-54612370D02*
X125897703Y-54517131D01*
X125897703Y-54517131D02*
X125850084Y-54326655D01*
X125850084Y-54326655D02*
X125850084Y-53993322D01*
X125850084Y-53993322D02*
X125897703Y-53802846D01*
X125897703Y-53802846D02*
X125992941Y-53707608D01*
X125992941Y-53707608D02*
X126088179Y-53659989D01*
X126088179Y-53659989D02*
X126278655Y-53659989D01*
X126278655Y-53659989D02*
X126373893Y-53707608D01*
X126373893Y-53707608D02*
X126469131Y-53802846D01*
X126469131Y-53802846D02*
X126516750Y-53993322D01*
X126516750Y-53993322D02*
X126516750Y-54326655D01*
X126516750Y-54326655D02*
X126469131Y-54517131D01*
X126469131Y-54517131D02*
X126373893Y-54612370D01*
X126373893Y-54612370D02*
X126278655Y-54659989D01*
X126278655Y-54659989D02*
X126088179Y-54659989D01*
X127373893Y-53659989D02*
X127183417Y-53659989D01*
X127183417Y-53659989D02*
X127088179Y-53707608D01*
X127088179Y-53707608D02*
X127040560Y-53755227D01*
X127040560Y-53755227D02*
X126945322Y-53898084D01*
X126945322Y-53898084D02*
X126897703Y-54088560D01*
X126897703Y-54088560D02*
X126897703Y-54469512D01*
X126897703Y-54469512D02*
X126945322Y-54564750D01*
X126945322Y-54564750D02*
X126992941Y-54612370D01*
X126992941Y-54612370D02*
X127088179Y-54659989D01*
X127088179Y-54659989D02*
X127278655Y-54659989D01*
X127278655Y-54659989D02*
X127373893Y-54612370D01*
X127373893Y-54612370D02*
X127421512Y-54564750D01*
X127421512Y-54564750D02*
X127469131Y-54469512D01*
X127469131Y-54469512D02*
X127469131Y-54231417D01*
X127469131Y-54231417D02*
X127421512Y-54136179D01*
X127421512Y-54136179D02*
X127373893Y-54088560D01*
X127373893Y-54088560D02*
X127278655Y-54040941D01*
X127278655Y-54040941D02*
X127088179Y-54040941D01*
X127088179Y-54040941D02*
X126992941Y-54088560D01*
X126992941Y-54088560D02*
X126945322Y-54136179D01*
X126945322Y-54136179D02*
X126897703Y-54231417D01*
X162054819Y-70761904D02*
X162864342Y-70761904D01*
X162864342Y-70761904D02*
X162959580Y-70714285D01*
X162959580Y-70714285D02*
X163007200Y-70666666D01*
X163007200Y-70666666D02*
X163054819Y-70571428D01*
X163054819Y-70571428D02*
X163054819Y-70380952D01*
X163054819Y-70380952D02*
X163007200Y-70285714D01*
X163007200Y-70285714D02*
X162959580Y-70238095D01*
X162959580Y-70238095D02*
X162864342Y-70190476D01*
X162864342Y-70190476D02*
X162054819Y-70190476D01*
X162054819Y-69285714D02*
X162054819Y-69476190D01*
X162054819Y-69476190D02*
X162102438Y-69571428D01*
X162102438Y-69571428D02*
X162150057Y-69619047D01*
X162150057Y-69619047D02*
X162292914Y-69714285D01*
X162292914Y-69714285D02*
X162483390Y-69761904D01*
X162483390Y-69761904D02*
X162864342Y-69761904D01*
X162864342Y-69761904D02*
X162959580Y-69714285D01*
X162959580Y-69714285D02*
X163007200Y-69666666D01*
X163007200Y-69666666D02*
X163054819Y-69571428D01*
X163054819Y-69571428D02*
X163054819Y-69380952D01*
X163054819Y-69380952D02*
X163007200Y-69285714D01*
X163007200Y-69285714D02*
X162959580Y-69238095D01*
X162959580Y-69238095D02*
X162864342Y-69190476D01*
X162864342Y-69190476D02*
X162626247Y-69190476D01*
X162626247Y-69190476D02*
X162531009Y-69238095D01*
X162531009Y-69238095D02*
X162483390Y-69285714D01*
X162483390Y-69285714D02*
X162435771Y-69380952D01*
X162435771Y-69380952D02*
X162435771Y-69571428D01*
X162435771Y-69571428D02*
X162483390Y-69666666D01*
X162483390Y-69666666D02*
X162531009Y-69714285D01*
X162531009Y-69714285D02*
X162626247Y-69761904D01*
X129957142Y-97954819D02*
X129623809Y-97478628D01*
X129385714Y-97954819D02*
X129385714Y-96954819D01*
X129385714Y-96954819D02*
X129766666Y-96954819D01*
X129766666Y-96954819D02*
X129861904Y-97002438D01*
X129861904Y-97002438D02*
X129909523Y-97050057D01*
X129909523Y-97050057D02*
X129957142Y-97145295D01*
X129957142Y-97145295D02*
X129957142Y-97288152D01*
X129957142Y-97288152D02*
X129909523Y-97383390D01*
X129909523Y-97383390D02*
X129861904Y-97431009D01*
X129861904Y-97431009D02*
X129766666Y-97478628D01*
X129766666Y-97478628D02*
X129385714Y-97478628D01*
X130338095Y-97050057D02*
X130385714Y-97002438D01*
X130385714Y-97002438D02*
X130480952Y-96954819D01*
X130480952Y-96954819D02*
X130719047Y-96954819D01*
X130719047Y-96954819D02*
X130814285Y-97002438D01*
X130814285Y-97002438D02*
X130861904Y-97050057D01*
X130861904Y-97050057D02*
X130909523Y-97145295D01*
X130909523Y-97145295D02*
X130909523Y-97240533D01*
X130909523Y-97240533D02*
X130861904Y-97383390D01*
X130861904Y-97383390D02*
X130290476Y-97954819D01*
X130290476Y-97954819D02*
X130909523Y-97954819D01*
X131480952Y-97383390D02*
X131385714Y-97335771D01*
X131385714Y-97335771D02*
X131338095Y-97288152D01*
X131338095Y-97288152D02*
X131290476Y-97192914D01*
X131290476Y-97192914D02*
X131290476Y-97145295D01*
X131290476Y-97145295D02*
X131338095Y-97050057D01*
X131338095Y-97050057D02*
X131385714Y-97002438D01*
X131385714Y-97002438D02*
X131480952Y-96954819D01*
X131480952Y-96954819D02*
X131671428Y-96954819D01*
X131671428Y-96954819D02*
X131766666Y-97002438D01*
X131766666Y-97002438D02*
X131814285Y-97050057D01*
X131814285Y-97050057D02*
X131861904Y-97145295D01*
X131861904Y-97145295D02*
X131861904Y-97192914D01*
X131861904Y-97192914D02*
X131814285Y-97288152D01*
X131814285Y-97288152D02*
X131766666Y-97335771D01*
X131766666Y-97335771D02*
X131671428Y-97383390D01*
X131671428Y-97383390D02*
X131480952Y-97383390D01*
X131480952Y-97383390D02*
X131385714Y-97431009D01*
X131385714Y-97431009D02*
X131338095Y-97478628D01*
X131338095Y-97478628D02*
X131290476Y-97573866D01*
X131290476Y-97573866D02*
X131290476Y-97764342D01*
X131290476Y-97764342D02*
X131338095Y-97859580D01*
X131338095Y-97859580D02*
X131385714Y-97907200D01*
X131385714Y-97907200D02*
X131480952Y-97954819D01*
X131480952Y-97954819D02*
X131671428Y-97954819D01*
X131671428Y-97954819D02*
X131766666Y-97907200D01*
X131766666Y-97907200D02*
X131814285Y-97859580D01*
X131814285Y-97859580D02*
X131861904Y-97764342D01*
X131861904Y-97764342D02*
X131861904Y-97573866D01*
X131861904Y-97573866D02*
X131814285Y-97478628D01*
X131814285Y-97478628D02*
X131766666Y-97431009D01*
X131766666Y-97431009D02*
X131671428Y-97383390D01*
X135833333Y-49324819D02*
X135500000Y-48848628D01*
X135261905Y-49324819D02*
X135261905Y-48324819D01*
X135261905Y-48324819D02*
X135642857Y-48324819D01*
X135642857Y-48324819D02*
X135738095Y-48372438D01*
X135738095Y-48372438D02*
X135785714Y-48420057D01*
X135785714Y-48420057D02*
X135833333Y-48515295D01*
X135833333Y-48515295D02*
X135833333Y-48658152D01*
X135833333Y-48658152D02*
X135785714Y-48753390D01*
X135785714Y-48753390D02*
X135738095Y-48801009D01*
X135738095Y-48801009D02*
X135642857Y-48848628D01*
X135642857Y-48848628D02*
X135261905Y-48848628D01*
X136404762Y-48753390D02*
X136309524Y-48705771D01*
X136309524Y-48705771D02*
X136261905Y-48658152D01*
X136261905Y-48658152D02*
X136214286Y-48562914D01*
X136214286Y-48562914D02*
X136214286Y-48515295D01*
X136214286Y-48515295D02*
X136261905Y-48420057D01*
X136261905Y-48420057D02*
X136309524Y-48372438D01*
X136309524Y-48372438D02*
X136404762Y-48324819D01*
X136404762Y-48324819D02*
X136595238Y-48324819D01*
X136595238Y-48324819D02*
X136690476Y-48372438D01*
X136690476Y-48372438D02*
X136738095Y-48420057D01*
X136738095Y-48420057D02*
X136785714Y-48515295D01*
X136785714Y-48515295D02*
X136785714Y-48562914D01*
X136785714Y-48562914D02*
X136738095Y-48658152D01*
X136738095Y-48658152D02*
X136690476Y-48705771D01*
X136690476Y-48705771D02*
X136595238Y-48753390D01*
X136595238Y-48753390D02*
X136404762Y-48753390D01*
X136404762Y-48753390D02*
X136309524Y-48801009D01*
X136309524Y-48801009D02*
X136261905Y-48848628D01*
X136261905Y-48848628D02*
X136214286Y-48943866D01*
X136214286Y-48943866D02*
X136214286Y-49134342D01*
X136214286Y-49134342D02*
X136261905Y-49229580D01*
X136261905Y-49229580D02*
X136309524Y-49277200D01*
X136309524Y-49277200D02*
X136404762Y-49324819D01*
X136404762Y-49324819D02*
X136595238Y-49324819D01*
X136595238Y-49324819D02*
X136690476Y-49277200D01*
X136690476Y-49277200D02*
X136738095Y-49229580D01*
X136738095Y-49229580D02*
X136785714Y-49134342D01*
X136785714Y-49134342D02*
X136785714Y-48943866D01*
X136785714Y-48943866D02*
X136738095Y-48848628D01*
X136738095Y-48848628D02*
X136690476Y-48801009D01*
X136690476Y-48801009D02*
X136595238Y-48753390D01*
X135557142Y-54954819D02*
X135223809Y-54478628D01*
X134985714Y-54954819D02*
X134985714Y-53954819D01*
X134985714Y-53954819D02*
X135366666Y-53954819D01*
X135366666Y-53954819D02*
X135461904Y-54002438D01*
X135461904Y-54002438D02*
X135509523Y-54050057D01*
X135509523Y-54050057D02*
X135557142Y-54145295D01*
X135557142Y-54145295D02*
X135557142Y-54288152D01*
X135557142Y-54288152D02*
X135509523Y-54383390D01*
X135509523Y-54383390D02*
X135461904Y-54431009D01*
X135461904Y-54431009D02*
X135366666Y-54478628D01*
X135366666Y-54478628D02*
X134985714Y-54478628D01*
X136509523Y-54954819D02*
X135938095Y-54954819D01*
X136223809Y-54954819D02*
X136223809Y-53954819D01*
X136223809Y-53954819D02*
X136128571Y-54097676D01*
X136128571Y-54097676D02*
X136033333Y-54192914D01*
X136033333Y-54192914D02*
X135938095Y-54240533D01*
X137128571Y-53954819D02*
X137223809Y-53954819D01*
X137223809Y-53954819D02*
X137319047Y-54002438D01*
X137319047Y-54002438D02*
X137366666Y-54050057D01*
X137366666Y-54050057D02*
X137414285Y-54145295D01*
X137414285Y-54145295D02*
X137461904Y-54335771D01*
X137461904Y-54335771D02*
X137461904Y-54573866D01*
X137461904Y-54573866D02*
X137414285Y-54764342D01*
X137414285Y-54764342D02*
X137366666Y-54859580D01*
X137366666Y-54859580D02*
X137319047Y-54907200D01*
X137319047Y-54907200D02*
X137223809Y-54954819D01*
X137223809Y-54954819D02*
X137128571Y-54954819D01*
X137128571Y-54954819D02*
X137033333Y-54907200D01*
X137033333Y-54907200D02*
X136985714Y-54859580D01*
X136985714Y-54859580D02*
X136938095Y-54764342D01*
X136938095Y-54764342D02*
X136890476Y-54573866D01*
X136890476Y-54573866D02*
X136890476Y-54335771D01*
X136890476Y-54335771D02*
X136938095Y-54145295D01*
X136938095Y-54145295D02*
X136985714Y-54050057D01*
X136985714Y-54050057D02*
X137033333Y-54002438D01*
X137033333Y-54002438D02*
X137128571Y-53954819D01*
X139057142Y-73124819D02*
X138723809Y-72648628D01*
X138485714Y-73124819D02*
X138485714Y-72124819D01*
X138485714Y-72124819D02*
X138866666Y-72124819D01*
X138866666Y-72124819D02*
X138961904Y-72172438D01*
X138961904Y-72172438D02*
X139009523Y-72220057D01*
X139009523Y-72220057D02*
X139057142Y-72315295D01*
X139057142Y-72315295D02*
X139057142Y-72458152D01*
X139057142Y-72458152D02*
X139009523Y-72553390D01*
X139009523Y-72553390D02*
X138961904Y-72601009D01*
X138961904Y-72601009D02*
X138866666Y-72648628D01*
X138866666Y-72648628D02*
X138485714Y-72648628D01*
X139390476Y-72124819D02*
X140009523Y-72124819D01*
X140009523Y-72124819D02*
X139676190Y-72505771D01*
X139676190Y-72505771D02*
X139819047Y-72505771D01*
X139819047Y-72505771D02*
X139914285Y-72553390D01*
X139914285Y-72553390D02*
X139961904Y-72601009D01*
X139961904Y-72601009D02*
X140009523Y-72696247D01*
X140009523Y-72696247D02*
X140009523Y-72934342D01*
X140009523Y-72934342D02*
X139961904Y-73029580D01*
X139961904Y-73029580D02*
X139914285Y-73077200D01*
X139914285Y-73077200D02*
X139819047Y-73124819D01*
X139819047Y-73124819D02*
X139533333Y-73124819D01*
X139533333Y-73124819D02*
X139438095Y-73077200D01*
X139438095Y-73077200D02*
X139390476Y-73029580D01*
X140628571Y-72124819D02*
X140723809Y-72124819D01*
X140723809Y-72124819D02*
X140819047Y-72172438D01*
X140819047Y-72172438D02*
X140866666Y-72220057D01*
X140866666Y-72220057D02*
X140914285Y-72315295D01*
X140914285Y-72315295D02*
X140961904Y-72505771D01*
X140961904Y-72505771D02*
X140961904Y-72743866D01*
X140961904Y-72743866D02*
X140914285Y-72934342D01*
X140914285Y-72934342D02*
X140866666Y-73029580D01*
X140866666Y-73029580D02*
X140819047Y-73077200D01*
X140819047Y-73077200D02*
X140723809Y-73124819D01*
X140723809Y-73124819D02*
X140628571Y-73124819D01*
X140628571Y-73124819D02*
X140533333Y-73077200D01*
X140533333Y-73077200D02*
X140485714Y-73029580D01*
X140485714Y-73029580D02*
X140438095Y-72934342D01*
X140438095Y-72934342D02*
X140390476Y-72743866D01*
X140390476Y-72743866D02*
X140390476Y-72505771D01*
X140390476Y-72505771D02*
X140438095Y-72315295D01*
X140438095Y-72315295D02*
X140485714Y-72220057D01*
X140485714Y-72220057D02*
X140533333Y-72172438D01*
X140533333Y-72172438D02*
X140628571Y-72124819D01*
X143049450Y-65270985D02*
X142716117Y-64794794D01*
X142478022Y-65270985D02*
X142478022Y-64270985D01*
X142478022Y-64270985D02*
X142858974Y-64270985D01*
X142858974Y-64270985D02*
X142954212Y-64318604D01*
X142954212Y-64318604D02*
X143001831Y-64366223D01*
X143001831Y-64366223D02*
X143049450Y-64461461D01*
X143049450Y-64461461D02*
X143049450Y-64604318D01*
X143049450Y-64604318D02*
X143001831Y-64699556D01*
X143001831Y-64699556D02*
X142954212Y-64747175D01*
X142954212Y-64747175D02*
X142858974Y-64794794D01*
X142858974Y-64794794D02*
X142478022Y-64794794D01*
X144001831Y-65270985D02*
X143430403Y-65270985D01*
X143716117Y-65270985D02*
X143716117Y-64270985D01*
X143716117Y-64270985D02*
X143620879Y-64413842D01*
X143620879Y-64413842D02*
X143525641Y-64509080D01*
X143525641Y-64509080D02*
X143430403Y-64556699D01*
X144335165Y-64270985D02*
X144954212Y-64270985D01*
X144954212Y-64270985D02*
X144620879Y-64651937D01*
X144620879Y-64651937D02*
X144763736Y-64651937D01*
X144763736Y-64651937D02*
X144858974Y-64699556D01*
X144858974Y-64699556D02*
X144906593Y-64747175D01*
X144906593Y-64747175D02*
X144954212Y-64842413D01*
X144954212Y-64842413D02*
X144954212Y-65080508D01*
X144954212Y-65080508D02*
X144906593Y-65175746D01*
X144906593Y-65175746D02*
X144858974Y-65223366D01*
X144858974Y-65223366D02*
X144763736Y-65270985D01*
X144763736Y-65270985D02*
X144478022Y-65270985D01*
X144478022Y-65270985D02*
X144382784Y-65223366D01*
X144382784Y-65223366D02*
X144335165Y-65175746D01*
X158457142Y-48854819D02*
X158123809Y-48378628D01*
X157885714Y-48854819D02*
X157885714Y-47854819D01*
X157885714Y-47854819D02*
X158266666Y-47854819D01*
X158266666Y-47854819D02*
X158361904Y-47902438D01*
X158361904Y-47902438D02*
X158409523Y-47950057D01*
X158409523Y-47950057D02*
X158457142Y-48045295D01*
X158457142Y-48045295D02*
X158457142Y-48188152D01*
X158457142Y-48188152D02*
X158409523Y-48283390D01*
X158409523Y-48283390D02*
X158361904Y-48331009D01*
X158361904Y-48331009D02*
X158266666Y-48378628D01*
X158266666Y-48378628D02*
X157885714Y-48378628D01*
X158790476Y-47854819D02*
X159409523Y-47854819D01*
X159409523Y-47854819D02*
X159076190Y-48235771D01*
X159076190Y-48235771D02*
X159219047Y-48235771D01*
X159219047Y-48235771D02*
X159314285Y-48283390D01*
X159314285Y-48283390D02*
X159361904Y-48331009D01*
X159361904Y-48331009D02*
X159409523Y-48426247D01*
X159409523Y-48426247D02*
X159409523Y-48664342D01*
X159409523Y-48664342D02*
X159361904Y-48759580D01*
X159361904Y-48759580D02*
X159314285Y-48807200D01*
X159314285Y-48807200D02*
X159219047Y-48854819D01*
X159219047Y-48854819D02*
X158933333Y-48854819D01*
X158933333Y-48854819D02*
X158838095Y-48807200D01*
X158838095Y-48807200D02*
X158790476Y-48759580D01*
X160314285Y-47854819D02*
X159838095Y-47854819D01*
X159838095Y-47854819D02*
X159790476Y-48331009D01*
X159790476Y-48331009D02*
X159838095Y-48283390D01*
X159838095Y-48283390D02*
X159933333Y-48235771D01*
X159933333Y-48235771D02*
X160171428Y-48235771D01*
X160171428Y-48235771D02*
X160266666Y-48283390D01*
X160266666Y-48283390D02*
X160314285Y-48331009D01*
X160314285Y-48331009D02*
X160361904Y-48426247D01*
X160361904Y-48426247D02*
X160361904Y-48664342D01*
X160361904Y-48664342D02*
X160314285Y-48759580D01*
X160314285Y-48759580D02*
X160266666Y-48807200D01*
X160266666Y-48807200D02*
X160171428Y-48854819D01*
X160171428Y-48854819D02*
X159933333Y-48854819D01*
X159933333Y-48854819D02*
X159838095Y-48807200D01*
X159838095Y-48807200D02*
X159790476Y-48759580D01*
X138638095Y-77954819D02*
X139209523Y-77954819D01*
X138923809Y-78954819D02*
X138923809Y-77954819D01*
X139495238Y-78050057D02*
X139542857Y-78002438D01*
X139542857Y-78002438D02*
X139638095Y-77954819D01*
X139638095Y-77954819D02*
X139876190Y-77954819D01*
X139876190Y-77954819D02*
X139971428Y-78002438D01*
X139971428Y-78002438D02*
X140019047Y-78050057D01*
X140019047Y-78050057D02*
X140066666Y-78145295D01*
X140066666Y-78145295D02*
X140066666Y-78240533D01*
X140066666Y-78240533D02*
X140019047Y-78383390D01*
X140019047Y-78383390D02*
X139447619Y-78954819D01*
X139447619Y-78954819D02*
X140066666Y-78954819D01*
X150479594Y-61412432D02*
X150384356Y-61364813D01*
X150384356Y-61364813D02*
X150289118Y-61269575D01*
X150289118Y-61269575D02*
X150146261Y-61126717D01*
X150146261Y-61126717D02*
X150051023Y-61079098D01*
X150051023Y-61079098D02*
X149955785Y-61079098D01*
X150003404Y-61317194D02*
X149908166Y-61269575D01*
X149908166Y-61269575D02*
X149812928Y-61174336D01*
X149812928Y-61174336D02*
X149765309Y-60983860D01*
X149765309Y-60983860D02*
X149765309Y-60650527D01*
X149765309Y-60650527D02*
X149812928Y-60460051D01*
X149812928Y-60460051D02*
X149908166Y-60364813D01*
X149908166Y-60364813D02*
X150003404Y-60317194D01*
X150003404Y-60317194D02*
X150193880Y-60317194D01*
X150193880Y-60317194D02*
X150289118Y-60364813D01*
X150289118Y-60364813D02*
X150384356Y-60460051D01*
X150384356Y-60460051D02*
X150431975Y-60650527D01*
X150431975Y-60650527D02*
X150431975Y-60983860D01*
X150431975Y-60983860D02*
X150384356Y-61174336D01*
X150384356Y-61174336D02*
X150289118Y-61269575D01*
X150289118Y-61269575D02*
X150193880Y-61317194D01*
X150193880Y-61317194D02*
X150003404Y-61317194D01*
X150812928Y-60412432D02*
X150860547Y-60364813D01*
X150860547Y-60364813D02*
X150955785Y-60317194D01*
X150955785Y-60317194D02*
X151193880Y-60317194D01*
X151193880Y-60317194D02*
X151289118Y-60364813D01*
X151289118Y-60364813D02*
X151336737Y-60412432D01*
X151336737Y-60412432D02*
X151384356Y-60507670D01*
X151384356Y-60507670D02*
X151384356Y-60602908D01*
X151384356Y-60602908D02*
X151336737Y-60745765D01*
X151336737Y-60745765D02*
X150765309Y-61317194D01*
X150765309Y-61317194D02*
X151384356Y-61317194D01*
D12*
%TO.C,R20*%
X161137258Y-80677500D02*
X160662742Y-80677500D01*
X161137258Y-81722500D02*
X160662742Y-81722500D01*
%TO.C,Q3*%
X154812500Y-61690000D02*
X154162500Y-61690000D01*
X154812500Y-61690000D02*
X155462500Y-61690000D01*
X154812500Y-64810000D02*
X154162500Y-64810000D01*
X154812500Y-64810000D02*
X156487500Y-64810000D01*
D13*
%TO.C,SW1*%
X155399848Y-107839294D02*
X155399848Y-106915494D01*
X158699873Y-110227432D02*
X158699873Y-108727356D01*
X158791770Y-106027432D02*
X157108026Y-106027432D01*
X159999949Y-108727356D02*
X159999949Y-110227432D01*
X159999949Y-110227432D02*
X158699873Y-110227432D01*
X160291770Y-106027432D02*
X160107976Y-106027432D01*
X161899873Y-108727356D02*
X155499873Y-108727356D01*
X161999898Y-107839294D02*
X161999898Y-106915494D01*
D14*
X154877343Y-105015926D02*
G75*
G02*
X154817349Y-105015926I-29997J0D01*
G01*
X154817349Y-105015926D02*
G75*
G02*
X154877343Y-105015926I29997J0D01*
G01*
D12*
%TO.C,R4*%
X152162258Y-70877500D02*
X151687742Y-70877500D01*
X152162258Y-71922500D02*
X151687742Y-71922500D01*
%TO.C,R2*%
X146987258Y-68727500D02*
X146512742Y-68727500D01*
X146987258Y-69772500D02*
X146512742Y-69772500D01*
%TO.C,R15*%
X146987258Y-62727500D02*
X146512742Y-62727500D01*
X146987258Y-63772500D02*
X146512742Y-63772500D01*
D15*
%TO.C,U9*%
X160460999Y-63049174D02*
X160760948Y-62749225D01*
X160460999Y-63149327D02*
X160460999Y-63049174D01*
X160460999Y-63149327D02*
X160460999Y-63849276D01*
X160460999Y-63849276D02*
X160460999Y-63949301D01*
X160460999Y-63949301D02*
X160760948Y-64249352D01*
X161811062Y-62749225D02*
X160760948Y-62749225D01*
X161811062Y-64249352D02*
X160760948Y-64249352D01*
X162161075Y-63827025D02*
X161831027Y-63496977D01*
X162171032Y-63146990D02*
X162171032Y-63156972D01*
X162171032Y-63146990D02*
X162171032Y-63827025D01*
X162171032Y-63156972D02*
X161831027Y-63496977D01*
X162171032Y-63496977D02*
X161831027Y-63496977D01*
X162171032Y-63827025D02*
X162161075Y-63827025D01*
X162191072Y-62746914D02*
X163341085Y-62746914D01*
X162191072Y-64247041D02*
X163341085Y-64247041D01*
X163341085Y-62747015D02*
X163341085Y-64226949D01*
D14*
X161181039Y-63906909D02*
G75*
G02*
X161121095Y-63906909I-29972J0D01*
G01*
X161121095Y-63906909D02*
G75*
G02*
X161181039Y-63906909I29972J0D01*
G01*
D12*
%TO.C,C2*%
X158890000Y-89440580D02*
X158890000Y-89159420D01*
X159910000Y-89440580D02*
X159910000Y-89159420D01*
%TO.C,R34*%
X131137258Y-98377500D02*
X130662742Y-98377500D01*
X131137258Y-99422500D02*
X130662742Y-99422500D01*
%TO.C,R9*%
X135062742Y-52077500D02*
X135537258Y-52077500D01*
X135062742Y-53122500D02*
X135537258Y-53122500D01*
D13*
%TO.C,LED1*%
X140800076Y-50499924D02*
X140800076Y-49499924D01*
X140844399Y-57527407D02*
X140844399Y-58399924D01*
X145155601Y-50472593D02*
X145155601Y-49499924D01*
X145199924Y-57500076D02*
X145199924Y-58399924D01*
X140844399Y-57527407D02*
G75*
G02*
X140800075Y-50499923I2155678J3527478D01*
G01*
X145155601Y-50472593D02*
G75*
G02*
X145199925Y-57500077I-2155678J-3527478D01*
G01*
D14*
X138900178Y-46750064D02*
G75*
G02*
X138840234Y-46750064I-29972J0D01*
G01*
X138840234Y-46750064D02*
G75*
G02*
X138900178Y-46750064I29972J0D01*
G01*
D16*
X140100076Y-48400051D02*
G75*
G02*
X139700280Y-48400051I-199898J0D01*
G01*
X139700280Y-48400051D02*
G75*
G02*
X140100076Y-48400051I199898J0D01*
G01*
D12*
%TO.C,R22*%
X165437742Y-65477500D02*
X165912258Y-65477500D01*
X165437742Y-66522500D02*
X165912258Y-66522500D01*
D13*
%TO.C,T1*%
X131749835Y-69068402D02*
X131749835Y-66731598D01*
X132129845Y-66244907D02*
X133024917Y-65349835D01*
X132499136Y-67000838D02*
X133499898Y-66000076D01*
X132499136Y-68799162D02*
X132499136Y-67000838D01*
X133024917Y-70450165D02*
X132129845Y-69555093D01*
X133400838Y-69700864D02*
X132499136Y-68799162D01*
X133499898Y-66000076D02*
X135199162Y-66000076D01*
X135199162Y-66000076D02*
X136100864Y-66901778D01*
X135300762Y-69700864D02*
X133400838Y-69700864D01*
X135575083Y-65349835D02*
X133024917Y-65349835D01*
X135575083Y-70450165D02*
X133024917Y-70450165D01*
X135575083Y-70450165D02*
X136470155Y-69555093D01*
X136100864Y-66901778D02*
X136100864Y-68900762D01*
X136100864Y-68900762D02*
X135300762Y-69700864D01*
X136470155Y-66244907D02*
X135575083Y-65349835D01*
X136850165Y-69068402D02*
X136850165Y-66731598D01*
X135575083Y-67900000D02*
G75*
G02*
X133024917Y-67900000I-1275083J0D01*
G01*
X133024917Y-67900000D02*
G75*
G02*
X135575083Y-67900000I1275083J0D01*
G01*
D14*
X137579908Y-70449911D02*
G75*
G02*
X137519964Y-70449911I-29972J0D01*
G01*
X137519964Y-70449911D02*
G75*
G02*
X137579908Y-70449911I29972J0D01*
G01*
D12*
%TO.C,R31*%
X127262742Y-68177500D02*
X127737258Y-68177500D01*
X127262742Y-69222500D02*
X127737258Y-69222500D01*
D17*
%TO.C,C5*%
X145798755Y-76273762D02*
X152464973Y-76273762D01*
X145798755Y-79717602D02*
X145798755Y-76273762D01*
X145798755Y-81282398D02*
X145798755Y-84726238D01*
X145798755Y-84726238D02*
X152464973Y-84726238D01*
X152464973Y-76273762D02*
X154201245Y-78010033D01*
X152464973Y-84726238D02*
X154201245Y-82989967D01*
X154201245Y-78010033D02*
X154201245Y-79717602D01*
X154201245Y-82989967D02*
X154201245Y-81282398D01*
D14*
X154554483Y-76349886D02*
G75*
G02*
X154494539Y-76349886I-29972J0D01*
G01*
X154494539Y-76349886D02*
G75*
G02*
X154554483Y-76349886I29972J0D01*
G01*
D12*
%TO.C,C3*%
X160759420Y-83190000D02*
X161040580Y-83190000D01*
X160759420Y-84210000D02*
X161040580Y-84210000D01*
%TO.C,R14*%
X147662742Y-70877500D02*
X148137258Y-70877500D01*
X147662742Y-71922500D02*
X148137258Y-71922500D01*
%TO.C,J2*%
X166230000Y-83070000D02*
X166230000Y-95830000D01*
X166230000Y-80470000D02*
X166230000Y-81800000D01*
X164900000Y-80470000D02*
X166230000Y-80470000D01*
X163570000Y-95830000D02*
X166230000Y-95830000D01*
X163570000Y-83070000D02*
X166230000Y-83070000D01*
X163570000Y-83070000D02*
X163570000Y-95830000D01*
%TO.C,Q4*%
X129200000Y-45540000D02*
X127525000Y-45540000D01*
X129200000Y-45540000D02*
X129850000Y-45540000D01*
X129200000Y-48660000D02*
X128550000Y-48660000D01*
X129200000Y-48660000D02*
X129850000Y-48660000D01*
%TO.C,R19*%
X149477500Y-74537258D02*
X149477500Y-74062742D01*
X150522500Y-74537258D02*
X150522500Y-74062742D01*
%TO.C,R6*%
X155262258Y-66677500D02*
X154787742Y-66677500D01*
X155262258Y-67722500D02*
X154787742Y-67722500D01*
%TO.C,C11*%
X127390000Y-92540580D02*
X127390000Y-92259420D01*
X128410000Y-92540580D02*
X128410000Y-92259420D01*
D13*
%TO.C,USB1*%
X162796393Y-51638430D02*
X162796723Y-51555956D01*
X162810465Y-48093701D02*
X162810719Y-48025857D01*
X163193675Y-46034849D02*
X164984506Y-46034849D01*
X163193675Y-46551054D02*
X163193675Y-46034849D01*
X163193675Y-53570307D02*
X163193675Y-53098552D01*
X164778842Y-53557556D02*
X164604267Y-53556718D01*
X164779197Y-53559842D02*
X164571425Y-53556134D01*
X164977165Y-53570307D02*
X163193675Y-53570307D01*
X167215494Y-46034849D02*
X167807976Y-46034849D01*
X167818923Y-53570307D02*
X167222835Y-53570307D01*
X168218669Y-46424841D02*
X168693675Y-45894844D01*
X168218669Y-46724841D02*
X168218669Y-46424841D01*
X168218669Y-52824841D02*
X168218669Y-46724841D01*
X168218669Y-52824841D02*
X168238659Y-53274828D01*
X168218669Y-52824841D02*
X168718669Y-52824841D01*
X168238659Y-53274828D02*
X168733680Y-53694844D01*
X168693675Y-45894844D02*
X167807976Y-46024841D01*
X168718669Y-52824841D02*
X168748666Y-46734849D01*
X168733680Y-53694844D02*
X167818923Y-53570307D01*
X168748666Y-46734849D02*
X168218669Y-46724841D01*
D14*
X162767767Y-53794869D02*
G75*
G02*
X162707823Y-53794869I-29972J0D01*
G01*
X162707823Y-53794869D02*
G75*
G02*
X162767767Y-53794869I29972J0D01*
G01*
D12*
%TO.C,C8*%
X165890000Y-73640580D02*
X165890000Y-73359420D01*
X166910000Y-73640580D02*
X166910000Y-73359420D01*
%TO.C,Q5*%
X129400000Y-49040000D02*
X127725000Y-49040000D01*
X129400000Y-49040000D02*
X130050000Y-49040000D01*
X129400000Y-52160000D02*
X128750000Y-52160000D01*
X129400000Y-52160000D02*
X130050000Y-52160000D01*
D15*
%TO.C,U10*%
X156309500Y-61756515D02*
X156309500Y-60276530D01*
X157459563Y-60256439D02*
X156309500Y-60256439D01*
X157459563Y-61756566D02*
X156309500Y-61756566D01*
X157479604Y-60676505D02*
X157489510Y-60676505D01*
X157479604Y-61006528D02*
X157819609Y-61006528D01*
X157479604Y-61346533D02*
X157819609Y-61006528D01*
X157479604Y-61356541D02*
X157479604Y-60676505D01*
X157479604Y-61356541D02*
X157479604Y-61346533D01*
X157489510Y-60676505D02*
X157819609Y-61006528D01*
X157839573Y-60254153D02*
X158889688Y-60254153D01*
X157839573Y-61754280D02*
X158889688Y-61754280D01*
X159189637Y-60554229D02*
X158889688Y-60254153D01*
X159189637Y-60654255D02*
X159189637Y-60554229D01*
X159189637Y-61354178D02*
X159189637Y-60654255D01*
X159189637Y-61354178D02*
X159189637Y-61454331D01*
X159189637Y-61454331D02*
X158889688Y-61754280D01*
D14*
X158529439Y-60596571D02*
G75*
G02*
X158469495Y-60596571I-29972J0D01*
G01*
X158469495Y-60596571D02*
G75*
G02*
X158529439Y-60596571I29972J0D01*
G01*
D12*
%TO.C,Q1*%
X150500000Y-66590000D02*
X149850000Y-66590000D01*
X150500000Y-66590000D02*
X151150000Y-66590000D01*
X150500000Y-69710000D02*
X149850000Y-69710000D01*
X150500000Y-69710000D02*
X152175000Y-69710000D01*
%TO.C,R32*%
X131437258Y-101277500D02*
X130962742Y-101277500D01*
X131437258Y-102322500D02*
X130962742Y-102322500D01*
%TO.C,C12*%
X151890000Y-74440580D02*
X151890000Y-74159420D01*
X152910000Y-74440580D02*
X152910000Y-74159420D01*
D17*
%TO.C,U4*%
X157473787Y-93578588D02*
X162526213Y-93578588D01*
X157473787Y-96621412D02*
X157473787Y-93578588D01*
X162526213Y-93578588D02*
X162526213Y-96621412D01*
X162526213Y-96621412D02*
X157473787Y-96621412D01*
D18*
X157498603Y-97872416D02*
G75*
G02*
X157198375Y-97872416I-150114J0D01*
G01*
X157198375Y-97872416D02*
G75*
G02*
X157498603Y-97872416I150114J0D01*
G01*
D14*
X157579883Y-98100000D02*
G75*
G02*
X157519939Y-98100000I-29972J0D01*
G01*
X157519939Y-98100000D02*
G75*
G02*
X157579883Y-98100000I29972J0D01*
G01*
D18*
X158245110Y-95869114D02*
G75*
G02*
X157944882Y-95869114I-150114J0D01*
G01*
X157944882Y-95869114D02*
G75*
G02*
X158245110Y-95869114I150114J0D01*
G01*
D12*
%TO.C,R24*%
X146967500Y-74062742D02*
X146967500Y-74537258D01*
X148012500Y-74062742D02*
X148012500Y-74537258D01*
%TO.C,R7*%
X132562742Y-47477500D02*
X133037258Y-47477500D01*
X132562742Y-48522500D02*
X133037258Y-48522500D01*
%TO.C,R25*%
X155462742Y-97877500D02*
X155937258Y-97877500D01*
X155462742Y-98922500D02*
X155937258Y-98922500D01*
%TO.C,R36*%
X161337258Y-52877500D02*
X160862742Y-52877500D01*
X161337258Y-53922500D02*
X160862742Y-53922500D01*
%TO.C,R29*%
X127362742Y-101077500D02*
X127837258Y-101077500D01*
X127362742Y-102122500D02*
X127837258Y-102122500D01*
%TO.C,R33*%
X158037258Y-100477500D02*
X157562742Y-100477500D01*
X158037258Y-101522500D02*
X157562742Y-101522500D01*
%TO.C,R16*%
X128237742Y-62902500D02*
X128712258Y-62902500D01*
X128237742Y-63947500D02*
X128712258Y-63947500D01*
%TO.C,R27*%
X127577500Y-96137258D02*
X127577500Y-95662742D01*
X128622500Y-96137258D02*
X128622500Y-95662742D01*
%TO.C,R18*%
X128187742Y-59402500D02*
X128662258Y-59402500D01*
X128187742Y-60447500D02*
X128662258Y-60447500D01*
%TO.C,R11*%
X134437258Y-58377500D02*
X133962742Y-58377500D01*
X134437258Y-59422500D02*
X133962742Y-59422500D01*
D13*
%TO.C,MIC1*%
X127603048Y-105416002D02*
X128365050Y-105416002D01*
X132000000Y-105400000D02*
G75*
G02*
X126000000Y-105400000I-3000000J0D01*
G01*
X126000000Y-105400000D02*
G75*
G02*
X132000000Y-105400000I3000000J0D01*
G01*
D14*
X132029997Y-102399924D02*
G75*
G02*
X131970003Y-102399924I-29997J0D01*
G01*
X131970003Y-102399924D02*
G75*
G02*
X132029997Y-102399924I29997J0D01*
G01*
D12*
%TO.C,R1*%
X146987258Y-67227500D02*
X146512742Y-67227500D01*
X146987258Y-68272500D02*
X146512742Y-68272500D01*
%TO.C,C7*%
X162859420Y-101590000D02*
X163140580Y-101590000D01*
X162859420Y-102610000D02*
X163140580Y-102610000D01*
D13*
%TO.C,U3*%
X134882982Y-86360960D02*
X134882982Y-87208814D01*
X134882982Y-105081153D02*
X134882982Y-111888011D01*
X134899975Y-111900025D02*
X152900025Y-111900025D01*
X136233833Y-86360960D02*
X134882982Y-86360960D01*
X136602819Y-105860401D02*
X136602819Y-110745009D01*
X136602819Y-110745009D02*
X138838024Y-110745009D01*
X138634823Y-105860401D02*
X138634823Y-110745009D01*
X138634823Y-110745009D02*
X141486995Y-110745009D01*
X141486995Y-108586004D02*
X144027000Y-108586004D01*
X141486995Y-110745009D02*
X141486995Y-108586004D01*
X144027000Y-108586004D02*
X144027000Y-110745009D01*
X144027000Y-110745009D02*
X146567005Y-110745009D01*
X146567005Y-108586004D02*
X148853010Y-108586004D01*
X146567005Y-110745009D02*
X146567005Y-108586004D01*
X148853010Y-108586004D02*
X148853010Y-110745009D01*
X148853010Y-110745009D02*
X151139014Y-110745009D01*
X151139014Y-110745009D02*
X151139014Y-107062001D01*
X152900025Y-86360960D02*
X151566167Y-86360960D01*
X152900025Y-87208814D02*
X152900025Y-86360960D01*
X152900025Y-105860401D02*
X134882982Y-105860401D01*
X152900025Y-111900025D02*
X152900025Y-105081153D01*
D14*
X152929972Y-111899873D02*
G75*
G02*
X152870028Y-111899873I-29972J0D01*
G01*
X152870028Y-111899873D02*
G75*
G02*
X152929972Y-111899873I29972J0D01*
G01*
D13*
X154715596Y-105029921D02*
G75*
G02*
X153912446Y-105029921I-401575J0D01*
G01*
X153912446Y-105029921D02*
G75*
G02*
X154715596Y-105029921I401575J0D01*
G01*
D12*
%TO.C,C6*%
X161040580Y-79090000D02*
X160759420Y-79090000D01*
X161040580Y-80110000D02*
X160759420Y-80110000D01*
%TO.C,R3*%
X146987258Y-65727500D02*
X146512742Y-65727500D01*
X146987258Y-66772500D02*
X146512742Y-66772500D01*
%TO.C,R17*%
X128187742Y-61152500D02*
X128662258Y-61152500D01*
X128187742Y-62197500D02*
X128662258Y-62197500D01*
%TO.C,C4*%
X127759420Y-99390000D02*
X128040580Y-99390000D01*
X127759420Y-100410000D02*
X128040580Y-100410000D01*
%TO.C,R5*%
X155077500Y-59537258D02*
X155077500Y-59062742D01*
X156122500Y-59537258D02*
X156122500Y-59062742D01*
%TO.C,R21*%
X165862742Y-101577500D02*
X166337258Y-101577500D01*
X165862742Y-102622500D02*
X166337258Y-102622500D01*
%TO.C,C10*%
X130884420Y-73490000D02*
X131165580Y-73490000D01*
X130884420Y-74510000D02*
X131165580Y-74510000D01*
%TO.C,R26*%
X161137258Y-84777500D02*
X160662742Y-84777500D01*
X161137258Y-85822500D02*
X160662742Y-85822500D01*
%TO.C,C9*%
X136040580Y-76790000D02*
X135759420Y-76790000D01*
X136040580Y-77810000D02*
X135759420Y-77810000D01*
%TO.C,J1*%
X129370000Y-83070000D02*
X129370000Y-95830000D01*
X129370000Y-83070000D02*
X132030000Y-83070000D01*
X129370000Y-95830000D02*
X132030000Y-95830000D01*
X130700000Y-80470000D02*
X132030000Y-80470000D01*
X132030000Y-80470000D02*
X132030000Y-81800000D01*
X132030000Y-83070000D02*
X132030000Y-95830000D01*
%TO.C,R12*%
X128362742Y-56677500D02*
X128837258Y-56677500D01*
X128362742Y-57722500D02*
X128837258Y-57722500D01*
%TO.C,R23*%
X159062258Y-62977500D02*
X158587742Y-62977500D01*
X159062258Y-64022500D02*
X158587742Y-64022500D01*
D13*
%TO.C,U8*%
X164811811Y-74449809D02*
X163011785Y-74449809D01*
X164811811Y-75599797D02*
X164811811Y-76399822D01*
X164811811Y-77549835D02*
X163011785Y-77549835D01*
X162514884Y-74348870D02*
G75*
G02*
X162260884Y-74348870I-127000J0D01*
G01*
X162260884Y-74348870D02*
G75*
G02*
X162514884Y-74348870I127000J0D01*
G01*
D14*
X162541808Y-74549784D02*
G75*
G02*
X162481864Y-74549784I-29972J0D01*
G01*
X162481864Y-74549784D02*
G75*
G02*
X162541808Y-74549784I29972J0D01*
G01*
D12*
%TO.C,C1*%
X130859420Y-71990000D02*
X131140580Y-71990000D01*
X130859420Y-73010000D02*
X131140580Y-73010000D01*
%TO.C,Q6*%
X129400000Y-52640000D02*
X127725000Y-52640000D01*
X129400000Y-52640000D02*
X130050000Y-52640000D01*
X129400000Y-55760000D02*
X128750000Y-55760000D01*
X129400000Y-55760000D02*
X130050000Y-55760000D01*
D13*
%TO.C,U6*%
X156450089Y-67949962D02*
X161550165Y-67949962D01*
X156450089Y-69199898D02*
X156450089Y-67949962D01*
X156450089Y-70800102D02*
X156450089Y-72050038D01*
X161549911Y-67949962D02*
X161549911Y-72050038D01*
X161549911Y-72050038D02*
X156449835Y-72050038D01*
X156500127Y-69199899D02*
G75*
G02*
X156500127Y-70800101I-375289J-800101D01*
G01*
X156140208Y-72500127D02*
G75*
G02*
X155799848Y-72500127I-170180J0D01*
G01*
X155799848Y-72500127D02*
G75*
G02*
X156140208Y-72500127I170180J0D01*
G01*
D14*
X156575819Y-72949962D02*
G75*
G02*
X156515875Y-72949962I-29972J0D01*
G01*
X156515875Y-72949962D02*
G75*
G02*
X156575819Y-72949962I29972J0D01*
G01*
D12*
%TO.C,R28*%
X127662742Y-97677500D02*
X128137258Y-97677500D01*
X127662742Y-98722500D02*
X128137258Y-98722500D01*
%TO.C,R8*%
X135762742Y-49777500D02*
X136237258Y-49777500D01*
X135762742Y-50822500D02*
X136237258Y-50822500D01*
%TO.C,R10*%
X135962742Y-55177500D02*
X136437258Y-55177500D01*
X135962742Y-56222500D02*
X136437258Y-56222500D01*
%TO.C,R30*%
X139462742Y-73577500D02*
X139937258Y-73577500D01*
X139462742Y-74622500D02*
X139937258Y-74622500D01*
%TO.C,R13*%
X146987258Y-64227500D02*
X146512742Y-64227500D01*
X146987258Y-65272500D02*
X146512742Y-65272500D01*
%TO.C,R35*%
X159437258Y-50322500D02*
X158962742Y-50322500D01*
X159437258Y-49277500D02*
X158962742Y-49277500D01*
D13*
%TO.C,T2*%
X136749835Y-83268402D02*
X136749835Y-80931598D01*
X137129845Y-80444907D02*
X138024917Y-79549835D01*
X137499136Y-81200838D02*
X138499898Y-80200076D01*
X137499136Y-82999162D02*
X137499136Y-81200838D01*
X138024917Y-84650165D02*
X137129845Y-83755093D01*
X138400838Y-83900864D02*
X137499136Y-82999162D01*
X138499898Y-80200076D02*
X140199162Y-80200076D01*
X140199162Y-80200076D02*
X141100864Y-81101778D01*
X140300762Y-83900864D02*
X138400838Y-83900864D01*
X140575083Y-79549835D02*
X138024917Y-79549835D01*
X140575083Y-84650165D02*
X138024917Y-84650165D01*
X140575083Y-84650165D02*
X141470155Y-83755093D01*
X141100864Y-81101778D02*
X141100864Y-83100762D01*
X141100864Y-83100762D02*
X140300762Y-83900864D01*
X141470155Y-80444907D02*
X140575083Y-79549835D01*
X141850165Y-83268402D02*
X141850165Y-80931598D01*
X140575083Y-82100000D02*
G75*
G02*
X138024917Y-82100000I-1275083J0D01*
G01*
X138024917Y-82100000D02*
G75*
G02*
X140575083Y-82100000I1275083J0D01*
G01*
D14*
X142579908Y-84649911D02*
G75*
G02*
X142519964Y-84649911I-29972J0D01*
G01*
X142519964Y-84649911D02*
G75*
G02*
X142579908Y-84649911I29972J0D01*
G01*
D12*
%TO.C,Q2*%
X150500000Y-62690000D02*
X149850000Y-62690000D01*
X150500000Y-62690000D02*
X151150000Y-62690000D01*
X150500000Y-65810000D02*
X149850000Y-65810000D01*
X150500000Y-65810000D02*
X152175000Y-65810000D01*
%TD*%
M02*
