%TF.GenerationSoftware,KiCad,Pcbnew,8.0.0*%
%TF.CreationDate,2024-03-03T22:06:13+01:00*%
%TF.ProjectId,Blinky,426c696e-6b79-42e6-9b69-6361645f7063,rev?*%
%TF.SameCoordinates,Original*%
%TF.FileFunction,Soldermask,Top*%
%TF.FilePolarity,Negative*%
%FSLAX46Y46*%
G04 Gerber Fmt 4.6, Leading zero omitted, Abs format (unit mm)*
G04 Created by KiCad (PCBNEW 8.0.0) date 2024-03-03 22:06:13*
%MOMM*%
%LPD*%
G01*
G04 APERTURE LIST*
G04 Aperture macros list*
%AMRoundRect*
0 Rectangle with rounded corners*
0 $1 Rounding radius*
0 $2 $3 $4 $5 $6 $7 $8 $9 X,Y pos of 4 corners*
0 Add a 4 corners polygon primitive as box body*
4,1,4,$2,$3,$4,$5,$6,$7,$8,$9,$2,$3,0*
0 Add four circle primitives for the rounded corners*
1,1,$1+$1,$2,$3*
1,1,$1+$1,$4,$5*
1,1,$1+$1,$6,$7*
1,1,$1+$1,$8,$9*
0 Add four rect primitives between the rounded corners*
20,1,$1+$1,$2,$3,$4,$5,0*
20,1,$1+$1,$4,$5,$6,$7,0*
20,1,$1+$1,$6,$7,$8,$9,0*
20,1,$1+$1,$8,$9,$2,$3,0*%
%AMFreePoly0*
4,1,265,0.086386,3.626060,0.172644,3.622962,0.258827,3.617831,0.344856,3.610643,0.430658,3.601422,0.516256,3.590170,0.601549,3.576861,0.686487,3.561544,0.771044,3.544196,0.855169,3.524841,0.938811,3.503480,1.021920,3.480163,1.104445,3.454864,1.186360,3.427584,1.267590,3.398400,1.348108,3.367259,1.427838,3.334239,1.506782,3.299314,1.584862,3.262510,1.662052,3.223876,
1.738303,3.183414,1.813589,3.141148,1.887808,3.097104,1.960986,3.051308,2.033045,3.003785,2.103937,2.954534,2.173660,2.903632,2.242139,2.851080,2.309347,2.796927,2.375260,2.741173,2.439827,2.683871,2.502997,2.625070,2.564745,2.564745,2.625070,2.502997,2.683871,2.439827,2.741173,2.375260,2.796927,2.309347,2.851080,2.242139,2.903632,2.173660,2.954534,2.103937,
3.003785,2.033045,3.051308,1.960986,3.097104,1.887808,3.141148,1.813564,3.183414,1.738303,3.223876,1.662052,3.262510,1.584862,3.299314,1.506782,3.334239,1.427838,3.367259,1.348108,3.398400,1.267590,3.427584,1.186360,3.454864,1.104445,3.480163,1.021920,3.503480,0.938811,3.524841,0.855169,3.544196,0.771044,3.561544,0.686487,3.576861,0.601549,3.590170,0.516256,
3.601422,0.430658,3.610643,0.344856,3.617831,0.258827,3.622962,0.172644,3.626060,0.086386,3.627076,0.000076,3.626060,-0.086233,3.622962,-0.172492,3.617831,-0.258674,3.610643,-0.344704,3.601422,-0.430505,3.590170,-0.516104,3.576861,-0.601397,3.561544,-0.686335,3.544196,-0.770892,3.524841,-0.855017,3.503480,-0.938659,3.480163,-1.021768,3.454864,-1.104293,3.427584,-1.186208,
3.398400,-1.267437,3.367259,-1.347955,3.334239,-1.427686,3.299314,-1.506629,3.262510,-1.584709,3.223876,-1.661900,3.183414,-1.738151,3.141148,-1.813437,3.097104,-1.887656,3.051308,-1.960833,3.003785,-2.032893,2.954534,-2.103785,2.903632,-2.173508,2.851080,-2.241986,2.796927,-2.309195,2.741173,-2.375108,2.683871,-2.439675,2.625070,-2.502845,2.564745,-2.564592,2.502997,-2.624917,
2.439827,-2.683719,2.375260,-2.741021,2.309347,-2.796774,2.242139,-2.850927,2.173660,-2.903480,2.103937,-2.954382,2.033045,-3.003632,1.960986,-3.051156,1.887808,-3.096952,1.813589,-3.140996,1.738303,-3.183261,1.662052,-3.223724,1.584862,-3.262357,1.506782,-3.299162,1.427838,-3.334087,1.348108,-3.367107,1.267590,-3.398247,1.186360,-3.427432,1.104445,-3.454712,1.021920,-3.480010,
0.938811,-3.503327,0.855169,-3.524689,0.771044,-3.544044,0.686487,-3.561392,0.601549,-3.576708,0.516256,-3.590018,0.430658,-3.601270,0.344856,-3.610490,0.258827,-3.617678,0.172644,-3.622809,0.086386,-3.625908,0.000076,-3.626924,-0.086233,-3.625908,-0.172492,-3.622809,-0.258674,-3.617678,-0.344704,-3.610490,-0.430505,-3.601270,-0.516104,-3.590018,-0.601397,-3.576708,-0.686335,-3.561392,
-0.770892,-3.544044,-0.855017,-3.524689,-0.938659,-3.503327,-1.021768,-3.480010,-1.104293,-3.454712,-1.186208,-3.427432,-1.267437,-3.398247,-1.347955,-3.367107,-1.427686,-3.334087,-1.506629,-3.299162,-1.584709,-3.262357,-1.661900,-3.223724,-1.738151,-3.183261,-1.813411,-3.140996,-1.887656,-3.096952,-1.960833,-3.051156,-2.032893,-3.003632,-2.103785,-2.954382,-2.173508,-2.903480,-2.241986,-2.850927,
-2.309195,-2.796774,-2.375108,-2.741021,-2.439675,-2.683719,-2.502845,-2.624917,-2.564592,-2.564592,-2.624917,-2.502845,-2.683719,-2.439675,-2.741021,-2.375108,-2.796774,-2.309195,-2.850927,-2.241986,-2.903480,-2.173508,-2.954382,-2.103785,-3.003632,-2.032893,-3.051156,-1.960833,-3.096952,-1.887656,-3.140996,-1.813437,-3.183261,-1.738151,-3.223724,-1.661900,-3.262357,-1.584709,-3.299162,-1.506629,
-3.334087,-1.427686,-3.367107,-1.347955,-3.398247,-1.267437,-3.427432,-1.186208,-3.454712,-1.104293,-3.480010,-1.021768,-3.503327,-0.938659,-3.524689,-0.855017,-3.544044,-0.770892,-3.561392,-0.686335,-3.576708,-0.601397,-3.590018,-0.516104,-3.601270,-0.430505,-3.610490,-0.344704,-3.617678,-0.258674,-3.622809,-0.172492,-3.625908,-0.086233,-3.626924,0.000076,-3.625908,0.086386,-3.622809,0.172644,
-3.617678,0.258827,-3.610490,0.344856,-3.601270,0.430658,-3.590018,0.516256,-3.576708,0.601549,-3.561392,0.686487,-3.544044,0.771044,-3.524689,0.855169,-3.503327,0.938811,-3.480010,1.021920,-3.454712,1.104445,-3.427432,1.186360,-3.398247,1.267590,-3.367107,1.348108,-3.334087,1.427838,-3.299162,1.506782,-3.262357,1.584862,-3.223724,1.662052,-3.183261,1.738303,-3.140996,1.813589,
-3.096952,1.887808,-3.051156,1.960986,-3.003632,2.033045,-2.954382,2.103937,-2.903480,2.173660,-2.850927,2.242139,-2.796774,2.309347,-2.741021,2.375260,-2.683719,2.439827,-2.624917,2.502997,-2.564592,2.564745,-2.502845,2.625070,-2.439675,2.683871,-2.375108,2.741173,-2.309195,2.796927,-2.241986,2.851080,-2.173508,2.903632,-2.103785,2.954534,-2.032893,3.003785,-1.960833,3.051308,
-1.887656,3.097104,-1.813411,3.141148,-1.738151,3.183414,-1.661900,3.223876,-1.584709,3.262510,-1.506629,3.299314,-1.427686,3.334239,-1.347955,3.367259,-1.267437,3.398400,-1.186208,3.427584,-1.104293,3.454864,-1.021768,3.480163,-0.938659,3.503480,-0.855017,3.524841,-0.770892,3.544196,-0.686335,3.561544,-0.601397,3.576861,-0.516104,3.590170,-0.430505,3.601422,-0.344704,3.610643,
-0.258674,3.617831,-0.172492,3.622962,-0.086233,3.626060,0.000076,3.627076,0.086386,3.626060,0.086386,3.626060,$1*%
%AMFreePoly1*
4,1,265,0.086386,3.625908,0.172644,3.622809,0.258827,3.617678,0.344856,3.610490,0.430658,3.601270,0.516256,3.590018,0.601549,3.576708,0.686487,3.561392,0.771044,3.544044,0.855169,3.524689,0.938811,3.503327,1.021920,3.480010,1.104445,3.454712,1.186360,3.427432,1.267590,3.398247,1.348108,3.367107,1.427838,3.334087,1.506782,3.299162,1.584862,3.262357,1.662052,3.223724,
1.738303,3.183261,1.813589,3.140996,1.887808,3.096952,1.960986,3.051156,2.033045,3.003632,2.103937,2.954382,2.173660,2.903480,2.242139,2.850927,2.309347,2.796774,2.375260,2.741021,2.439827,2.683719,2.502997,2.624917,2.564745,2.564592,2.625070,2.502845,2.683871,2.439675,2.741173,2.375108,2.796927,2.309195,2.851080,2.241986,2.903632,2.173508,2.954534,2.103785,
3.003785,2.032893,3.051308,1.960833,3.097104,1.887656,3.141148,1.813437,3.183414,1.738151,3.223876,1.661900,3.262510,1.584709,3.299314,1.506629,3.334239,1.427686,3.367259,1.347955,3.398400,1.267437,3.427584,1.186208,3.454864,1.104293,3.480163,1.021768,3.503480,0.938659,3.524841,0.855017,3.544196,0.770892,3.561544,0.686335,3.576861,0.601397,3.590170,0.516104,
3.601422,0.430505,3.610643,0.344704,3.617831,0.258674,3.622962,0.172492,3.626060,0.086233,3.627076,-0.000076,3.626060,-0.086386,3.622962,-0.172644,3.617831,-0.258827,3.610643,-0.344856,3.601422,-0.430658,3.590170,-0.516256,3.576861,-0.601549,3.561544,-0.686487,3.544196,-0.771044,3.524841,-0.855169,3.503480,-0.938811,3.480163,-1.021920,3.454864,-1.104445,3.427584,-1.186360,
3.398400,-1.267590,3.367259,-1.348108,3.334239,-1.427838,3.299314,-1.506782,3.262510,-1.584862,3.223876,-1.662052,3.183414,-1.738303,3.141148,-1.813564,3.097104,-1.887808,3.051308,-1.960986,3.003785,-2.033045,2.954534,-2.103937,2.903632,-2.173660,2.851080,-2.242139,2.796927,-2.309347,2.741173,-2.375260,2.683871,-2.439827,2.625070,-2.502997,2.564745,-2.564745,2.502997,-2.625070,
2.439827,-2.683871,2.375260,-2.741173,2.309347,-2.796927,2.242139,-2.851080,2.173660,-2.903632,2.103937,-2.954534,2.033045,-3.003785,1.960986,-3.051308,1.887808,-3.097104,1.813589,-3.141148,1.738303,-3.183414,1.662052,-3.223876,1.584862,-3.262510,1.506782,-3.299314,1.427838,-3.334239,1.348108,-3.367259,1.267590,-3.398400,1.186360,-3.427584,1.104445,-3.454864,1.021920,-3.480163,
0.938811,-3.503480,0.855169,-3.524841,0.771044,-3.544196,0.686487,-3.561544,0.601549,-3.576861,0.516256,-3.590170,0.430658,-3.601422,0.344856,-3.610643,0.258827,-3.617831,0.172644,-3.622962,0.086386,-3.626060,0.000076,-3.627076,-0.086233,-3.626060,-0.172492,-3.622962,-0.258674,-3.617831,-0.344704,-3.610643,-0.430505,-3.601422,-0.516104,-3.590170,-0.601397,-3.576861,-0.686335,-3.561544,
-0.770892,-3.544196,-0.855017,-3.524841,-0.938659,-3.503480,-1.021768,-3.480163,-1.104293,-3.454864,-1.186208,-3.427584,-1.267437,-3.398400,-1.347955,-3.367259,-1.427686,-3.334239,-1.506629,-3.299314,-1.584709,-3.262510,-1.661900,-3.223876,-1.738151,-3.183414,-1.813411,-3.141148,-1.887656,-3.097104,-1.960833,-3.051308,-2.032893,-3.003785,-2.103785,-2.954534,-2.173508,-2.903632,-2.241986,-2.851080,
-2.309195,-2.796927,-2.375108,-2.741173,-2.439675,-2.683871,-2.502845,-2.625070,-2.564592,-2.564745,-2.624917,-2.502997,-2.683719,-2.439827,-2.741021,-2.375260,-2.796774,-2.309347,-2.850927,-2.242139,-2.903480,-2.173660,-2.954382,-2.103937,-3.003632,-2.033045,-3.051156,-1.960986,-3.096952,-1.887808,-3.140996,-1.813589,-3.183261,-1.738303,-3.223724,-1.662052,-3.262357,-1.584862,-3.299162,-1.506782,
-3.334087,-1.427838,-3.367107,-1.348108,-3.398247,-1.267590,-3.427432,-1.186360,-3.454712,-1.104445,-3.480010,-1.021920,-3.503327,-0.938811,-3.524689,-0.855169,-3.544044,-0.771044,-3.561392,-0.686487,-3.576708,-0.601549,-3.590018,-0.516256,-3.601270,-0.430658,-3.610490,-0.344856,-3.617678,-0.258827,-3.622809,-0.172644,-3.625908,-0.086386,-3.626924,-0.000076,-3.625908,0.086233,-3.622809,0.172492,
-3.617678,0.258674,-3.610490,0.344704,-3.601270,0.430505,-3.590018,0.516104,-3.576708,0.601397,-3.561392,0.686335,-3.544044,0.770892,-3.524689,0.855017,-3.503327,0.938659,-3.480010,1.021768,-3.454712,1.104293,-3.427432,1.186208,-3.398247,1.267437,-3.367107,1.347955,-3.334087,1.427686,-3.299162,1.506629,-3.262357,1.584709,-3.223724,1.661900,-3.183261,1.738151,-3.140996,1.813437,
-3.096952,1.887656,-3.051156,1.960833,-3.003632,2.032893,-2.954382,2.103785,-2.903480,2.173508,-2.850927,2.241986,-2.796774,2.309195,-2.741021,2.375108,-2.683719,2.439675,-2.624917,2.502845,-2.564592,2.564592,-2.502845,2.624917,-2.439675,2.683719,-2.375108,2.741021,-2.309195,2.796774,-2.241986,2.850927,-2.173508,2.903480,-2.103785,2.954382,-2.032893,3.003632,-1.960833,3.051156,
-1.887656,3.096952,-1.813411,3.140996,-1.738151,3.183261,-1.661900,3.223724,-1.584709,3.262357,-1.506629,3.299162,-1.427686,3.334087,-1.347955,3.367107,-1.267437,3.398247,-1.186208,3.427432,-1.104293,3.454712,-1.021768,3.480010,-0.938659,3.503327,-0.855017,3.524689,-0.770892,3.544044,-0.686335,3.561392,-0.601397,3.576708,-0.516104,3.590018,-0.430505,3.601270,-0.344704,3.610490,
-0.258674,3.617678,-0.172492,3.622809,-0.086233,3.625908,0.000076,3.626924,0.086386,3.625908,0.086386,3.625908,$1*%
G04 Aperture macros list end*
%ADD10RoundRect,0.200000X0.200000X0.275000X-0.200000X0.275000X-0.200000X-0.275000X0.200000X-0.275000X0*%
%ADD11RoundRect,0.150000X0.587500X0.150000X-0.587500X0.150000X-0.587500X-0.150000X0.587500X-0.150000X0*%
%ADD12C,0.849987*%
%ADD13R,0.900000X1.800000*%
%ADD14R,1.100000X0.929997*%
%ADD15R,0.800000X0.800000*%
%ADD16RoundRect,0.112500X-0.487500X-0.112500X0.487500X-0.112500X0.487500X0.112500X-0.487500X0.112500X0*%
%ADD17RoundRect,0.286500X-0.313500X-0.286500X0.313500X-0.286500X0.313500X0.286500X-0.313500X0.286500X0*%
%ADD18RoundRect,0.218250X-0.381750X-0.218250X0.381750X-0.218250X0.381750X0.218250X-0.381750X0.218250X0*%
%ADD19RoundRect,0.225000X0.250000X-0.225000X0.250000X0.225000X-0.250000X0.225000X-0.250000X-0.225000X0*%
%ADD20RoundRect,0.200000X-0.200000X-0.275000X0.200000X-0.275000X0.200000X0.275000X-0.200000X0.275000X0*%
%ADD21R,1.350013X3.000000*%
%ADD22FreePoly0,0.000000*%
%ADD23R,1.700000X1.000000*%
%ADD24R,4.200000X1.400000*%
%ADD25RoundRect,0.225000X-0.225000X-0.250000X0.225000X-0.250000X0.225000X0.250000X-0.225000X0.250000X0*%
%ADD26O,1.700000X1.700000*%
%ADD27R,1.700000X1.700000*%
%ADD28RoundRect,0.150000X-0.587500X-0.150000X0.587500X-0.150000X0.587500X0.150000X-0.587500X0.150000X0*%
%ADD29RoundRect,0.200000X0.275000X-0.200000X0.275000X0.200000X-0.275000X0.200000X-0.275000X-0.200000X0*%
%ADD30R,1.600000X0.400000*%
%ADD31C,1.300000*%
%ADD32O,1.800000X1.300000*%
%ADD33O,0.588011X2.045009*%
%ADD34RoundRect,0.200000X-0.275000X0.200000X-0.275000X-0.200000X0.275000X-0.200000X0.275000X0.200000X0*%
%ADD35O,4.000000X1.524000*%
%ADD36C,1.200000*%
%ADD37R,1.500000X0.900000*%
%ADD38R,0.900000X1.500000*%
%ADD39R,0.900000X0.900000*%
%ADD40RoundRect,0.225000X0.225000X0.250000X-0.225000X0.250000X-0.225000X-0.250000X0.225000X-0.250000X0*%
%ADD41R,1.000000X0.600000*%
%ADD42R,0.600000X1.200000*%
%ADD43R,3.300000X2.400000*%
%ADD44RoundRect,0.250000X-0.625000X0.350000X-0.625000X-0.350000X0.625000X-0.350000X0.625000X0.350000X0*%
%ADD45O,1.750000X1.200000*%
%ADD46FreePoly1,180.000000*%
G04 APERTURE END LIST*
D10*
%TO.C,R20*%
X161725000Y-81200000D03*
X160075000Y-81200000D03*
%TD*%
D11*
%TO.C,Q3*%
X155750000Y-64200000D03*
X155750000Y-62300000D03*
X153875000Y-63250000D03*
%TD*%
D12*
%TO.C,SW1*%
X157200000Y-107377318D03*
X160200000Y-107377318D03*
D13*
X156449936Y-105345568D03*
X159449936Y-105345568D03*
X160949809Y-105345568D03*
D14*
X162499975Y-106242444D03*
X162499975Y-108512446D03*
X154900025Y-108512446D03*
X154900025Y-106242444D03*
%TD*%
D10*
%TO.C,R4*%
X152750000Y-71400000D03*
X151100000Y-71400000D03*
%TD*%
%TO.C,R2*%
X147575000Y-69250000D03*
X145925000Y-69250000D03*
%TD*%
%TO.C,R15*%
X147575000Y-63250000D03*
X145925000Y-63250000D03*
%TD*%
D15*
%TO.C,U9*%
X161151067Y-63507112D03*
X162750000Y-63500000D03*
%TD*%
D16*
%TO.C,U5*%
X163400000Y-98707000D03*
D17*
X163400000Y-99945000D03*
D18*
X166400000Y-100036500D03*
X166400000Y-98963500D03*
%TD*%
D19*
%TO.C,C2*%
X159400000Y-90075000D03*
X159400000Y-88525000D03*
%TD*%
D10*
%TO.C,R34*%
X131725000Y-98900000D03*
X130075000Y-98900000D03*
%TD*%
D20*
%TO.C,R9*%
X134475000Y-52600000D03*
X136125000Y-52600000D03*
%TD*%
D21*
%TO.C,LED1*%
X141299975Y-47849886D03*
X141299975Y-60149860D03*
X143000000Y-47849886D03*
X143000000Y-60149860D03*
X144700025Y-47849886D03*
X144700025Y-60149860D03*
D22*
X143000000Y-54000000D03*
%TD*%
D20*
%TO.C,R22*%
X164850000Y-66000000D03*
X166500000Y-66000000D03*
%TD*%
D23*
%TO.C,T1*%
X137599975Y-69750191D03*
X131000025Y-69750216D03*
X137599975Y-66049784D03*
X131000025Y-66049809D03*
%TD*%
D20*
%TO.C,R31*%
X126675000Y-68700000D03*
X128325000Y-68700000D03*
%TD*%
D24*
%TO.C,C5*%
X153267209Y-80500000D03*
X146732791Y-80500000D03*
%TD*%
D25*
%TO.C,C3*%
X160125000Y-83700000D03*
X161675000Y-83700000D03*
%TD*%
D20*
%TO.C,R14*%
X147075000Y-71400000D03*
X148725000Y-71400000D03*
%TD*%
D26*
%TO.C,J2*%
X164900000Y-94500000D03*
X164900000Y-91960000D03*
X164900000Y-89420000D03*
X164900000Y-86880000D03*
X164900000Y-84340000D03*
D27*
X164900000Y-81800000D03*
%TD*%
D28*
%TO.C,Q4*%
X128262500Y-46150000D03*
X128262500Y-48050000D03*
X130137500Y-47100000D03*
%TD*%
D29*
%TO.C,R19*%
X150000000Y-75125000D03*
X150000000Y-73475000D03*
%TD*%
D10*
%TO.C,R6*%
X155850000Y-67200000D03*
X154200000Y-67200000D03*
%TD*%
D19*
%TO.C,C11*%
X127900000Y-93175000D03*
X127900000Y-91625000D03*
%TD*%
D30*
%TO.C,USB1*%
X162907214Y-51124816D03*
X162907214Y-50474828D03*
X162907214Y-49824841D03*
X162907214Y-49174854D03*
X162907214Y-48524866D03*
D31*
X163429693Y-47399898D03*
D32*
X166100000Y-46200000D03*
X166100000Y-53449682D03*
D31*
X163429947Y-52249784D03*
%TD*%
D19*
%TO.C,C8*%
X166400000Y-74275000D03*
X166400000Y-72725000D03*
%TD*%
D28*
%TO.C,Q5*%
X128462500Y-49650000D03*
X128462500Y-51550000D03*
X130337500Y-50600000D03*
%TD*%
D15*
%TO.C,U10*%
X158499467Y-60996622D03*
X156900533Y-61003480D03*
%TD*%
D11*
%TO.C,Q1*%
X151437500Y-69100000D03*
X151437500Y-67200000D03*
X149562500Y-68150000D03*
%TD*%
D10*
%TO.C,R32*%
X132025000Y-101800000D03*
X130375000Y-101800000D03*
%TD*%
D19*
%TO.C,C12*%
X152400000Y-75075000D03*
X152400000Y-73525000D03*
%TD*%
D33*
%TO.C,U4*%
X158094996Y-97872416D03*
X159364999Y-97872416D03*
X160635001Y-97872416D03*
X161905004Y-97872416D03*
X161905004Y-92327584D03*
X160635001Y-92327584D03*
X159364999Y-92327584D03*
X158094996Y-92327584D03*
%TD*%
D34*
%TO.C,R24*%
X147490000Y-73475000D03*
X147490000Y-75125000D03*
%TD*%
D20*
%TO.C,R7*%
X131975000Y-48000000D03*
X133625000Y-48000000D03*
%TD*%
%TO.C,R25*%
X154875000Y-98400000D03*
X156525000Y-98400000D03*
%TD*%
D10*
%TO.C,R36*%
X160275000Y-53400000D03*
X161925000Y-53400000D03*
%TD*%
D35*
%TO.C,J4*%
X156345054Y-44284065D03*
X139845054Y-44284065D03*
%TD*%
D20*
%TO.C,R29*%
X126775000Y-101600000D03*
X128425000Y-101600000D03*
%TD*%
D10*
%TO.C,R33*%
X158625000Y-101000000D03*
X156975000Y-101000000D03*
%TD*%
D20*
%TO.C,R16*%
X127650000Y-63425000D03*
X129300000Y-63425000D03*
%TD*%
D29*
%TO.C,R27*%
X128100000Y-96725000D03*
X128100000Y-95075000D03*
%TD*%
D20*
%TO.C,R18*%
X127600000Y-59925000D03*
X129250000Y-59925000D03*
%TD*%
D10*
%TO.C,R11*%
X135025000Y-58900000D03*
X133375000Y-58900000D03*
%TD*%
D36*
%TO.C,MIC1*%
X129949962Y-104400000D03*
X128050038Y-104400000D03*
%TD*%
D10*
%TO.C,R1*%
X147575000Y-67750000D03*
X145925000Y-67750000D03*
%TD*%
D25*
%TO.C,C7*%
X162225000Y-102100000D03*
X163775000Y-102100000D03*
%TD*%
D37*
%TO.C,U3*%
X152650064Y-104400000D03*
X152650064Y-103129997D03*
X152650064Y-101859995D03*
X152650064Y-100589992D03*
X152650064Y-99319990D03*
X152650064Y-98049987D03*
X152650064Y-96779985D03*
X152650064Y-95509982D03*
X152650064Y-94239979D03*
X152650064Y-92969977D03*
X152650064Y-91699974D03*
X152650064Y-90429972D03*
X152650064Y-89159969D03*
X152650064Y-87889967D03*
D38*
X150885014Y-86610058D03*
X149615011Y-86610058D03*
X148345009Y-86610058D03*
X147075006Y-86610058D03*
X145805004Y-86610058D03*
X144535001Y-86610058D03*
X143264999Y-86610058D03*
X141994996Y-86610058D03*
X140724994Y-86610058D03*
X139454991Y-86610058D03*
X138184989Y-86610058D03*
X136914986Y-86640030D03*
D37*
X135149936Y-87889967D03*
X135149936Y-89159969D03*
X135149936Y-90429972D03*
X135149936Y-91699974D03*
X135149936Y-92969977D03*
X135149936Y-94239979D03*
X135149936Y-95509982D03*
X135149936Y-96779985D03*
X135149936Y-98049987D03*
X135149936Y-99319990D03*
X135149936Y-100589992D03*
X135149936Y-101859995D03*
X135149936Y-103129997D03*
X135149936Y-104400000D03*
D39*
X146800178Y-98079959D03*
X146800178Y-96679908D03*
X146800178Y-95279858D03*
X145400127Y-98079959D03*
X145400127Y-96679908D03*
X145400127Y-95279858D03*
X144000076Y-98079959D03*
X144000076Y-96679908D03*
X144000076Y-95279858D03*
%TD*%
D40*
%TO.C,C6*%
X161675000Y-79600000D03*
X160125000Y-79600000D03*
%TD*%
D10*
%TO.C,R3*%
X147575000Y-66250000D03*
X145925000Y-66250000D03*
%TD*%
D20*
%TO.C,R17*%
X127600000Y-61675000D03*
X129250000Y-61675000D03*
%TD*%
D25*
%TO.C,C4*%
X127125000Y-99900000D03*
X128675000Y-99900000D03*
%TD*%
D29*
%TO.C,R5*%
X155600000Y-60125000D03*
X155600000Y-58475000D03*
%TD*%
D20*
%TO.C,R21*%
X165275000Y-102100000D03*
X166925000Y-102100000D03*
%TD*%
D25*
%TO.C,C10*%
X130250000Y-74000000D03*
X131800000Y-74000000D03*
%TD*%
D10*
%TO.C,R26*%
X161725000Y-85300000D03*
X160075000Y-85300000D03*
%TD*%
D40*
%TO.C,C9*%
X136675000Y-77300000D03*
X135125000Y-77300000D03*
%TD*%
D27*
%TO.C,J1*%
X130700000Y-81800000D03*
D26*
X130700000Y-84340000D03*
X130700000Y-86880000D03*
X130700000Y-89420000D03*
X130700000Y-91960000D03*
X130700000Y-94500000D03*
%TD*%
D20*
%TO.C,R12*%
X127775000Y-57200000D03*
X129425000Y-57200000D03*
%TD*%
D10*
%TO.C,R23*%
X159650000Y-63500000D03*
X158000000Y-63500000D03*
%TD*%
D41*
%TO.C,U8*%
X162611658Y-75049911D03*
X162611658Y-75999873D03*
X162611658Y-76949835D03*
X165211862Y-76949835D03*
X165211862Y-75049911D03*
%TD*%
D25*
%TO.C,C1*%
X130225000Y-72500000D03*
X131775000Y-72500000D03*
%TD*%
D28*
%TO.C,Q6*%
X128462500Y-53250000D03*
X128462500Y-55150000D03*
X130337500Y-54200000D03*
%TD*%
D42*
%TO.C,U6*%
X157094996Y-72908306D03*
X158364999Y-72908306D03*
X159635001Y-72908306D03*
X160905004Y-72908306D03*
X160905004Y-67091694D03*
X159635001Y-67091694D03*
X158364999Y-67091694D03*
X157094996Y-67091694D03*
D43*
X159000000Y-70000000D03*
%TD*%
D20*
%TO.C,R28*%
X127075000Y-98200000D03*
X128725000Y-98200000D03*
%TD*%
%TO.C,R8*%
X135175000Y-50300000D03*
X136825000Y-50300000D03*
%TD*%
%TO.C,R10*%
X135375000Y-55700000D03*
X137025000Y-55700000D03*
%TD*%
%TO.C,R30*%
X138875000Y-74100000D03*
X140525000Y-74100000D03*
%TD*%
D10*
%TO.C,R13*%
X147575000Y-64750000D03*
X145925000Y-64750000D03*
%TD*%
%TO.C,R35*%
X160025000Y-49800000D03*
X158375000Y-49800000D03*
%TD*%
D23*
%TO.C,T2*%
X142599975Y-83950191D03*
X136000025Y-83950216D03*
X142599975Y-80249784D03*
X136000025Y-80249809D03*
%TD*%
D11*
%TO.C,Q2*%
X151437500Y-65200000D03*
X151437500Y-63300000D03*
X149562500Y-64250000D03*
%TD*%
D44*
%TO.C,J3*%
X164500000Y-103800000D03*
D45*
X164500000Y-105800000D03*
%TD*%
D46*
%TO.C,LED2*%
X152300000Y-53900000D03*
%TD*%
M02*
