%TF.GenerationSoftware,KiCad,Pcbnew,8.0.0*%
%TF.CreationDate,2024-03-03T22:06:13+01:00*%
%TF.ProjectId,Blinky,426c696e-6b79-42e6-9b69-6361645f7063,rev?*%
%TF.SameCoordinates,Original*%
%TF.FileFunction,Legend,Bot*%
%TF.FilePolarity,Positive*%
%FSLAX46Y46*%
G04 Gerber Fmt 4.6, Leading zero omitted, Abs format (unit mm)*
G04 Created by KiCad (PCBNEW 8.0.0) date 2024-03-03 22:06:13*
%MOMM*%
%LPD*%
G01*
G04 APERTURE LIST*
%ADD10C,0.150000*%
%ADD11C,0.120000*%
%ADD12C,0.254000*%
%ADD13C,0.400000*%
%ADD14C,0.059995*%
G04 APERTURE END LIST*
D10*
X161054819Y-104466666D02*
X161769104Y-104466666D01*
X161769104Y-104466666D02*
X161911961Y-104419047D01*
X161911961Y-104419047D02*
X162007200Y-104323809D01*
X162007200Y-104323809D02*
X162054819Y-104180952D01*
X162054819Y-104180952D02*
X162054819Y-104085714D01*
X161054819Y-104847619D02*
X161054819Y-105466666D01*
X161054819Y-105466666D02*
X161435771Y-105133333D01*
X161435771Y-105133333D02*
X161435771Y-105276190D01*
X161435771Y-105276190D02*
X161483390Y-105371428D01*
X161483390Y-105371428D02*
X161531009Y-105419047D01*
X161531009Y-105419047D02*
X161626247Y-105466666D01*
X161626247Y-105466666D02*
X161864342Y-105466666D01*
X161864342Y-105466666D02*
X161959580Y-105419047D01*
X161959580Y-105419047D02*
X162007200Y-105371428D01*
X162007200Y-105371428D02*
X162054819Y-105276190D01*
X162054819Y-105276190D02*
X162054819Y-104990476D01*
X162054819Y-104990476D02*
X162007200Y-104895238D01*
X162007200Y-104895238D02*
X161959580Y-104847619D01*
X153319047Y-45754946D02*
X153795237Y-45754946D01*
X153795237Y-45754946D02*
X153795237Y-44754946D01*
X152985713Y-45231136D02*
X152652380Y-45231136D01*
X152509523Y-45754946D02*
X152985713Y-45754946D01*
X152985713Y-45754946D02*
X152985713Y-44754946D01*
X152985713Y-44754946D02*
X152509523Y-44754946D01*
X152080951Y-45754946D02*
X152080951Y-44754946D01*
X152080951Y-44754946D02*
X151842856Y-44754946D01*
X151842856Y-44754946D02*
X151699999Y-44802565D01*
X151699999Y-44802565D02*
X151604761Y-44897803D01*
X151604761Y-44897803D02*
X151557142Y-44993041D01*
X151557142Y-44993041D02*
X151509523Y-45183517D01*
X151509523Y-45183517D02*
X151509523Y-45326374D01*
X151509523Y-45326374D02*
X151557142Y-45516850D01*
X151557142Y-45516850D02*
X151604761Y-45612088D01*
X151604761Y-45612088D02*
X151699999Y-45707327D01*
X151699999Y-45707327D02*
X151842856Y-45754946D01*
X151842856Y-45754946D02*
X152080951Y-45754946D01*
X151128570Y-44850184D02*
X151080951Y-44802565D01*
X151080951Y-44802565D02*
X150985713Y-44754946D01*
X150985713Y-44754946D02*
X150747618Y-44754946D01*
X150747618Y-44754946D02*
X150652380Y-44802565D01*
X150652380Y-44802565D02*
X150604761Y-44850184D01*
X150604761Y-44850184D02*
X150557142Y-44945422D01*
X150557142Y-44945422D02*
X150557142Y-45040660D01*
X150557142Y-45040660D02*
X150604761Y-45183517D01*
X150604761Y-45183517D02*
X151176189Y-45754946D01*
X151176189Y-45754946D02*
X150557142Y-45754946D01*
D11*
%TO.C,J3*%
X162390000Y-101440000D02*
X163640000Y-101440000D01*
X162390000Y-102690000D02*
X162390000Y-101440000D01*
X162490000Y-103200000D02*
X162690000Y-103200000D01*
X162490000Y-103500000D02*
X162490000Y-103200000D01*
X162590000Y-103500000D02*
X162590000Y-103200000D01*
X162690000Y-101740000D02*
X167410000Y-101740000D01*
X162690000Y-103500000D02*
X162490000Y-103500000D01*
X162690000Y-104300000D02*
X163300000Y-104300000D01*
X162690000Y-107860000D02*
X162690000Y-101740000D01*
X163300000Y-102350000D02*
X166800000Y-102350000D01*
X163300000Y-104300000D02*
X163300000Y-102350000D01*
X163300000Y-105300000D02*
X162690000Y-105300000D01*
X163300000Y-107250000D02*
X163300000Y-105300000D01*
X164000000Y-101740000D02*
X164000000Y-102350000D01*
X164000000Y-107860000D02*
X164000000Y-107250000D01*
X165300000Y-101740000D02*
X165300000Y-102350000D01*
X165300000Y-107860000D02*
X165300000Y-107250000D01*
X166300000Y-104700000D02*
X166300000Y-104900000D01*
X166300000Y-104900000D02*
X166800000Y-104900000D01*
X166800000Y-102350000D02*
X166800000Y-107250000D01*
X166800000Y-104700000D02*
X166300000Y-104700000D01*
X166800000Y-104800000D02*
X166300000Y-104800000D01*
X166800000Y-107250000D02*
X163300000Y-107250000D01*
X167410000Y-101740000D02*
X167410000Y-107860000D01*
X167410000Y-107860000D02*
X162690000Y-107860000D01*
D12*
%TO.C,LED2*%
X150100076Y-58300051D02*
X150100076Y-57400203D01*
X150144399Y-49400051D02*
X150144399Y-50372720D01*
X154455601Y-58300051D02*
X154455601Y-57427534D01*
X154499924Y-49400051D02*
X154499924Y-50400051D01*
X150100075Y-57400204D02*
G75*
G02*
X150144399Y-50372720I2200002J3500006D01*
G01*
X154499925Y-50400050D02*
G75*
G02*
X154455601Y-57427534I-2200002J-3500006D01*
G01*
D13*
X155599720Y-48300178D02*
G75*
G02*
X155199924Y-48300178I-199898J0D01*
G01*
X155199924Y-48300178D02*
G75*
G02*
X155599720Y-48300178I199898J0D01*
G01*
D14*
X156459766Y-46650191D02*
G75*
G02*
X156399822Y-46650191I-29972J0D01*
G01*
X156399822Y-46650191D02*
G75*
G02*
X156459766Y-46650191I29972J0D01*
G01*
%TD*%
M02*
