M48
; DRILL file {KiCad 8.0.0} date 2024-03-03T22:00:00+0100
; FORMAT={-:-/ absolute / inch / decimal}
; #@! TF.CreationDate,2024-03-03T22:00:00+01:00
; #@! TF.GenerationSoftware,Kicad,Pcbnew,8.0.0
; #@! TF.FileFunction,Plated,1,2,PTH
FMAT,2
INCH
; #@! TA.AperFunction,Plated,PTH,ViaDrill
T1C0.0118
; #@! TA.AperFunction,Plated,PTH,ComponentDrill
T2C0.0276
; #@! TA.AperFunction,Plated,PTH,ComponentDrill
T3C0.0295
; #@! TA.AperFunction,Plated,PTH,ComponentDrill
T4C0.0300
; #@! TA.AperFunction,Plated,PTH,ComponentDrill
T5C0.0394
%
G90
G05
T1
X4.9409Y-3.878
X4.9606Y-1.7913
X4.9606Y-2.2835
X4.9803Y-4.252
X5.0Y-3.2677
X5.0Y-3.7677
X5.0236Y-2.6457
X5.0394Y-2.6024
X5.0787Y-3.1102
X5.0906Y-2.5591
X5.1024Y-3.9724
X5.1181Y-2.3199
X5.1378Y-2.2244
X5.1535Y-2.689
X5.1575Y-2.9724
X5.1644Y-2.4281
X5.1659Y-2.3604
X5.1772Y-3.8189
X5.1811Y-3.9449
X5.1969Y-1.9685
X5.2077Y-2.3199
X5.2165Y-2.185
X5.2165Y-4.1929
X5.219Y-2.0709
X5.2252Y-3.9677
X5.2323Y-3.0236
X5.2362Y-2.0276
X5.2392Y-2.8824
X5.2953Y-2.1457
X5.3057Y-2.1028
X5.3144Y-2.8927
X5.3228Y-2.4291
X5.3346Y-1.7913
X5.3543Y-2.2441
X5.3543Y-2.3937
X5.378Y-2.811
X5.3819Y-2.9084
X5.3859Y-2.9456
X5.3937Y-2.0236
X5.3937Y-3.7008
X5.3937Y-3.9764
X5.4134Y-3.3465
X5.4134Y-3.4843
X5.437Y-1.9409
X5.4528Y-2.3031
X5.4528Y-4.0945
X5.4646Y-3.9203
X5.5039Y-1.9724
X5.5118Y-2.3031
X5.5236Y-3.0512
X5.5472Y-2.0551
X5.5472Y-2.0906
X5.5472Y-2.126
X5.5472Y-2.1614
X5.5472Y-2.1969
X5.5754Y-2.9108
X5.5866Y-2.0551
X5.5866Y-2.0906
X5.5866Y-2.126
X5.5866Y-2.1654
X5.5866Y-2.1969
X5.6142Y-3.3504
X5.6181Y-3.4961
X5.626Y-2.0551
X5.626Y-2.0906
X5.626Y-2.126
X5.626Y-2.1654
X5.626Y-2.1969
X5.6299Y-3.5433
X5.634Y-2.921
X5.6496Y-3.6811
X5.6614Y-2.1969
X5.6654Y-2.126
X5.6654Y-2.1614
X5.6693Y-2.0551
X5.6693Y-2.0906
X5.6693Y-2.9459
X5.6693Y-3.3465
X5.6772Y-2.685
X5.6929Y-2.5
X5.7047Y-2.126
X5.7047Y-2.1614
X5.7047Y-2.1969
X5.7087Y-2.0551
X5.7087Y-2.0906
X5.7087Y-2.7657
X5.7087Y-3.2677
X5.7087Y-3.9764
X5.7087Y-4.0748
X5.7126Y-2.8504
X5.7283Y-3.5236
X5.7717Y-3.0354
X5.7874Y-1.8898
X5.7988Y-3.0988
X5.8071Y-1.7913
X5.8071Y-2.126
X5.8071Y-2.3425
X5.8071Y-2.4173
X5.8465Y-3.2677
X5.8591Y-3.0346
X5.8661Y-3.311
X5.8701Y-3.6732
X5.8858Y-3.8976
X5.8898Y-2.5787
X5.8967Y-3.7096
X5.8976Y-2.0945
X5.8976Y-2.1299
X5.8976Y-2.4843
X5.9016Y-2.0551
X5.9016Y-2.1693
X5.9055Y-2.2047
X5.9252Y-3.4843
X5.9291Y-3.5787
X5.9291Y-3.9449
X5.937Y-2.0551
X5.937Y-2.0906
X5.937Y-2.1299
X5.937Y-2.1693
X5.9404Y-3.1148
X5.9409Y-2.2047
X5.9409Y-3.689
X5.9518Y-2.9577
X5.9528Y-3.748
X5.9606Y-2.4528
X5.9685Y-2.1693
X5.9724Y-2.0551
X5.9724Y-2.0945
X5.9724Y-2.1299
X5.9764Y-2.2047
X5.9843Y-3.2677
X6.0039Y-2.6831
X6.0079Y-2.0551
X6.0079Y-2.0945
X6.0079Y-2.1693
X6.0118Y-2.1299
X6.0118Y-2.2047
X6.0197Y-2.752
X6.0275Y-2.5629
X6.0394Y-2.0551
X6.0394Y-2.0906
X6.0418Y-2.8638
X6.0433Y-2.2047
X6.0433Y-3.248
X6.0452Y-3.0395
X6.0472Y-2.1299
X6.0472Y-2.1693
X6.0515Y-3.3704
X6.0551Y-2.4528
X6.0709Y-2.0551
X6.0709Y-2.0906
X6.0827Y-2.2047
X6.0827Y-2.8346
X6.0827Y-3.0315
X6.0827Y-3.3268
X6.0827Y-3.4449
X6.0827Y-3.9213
X6.0866Y-2.1299
X6.0866Y-2.1732
X6.1066Y-3.601
X6.122Y-3.6811
X6.122Y-3.7283
X6.1236Y-4.0094
X6.1283Y-2.8252
X6.1299Y-3.1024
X6.1417Y-1.9094
X6.1417Y-2.8701
X6.1457Y-2.7008
X6.1614Y-4.0827
X6.1791Y-3.2638
X6.1841Y-3.1647
X6.1919Y-3.4646
X6.1937Y-3.4145
X6.1969Y-3.0512
X6.2008Y-4.0138
X6.2107Y-3.1383
X6.2151Y-2.5519
X6.2205Y-4.1535
X6.2225Y-2.0866
X6.2362Y-2.0039
X6.2441Y-2.185
X6.2441Y-4.0748
X6.248Y-3.3504
X6.2509Y-2.5877
X6.2714Y-2.9683
X6.2756Y-3.4055
X6.2795Y-1.8701
X6.2795Y-2.0315
X6.2992Y-2.3622
X6.3031Y-3.0866
X6.3346Y-3.0472
X6.3386Y-2.0276
X6.3386Y-3.7205
X6.3563Y-2.5886
X6.3819Y-4.1339
X6.3976Y-3.4843
X6.4055Y-3.5472
X6.4173Y-2.2441
X6.4213Y-3.3661
X6.4478Y-3.9813
X6.4567Y-2.7756
X6.4764Y-1.7717
X6.4764Y-2.8189
X6.4882Y-2.9094
X6.4921Y-2.5118
X6.5236Y-3.8071
X6.5354Y-2.185
X6.5433Y-3.9803
X6.5551Y-2.9685
X6.5551Y-4.2126
T2
X5.0413Y-4.1102
X5.1161Y-4.1102
X6.4342Y-1.8661
X6.4342Y-2.0571
T3
X6.4764Y-4.0866
X6.4764Y-4.1654
T5
X5.1457Y-3.2205
X5.1457Y-3.3205
X5.1457Y-3.4205
X5.1457Y-3.5205
X5.1457Y-3.6205
X5.1457Y-3.7205
X6.4921Y-3.2205
X6.4921Y-3.3205
X6.4921Y-3.4205
X6.4921Y-3.5205
X6.4921Y-3.6205
X6.4921Y-3.7205
T2
G00X6.5315Y-1.8189
M15
G01X6.5472Y-1.8189
M16
G05
G00X6.5315Y-2.1043
M15
G01X6.5472Y-2.1043
M16
G05
T4
G00X5.5498Y-1.7435
M15
G01X5.4617Y-1.7435
M16
G05
G00X6.1994Y-1.7435
M15
G01X6.1113Y-1.7435
M16
G05
M30
